<svg width="577" height="460" viewBox="0 0 577 460" fill="none" xmlns="http://www.w3.org/2000/svg" xmlns:xlink="http://www.w3.org/1999/xlink">
<path d="M45.6777 203.474C102.421 123.428 251.769 -7.9537 395.211 106.885C574.513 250.434 335.977 517.787 239.388 388.646C162.118 285.334 407.129 181.239 539.293 142.105" stroke="#2D2D32" stroke-width="73.6421" stroke-linecap="round"/>
<path d="M163.775 23.6142C236.067 -9.42035 324.649 -14.6789 409.369 53.1476C428.528 68.4863 443.878 85.2702 455.755 102.999C478.778 94.6611 500.626 87.5377 519.985 81.8056C539.484 76.032 559.972 87.159 565.745 106.658C571.519 126.157 560.392 146.644 540.894 152.418C523.561 157.55 504.349 163.801 484.28 170.997C486.467 181.753 487.702 192.614 488.04 203.494C489.681 256.356 470.201 306.98 441.813 346.509C413.683 385.677 373.969 417.832 330.64 429.79C308.571 435.88 284.74 436.896 261.435 429.687C237.874 422.399 217.314 407.453 201.048 385.706C187.542 367.648 179.745 347.612 179.016 326.259C178.295 305.16 184.572 285.772 194.209 268.838C212.826 236.122 246.403 208.273 282.024 185.351C313.055 165.384 348.831 147.171 384.91 131.299C378.836 124.229 371.691 117.318 363.345 110.636C304.623 63.6236 246.811 66.6362 194.383 90.594C139.672 115.595 92.7787 163.216 66.863 199.774C55.1024 216.364 32.1198 220.279 15.5297 208.519C-1.06027 196.758 -4.97554 173.776 6.78496 157.186C37.6128 113.698 93.7655 55.606 163.775 23.6142ZM414.028 198.941C381.193 213.405 349.117 229.749 321.873 247.28C289.381 268.188 267.933 288.179 258.213 305.26C253.681 313.224 252.461 319.225 252.615 323.746C252.761 328.013 254.21 333.829 260.021 341.599C267.903 352.137 275.926 357.085 283.196 359.334C290.724 361.662 299.974 361.858 311.049 358.801C334.008 352.465 360.832 333.023 381.998 303.552C402.904 274.442 415.476 239.383 414.432 205.779C414.362 203.505 414.226 201.225 414.028 198.941Z" fill="url(#pattern0_441_3212)"/>
<defs>
<pattern id="pattern0_441_3212" patternUnits="userSpaceOnUse" patternTransform="matrix(32.3291 0 0 16.1645 278.973 206.809)" preserveAspectRatio="none" viewBox="0 0 112.8 56.4" width="1" height="1">
<use xlink:href="#pattern0_441_3212_inner" transform="translate(0 -56.4)"/>
<use xlink:href="#pattern0_441_3212_inner" transform="translate(56.4 -28.2)"/>
<g id="pattern0_441_3212_inner">
<circle cx="15" cy="15" r="15" fill="#DDECFF"/>
</g>
<use xlink:href="#pattern0_441_3212_inner" transform="translate(56.4 28.2)"/>
</pattern></defs>
</svg>
