<svg width="647" height="436" viewBox="0 0 647 436" fill="none" xmlns="http://www.w3.org/2000/svg" xmlns:xlink="http://www.w3.org/1999/xlink">
<path d="M569.151 315.837C623.65 265.417 660.201 166.046 370.408 171.92C8.16826 179.263 -22.6711 433.321 118.798 390.243C231.974 355.782 296.818 153.645 315.093 56.8846" stroke="#FFE45A" stroke-width="80.4956" stroke-linecap="round"/>
<path d="M130.423 412.116C86.2536 425.565 38.5019 419.816 13.4077 380.272C-9.48738 344.192 -0.477524 298.741 21.0688 262.705C55.6756 204.828 131.33 150.866 250.561 127.317C262.312 91.7718 270.624 58.3131 275.446 32.7859C279.571 10.9438 300.622 -3.41882 322.464 0.706489C344.306 4.83195 358.668 25.8827 354.542 47.7247C350.855 67.2483 345.398 90.7584 338.132 116.314C348.347 115.694 358.801 115.268 369.494 115.051C443.757 113.546 499.824 118.678 541.204 129.204C581.766 139.522 614.1 156.548 632.277 183.813C651.897 213.242 648.984 245.027 639.082 269.644C629.547 293.348 612.609 313.741 596.384 328.751C580.068 343.847 554.603 342.857 539.508 326.54C524.413 310.224 525.403 284.76 541.719 269.665C552.744 259.465 560.812 248.528 564.402 239.604C567.625 231.591 565.956 229.446 565.301 228.464C563.204 225.318 553.745 215.453 521.361 207.215C489.793 199.186 441.757 194.098 371.125 195.53C349.312 195.972 328.942 197.347 309.946 199.495C303.474 215.756 296.366 232.034 288.61 247.938C255.313 316.218 204.358 389.603 130.423 412.116ZM83.3088 337.737C86.5495 338.504 94.0721 339.04 106.975 335.111C144.683 323.629 181.297 281.704 212.484 220.24C144.157 243.057 106.147 277.271 90.1562 304.015C83.7766 314.685 81.2653 323.4 80.6834 329.332C80.3975 332.246 80.5934 334.274 80.845 335.509C80.9695 336.12 81.1066 336.533 81.2045 336.782C81.2489 336.894 81.2875 336.978 81.3163 337.036C81.5318 337.16 82.1309 337.458 83.3088 337.737Z" fill="url(#pattern0_441_3215)"/>
<defs>
<pattern id="pattern0_441_3215" patternUnits="userSpaceOnUse" patternTransform="matrix(-35.339 0 0 -17.6695 325.904 215.773)" preserveAspectRatio="none" viewBox="0 0 112.8 56.4" width="1" height="1">
<use xlink:href="#pattern0_441_3215_inner" transform="translate(0 -56.4)"/>
<use xlink:href="#pattern0_441_3215_inner" transform="translate(56.4 -28.2)"/>
<g id="pattern0_441_3215_inner">
<circle cx="15" cy="15" r="15" fill="#2D2D32"/>
</g>
<use xlink:href="#pattern0_441_3215_inner" transform="translate(56.4 28.2)"/>
</pattern></defs>
</svg>
