<svg width="66" height="52" viewBox="0 0 66 52" fill="none" xmlns="http://www.w3.org/2000/svg" xmlns:xlink="http://www.w3.org/1999/xlink">
<g clip-path="url(#clip0_258_314)">
<path d="M14.256 29.328C14.256 30.432 14.104 31.416 13.8 32.28C13.496 33.144 13.056 33.872 12.48 34.464C11.904 35.04 11.208 35.48 10.392 35.784C9.576 36.088 8.648 36.24 7.608 36.24C6.648 36.24 5.76 36.088 4.944 35.784C4.144 35.48 3.448 35.04 2.856 34.464C2.28 33.872 1.824 33.144 1.488 32.28C1.168 31.416 1.008 30.432 1.008 29.328C1.008 27.856 1.272 26.616 1.8 25.608C2.344 24.584 3.112 23.808 4.104 23.28C5.096 22.752 6.288 22.488 7.68 22.488C8.96 22.488 10.088 22.752 11.064 23.28C12.056 23.808 12.832 24.584 13.392 25.608C13.968 26.616 14.256 27.856 14.256 29.328ZM5.664 29.328C5.664 30.08 5.728 30.72 5.856 31.248C5.984 31.776 6.192 32.176 6.48 32.448C6.784 32.704 7.176 32.832 7.656 32.832C8.136 32.832 8.512 32.704 8.784 32.448C9.072 32.176 9.28 31.776 9.408 31.248C9.536 30.72 9.6 30.08 9.6 29.328C9.6 28.576 9.536 27.944 9.408 27.432C9.28 26.92 9.072 26.536 8.784 26.28C8.496 26.024 8.112 25.896 7.632 25.896C6.944 25.896 6.44 26.184 6.12 26.76C5.816 27.336 5.664 28.192 5.664 29.328ZM27.4492 22.728V27.504H31.0733V22.728H35.6573V36H31.0733V30.912H27.4492V36H22.8652V22.728H27.4492ZM45.3062 22.488C46.9862 22.488 48.2982 22.904 49.2422 23.736C50.1862 24.568 50.6582 25.752 50.6582 27.288V36H47.4902L46.6022 34.248H46.5062C46.1382 34.712 45.7542 35.096 45.3542 35.4C44.9702 35.688 44.5222 35.896 44.0102 36.024C43.4982 36.168 42.8742 36.24 42.1382 36.24C41.3702 36.24 40.6822 36.088 40.0742 35.784C39.4662 35.464 38.9862 34.992 38.6342 34.368C38.2822 33.728 38.1062 32.92 38.1062 31.944C38.1062 30.52 38.5942 29.464 39.5702 28.776C40.5622 28.088 41.9942 27.704 43.8662 27.624L46.0742 27.552V27.36C46.0742 26.768 45.9302 26.352 45.6422 26.112C45.3542 25.856 44.9622 25.728 44.4662 25.728C43.9382 25.728 43.3542 25.824 42.7142 26.016C42.0742 26.192 41.4262 26.424 40.7702 26.712L39.4502 23.688C40.2182 23.288 41.0822 22.992 42.0422 22.8C43.0182 22.592 44.1062 22.488 45.3062 22.488ZM45.0422 30.12C44.2102 30.152 43.6182 30.304 43.2662 30.576C42.9302 30.832 42.7622 31.2 42.7622 31.68C42.7622 32.128 42.8822 32.464 43.1222 32.688C43.3622 32.896 43.6822 33 44.0822 33C44.6422 33 45.1142 32.824 45.4982 32.472C45.8982 32.12 46.0982 31.664 46.0982 31.104V30.072L45.0422 30.12ZM59.8273 36.24C58.4833 36.24 57.3153 36 56.3233 35.52C55.3313 35.04 54.5633 34.296 54.0193 33.288C53.4753 32.28 53.2033 30.992 53.2033 29.424C53.2033 27.808 53.5073 26.496 54.1153 25.488C54.7233 24.464 55.5473 23.712 56.5873 23.232C57.6433 22.736 58.8433 22.488 60.1873 22.488C61.0033 22.488 61.7713 22.576 62.4913 22.752C63.2273 22.928 63.9073 23.176 64.5313 23.496L63.1873 26.88C62.6433 26.64 62.1313 26.448 61.6513 26.304C61.1873 26.16 60.6993 26.088 60.1873 26.088C59.7233 26.088 59.3153 26.208 58.9633 26.448C58.6113 26.688 58.3393 27.056 58.1473 27.552C57.9553 28.032 57.8593 28.648 57.8593 29.4C57.8593 30.168 57.9553 30.784 58.1473 31.248C58.3553 31.712 58.6353 32.056 58.9873 32.28C59.3393 32.488 59.7473 32.592 60.2113 32.592C60.8673 32.592 61.5233 32.488 62.1793 32.28C62.8513 32.072 63.4833 31.784 64.0753 31.416V35.064C63.5313 35.416 62.9153 35.704 62.2273 35.928C61.5393 36.136 60.7393 36.24 59.8273 36.24Z" fill="#2D2D32"/>
<use xlink:href="#stroke0_258_314" transform="translate(15.456 28.128) scale(0.114286) rotate(90)"/>
<use xlink:href="#stroke0_258_314" transform="translate(15.4685 30.5682) scale(0.114286) rotate(102.823)"/>
<use xlink:href="#stroke0_258_314" transform="translate(14.8904 33.066) scale(0.114286) rotate(121.133)"/>
<use xlink:href="#stroke0_258_314" transform="translate(13.463 35.3281) scale(0.114286) rotate(144.463)"/>
<use xlink:href="#stroke0_258_314" transform="translate(11.3184 36.7998) scale(0.114286) rotate(164.623)"/>
<use xlink:href="#stroke0_258_314" transform="translate(8.91848 37.4282) scale(0.114286) rotate(179.462)"/>
<use xlink:href="#stroke0_258_314" transform="translate(6.41815 37.4529) scale(0.114286) rotate(-165.016)"/>
<use xlink:href="#stroke0_258_314" transform="translate(3.91846 36.7587) scale(0.114286) rotate(-145.303)"/>
<use xlink:href="#stroke0_258_314" transform="translate(1.76851 35.2031) scale(0.114286) rotate(-122.816)"/>
<use xlink:href="#stroke0_258_314" transform="translate(0.401191 33.0312) scale(0.114286) rotate(-104.265)"/>
<use xlink:href="#stroke0_258_314" transform="translate(-0.180277 30.6445) scale(0.114286) rotate(-90.5339)"/>
<use xlink:href="#stroke0_258_314" transform="translate(-0.216909 28.2093) scale(0.114286) rotate(-77.9276)"/>
<use xlink:href="#stroke0_258_314" transform="translate(0.33567 25.6813) scale(0.114286) rotate(-58.5767)"/>
<use xlink:href="#stroke0_258_314" transform="translate(1.75678 23.4374) scale(0.114286) rotate(-36.1213)"/>
<use xlink:href="#stroke0_258_314" transform="translate(3.89674 21.9424) scale(0.114286) rotate(-15.5163)"/>
<use xlink:href="#stroke0_258_314" transform="translate(6.28992 21.3085) scale(0.114286) rotate(-0.907113)"/>
<use xlink:href="#stroke0_258_314" transform="translate(8.79003 21.2628) scale(0.114286) rotate(14.5835)"/>
<use xlink:href="#stroke0_258_314" transform="translate(11.2965 21.9415) scale(0.114286) rotate(34.3988)"/>
<use xlink:href="#stroke0_258_314" transform="translate(13.4472 23.4791) scale(0.114286) rotate(56.4162)"/>
<use xlink:href="#stroke0_258_314" transform="translate(14.8505 25.6389) scale(0.114286) rotate(75.3525)"/>
<use xlink:href="#stroke0_258_314" transform="translate(15.4464 28.0324) scale(0.114286) rotate(89.5576)"/>
<use xlink:href="#stroke0_258_314" transform="translate(6.864 28.128) scale(0.114286) rotate(90)"/>
<use xlink:href="#stroke0_258_314" transform="translate(6.71083 29.9668) scale(0.114286) rotate(72.9417)"/>
<use xlink:href="#stroke0_258_314" transform="translate(6.33516 31.5043) scale(0.114286) rotate(5.81667)"/>
<use xlink:href="#stroke0_258_314" transform="translate(7.57819 32.4417) scale(0.114286) rotate(-63.9649)"/>
<use xlink:href="#stroke0_258_314" transform="translate(8.34716 30.9374) scale(0.114286) rotate(-87.8337)"/>
<use xlink:href="#stroke0_258_314" transform="translate(8.52045 29.0502) scale(0.114286) rotate(-101.64)"/>
<use xlink:href="#stroke0_258_314" transform="translate(9.03767 27.4791) scale(0.114286) rotate(-162.949)"/>
<use xlink:href="#stroke0_258_314" transform="translate(7.96535 26.2991) scale(0.114286) rotate(127.752)"/>
<use xlink:href="#stroke0_258_314" transform="translate(6.97372 27.4512) scale(0.114286) rotate(94.1481)"/>
<use xlink:href="#stroke0_258_314" transform="translate(28.6493 21.528) scale(0.114286) rotate(90)"/>
<use xlink:href="#stroke0_258_314" transform="translate(28.6493 23.688) scale(0.114286) rotate(90)"/>
<use xlink:href="#stroke0_258_314" transform="translate(28.6493 25.848) scale(0.114286) rotate(90)"/>
<use xlink:href="#stroke0_258_314" transform="translate(27.9532 26.304) scale(0.114286)"/>
<use xlink:href="#stroke0_258_314" transform="translate(29.8733 28.464) scale(0.114286) rotate(-90)"/>
<use xlink:href="#stroke0_258_314" transform="translate(29.8733 26.304) scale(0.114286) rotate(-90)"/>
<use xlink:href="#stroke0_258_314" transform="translate(29.8733 24.144) scale(0.114286) rotate(-90)"/>
<use xlink:href="#stroke0_258_314" transform="translate(31.8172 21.528) scale(0.114286)"/>
<use xlink:href="#stroke0_258_314" transform="translate(33.9772 21.528) scale(0.114286)"/>
<use xlink:href="#stroke0_258_314" transform="translate(36.8573 23.208) scale(0.114286) rotate(90)"/>
<use xlink:href="#stroke0_258_314" transform="translate(36.8573 25.368) scale(0.114286) rotate(90)"/>
<use xlink:href="#stroke0_258_314" transform="translate(36.8573 27.528) scale(0.114286) rotate(90)"/>
<use xlink:href="#stroke0_258_314" transform="translate(36.8573 29.688) scale(0.114286) rotate(90)"/>
<use xlink:href="#stroke0_258_314" transform="translate(36.8573 31.848) scale(0.114286) rotate(90)"/>
<use xlink:href="#stroke0_258_314" transform="translate(36.8573 34.008) scale(0.114286) rotate(90)"/>
<use xlink:href="#stroke0_258_314" transform="translate(35.4893 37.2) scale(0.114286) rotate(-180)"/>
<use xlink:href="#stroke0_258_314" transform="translate(33.3293 37.2) scale(0.114286) rotate(-180)"/>
<use xlink:href="#stroke0_258_314" transform="translate(29.8733 36.096) scale(0.114286) rotate(-90)"/>
<use xlink:href="#stroke0_258_314" transform="translate(29.8733 33.936) scale(0.114286) rotate(-90)"/>
<use xlink:href="#stroke0_258_314" transform="translate(31.9373 32.112) scale(0.114286) rotate(-180)"/>
<use xlink:href="#stroke0_258_314" transform="translate(29.7773 32.112) scale(0.114286) rotate(-180)"/>
<use xlink:href="#stroke0_258_314" transform="translate(28.6493 30.744) scale(0.114286) rotate(90)"/>
<use xlink:href="#stroke0_258_314" transform="translate(28.6493 32.904) scale(0.114286) rotate(90)"/>
<use xlink:href="#stroke0_258_314" transform="translate(28.3853 37.2) scale(0.114286) rotate(-180)"/>
<use xlink:href="#stroke0_258_314" transform="translate(26.2253 37.2) scale(0.114286) rotate(-180)"/>
<use xlink:href="#stroke0_258_314" transform="translate(24.0653 37.2) scale(0.114286) rotate(-180)"/>
<use xlink:href="#stroke0_258_314" transform="translate(21.6653 35.04) scale(0.114286) rotate(-90)"/>
<use xlink:href="#stroke0_258_314" transform="translate(21.6653 32.88) scale(0.114286) rotate(-90)"/>
<use xlink:href="#stroke0_258_314" transform="translate(21.6653 30.72) scale(0.114286) rotate(-90)"/>
<use xlink:href="#stroke0_258_314" transform="translate(21.6653 28.56) scale(0.114286) rotate(-90)"/>
<use xlink:href="#stroke0_258_314" transform="translate(21.6653 26.4) scale(0.114286) rotate(-90)"/>
<use xlink:href="#stroke0_258_314" transform="translate(21.6653 24.24) scale(0.114286) rotate(-90)"/>
<use xlink:href="#stroke0_258_314" transform="translate(23.5132 21.528) scale(0.114286)"/>
<use xlink:href="#stroke0_258_314" transform="translate(25.6732 21.528) scale(0.114286)"/>
<use xlink:href="#stroke0_258_314" transform="translate(44.1062 21.288) scale(0.114286)"/>
<use xlink:href="#stroke0_258_314" transform="translate(46.6294 21.276) scale(0.114286) rotate(16.4374)"/>
<use xlink:href="#stroke0_258_314" transform="translate(49.2485 22.1058) scale(0.114286) rotate(42.7616)"/>
<use xlink:href="#stroke0_258_314" transform="translate(51.238 24.1247) scale(0.114286) rotate(73.3111)"/>
<use xlink:href="#stroke0_258_314" transform="translate(51.8582 26.5578) scale(0.114286) rotate(90)"/>
<use xlink:href="#stroke0_258_314" transform="translate(51.8582 28.7178) scale(0.114286) rotate(90)"/>
<use xlink:href="#stroke0_258_314" transform="translate(51.8582 30.8778) scale(0.114286) rotate(90)"/>
<use xlink:href="#stroke0_258_314" transform="translate(51.8582 33.0378) scale(0.114286) rotate(90)"/>
<use xlink:href="#stroke0_258_314" transform="translate(51.4604 37.2) scale(0.114286) rotate(-180)"/>
<use xlink:href="#stroke0_258_314" transform="translate(49.3004 37.2) scale(0.114286) rotate(-180)"/>
<use xlink:href="#stroke0_258_314" transform="translate(46.2617 36.2305) scale(0.114286) rotate(-116.878)"/>
<use xlink:href="#stroke0_258_314" transform="translate(47.02 35.6577) scale(0.114286) rotate(143.405)"/>
<use xlink:href="#stroke0_258_314" transform="translate(44.6986 37.18) scale(0.114286) rotate(171.842)"/>
<use xlink:href="#stroke0_258_314" transform="translate(42.1472 37.5558) scale(0.114286) rotate(-169.375)"/>
<use xlink:href="#stroke0_258_314" transform="translate(39.3109 36.909) scale(0.114286) rotate(-136.013)"/>
<use xlink:href="#stroke0_258_314" transform="translate(37.3556 34.7879) scale(0.114286) rotate(-103.077)"/>
<use xlink:href="#stroke0_258_314" transform="translate(36.802 32.2245) scale(0.114286) rotate(-82.1257)"/>
<use xlink:href="#stroke0_258_314" transform="translate(37.3247 29.3329) scale(0.114286) rotate(-47.532)"/>
<use xlink:href="#stroke0_258_314" transform="translate(39.3122 27.4081) scale(0.114286) rotate(-19.4418)"/>
<use xlink:href="#stroke0_258_314" transform="translate(41.6308 26.6246) scale(0.114286) rotate(-6.07065)"/>
<use xlink:href="#stroke0_258_314" transform="translate(43.8695 26.4233) scale(0.114286) rotate(-1.86769)"/>
<use xlink:href="#stroke0_258_314" transform="translate(45.4145 28.0249) scale(0.114286) rotate(-119.393)"/>
<use xlink:href="#stroke0_258_314" transform="translate(45.2596 26.8195) scale(0.114286) rotate(173.709)"/>
<use xlink:href="#stroke0_258_314" transform="translate(43.3744 27.024) scale(0.114286) rotate(160.72)"/>
<use xlink:href="#stroke0_258_314" transform="translate(39.7489 27.372) scale(0.114286) rotate(-113.582)"/>
<use xlink:href="#stroke0_258_314" transform="translate(38.8848 25.3924) scale(0.114286) rotate(-113.582)"/>
<use xlink:href="#stroke0_258_314" transform="translate(39.8666 22.116) scale(0.114286) rotate(-14.9999)"/>
<use xlink:href="#stroke0_258_314" transform="translate(42.1416 21.5098) scale(0.114286) rotate(-5.94549)"/>
<use xlink:href="#stroke0_258_314" transform="translate(44.1062 21.288) scale(0.114286)"/>
<use xlink:href="#stroke0_258_314" transform="translate(46.2874 31.273) scale(0.114286) rotate(177.797)"/>
<use xlink:href="#stroke0_258_314" transform="translate(44.7391 30.6142) scale(0.114286) rotate(129.287)"/>
<use xlink:href="#stroke0_258_314" transform="translate(42.9352 31.0716) scale(0.114286) rotate(36.0986)"/>
<use xlink:href="#stroke0_258_314" transform="translate(43.5811 32.3303) scale(0.114286) rotate(-33.4109)"/>
<use xlink:href="#stroke0_258_314" transform="translate(44.8982 32.0107) scale(0.114286) rotate(-90)"/>
<use xlink:href="#stroke0_258_314" transform="translate(46.2954 31.2643) scale(0.114286) rotate(177.397)"/>
<use xlink:href="#stroke0_258_314" transform="translate(61.0273 37.44) scale(0.114286) rotate(-180)"/>
<use xlink:href="#stroke0_258_314" transform="translate(58.5702 37.4506) scale(0.114286) rotate(-166.424)"/>
<use xlink:href="#stroke0_258_314" transform="translate(56.0388 36.8314) scale(0.114286) rotate(-146.341)"/>
<use xlink:href="#stroke0_258_314" transform="translate(53.8388 35.2801) scale(0.114286) rotate(-122.158)"/>
<use xlink:href="#stroke0_258_314" transform="translate(52.5063 33.0586) scale(0.114286) rotate(-102.389)"/>
<use xlink:href="#stroke0_258_314" transform="translate(52.0088 30.6895) scale(0.114286) rotate(-90.2558)"/>
<use xlink:href="#stroke0_258_314" transform="translate(51.9804 28.2571) scale(0.114286) rotate(-77.8055)"/>
<use xlink:href="#stroke0_258_314" transform="translate(52.5492 25.7184) scale(0.114286) rotate(-57.7897)"/>
<use xlink:href="#stroke0_258_314" transform="translate(53.9892 23.4992) scale(0.114286) rotate(-35.8315)"/>
<use xlink:href="#stroke0_258_314" transform="translate(56.1114 22.0388) scale(0.114286) rotate(-16.6811)"/>
<use xlink:href="#stroke0_258_314" transform="translate(58.481 21.3507) scale(0.114286) rotate(-2.4781)"/>
<use xlink:href="#stroke0_258_314" transform="translate(60.903 21.2416) scale(0.114286) rotate(9.68581)"/>
<use xlink:href="#stroke0_258_314" transform="translate(63.3135 21.6557) scale(0.114286) rotate(22.8237)"/>
<use xlink:href="#stroke0_258_314" transform="translate(65.5273 24.2392) scale(0.114286) rotate(111.661)"/>
<use xlink:href="#stroke0_258_314" transform="translate(63.7663 28.4438) scale(0.114286) rotate(-156.336)"/>
<use xlink:href="#stroke0_258_314" transform="translate(62.0702 27.5677) scale(0.114286) rotate(-169.567)"/>
<use xlink:href="#stroke0_258_314" transform="translate(60.6715 26.7788) scale(0.114286) rotate(147.396)"/>
<use xlink:href="#stroke0_258_314" transform="translate(59.3565 27.2707) scale(0.114286) rotate(100.607)"/>
<use xlink:href="#stroke0_258_314" transform="translate(58.9393 29.022) scale(0.114286) rotate(81.7996)"/>
<use xlink:href="#stroke0_258_314" transform="translate(58.6243 30.5589) scale(0.114286) rotate(35.1643)"/>
<use xlink:href="#stroke0_258_314" transform="translate(59.6605 31.503) scale(0.114286) rotate(-7.26513)"/>
<use xlink:href="#stroke0_258_314" transform="translate(61.4889 31.3337) scale(0.114286) rotate(-23.8327)"/>
<use xlink:href="#stroke0_258_314" transform="translate(65.2753 31.2396) scale(0.114286) rotate(90)"/>
<use xlink:href="#stroke0_258_314" transform="translate(65.2753 33.3996) scale(0.114286) rotate(90)"/>
<use xlink:href="#stroke0_258_314" transform="translate(64.099 36.5244) scale(0.114286) rotate(159.771)"/>
<use xlink:href="#stroke0_258_314" transform="translate(61.7116 37.3537) scale(0.114286) rotate(176.777)"/>
</g>
<defs>
<clipPath id="clip0_258_314">
<rect width="65.6" height="52" fill="white"/>
</clipPath>
<g id="stroke0_258_314" data-figma-scatter-ref="stroke0_258_314_ref" data-figma-scatter="f0.9_w0_aj0_sj0_r0_s14870582052140013607_sw2.4">
<path d="M10.5 0C16.299 0 21 4.70101 21 10.5C21 16.299 16.299 21 10.5 21C4.70101 21 0 16.299 0 10.5C0 4.70101 4.70101 0 10.5 0Z" fill="#DDECFF"/>
</g>
<path id="stroke0_258_314_ref" d="M14.256 29.328C14.256 30.432 14.104 31.416 13.8 32.28C13.496 33.144 13.056 33.872 12.48 34.464C11.904 35.04 11.208 35.48 10.392 35.784C9.576 36.088 8.648 36.24 7.608 36.24C6.648 36.24 5.76 36.088 4.944 35.784C4.144 35.48 3.448 35.04 2.856 34.464C2.28 33.872 1.824 33.144 1.488 32.28C1.168 31.416 1.008 30.432 1.008 29.328C1.008 27.856 1.272 26.616 1.8 25.608C2.344 24.584 3.112 23.808 4.104 23.28C5.096 22.752 6.288 22.488 7.68 22.488C8.96 22.488 10.088 22.752 11.064 23.28C12.056 23.808 12.832 24.584 13.392 25.608C13.968 26.616 14.256 27.856 14.256 29.328ZM5.664 29.328C5.664 30.08 5.728 30.72 5.856 31.248C5.984 31.776 6.192 32.176 6.48 32.448C6.784 32.704 7.176 32.832 7.656 32.832C8.136 32.832 8.512 32.704 8.784 32.448C9.072 32.176 9.28 31.776 9.408 31.248C9.536 30.72 9.6 30.08 9.6 29.328C9.6 28.576 9.536 27.944 9.408 27.432C9.28 26.92 9.072 26.536 8.784 26.28C8.496 26.024 8.112 25.896 7.632 25.896C6.944 25.896 6.44 26.184 6.12 26.76C5.816 27.336 5.664 28.192 5.664 29.328ZM27.4492 22.728V27.504H31.0733V22.728H35.6573V36H31.0733V30.912H27.4492V36H22.8652V22.728H27.4492ZM45.3062 22.488C46.9862 22.488 48.2982 22.904 49.2422 23.736C50.1862 24.568 50.6582 25.752 50.6582 27.288V36H47.4902L46.6022 34.248H46.5062C46.1382 34.712 45.7542 35.096 45.3542 35.4C44.9702 35.688 44.5222 35.896 44.0102 36.024C43.4982 36.168 42.8742 36.24 42.1382 36.24C41.3702 36.24 40.6822 36.088 40.0742 35.784C39.4662 35.464 38.9862 34.992 38.6342 34.368C38.2822 33.728 38.1062 32.92 38.1062 31.944C38.1062 30.52 38.5942 29.464 39.5702 28.776C40.5622 28.088 41.9942 27.704 43.8662 27.624L46.0742 27.552V27.36C46.0742 26.768 45.9302 26.352 45.6422 26.112C45.3542 25.856 44.9622 25.728 44.4662 25.728C43.9382 25.728 43.3542 25.824 42.7142 26.016C42.0742 26.192 41.4262 26.424 40.7702 26.712L39.4502 23.688C40.2182 23.288 41.0822 22.992 42.0422 22.8C43.0182 22.592 44.1062 22.488 45.3062 22.488ZM45.0422 30.12C44.2102 30.152 43.6182 30.304 43.2662 30.576C42.9302 30.832 42.7622 31.2 42.7622 31.68C42.7622 32.128 42.8822 32.464 43.1222 32.688C43.3622 32.896 43.6822 33 44.0822 33C44.6422 33 45.1142 32.824 45.4982 32.472C45.8982 32.12 46.0982 31.664 46.0982 31.104V30.072L45.0422 30.12ZM59.8273 36.24C58.4833 36.24 57.3153 36 56.3233 35.52C55.3313 35.04 54.5633 34.296 54.0193 33.288C53.4753 32.28 53.2033 30.992 53.2033 29.424C53.2033 27.808 53.5073 26.496 54.1153 25.488C54.7233 24.464 55.5473 23.712 56.5873 23.232C57.6433 22.736 58.8433 22.488 60.1873 22.488C61.0033 22.488 61.7713 22.576 62.4913 22.752C63.2273 22.928 63.9073 23.176 64.5313 23.496L63.1873 26.88C62.6433 26.64 62.1313 26.448 61.6513 26.304C61.1873 26.16 60.6993 26.088 60.1873 26.088C59.7233 26.088 59.3153 26.208 58.9633 26.448C58.6113 26.688 58.3393 27.056 58.1473 27.552C57.9553 28.032 57.8593 28.648 57.8593 29.4C57.8593 30.168 57.9553 30.784 58.1473 31.248C58.3553 31.712 58.6353 32.056 58.9873 32.28C59.3393 32.488 59.7473 32.592 60.2113 32.592C60.8673 32.592 61.5233 32.488 62.1793 32.28C62.8513 32.072 63.4833 31.784 64.0753 31.416V35.064C63.5313 35.416 62.9153 35.704 62.2273 35.928C61.5393 36.136 60.7393 36.24 59.8273 36.24Z"/>
</defs>
</svg>
