<svg width="1176" height="387" viewBox="0 0 1176 387" fill="none" xmlns="http://www.w3.org/2000/svg">
<rect width="1175.08" height="386.917" rx="17.9128" fill="#FFE45A"/>
<g clip-path="url(#clip0_440_3191)">
<rect x="25.0781" y="13.4346" width="1124.03" height="359.153" rx="17.9128" fill="#FFE45A"/>
<mask id="path-4-outside-1_440_3191" maskUnits="userSpaceOnUse" x="26.1562" y="-38.9722" width="1122" height="464" fill="black">
<rect fill="white" x="26.1562" y="-38.9722" width="1122" height="464"/>
<path d="M385.607 216.791V302.13H334.619V381.028H243.376V302.13L63.5743 302.666V216.791L199.902 5.32272H334.619V216.791H385.607ZM159.647 216.254H243.376V90.1247H239.082L159.647 216.254ZM587.087 -1.65467C691.211 -1.65467 753.471 76.17 753.471 193.175C753.471 310.181 691.211 388.005 587.087 388.005C482.963 388.005 420.704 310.181 420.704 193.175C420.704 76.17 482.963 -1.65467 587.087 -1.65467ZM587.087 301.056C640.223 301.056 661.155 262.412 661.155 193.175C661.155 123.938 640.223 85.2943 587.087 85.2943C533.952 85.2943 513.02 123.938 513.02 193.175C513.02 262.412 533.952 301.056 587.087 301.056ZM1110.5 216.791V302.13H1059.51V381.028H968.265V302.13L788.463 302.666V216.791L924.79 5.32272H1059.51V216.791H1110.5ZM884.536 216.254H968.265V90.1247H963.971L884.536 216.254Z"/>
</mask>
<path d="M385.607 216.791V302.13H334.619V381.028H243.376V302.13L63.5743 302.666V216.791L199.902 5.32272H334.619V216.791H385.607ZM159.647 216.254H243.376V90.1247H239.082L159.647 216.254ZM587.087 -1.65467C691.211 -1.65467 753.471 76.17 753.471 193.175C753.471 310.181 691.211 388.005 587.087 388.005C482.963 388.005 420.704 310.181 420.704 193.175C420.704 76.17 482.963 -1.65467 587.087 -1.65467ZM587.087 301.056C640.223 301.056 661.155 262.412 661.155 193.175C661.155 123.938 640.223 85.2943 587.087 85.2943C533.952 85.2943 513.02 123.938 513.02 193.175C513.02 262.412 533.952 301.056 587.087 301.056ZM1110.5 216.791V302.13H1059.51V381.028H968.265V302.13L788.463 302.666V216.791L924.79 5.32272H1059.51V216.791H1110.5ZM884.536 216.254H968.265V90.1247H963.971L884.536 216.254Z" fill="#DDECFF"/>
<path d="M385.607 216.791H422.329V180.07H385.607V216.791ZM385.607 302.13V338.851H422.329V302.13H385.607ZM334.619 302.13V265.408H297.897V302.13H334.619ZM334.619 381.028V417.749H371.34V381.028H334.619ZM243.376 381.028H206.655V417.749H243.376V381.028ZM243.376 302.13H280.097V265.299L243.266 265.409L243.376 302.13ZM63.5743 302.666H26.853V339.498L63.6839 339.388L63.5743 302.666ZM63.5743 216.791L32.7106 196.894L26.853 205.98V216.791H63.5743ZM199.902 5.32272V-31.3986H179.884L169.038 -14.5742L199.902 5.32272ZM334.619 5.32272H371.34V-31.3986H334.619V5.32272ZM334.619 216.791H297.897V253.512H334.619V216.791ZM159.647 216.254L128.575 196.685L93.1239 252.976H159.647V216.254ZM243.376 216.254V252.976H280.097V216.254H243.376ZM243.376 90.1247H280.097V53.4034H243.376V90.1247ZM239.082 90.1247V53.4034H218.812L208.01 70.5556L239.082 90.1247ZM385.607 216.791H348.886V302.13H385.607H422.329V216.791H385.607ZM385.607 302.13V265.408H334.619V302.13V338.851H385.607V302.13ZM334.619 302.13H297.897V381.028H334.619H371.34V302.13H334.619ZM334.619 381.028V344.307H243.376V381.028V417.749H334.619V381.028ZM243.376 381.028H280.097V302.13H243.376H206.655V381.028H243.376ZM243.376 302.13L243.266 265.409L63.4647 265.945L63.5743 302.666L63.6839 339.388L243.486 338.851L243.376 302.13ZM63.5743 302.666H100.296V216.791H63.5743H26.853V302.666H63.5743ZM63.5743 216.791L94.438 236.688L230.765 25.2196L199.902 5.32272L169.038 -14.5742L32.7106 196.894L63.5743 216.791ZM199.902 5.32272V42.044H334.619V5.32272V-31.3986H199.902V5.32272ZM334.619 5.32272H297.897V216.791H334.619H371.34V5.32272H334.619ZM334.619 216.791V253.512H385.607V216.791V180.07H334.619V216.791ZM159.647 216.254V252.976H243.376V216.254V179.533H159.647V216.254ZM243.376 216.254H280.097V90.1247H243.376H206.655V216.254H243.376ZM243.376 90.1247V53.4034H239.082V90.1247V126.846H243.376V90.1247ZM239.082 90.1247L208.01 70.5556L128.575 196.685L159.647 216.254L190.72 235.823L270.155 109.694L239.082 90.1247ZM587.087 -1.65466V35.0667C629.246 35.0667 660.176 50.4219 681.188 75.4788C702.828 101.284 716.75 140.847 716.75 193.175H753.471H790.193C790.193 128.498 772.984 70.6465 737.463 28.2878C701.315 -14.8189 649.053 -38.376 587.087 -38.376V-1.65466ZM753.471 193.175H716.75C716.75 245.503 702.828 285.067 681.188 310.872C660.176 335.929 629.246 351.284 587.087 351.284V388.005V424.727C649.053 424.727 701.315 401.169 737.463 358.063C772.984 315.704 790.193 257.852 790.193 193.175H753.471ZM587.087 388.005V351.284C544.929 351.284 513.999 335.929 492.986 310.872C471.347 285.067 457.425 245.503 457.425 193.175H420.704H383.982C383.982 257.852 401.191 315.704 436.712 358.063C472.86 401.169 525.122 424.727 587.087 424.727V388.005ZM420.704 193.175H457.425C457.425 140.847 471.347 101.284 492.986 75.4788C513.999 50.4219 544.929 35.0667 587.087 35.0667V-1.65466V-38.376C525.122 -38.376 472.86 -14.8189 436.712 28.2878C401.191 70.6465 383.982 128.498 383.982 193.175H420.704ZM587.087 301.056V337.778C624.074 337.778 655.182 323.407 674.859 293.057C692.541 265.784 697.876 230.152 697.876 193.175H661.155H624.434C624.434 225.436 619.303 243.744 613.235 253.103C609.163 259.384 603.236 264.335 587.087 264.335V301.056ZM661.155 193.175H697.876C697.876 156.199 692.541 120.567 674.859 93.2939C655.182 62.9438 624.074 48.5729 587.087 48.5729V85.2943V122.016C603.236 122.016 609.163 126.967 613.235 133.248C619.303 142.606 624.434 160.915 624.434 193.175H661.155ZM587.087 85.2943V48.5729C550.101 48.5729 518.993 62.9438 499.316 93.2939C481.634 120.567 476.299 156.199 476.299 193.175H513.02H549.741C549.741 160.915 554.872 142.606 560.94 133.248C565.012 126.967 570.939 122.016 587.087 122.016V85.2943ZM513.02 193.175H476.299C476.299 230.152 481.634 265.784 499.316 293.057C518.993 323.407 550.101 337.778 587.087 337.778V301.056V264.335C570.939 264.335 565.012 259.384 560.94 253.103C554.872 243.744 549.741 225.436 549.741 193.175H513.02ZM1110.5 216.791H1147.22V180.07H1110.5V216.791ZM1110.5 302.13V338.851H1147.22V302.13H1110.5ZM1059.51 302.13V265.408H1022.79V302.13H1059.51ZM1059.51 381.028V417.749H1096.23V381.028H1059.51ZM968.265 381.028H931.543V417.749H968.265V381.028ZM968.265 302.13H1004.99V265.299L968.155 265.409L968.265 302.13ZM788.463 302.666H751.742V339.498L788.572 339.388L788.463 302.666ZM788.463 216.791L757.599 196.894L751.742 205.98V216.791H788.463ZM924.79 5.32272V-31.3986H904.773L893.926 -14.5742L924.79 5.32272ZM1059.51 5.32272H1096.23V-31.3986H1059.51V5.32272ZM1059.51 216.791H1022.79V253.512H1059.51V216.791ZM884.536 216.254L853.463 196.685L818.012 252.976H884.536V216.254ZM968.265 216.254V252.976H1004.99V216.254H968.265ZM968.265 90.1247H1004.99V53.4034H968.265V90.1247ZM963.971 90.1247V53.4034H943.7L932.898 70.5556L963.971 90.1247ZM1110.5 216.791H1073.77V302.13H1110.5H1147.22V216.791H1110.5ZM1110.5 302.13V265.408H1059.51V302.13V338.851H1110.5V302.13ZM1059.51 302.13H1022.79V381.028H1059.51H1096.23V302.13H1059.51ZM1059.51 381.028V344.307H968.265V381.028V417.749H1059.51V381.028ZM968.265 381.028H1004.99V302.13H968.265H931.543V381.028H968.265ZM968.265 302.13L968.155 265.409L788.353 265.945L788.463 302.666L788.572 339.388L968.374 338.851L968.265 302.13ZM788.463 302.666H825.184V216.791H788.463H751.742V302.666H788.463ZM788.463 216.791L819.327 236.688L955.654 25.2196L924.79 5.32272L893.926 -14.5742L757.599 196.894L788.463 216.791ZM924.79 5.32272V42.044H1059.51V5.32272V-31.3986H924.79V5.32272ZM1059.51 5.32272H1022.79V216.791H1059.51H1096.23V5.32272H1059.51ZM1059.51 216.791V253.512H1110.5V216.791V180.07H1059.51V216.791ZM884.536 216.254V252.976H968.265V216.254V179.533H884.536V216.254ZM968.265 216.254H1004.99V90.1247H968.265H931.543V216.254H968.265ZM968.265 90.1247V53.4034H963.971V90.1247V126.846H968.265V90.1247ZM963.971 90.1247L932.898 70.5556L853.463 196.685L884.536 216.254L915.609 235.823L995.043 109.694L963.971 90.1247Z" fill="#2D2D32" mask="url(#path-4-outside-1_440_3191)"/>
</g>
<rect x="27.3172" y="15.6737" width="1119.55" height="354.674" rx="15.6737" stroke="#2D2D32" stroke-width="4.47821"/>
<defs>
<clipPath id="clip0_440_3191">
<rect x="25.0781" y="13.4346" width="1124.03" height="359.153" rx="17.9128" fill="white"/>
</clipPath>
</defs>
</svg>
