<svg width="430" height="151" viewBox="0 0 430 151" fill="none" xmlns="http://www.w3.org/2000/svg">
<path d="M313.307 49.7441C323.83 49.7441 331.723 52.7843 336.985 58.8646C342.247 64.8279 344.878 73.3637 344.878 84.472V144.456H309.974V88.6814C309.974 84.7058 308.981 81.5487 306.993 79.2102C305.122 76.7547 302.433 75.5269 298.925 75.5269C294.832 75.5269 291.5 76.9301 288.927 79.7363C286.355 82.5426 285.069 85.992 285.069 90.0845V144.456H250.165V88.6814C250.165 84.7058 249.171 81.5487 247.184 79.2102C245.313 76.7547 242.623 75.5269 239.116 75.5269C235.023 75.5269 231.691 76.9301 229.118 79.7363C226.546 82.5426 225.26 85.992 225.26 90.0845V144.456H190.356V51.8489H218.945L221.226 65.7049C224.733 60.7939 229.352 56.9353 235.082 54.129C240.928 51.2057 247.067 49.7441 253.498 49.7441C267.412 49.7441 276.767 55.0644 281.561 65.7049C285.186 60.7939 289.804 56.9353 295.417 54.129C301.146 51.2057 307.11 49.7441 313.307 49.7441Z" fill="#2D2D32"/>
<path d="M251.742 44.0145C253.873 43.9362 255.746 45.1766 256.576 47.005C257.661 45.454 259.57 44.5706 261.565 44.889C263.734 45.2354 265.363 46.901 265.767 48.9366C267.239 47.6921 269.357 47.3393 271.219 48.2078C273.139 49.1033 274.24 51.0413 274.162 53.0333C276.081 52.0891 278.466 52.4242 280.049 54.0312C281.639 55.6446 281.934 58.0475 280.947 59.9555C281.25 59.9512 281.551 59.9746 281.848 60.0234C281.804 58.5624 282.385 57.0932 283.564 56.0481C285.021 54.7576 287.01 54.4512 288.717 55.0802C288.327 52.9691 289.306 50.7569 291.293 49.6735C293.168 48.6514 295.401 48.9284 296.96 50.1986C297.227 48.2908 298.567 46.6165 300.532 46.0202C302.604 45.3912 304.766 46.1458 306.028 47.7525C306.736 45.9852 308.409 44.6872 310.435 44.5552C311.058 44.5146 311.662 44.5877 312.227 44.7564C312.575 44.6813 312.936 44.6411 313.307 44.6411C315.23 44.6411 316.904 45.7062 317.774 47.2778C318.847 45.4513 320.996 44.4181 323.188 44.8629C325.555 45.3432 327.202 47.39 327.273 49.704C328.781 48.7659 330.736 48.642 332.408 49.5508C334.13 50.4865 335.096 52.2697 335.074 54.1016C337.12 53.0132 339.718 53.4305 341.308 55.2508C342.861 57.028 342.961 59.5769 341.706 61.448C343.54 61.5895 345.236 62.7206 346.009 64.5294C346.751 66.2627 346.457 68.1777 345.406 69.5879C347.622 69.8174 349.506 71.4886 349.905 73.7912C350.278 75.9375 349.25 78.0013 347.482 79.0509C349.043 79.9056 350.112 81.5527 350.138 83.4591C350.162 85.2524 349.257 86.8406 347.87 87.7695C349.516 88.6164 350.642 90.3301 350.642 92.3079C350.642 94.2302 349.578 95.9027 348.008 96.7728C349.434 97.6774 350.383 99.2699 350.383 101.084C350.383 102.969 349.359 104.614 347.839 105.498C349.311 106.393 350.295 108.012 350.295 109.862C350.295 111.884 349.118 113.631 347.411 114.457C348.729 115.379 349.59 116.908 349.59 118.638C349.59 120.398 348.699 121.95 347.343 122.868C348.997 123.711 350.131 125.43 350.131 127.415C350.131 129.168 349.246 130.714 347.9 131.632C349.567 132.472 350.711 134.197 350.711 136.191C350.711 138.44 349.256 140.347 347.236 141.027C348.584 141.945 349.469 143.492 349.469 145.246C349.469 148.064 347.184 150.348 344.366 150.348C342.32 150.348 340.556 149.144 339.742 147.406C338.817 148.702 337.302 149.547 335.589 149.547C333.743 149.547 332.127 148.567 331.231 147.099C330.348 148.624 328.701 149.651 326.812 149.651C324.913 149.651 323.256 148.611 322.378 147.071C321.479 148.525 319.871 149.495 318.036 149.495C316.08 149.495 314.382 148.394 313.526 146.778C312.596 148.031 311.106 148.844 309.426 148.844C306.608 148.844 304.324 146.559 304.324 143.741C304.324 141.803 305.404 140.116 306.996 139.252C305.59 138.343 304.657 136.763 304.657 134.964C304.658 133.058 305.704 131.396 307.252 130.52C305.807 129.619 304.844 128.016 304.844 126.188C304.844 124.295 305.875 122.644 307.406 121.763C305.943 120.866 304.968 119.253 304.968 117.411C304.968 115.406 306.124 113.672 307.806 112.838C306.47 111.918 305.594 110.379 305.594 108.634C305.594 106.933 306.428 105.427 307.708 104.5C305.947 103.695 304.723 101.919 304.723 99.8573C304.724 98.0236 305.691 96.4158 307.143 95.5164C305.602 94.6384 304.562 92.9816 304.562 91.0808C304.562 89.3397 305.434 87.8027 306.765 86.8819C305.71 86.336 304.84 85.4225 304.368 84.2315C304.047 83.4213 303.948 82.5782 304.041 81.7692C303.064 82.0104 302.007 81.9667 300.996 81.5792C299.853 81.1408 298.958 80.3356 298.394 79.3493C297.787 80.1096 296.956 80.7055 295.959 81.023C294.604 81.4544 293.202 81.2897 292.036 80.676C292.104 81.7669 291.826 82.8877 291.163 83.8615C290.394 84.9913 289.252 85.714 288.014 85.9793C289.027 86.933 289.648 88.2947 289.618 89.7951C289.585 91.4724 288.746 92.9442 287.479 93.8495C289.229 94.6584 290.443 96.4282 290.443 98.4826C290.443 100.296 289.496 101.887 288.07 102.792C289.642 103.662 290.706 105.336 290.706 107.259C290.706 109.434 289.345 111.289 287.429 112.024C288.617 112.958 289.38 114.408 289.38 116.036C289.38 117.629 288.65 119.051 287.506 119.987C289.511 120.675 290.952 122.575 290.952 124.813C290.952 127.004 289.571 128.872 287.631 129.595C288.807 130.53 289.562 131.971 289.562 133.589C289.562 135.489 288.523 137.144 286.984 138.022C288.439 138.921 289.408 140.53 289.408 142.366C289.408 145.184 287.124 147.469 284.306 147.469C283.785 147.469 283.284 147.39 282.811 147.246C281.931 148.781 280.278 149.816 278.382 149.816C276.409 149.816 274.698 148.695 273.849 147.056C272.934 148.425 271.375 149.327 269.605 149.327C267.815 149.327 266.241 148.403 265.33 147.008C264.471 148.614 262.778 149.707 260.829 149.707C258.804 149.707 257.055 148.528 256.231 146.819C255.308 148.135 253.781 148.996 252.052 148.996C249.234 148.996 246.949 146.711 246.949 143.893C246.949 143.148 247.11 142.439 247.397 141.801C246.037 140.884 245.143 139.33 245.143 137.567C245.143 135.79 246.051 134.225 247.428 133.312C245.8 132.459 244.689 130.754 244.689 128.789C244.689 126.715 245.928 124.93 247.706 124.133C246.437 123.204 245.613 121.705 245.613 120.013C245.613 118.232 246.525 116.665 247.908 115.752C246.286 114.898 245.18 113.197 245.18 111.236C245.18 109.289 246.271 107.597 247.874 106.737C246.477 105.827 245.553 104.252 245.552 102.46C245.552 100.675 246.469 99.105 247.857 98.193C246.241 97.3364 245.141 95.6383 245.141 93.6826C245.141 91.7826 246.18 90.1259 247.72 89.2476C246.495 88.5353 245.571 87.3205 245.277 85.8211C245.08 84.8198 245.191 83.8297 245.544 82.9477C244.344 83.0245 243.113 82.681 242.089 81.885C241.13 81.1398 240.511 80.1204 240.254 79.0235C239.539 79.5933 238.662 79.9786 237.688 80.0961C236.567 80.2312 235.488 79.9917 234.575 79.4769C234.573 80.7586 234.093 82.0407 233.127 83.0305C232.089 84.0948 230.699 84.6076 229.321 84.5666C229.851 85.5396 230.071 86.6906 229.869 87.8673C229.589 89.4989 228.562 90.8147 227.2 91.5268C228.664 92.4237 229.641 94.038 229.641 95.8808C229.641 97.6024 228.788 99.1232 227.482 100.047C229.204 100.867 230.394 102.623 230.394 104.657C230.394 106.654 229.247 108.382 227.576 109.22C228.919 110.139 229.801 111.684 229.801 113.434C229.801 115.237 228.865 116.82 227.454 117.728C229.041 118.593 230.117 120.276 230.117 122.211C230.117 124.118 229.071 125.778 227.522 126.654C228.968 127.555 229.93 129.159 229.93 130.988C229.93 132.867 228.913 134.507 227.401 135.393C228.881 136.286 229.871 137.909 229.871 139.764C229.871 142.066 228.346 144.01 226.252 144.646C226.269 144.813 226.278 144.983 226.278 145.154C226.278 147.972 223.993 150.257 221.175 150.257C219.319 150.257 217.695 149.266 216.802 147.784C215.916 149.295 214.276 150.311 212.398 150.311C210.492 150.311 208.831 149.265 207.955 147.717C207.054 149.163 205.451 150.127 203.621 150.127C201.73 150.127 200.081 149.097 199.199 147.569C198.303 149.034 196.688 150.011 194.845 150.011C192.139 150.011 189.926 147.905 189.754 145.242C187.19 144.971 185.193 142.804 185.192 140.168C185.192 138.187 186.322 136.47 187.972 135.625C186.613 134.708 185.719 133.154 185.719 131.391C185.719 129.516 186.731 127.877 188.239 126.99C186.755 126.098 185.762 124.473 185.762 122.615C185.762 120.917 186.591 119.414 187.867 118.486C186.099 117.684 184.869 115.906 184.869 113.838C184.869 111.859 185.996 110.144 187.643 109.298C186.281 108.382 185.386 106.826 185.386 105.062C185.386 103.369 186.21 101.87 187.478 100.942C185.699 100.144 184.46 98.3596 184.46 96.2844C184.46 94.3246 185.565 92.6232 187.186 91.7685C185.804 90.8556 184.891 89.2887 184.891 87.5079C184.891 85.7297 185.801 84.1645 187.18 83.251C185.554 82.3977 184.445 80.6947 184.445 78.7313C184.445 76.6674 185.671 74.8908 187.434 74.0871C186.155 73.1598 185.323 71.6549 185.323 69.9548C185.323 67.9488 186.481 66.2135 188.164 65.3797C186.831 64.4592 185.956 62.9213 185.956 61.1783C185.956 59.5273 186.74 58.0596 187.956 57.127C186.093 56.367 184.778 54.538 184.778 52.4011C184.778 49.5831 187.063 47.2985 189.881 47.2984C191.51 47.2984 192.959 48.0624 193.894 49.2505C194.676 47.4371 196.48 46.1678 198.581 46.1678C200.403 46.1679 202.002 47.1237 202.904 48.561C203.778 47.0032 205.444 45.9498 207.357 45.9498C209.432 45.9499 211.216 47.1892 212.014 48.9671C212.942 47.6984 214.441 46.8742 216.134 46.8742C218.952 46.8742 221.237 49.1588 221.237 51.9769C221.237 52.2955 221.206 52.607 221.15 52.9094C222.464 53.3199 223.576 54.2522 224.2 55.5031C224.342 55.3556 224.494 55.2139 224.657 55.0814C226.128 53.8857 228.064 53.6459 229.715 54.2822C229.359 52.1318 230.417 49.9104 232.469 48.8849C234.446 47.897 236.757 48.3125 238.27 49.7532C238.68 47.9533 240.054 46.4386 241.965 45.943C243.894 45.4425 245.85 46.1157 247.082 47.517C247.73 45.5481 249.549 44.0952 251.742 44.0145ZM179.998 144.456V144.654C179.998 144.669 180.003 144.682 180.012 144.692C180.021 144.702 180.034 144.707 180.049 144.707C180.061 144.707 180.071 144.703 180.078 144.694C180.085 144.685 180.088 144.674 180.088 144.659V144.456H180.216V144.654C180.216 144.669 180.22 144.682 180.229 144.692C180.239 144.702 180.251 144.707 180.266 144.707C180.279 144.707 180.288 144.703 180.295 144.694C180.302 144.685 180.306 144.674 180.306 144.659V144.456H180.433V144.674C180.433 144.715 180.423 144.746 180.404 144.768C180.385 144.79 180.356 144.801 180.318 144.801C180.296 144.801 180.274 144.795 180.253 144.785C180.233 144.774 180.216 144.761 180.202 144.743C180.185 144.781 180.151 144.801 180.101 144.801C180.078 144.801 180.055 144.795 180.034 144.785C180.013 144.774 179.996 144.761 179.983 144.743L179.975 144.793H179.871V144.456H179.998ZM256.113 52.0342C255.227 53.3006 253.78 54.1519 252.117 54.2131C250.521 54.2718 249.069 53.5903 248.092 52.4765C247.567 54.0681 246.271 55.3691 244.528 55.8214C242.757 56.281 240.962 55.7509 239.727 54.5762C239.4 56.0156 238.455 57.3026 237.032 58.014C235.694 58.6829 234.202 58.708 232.908 58.2077C233.196 59.9555 232.566 61.8042 231.093 63.0015C229.782 64.0674 228.101 64.3735 226.582 63.9769C226.905 65.3837 226.634 66.9173 225.705 68.1659C224.022 70.4267 220.825 70.896 218.564 69.2136C216.39 67.5954 215.874 64.5767 217.335 62.3368C215.931 61.6273 214.873 60.2811 214.598 58.6101C214.499 58.0094 214.51 57.4157 214.615 56.8498C213.212 56.4131 212.071 55.3867 211.477 54.0617C210.549 55.3305 209.05 56.1552 207.357 56.1553C205.535 56.1553 203.936 55.1992 203.033 53.7615C202.16 55.3195 200.494 56.3732 198.581 56.3733C196.952 56.3733 195.502 55.6091 194.568 54.4205C194.22 55.2265 193.671 55.9244 192.983 56.4518C194.847 57.2115 196.162 59.0411 196.162 61.1783C196.161 63.1842 195.003 64.9185 193.319 65.7522C194.654 66.6726 195.529 68.2113 195.529 69.9548C195.529 72.0189 194.302 73.7949 192.539 74.5985C193.818 75.5257 194.65 77.0309 194.65 78.7313C194.65 80.5096 193.74 82.0741 192.361 82.9876C193.987 83.8407 195.096 85.5443 195.096 87.5079C195.096 89.468 193.991 91.1692 192.369 92.0238C193.752 92.9366 194.665 94.5035 194.665 96.2844C194.665 97.9764 193.841 99.4752 192.573 100.404C194.352 101.201 195.591 102.986 195.591 105.062C195.591 107.041 194.463 108.755 192.816 109.601C194.178 110.518 195.074 112.073 195.074 113.838C195.074 115.536 194.244 117.038 192.969 117.966C194.737 118.768 195.967 120.547 195.967 122.615C195.967 124.49 194.954 126.129 193.446 127.015C194.931 127.908 195.924 129.533 195.924 131.391C195.924 133.373 194.794 135.089 193.144 135.934C194.417 136.792 195.28 138.209 195.385 139.834C197.047 140.009 198.47 140.983 199.267 142.363C200.163 140.899 201.778 139.922 203.621 139.922C205.527 139.922 207.188 140.967 208.064 142.515C208.965 141.069 210.569 140.105 212.398 140.105C214.254 140.106 215.878 141.096 216.771 142.577C217.413 141.482 218.452 140.648 219.69 140.272C219.674 140.105 219.665 139.935 219.665 139.764C219.665 137.885 220.681 136.244 222.193 135.358C220.714 134.465 219.725 132.842 219.725 130.988C219.725 129.081 220.771 127.42 222.32 126.544C220.874 125.643 219.912 124.04 219.912 122.211C219.912 120.408 220.847 118.825 222.259 117.917C220.672 117.052 219.595 115.369 219.595 113.434C219.595 111.438 220.743 109.709 222.414 108.871C221.071 107.952 220.189 106.408 220.189 104.657C220.189 102.936 221.043 101.414 222.349 100.49C220.627 99.6705 219.436 97.9149 219.436 95.8808C219.436 93.9146 220.548 92.2088 222.178 91.3567C220.448 90.2983 219.446 88.2604 219.81 86.14C220.246 83.6019 222.487 81.827 224.99 81.9037C223.949 79.9896 224.221 77.5453 225.822 75.904C227.472 74.2127 230.009 73.912 231.975 75.0189C231.978 72.4756 233.878 70.2764 236.466 69.9641C239.075 69.6497 241.459 71.3623 242.044 73.8628C243.844 72.4287 246.454 72.353 248.352 73.8279C250.188 75.2555 250.78 77.6881 249.959 79.7454C252.48 79.5819 254.79 81.3085 255.29 83.8528C255.724 86.0617 254.662 88.2161 252.807 89.2713C254.325 90.1554 255.346 91.7993 255.346 93.6826C255.346 95.4673 254.429 97.0368 253.042 97.9488C254.657 98.8052 255.758 100.504 255.758 102.46C255.758 104.407 254.667 106.098 253.063 106.958C254.461 107.869 255.385 109.444 255.385 111.236C255.385 113.017 254.473 114.583 253.09 115.496C254.712 116.351 255.818 118.052 255.818 120.013C255.818 122.088 254.579 123.871 252.801 124.669C254.07 125.597 254.895 127.097 254.895 128.789C254.895 130.566 253.986 132.13 252.609 133.044C254.237 133.896 255.348 135.601 255.348 137.567C255.348 138.312 255.186 139.019 254.899 139.658C255.647 140.161 256.255 140.858 256.65 141.677C257.573 140.362 259.1 139.501 260.829 139.501C262.619 139.501 264.193 140.424 265.104 141.82C265.963 140.214 267.657 139.121 269.605 139.121C271.578 139.121 273.288 140.242 274.138 141.88C275.053 140.512 276.612 139.61 278.382 139.61C278.902 139.61 279.404 139.689 279.876 139.833C280.33 139.042 280.988 138.384 281.78 137.932C280.326 137.033 279.356 135.425 279.356 133.589C279.356 131.398 280.737 129.53 282.676 128.807C281.501 127.872 280.746 126.431 280.746 124.813C280.746 123.22 281.477 121.798 282.62 120.862C280.616 120.174 279.175 118.274 279.175 116.036C279.175 113.862 280.535 112.006 282.451 111.271C281.264 110.337 280.5 108.887 280.5 107.259C280.501 105.445 281.447 103.854 282.873 102.949C281.302 102.079 280.238 100.405 280.238 98.4826C280.238 96.7692 281.083 95.2539 282.378 94.3285C280.595 93.5045 279.374 91.6842 279.415 89.5946C279.463 87.1794 281.181 85.1903 283.445 84.7061C281.648 83.0171 281.294 80.2255 282.725 78.1215C284.201 75.9532 287.051 75.2803 289.317 76.4746C289.175 74.1948 290.588 72.023 292.863 71.2984C295.197 70.5551 297.671 71.5803 298.839 73.6249C300.189 71.9376 302.523 71.2353 304.649 72.0502C306.871 72.9019 308.154 75.1379 307.893 77.3971C310.333 76.794 312.903 78.0708 313.855 80.4723C314.748 82.7249 313.924 85.231 312.011 86.5499C313.648 87.3994 314.768 89.1088 314.768 91.0808C314.768 92.9148 313.799 94.5217 312.346 95.4211C313.888 96.2989 314.929 97.9561 314.929 99.8573C314.929 101.559 314.095 103.065 312.815 103.992C314.576 104.797 315.8 106.572 315.8 108.634C315.8 110.639 314.643 112.372 312.961 113.207C314.297 114.127 315.173 115.666 315.173 117.411C315.173 119.304 314.141 120.954 312.61 121.835C314.073 122.732 315.05 124.346 315.05 126.188C315.05 128.094 314.003 129.755 312.454 130.631C313.9 131.531 314.863 133.135 314.863 134.964C314.863 136.903 313.782 138.589 312.189 139.453C312.922 139.926 313.526 140.58 313.936 141.354C314.866 140.101 316.356 139.289 318.036 139.289C319.935 139.289 321.591 140.329 322.47 141.868C323.369 140.414 324.977 139.445 326.812 139.445C328.658 139.445 330.274 140.425 331.17 141.893C332.053 140.368 333.701 139.342 335.589 139.342C337.634 139.342 339.398 140.545 340.212 142.283C340.83 141.418 341.71 140.755 342.737 140.409C341.39 139.491 340.505 137.945 340.505 136.191C340.505 134.438 341.389 132.892 342.736 131.973C341.069 131.133 339.926 129.408 339.926 127.415C339.926 125.654 340.816 124.102 342.172 123.185C340.518 122.341 339.385 120.622 339.385 118.638C339.385 116.615 340.562 114.867 342.268 114.042C340.951 113.119 340.089 111.592 340.089 109.862C340.089 107.976 341.112 106.331 342.633 105.447C341.161 104.552 340.177 102.933 340.177 101.084C340.177 99.1623 341.24 97.489 342.81 96.6189C341.384 95.7141 340.436 94.1221 340.436 92.3079C340.436 90.5399 341.335 88.9816 342.701 88.066C341.079 87.2299 339.96 85.5498 339.933 83.598C339.907 81.7063 340.915 80.0419 342.432 79.14C341.115 78.4195 340.127 77.1285 339.85 75.5347C339.601 74.0964 339.981 72.6953 340.79 71.6111C339.01 71.4243 337.38 70.3056 336.626 68.5427C335.921 66.8946 336.152 65.082 337.079 63.6954C335.792 63.5975 334.54 63.0152 333.624 61.9662C332.762 60.9796 332.348 59.7549 332.364 58.5403C330.904 59.3141 329.096 59.3663 327.535 58.5179C325.884 57.6206 324.927 55.9441 324.871 54.1925C323.804 54.8584 322.49 55.1346 321.159 54.8646C319.632 54.5548 318.405 53.592 317.706 52.327C316.82 53.8343 315.182 54.8466 313.307 54.8466C312.8 54.8466 312.31 54.7713 311.848 54.6335C311.605 54.686 311.355 54.7221 311.099 54.7388C309.353 54.8525 307.756 54.0742 306.751 52.7948C306.195 54.1837 305.039 55.3177 303.496 55.7859C301.808 56.298 300.061 55.8931 298.789 54.8578C298.573 56.403 297.653 57.8295 296.178 58.6338C294.831 59.368 293.299 59.4307 291.965 58.9377C292.279 60.6385 291.721 62.4569 290.332 63.6873C289.137 64.7457 287.584 65.1412 286.123 64.9025C286.181 66.8551 285.112 68.7524 283.239 69.6552C280.7 70.8787 277.65 69.8124 276.427 67.2739C275.702 65.771 275.78 64.0886 276.491 62.7124C275.147 62.7325 273.797 62.2265 272.779 61.1932C271.749 60.147 271.262 58.7686 271.317 57.4085C269.977 58.0671 268.364 58.1364 266.906 57.4565C265.373 56.7414 264.362 55.3619 264.057 53.8207C262.961 54.7474 261.484 55.2108 259.956 54.9668C258.2 54.6863 256.797 53.5405 256.113 52.0342Z" fill="#FFE45A"/>
<path d="M212.214 5.10254C214.904 5.10254 217.301 5.45332 219.406 6.15489C221.51 6.73954 222.563 7.09032 222.563 7.20725V36.4979H211.337C204.088 36.4979 198.826 38.3687 195.552 42.1105C192.395 45.8522 190.816 51.4063 190.816 58.7728V99.9902H155.913V7.38265H184.502L186.782 21.4141C188.887 16.0354 192.22 12.0013 196.78 9.31197C201.34 6.50568 206.485 5.10254 212.214 5.10254Z" fill="#2D2D32"/>
<path d="M212.215 0C214.267 0.000114883 216.035 1.21227 216.845 2.95936C218.07 1.20667 220.32 0.348731 222.482 0.99102C225.183 1.79372 226.723 4.63442 225.92 7.33579C225.642 8.27237 225.118 9.0686 224.44 9.67662C225.987 10.5532 227.031 12.213 227.031 14.1178C227.031 15.7708 226.244 17.2391 225.026 18.1716C226.885 18.9334 228.196 20.7604 228.196 22.8944C228.196 24.9691 226.957 26.7528 225.179 27.5505C226.448 28.4787 227.274 29.978 227.274 31.6709C227.274 33.9701 225.753 35.9133 223.662 36.5513C223.697 36.7903 223.716 37.0346 223.716 37.2832C223.716 40.1012 221.431 42.3857 218.613 42.3859C216.618 42.3859 214.891 41.2405 214.052 39.5717C213.17 40.8578 211.713 41.7256 210.035 41.7892C208.61 41.843 207.3 41.307 206.339 40.4001C205.879 41.7683 204.847 42.9344 203.403 43.5139C202.246 43.9777 201.021 43.9876 199.923 43.6292C199.948 44.6422 199.674 45.673 199.07 46.5804C198.293 47.7469 197.119 48.4894 195.846 48.75C196.631 49.8365 196.99 51.2275 196.731 52.6499C196.407 54.429 195.196 55.8219 193.638 56.4595C194.792 57.395 195.529 58.8228 195.529 60.4236C195.529 62.184 194.637 63.7358 193.281 64.653C194.936 65.4968 196.069 67.216 196.069 69.2007C196.069 70.9539 195.184 72.4992 193.838 73.4177C195.505 74.2571 196.65 75.9831 196.65 77.9773C196.65 79.832 195.66 81.4548 194.18 82.3481C195.692 83.2336 196.708 84.8746 196.708 86.7538C196.708 88.7996 195.504 90.5627 193.766 91.3763C195.062 92.3017 195.907 93.8168 195.907 95.5304C195.907 98.0856 194.029 100.202 191.578 100.575C191.33 103.161 189.151 105.185 186.499 105.185C184.599 105.184 182.943 104.145 182.065 102.605C181.166 104.059 179.558 105.029 177.723 105.029C175.975 105.029 174.434 104.151 173.514 102.811C172.678 104.488 170.947 105.641 168.946 105.641C167.007 105.641 165.321 104.56 164.458 102.968C163.549 104.375 161.969 105.307 160.17 105.307C157.453 105.307 155.233 103.184 155.076 100.507C152.643 100.119 150.783 98.0125 150.783 95.4699C150.783 93.5775 151.814 91.9265 153.344 91.0455C151.882 90.1483 150.906 88.5343 150.906 86.6928C150.906 84.6883 152.062 82.9539 153.744 82.1195C152.409 81.1992 151.533 79.6603 151.533 77.9162C151.533 76.2148 152.367 74.7086 153.647 73.7815C151.886 72.9768 150.662 71.2018 150.662 69.1397C150.662 67.3058 151.63 65.6982 153.082 64.7988C151.541 63.9208 150.501 62.264 150.501 60.3632C150.501 58.3818 151.63 56.6651 153.28 55.8198C151.921 54.9031 151.028 53.3493 151.027 51.5866C151.027 49.8807 151.865 48.3709 153.151 47.4444C151.399 46.6364 150.182 44.8657 150.182 42.8095C150.182 40.798 151.346 39.0585 153.037 38.2275C151.709 37.3062 150.838 35.7717 150.838 34.0329C150.838 32.0002 152.027 30.2452 153.747 29.4248C152.44 28.5008 151.586 26.9788 151.586 25.2564C151.586 23.4342 152.541 21.8356 153.978 20.9329C152.42 20.0595 151.366 18.3931 151.366 16.4798C151.366 14.7711 152.206 13.2587 153.496 12.3326C151.75 11.5222 150.539 9.7543 150.539 7.70268C150.539 4.88467 152.823 2.60004 155.641 2.59995C157.327 2.59995 158.822 3.41812 159.751 4.67854C160.567 2.94559 162.328 1.74535 164.37 1.74534C166.544 1.74534 168.4 3.10641 169.134 5.02237C170.069 3.83457 171.518 3.07091 173.146 3.07085C174.739 3.07085 176.162 3.80099 177.097 4.94451C177.786 2.94026 179.686 1.4993 181.924 1.4993C184.742 1.49947 187.026 3.78397 187.026 6.60203C187.026 7.37675 186.852 8.11075 186.544 8.76844C187.062 8.94585 187.545 9.20579 187.978 9.53398C189.548 7.98236 191.896 7.64977 193.8 8.57908C193.73 6.65326 194.758 4.76975 196.589 3.84013C198.426 2.90786 200.561 3.1941 202.075 4.39637C202.466 2.34538 204.101 0.662557 206.282 0.313314C207.405 0.133527 208.501 0.335231 209.438 0.822217C210.237 0.302727 211.19 0 212.215 0ZM145.555 99.9903V100.14C145.555 100.167 145.561 100.187 145.572 100.201C145.584 100.214 145.603 100.221 145.63 100.221H145.671V100.328C145.67 100.328 145.666 100.33 145.659 100.332C145.651 100.334 145.642 100.335 145.633 100.335C145.612 100.335 145.593 100.33 145.577 100.32C145.56 100.31 145.548 100.296 145.54 100.276L145.532 100.327H145.428V99.9903H145.555ZM216.559 8.34238C215.66 9.79799 214.051 10.7684 212.215 10.7685C211.167 10.7685 210.193 10.452 209.382 9.9102C208.926 10.1398 208.427 10.3053 207.896 10.3905C206.421 10.6265 204.993 10.2052 203.91 9.34337C203.624 10.8417 202.674 12.1967 201.209 12.9406C199.726 13.6935 198.048 13.6521 196.66 12.9755C196.709 14.2843 196.258 15.6117 195.295 16.6455C194.412 17.5919 193.254 18.1258 192.06 18.2426C192.94 19.6101 193.153 21.3734 192.475 22.9853C191.382 25.5829 188.39 26.8027 185.792 25.7098C183.195 24.6169 181.975 21.625 183.068 19.0275C183.151 18.8302 183.246 18.6416 183.35 18.4606C181.577 17.8958 180.177 16.379 179.858 14.4162C179.687 13.3614 179.852 12.3298 180.275 11.4307C179.364 11.1198 178.569 10.56 177.972 9.83047C177.284 11.835 175.384 13.2763 173.146 13.2763C170.972 13.2762 169.116 11.9155 168.381 9.99928C167.447 11.187 165.998 11.9508 164.37 11.9508C162.684 11.9508 161.189 11.1328 160.26 9.87221C159.887 10.6641 159.317 11.3437 158.613 11.8493C160.36 12.6595 161.572 14.4277 161.572 16.4798C161.572 18.3022 160.615 19.9001 159.178 20.8027C160.737 21.676 161.791 23.3425 161.791 25.2564C161.791 27.2893 160.602 29.0436 158.882 29.8639C160.189 30.7879 161.044 32.3101 161.044 34.0329C161.044 36.0446 159.879 37.7833 158.188 38.6143C159.516 39.5354 160.387 41.0703 160.387 42.8095C160.387 44.5152 159.549 46.0246 158.264 46.9511C160.016 47.759 161.233 49.5304 161.233 51.5866C161.233 53.568 160.102 55.2842 158.452 56.1294C159.812 57.046 160.706 58.6001 160.706 60.3632C160.706 62.1971 159.738 63.8041 158.285 64.7035C159.827 65.5813 160.868 67.2385 160.868 69.1397C160.868 70.8412 160.034 72.3467 158.754 73.2738C160.515 74.0784 161.739 75.8539 161.739 77.9162C161.739 79.9212 160.582 81.6546 158.9 82.4889C160.235 83.409 161.111 84.9482 161.111 86.6928C161.111 88.5855 160.08 90.2363 158.55 91.1172C159.931 91.9647 160.877 93.4514 160.978 95.166C162.57 95.4195 163.917 96.4087 164.658 97.7746C165.566 96.3678 167.147 95.4357 168.946 95.4357C170.693 95.4357 172.235 96.3143 173.154 97.6532C173.991 95.9762 175.722 94.8234 177.723 94.8234C179.622 94.8234 181.278 95.8625 182.156 97.4022C182.927 96.1564 184.218 95.2665 185.726 95.037C185.902 93.204 187.047 91.6547 188.643 90.9073C187.348 89.9818 186.503 88.467 186.503 86.7538C186.503 84.8992 187.492 83.2751 188.972 82.3818C187.46 81.4961 186.445 79.8559 186.444 77.9773C186.444 76.2244 187.328 74.6777 188.674 73.7591C187.008 72.9194 185.864 71.1941 185.864 69.2007C185.864 67.4403 186.756 65.8879 188.112 64.9707C186.458 64.1268 185.324 62.4081 185.324 60.4236C185.324 58.2887 186.635 56.4608 188.496 55.6996C187.098 54.5633 186.345 52.7203 186.691 50.8223C187.075 48.7125 188.705 47.1446 190.684 46.7374C189.475 45.0614 189.363 42.7452 190.575 40.924C191.873 38.9755 194.278 38.208 196.4 38.8989C196.352 36.8321 197.571 34.8573 199.603 34.0423C201.508 33.278 203.601 33.7452 205.004 35.0657C205.659 33.1127 207.468 31.673 209.649 31.5906C211.711 31.5127 213.532 32.6704 214.402 34.401C215.048 33.4583 216.003 32.7435 217.121 32.4022C217.086 32.1634 217.068 31.9192 217.068 31.6709C217.068 29.5967 218.307 27.8126 220.084 27.0148C218.815 26.0865 217.99 24.587 217.99 22.8944C217.99 21.2414 218.777 19.7725 219.995 18.84C218.136 18.078 216.826 16.2515 216.826 14.1178C216.826 12.6116 217.479 11.2578 218.517 10.3238C217.678 9.85038 217.007 9.15761 216.559 8.34238Z" fill="#FFE45A"/>
<path d="M105.167 43.6992C122.122 43.6992 135.042 47.6748 143.929 55.6259C152.933 63.5771 157.434 75.7377 157.434 92.1077V98.0711H87.9786C87.9786 104.736 89.4402 109.764 92.3634 113.155C95.4036 116.546 100.139 118.241 106.57 118.241C112.417 118.241 116.685 117.014 119.374 114.558C122.18 112.103 123.583 108.828 123.583 104.736H157.434C157.434 115.961 153.166 124.731 144.631 131.045C136.095 137.359 123.642 140.516 107.272 140.516C90.0833 140.516 76.7535 136.541 67.2822 128.589C57.811 120.521 53.0754 108.361 53.0754 92.1077C53.0754 76.2054 57.6941 64.1617 66.9315 55.9767C76.1688 47.7917 88.9141 43.6992 105.167 43.6992ZM106.57 65.9741C95.579 65.9741 89.4402 71.1775 88.154 81.5841H122.18C122.18 76.79 120.777 72.9898 117.971 70.1836C115.281 67.3773 111.481 65.9741 106.57 65.9741Z" fill="#2D2D32"/>
<path d="M109.49 40.9893C110.426 39.2259 112.356 38.1046 114.469 38.2997C116.738 38.5093 118.521 40.1742 118.984 42.2874C120.164 41.1836 121.847 40.6567 123.547 41.0223C125.292 41.3979 126.634 42.625 127.233 44.1742C128.588 42.492 130.922 41.7963 133.045 42.6157C135.139 43.424 136.393 45.4625 136.305 47.587C137.864 46.7855 139.794 46.808 141.38 47.8156C142.955 48.8165 143.794 50.5374 143.743 52.2767C145.699 51.1803 148.219 51.4727 149.87 53.1457C151.457 54.7545 151.755 57.1501 150.777 59.0569C152.649 58.9236 154.525 59.8317 155.541 61.5591C156.552 63.2781 156.441 65.3461 155.429 66.9153C157.488 67.002 159.375 68.3395 160.06 70.4122C160.721 72.4119 160.076 74.5287 158.592 75.8401C160.359 76.4185 161.745 77.9437 162.05 79.9063C162.36 81.8987 161.472 83.8003 159.922 84.8801C161.581 85.6803 162.749 87.3529 162.809 89.3213C162.866 91.1662 161.935 92.812 160.495 93.7526C161.623 94.6886 162.342 96.1009 162.342 97.6812C162.342 99.5043 161.385 101.103 159.947 102.005C160.695 102.893 161.147 104.039 161.147 105.292C161.147 106.364 160.815 107.358 160.251 108.179C161.659 109.329 162.405 111.197 162.035 113.106C161.635 115.165 160.05 116.691 158.125 117.117C159.556 118.649 159.946 120.973 158.929 122.943C157.819 125.091 155.395 126.116 153.147 125.547C153.602 127.231 153.181 129.106 151.875 130.445C150.604 131.747 148.809 132.223 147.152 131.87C147.919 134.089 147.068 136.619 144.98 137.889C142.945 139.128 140.387 138.773 138.76 137.18C138.379 138.81 137.206 140.221 135.512 140.828C133.625 141.504 131.603 141 130.25 139.699C129.705 141.413 128.269 142.786 126.38 143.16C124.647 143.504 122.945 142.925 121.781 141.764C121.22 143.743 119.488 145.267 117.317 145.457C115.275 145.636 113.41 144.586 112.449 142.92C111.561 144.387 109.956 145.371 108.115 145.383C106.251 145.395 104.613 144.406 103.713 142.919C102.757 144.564 100.916 145.606 98.8933 145.444C96.7897 145.277 95.086 143.855 94.4571 141.972C93.2991 143.215 91.548 143.852 89.7574 143.508C87.9149 143.153 86.497 141.848 85.9117 140.199C84.5807 141.64 82.4771 142.243 80.5031 141.564C78.6713 140.935 77.4288 139.366 77.1283 137.582C75.5603 138.837 73.328 139.097 71.4624 138.063C69.5014 136.975 68.5385 134.787 68.9148 132.696C67.2505 133.257 65.3417 132.944 63.9242 131.705C62.4458 130.412 61.8931 128.456 62.3209 126.67C60.3535 127.129 58.2167 126.388 56.9846 124.633C55.7631 122.893 55.78 120.655 56.8519 118.965C55.0269 118.788 53.359 117.631 52.6175 115.816C51.8857 114.024 52.2463 112.058 53.3892 110.657C51.4651 110.251 49.8671 108.746 49.4432 106.697C49.0239 104.67 49.8707 102.676 51.4427 101.534C49.8557 100.752 48.7192 99.1677 48.5998 97.2757C48.4867 95.4825 49.3145 93.8482 50.6579 92.8525C48.7789 92.0231 47.5115 90.1002 47.6213 87.9267C47.7334 85.7078 49.2469 83.8927 51.2615 83.293C50.0602 82.1364 49.448 80.4155 49.7846 78.6556C50.1358 76.8193 51.431 75.4035 53.0709 74.8123C51.5577 73.4362 50.9618 71.2223 51.7423 69.1995C52.5331 67.1502 54.5022 65.9031 56.5772 65.933C55.7853 64.3504 55.8387 62.3997 56.8887 60.8203C58.0112 59.1318 59.9658 58.3279 61.8481 58.591C61.3101 56.7896 61.7912 54.7584 63.2608 53.3911C64.6391 52.1089 66.5371 51.7362 68.2178 52.2443C67.8404 50.2126 68.7284 48.0695 70.6028 46.9404C72.4438 45.8316 74.7034 46.0221 76.3179 47.245C76.6081 45.5009 77.7966 43.956 79.5725 43.2953C81.3756 42.6245 83.3165 43.0386 84.6796 44.209C85.1292 42.3438 86.6159 40.8112 88.62 40.4019C90.5855 40.0005 92.5166 40.7884 93.6704 42.2712C94.4164 40.6414 96.0005 39.4538 97.9141 39.3038C99.1968 39.2033 100.405 39.5872 101.361 40.3004C102.296 39.2548 103.654 38.5962 105.167 38.5962C106.989 38.5962 108.587 39.5524 109.49 40.9893ZM46.9809 138.404C47.0405 138.404 47.0863 138.415 47.1174 138.438C47.1483 138.461 47.1634 138.493 47.1634 138.534H47.0407C47.0407 138.519 47.0354 138.507 47.0252 138.498C47.0154 138.489 46.9996 138.485 46.9784 138.485C46.9552 138.485 46.9378 138.491 46.9267 138.503C46.9161 138.515 46.9112 138.534 46.9112 138.558H47.1634V138.58C47.1634 138.639 47.147 138.683 47.1142 138.712C47.0819 138.741 47.0351 138.756 46.9735 138.756C46.9144 138.756 46.8681 138.741 46.8346 138.711C46.801 138.681 46.7841 138.637 46.7841 138.58C46.7841 138.521 46.8014 138.476 46.8358 138.447C46.8702 138.418 46.9186 138.404 46.9809 138.404ZM46.9118 138.618C46.9165 138.656 46.9386 138.675 46.9784 138.675C46.9963 138.675 47.0104 138.67 47.0202 138.659C47.0303 138.649 47.0351 138.635 47.0351 138.618H46.9118ZM109.814 46.2982C109.012 48.0647 107.234 49.2937 105.167 49.2937C103.901 49.2937 102.743 48.8316 101.851 48.0679C101.029 48.8596 99.938 49.3819 98.7114 49.4781C96.9347 49.6174 95.3 48.8287 94.2821 47.5197C93.6273 48.9512 92.3228 50.062 90.6624 50.4012C89.0543 50.7297 87.4689 50.2616 86.3134 49.2688C85.929 50.8638 84.7844 52.2453 83.1311 52.8604C81.4332 53.4921 79.6136 53.1607 78.2688 52.1428C78.0331 53.5654 77.2008 54.8803 75.8688 55.6827C74.5803 56.4588 73.0863 56.5979 71.7521 56.1929C72.0595 57.8523 71.5394 59.6286 70.2123 60.8633C69.0412 61.9527 67.4947 62.3854 66.0252 62.1795C66.4453 63.5827 66.2617 65.1554 65.3874 66.4706C64.3908 67.9696 62.7386 68.7696 61.0633 68.7466C61.6858 69.9873 61.8029 71.4762 61.2638 72.8733C60.7089 74.3114 59.5727 75.3524 58.2279 75.8364C59.4981 76.9923 60.155 78.7623 59.8088 80.5728C59.4384 82.5093 58.0181 83.9774 56.2508 84.5045C57.2796 85.4932 57.8913 86.9049 57.8136 88.4418C57.7334 90.0284 56.9366 91.4091 55.7525 92.2863C57.4379 93.0318 58.6606 94.6664 58.7847 96.6328C58.8989 98.4428 58.0539 100.09 56.6881 101.083C58.0529 101.754 59.1055 103.025 59.4375 104.63C59.7616 106.196 59.3287 107.743 58.3898 108.893C59.9901 109.23 61.4005 110.329 62.0655 111.957C62.715 113.548 62.5015 115.275 61.6463 116.623C63.0789 116.76 64.445 117.498 65.3369 118.769C66.2132 120.016 66.4509 121.521 66.1205 122.895C67.6655 122.535 69.3553 122.898 70.6408 124.021C72.0392 125.244 72.6089 127.06 72.3046 128.765C73.6171 128.322 75.1045 128.413 76.4113 129.137C77.8258 129.921 78.72 131.279 78.9683 132.759C80.2879 131.702 82.1034 131.323 83.8206 131.913C85.3513 132.439 86.4692 133.621 86.9712 135.037C88.129 133.784 89.8883 133.14 91.6865 133.486C93.562 133.847 94.9976 135.193 95.5627 136.884C96.5882 135.782 98.0881 135.142 99.705 135.271C101.407 135.407 102.846 136.365 103.667 137.722C104.545 136.211 106.175 135.191 108.049 135.179C109.952 135.166 111.616 136.197 112.504 137.735C113.317 136.39 114.739 135.438 116.425 135.29C117.988 135.153 119.448 135.736 120.478 136.764C120.985 134.98 122.45 133.536 124.395 133.15C126.095 132.812 127.766 133.364 128.927 134.481C129.393 133.017 130.511 131.779 132.069 131.221C133.968 130.54 136.005 131.054 137.357 132.374C137.657 131.085 138.455 129.913 139.675 129.171C140.835 128.464 142.166 128.278 143.398 128.542C142.792 126.778 143.178 124.745 144.57 123.318C145.886 121.97 147.766 121.506 149.47 121.934C149.148 120.746 149.253 119.438 149.863 118.258C150.587 116.857 151.869 115.932 153.298 115.617C152.222 114.463 151.693 112.829 152.017 111.161C152.154 110.451 152.433 109.805 152.818 109.245C152.388 108.893 152.017 108.473 151.721 108.001C150.847 109.56 149.181 110.614 147.268 110.614C145.235 110.614 143.48 109.425 142.66 107.704C141.736 109.011 140.214 109.866 138.491 109.866C136.479 109.866 134.74 108.702 133.909 107.01C132.988 108.339 131.454 109.21 129.715 109.21C129.267 109.21 128.832 109.151 128.418 109.043C127.717 111.122 125.746 112.525 123.553 112.508C124.447 114.526 123.954 116.97 122.184 118.468C120.393 119.984 117.861 120.051 116.012 118.789C115.607 120.879 113.913 122.573 111.687 122.874C109.732 123.138 107.888 122.258 106.826 120.748C105.921 122.779 103.753 124.051 101.443 123.72C99.0282 123.374 97.2533 121.39 97.0788 119.054C95.3062 120.319 92.8477 120.348 91.0237 118.96C89.0823 117.482 88.4977 114.884 89.4833 112.758C87.303 112.812 85.2495 111.453 84.5201 109.278C83.8242 107.201 84.5385 104.992 86.1452 103.69C84.3891 102.914 83.1456 101.177 83.1012 99.1312C83.0401 96.3138 85.2749 93.98 88.0924 93.9189C89.5475 93.8874 90.8724 94.4692 91.8229 95.4263C92.7581 94.2622 94.1931 93.5165 95.8025 93.5165C97.5496 93.5166 99.0911 94.3951 100.011 95.734C100.847 94.057 102.578 92.9042 104.579 92.9042C106.478 92.9042 108.134 93.9429 109.013 95.4823C109.912 94.0284 111.521 93.0593 113.356 93.0593C115.201 93.0593 116.817 94.0396 117.713 95.5073C118.596 93.9825 120.244 92.956 122.132 92.9559C124.178 92.9559 125.942 94.1601 126.755 95.8978C127.681 94.6026 129.196 93.7576 130.909 93.7576C132.764 93.7577 134.387 94.747 135.281 96.2267C136.166 94.7148 137.807 93.699 139.686 93.699C141.439 93.699 142.985 94.5827 143.903 95.929C144.743 94.2623 146.469 93.1185 148.462 93.1185C150.223 93.1185 151.775 94.01 152.692 95.3659C153.099 94.5684 153.709 93.8922 154.454 93.4056C153.366 92.5035 152.656 91.1576 152.609 89.634C152.554 87.8439 153.429 86.2416 154.796 85.2887C153.336 84.5845 152.234 83.198 151.966 81.4748C151.689 79.69 152.373 77.9784 153.632 76.8647C152.145 76.378 150.899 75.2161 150.37 73.6157C149.866 72.0903 150.121 70.4967 150.93 69.2443C149.259 69.1727 147.657 68.2833 146.746 66.7347C145.826 65.1718 145.834 63.3198 146.604 61.8169C145.167 61.9199 143.695 61.4187 142.604 60.3127C141.584 59.2787 141.096 57.9196 141.137 56.5741C139.553 57.4597 137.546 57.4711 135.907 56.4296C134.314 55.4176 133.474 53.6693 133.545 51.9105C132.295 52.5547 130.786 52.6829 129.37 52.1366C127.972 51.5967 126.947 50.5081 126.446 49.2115C125.275 50.6634 123.348 51.4185 121.4 50.9992C119.382 50.5651 117.904 48.9936 117.489 47.1018C116.461 48.0647 115.043 48.6012 113.53 48.4615C111.973 48.3177 110.644 47.4878 109.814 46.2982ZM108.921 100.686C108.022 102.14 106.414 103.11 104.579 103.11C102.832 103.11 101.291 102.231 100.371 100.892C99.5348 102.569 97.8038 103.722 95.8025 103.722C94.3867 103.722 93.1055 103.145 92.1811 102.214C91.9534 102.497 91.6961 102.755 91.4137 102.984C92.683 103.543 93.7212 104.615 94.1967 106.034C94.6279 107.321 94.516 108.658 93.9874 109.799C95.1075 109.77 96.2444 110.108 97.2053 110.839C98.4137 111.759 99.0957 113.113 99.2017 114.517C100.233 113.781 101.538 113.424 102.891 113.618C104.342 113.826 105.562 114.626 106.343 115.739C107.04 114.18 108.503 113.006 110.32 112.761C111.621 112.585 112.873 112.916 113.878 113.602C114.091 112.5 114.667 111.461 115.59 110.679C116.558 109.859 117.743 109.464 118.919 109.472C118.527 108.587 118.38 107.581 118.554 106.555C118.813 105.022 119.731 103.766 120.969 103.026C119.619 102.711 118.475 101.863 117.774 100.713C116.891 102.238 115.244 103.265 113.356 103.265C111.456 103.265 109.8 102.226 108.921 100.686ZM153.009 100.536C152.619 101.3 152.043 101.954 151.339 102.435C151.428 102.553 151.512 102.675 151.591 102.801C152.01 102.053 152.612 101.422 153.336 100.967C153.22 100.829 153.11 100.686 153.009 100.536ZM124.933 102.324C124.872 102.363 124.811 102.402 124.749 102.439C124.793 102.449 124.837 102.46 124.881 102.472C124.898 102.422 124.914 102.373 124.933 102.324ZM144.244 101.093C144.142 101.296 144.027 101.493 143.899 101.679C144.055 101.542 144.219 101.414 144.391 101.296C144.34 101.23 144.291 101.162 144.244 101.093ZM106.57 60.2572C108.427 60.2573 110.052 61.2496 110.945 62.7326C112.239 62.0124 113.834 61.8579 115.317 62.4486C117.501 63.3184 118.75 65.5274 118.5 67.7556C120.818 66.7274 123.593 67.5616 124.935 69.7906C126.219 71.9241 125.759 74.6193 123.968 76.2207C126.118 76.7904 127.72 78.7294 127.761 81.063C127.81 83.8807 125.566 86.2048 122.748 86.2542C120.913 86.2864 119.287 85.345 118.362 83.9059C117.515 85.5491 115.803 86.674 113.827 86.674C111.872 86.674 110.175 85.5743 109.318 83.9607C108.406 85.35 106.836 86.2678 105.05 86.2679C103.27 86.2679 101.703 85.3558 100.79 83.9738C99.9357 85.5962 98.2338 86.7027 96.2728 86.7027C94.6921 86.7026 93.2795 85.9838 92.3436 84.8552C91.2569 85.8162 89.7704 86.3108 88.2226 86.0842C85.4342 85.6757 83.505 83.084 83.9134 80.2956C84.2081 78.2835 85.6394 76.7184 87.4614 76.1565C86.0207 74.459 85.8149 71.9495 87.1182 70.0105C88.3816 68.1307 90.6772 67.3615 92.7441 67.9474C92.1327 65.4915 93.4269 62.9062 95.848 61.9652C98.0232 61.1198 100.424 61.8678 101.765 63.6414C102.47 61.669 104.355 60.2572 106.57 60.2572ZM102.341 68.8301C101.809 70.0013 100.839 70.9746 99.5449 71.4774C98.4686 71.8957 97.3371 71.9229 96.3058 71.63C96.6397 72.9792 96.4247 74.4592 95.5883 75.7037C95.3131 76.113 94.9878 76.4685 94.6278 76.7701C95.144 76.5943 95.6971 76.4973 96.2728 76.4972C98.0528 76.4972 99.6191 77.4097 100.532 78.7914C101.386 77.169 103.089 76.0625 105.05 76.0625C107.004 76.0625 108.701 77.1619 109.558 78.7752C110.47 77.386 112.041 76.4686 113.827 76.4686C115.63 76.4686 117.214 77.4046 118.121 78.8169C118.408 78.2619 118.793 77.7661 119.254 77.3525C118.018 77.0246 116.903 76.2358 116.191 75.0534C115.59 74.0541 115.371 72.9314 115.492 71.8555C114.282 72.3901 112.866 72.4577 111.541 71.9296C110.636 71.5693 109.892 70.9793 109.348 70.2534C108.548 70.7734 107.595 71.0768 106.57 71.0768C104.81 71.0767 103.258 70.1856 102.341 68.8301ZM92.8513 77.7337C92.8644 77.7492 92.8782 77.7641 92.8911 77.7798C92.9271 77.748 92.9633 77.7165 93.0002 77.6857C92.9508 77.7025 92.9011 77.7184 92.8513 77.7337Z" fill="#FFE45A"/>
<path d="M52.0807 14.3821C54.6531 14.3821 57.8686 14.7329 61.7273 15.4344C65.5859 16.0191 68.6845 16.7207 71.0231 17.5392V38.0601H62.955C59.2133 38.0601 56.6409 38.7617 55.2377 40.1649C53.8346 41.568 53.133 43.965 53.133 47.356V51.0392H71.0231V74.7173H53.133V143.647H18.2298V74.7173H5.25074V51.0392H18.2298V47.1806C18.2298 35.2539 21.153 26.835 26.9995 21.924C32.8459 16.896 41.2063 14.3821 52.0807 14.3821Z" fill="#2D2D32"/>
<path d="M48.0181 8.93838C48.9573 8.88421 49.8513 9.08923 50.6324 9.48901C51.0915 9.3533 51.5774 9.27911 52.0806 9.2791C54.0099 9.2791 55.6887 10.3504 56.556 11.9301C57.611 10.1883 59.6568 9.17771 61.7852 9.5432C63.9761 9.91942 65.5979 11.6408 65.9517 13.7141C67.2077 12.6683 68.9432 12.2433 70.6321 12.7293C73.3403 13.5087 74.904 16.336 74.1247 19.0442C74.0278 19.381 73.8984 19.6999 73.7422 19.9991C75.4651 20.8185 76.6561 22.5744 76.6561 24.6091C76.6561 26.6838 75.4173 28.4675 73.6395 29.2652C74.9088 30.1934 75.7342 31.6927 75.7343 33.3856C75.7343 35.7318 74.1503 37.7065 71.9938 38.3027C72.0126 38.481 72.0237 38.662 72.0237 38.8453C72.0237 41.6634 69.7391 43.9479 66.921 43.948C65.0647 43.948 63.4405 42.9564 62.5476 41.4745C61.8935 42.5127 60.8651 43.3198 59.5889 43.672C59.3386 43.7411 59.0873 43.7894 58.8371 43.8197C59.0022 44.4284 59.0581 45.0778 58.981 45.7425C58.9532 45.9819 58.9078 46.2153 58.8489 46.442C59.4644 46.8689 59.9805 47.4279 60.3582 48.0778C61.2533 46.6055 62.8726 45.6217 64.7215 45.6217C66.771 45.6218 68.5369 46.8311 69.3484 48.5742C69.7589 48.4677 70.1896 48.411 70.6334 48.411C73.4514 48.411 75.736 50.6957 75.7361 53.5137C75.7361 55.2741 74.8442 56.826 73.4881 57.7432C75.1426 58.587 76.2762 60.3062 76.2762 62.2909C76.2761 64.044 75.3916 65.5899 74.045 66.5085C75.7121 67.348 76.8561 69.0735 76.8561 71.0674C76.8561 73.8856 74.5715 76.1702 71.7534 76.1702C71.4843 76.1701 71.2201 76.1486 70.9623 76.1085C70.6644 78.6429 68.5108 80.6095 65.8963 80.6095C63.8503 80.6095 62.0867 79.4047 61.2732 77.6663C60.5718 78.6484 59.5322 79.3709 58.3232 79.6633C58.2681 81.4975 57.2458 83.0871 55.7482 83.9414C57.2024 84.8404 58.1718 86.4488 58.1718 88.2841C58.1718 90.0315 57.2929 91.5727 55.9537 92.4924C57.6311 93.3284 58.7841 95.0593 58.7841 97.0607C58.7841 98.9993 57.7028 100.685 56.1107 101.549C57.5177 102.457 58.4496 104.038 58.4496 105.837C58.4496 107.744 57.4033 109.405 55.854 110.281C57.3002 111.182 58.2634 112.785 58.2634 114.614C58.2633 116.507 57.2319 118.157 55.7014 119.038C57.1642 119.935 58.1401 121.549 58.1401 123.391C58.14 125.396 56.9834 127.129 55.3015 127.964C56.637 128.884 57.5128 130.423 57.5128 132.167C57.5128 133.869 56.6794 135.374 55.3993 136.302C57.16 137.106 58.3835 138.882 58.3836 140.944C58.3836 143.762 56.099 146.047 53.2809 146.047C52.7674 146.047 52.2721 145.97 51.8046 145.829C51.0579 147.72 49.2157 149.059 47.0588 149.059C45.0773 149.059 43.3607 147.929 42.5155 146.279C41.5988 147.638 40.0451 148.533 38.2823 148.533C36.5763 148.533 35.0672 147.695 34.1407 146.409C33.3329 148.161 31.5621 149.378 29.5057 149.379C27.4941 149.379 25.7548 148.214 24.9238 146.523C24.0025 147.851 22.4676 148.722 20.7286 148.722C17.9106 148.722 15.626 146.437 15.6259 143.619C15.6259 142.879 15.7845 142.176 16.0681 141.541C14.7585 140.617 13.9024 139.094 13.9023 137.369C13.9023 135.547 14.8583 133.948 16.2955 133.046C14.7368 132.172 13.6824 130.506 13.6824 128.592C13.6825 126.883 14.5236 125.371 15.8133 124.445C14.067 123.635 12.8552 121.867 12.8552 119.816C12.8553 118.002 13.8021 116.41 15.2278 115.505C13.6569 114.635 12.593 112.962 12.593 111.039C12.593 108.864 13.9534 107.009 15.8694 106.274C14.6818 105.34 13.9179 103.891 13.9179 102.262C13.9179 100.669 14.6479 99.2466 15.7915 98.3108C13.7874 97.6225 12.3463 95.723 12.3463 93.4853C12.3465 91.2946 13.7272 89.4266 15.6657 88.7034C14.4907 87.7685 13.7366 86.327 13.7366 84.7088C13.7367 82.8096 14.7749 81.1536 16.3141 80.275C15.5516 79.8037 14.9219 79.1379 14.4959 78.3459C13.5609 79.4066 12.1933 80.0769 10.6683 80.0769C8.36375 80.0769 6.41636 78.549 5.78292 76.4511C5.68377 76.4568 5.58391 76.4604 5.48331 76.4604C2.66515 76.4604 0.380587 74.1759 0.380587 71.3577C0.380657 69.5671 1.30346 67.9927 2.69899 67.0822C1.09309 66.2227 8.51839e-08 64.5299 0 62.5812C2.25445e-05 60.5568 1.17902 58.8076 2.88772 57.983C1.57228 57.06 0.711371 55.5336 0.711342 53.8046C0.711342 50.9865 2.99591 48.7019 5.81407 48.7019C6.12498 48.7019 6.42917 48.7308 6.72474 48.7841C7.57217 47.1406 9.28537 46.0161 11.2619 46.016C12.0723 46.016 12.8387 46.2055 13.5192 46.5417C14.0848 45.6312 14.9292 44.9125 15.9329 44.5036C14.6185 43.447 13.8543 41.7631 14.0537 39.9627C14.2667 38.0391 15.5228 36.4836 17.1962 35.7987C15.6655 34.4708 15.0129 32.2975 15.7193 30.2668C16.4419 28.1895 18.3722 26.876 20.4501 26.8397C19.5814 25.0751 19.7787 22.8888 21.1291 21.2903C22.4766 19.6953 24.5929 19.1344 26.4748 19.6901C26.1501 17.6273 27.1216 15.491 29.0566 14.426C30.9603 13.3783 33.2398 13.6747 34.8072 14.9966C35.2387 13.1916 36.642 11.6871 38.5694 11.22C40.3786 10.7816 42.1956 11.3675 43.4124 12.6047C43.9998 10.5894 45.8027 9.06621 48.0181 8.93838ZM4.02699 143.647V143.897H4.09177V143.984H4.02699V143.997C4.02699 144.009 4.0294 144.018 4.03447 144.023C4.03956 144.028 4.04892 144.03 4.0625 144.03H4.09177V144.105C4.08328 144.108 4.07214 144.111 4.05814 144.113C4.04423 144.116 4.03257 144.117 4.02326 144.117C3.98374 144.117 3.95295 144.108 3.93169 144.09C3.91043 144.072 3.89992 144.041 3.89992 143.997V143.984H3.85258V143.897H3.89992V143.647H4.02699ZM56.447 17.0229C55.5527 18.4984 53.932 19.4846 52.0806 19.4846C51.244 19.4845 50.4552 19.282 49.7584 18.9252C49.3906 19.0336 49.0053 19.104 48.6061 19.127C47.0758 19.2153 45.6648 18.619 44.6694 17.6047C44.1742 19.3005 42.8127 20.6924 40.9726 21.1383C39.3298 21.5363 37.6808 21.0898 36.4803 20.0782C36.1582 21.4289 35.2898 22.6441 33.9775 23.3664C32.7331 24.0513 31.3277 24.1619 30.0657 23.7875C30.2882 25.2002 29.9205 26.6978 28.9252 27.8761C27.9365 29.0465 26.5334 29.6592 25.1131 29.6838C25.6976 30.8671 25.8264 32.2748 25.3585 33.6198C24.8573 35.0607 23.7741 36.1319 22.4646 36.6664C23.689 37.728 24.3893 39.3532 24.1975 41.0858C23.9842 43.0113 22.7252 44.5672 21.0494 45.2511C22.2134 46.1863 22.9591 47.6207 22.9592 49.2301C22.9592 52.0483 20.6746 54.3328 17.8564 54.3328C17.0457 54.3328 16.2798 54.1424 15.5991 53.8059C14.699 55.2555 13.0937 56.2214 11.2619 56.2214C10.9507 56.2214 10.6464 56.192 10.3506 56.1386C9.84348 57.1222 9.02749 57.9203 8.02907 58.4022C9.34469 59.3251 10.2054 60.8521 10.2055 62.5812C10.2055 64.3717 9.28242 65.9454 7.88705 66.8561C9.06965 67.4889 9.9734 68.5739 10.368 69.8802C10.4673 69.8744 10.5675 69.8715 10.6683 69.8715C12.6131 69.8716 14.3033 70.9598 15.1643 72.5605C16.0993 71.4996 17.4673 70.8296 18.9926 70.8295C21.8107 70.8295 24.0953 73.1141 24.0953 75.9322C24.0953 77.8315 23.0571 79.4867 21.5178 80.3653C22.9726 81.2643 23.942 82.8731 23.9421 84.7088C23.9421 86.8998 22.561 88.7676 20.6221 89.4907C21.7974 90.4255 22.5517 91.8669 22.5518 93.4853C22.5518 95.0782 21.8217 96.5005 20.6781 97.4363C22.6825 98.1245 24.1233 100.025 24.1233 102.262C24.1233 104.437 22.7625 106.292 20.8463 107.027C22.0343 107.961 22.7984 109.41 22.7984 111.039C22.7984 112.853 21.851 114.444 20.4252 115.349C21.9965 116.219 23.0606 117.892 23.0607 119.816C23.0607 121.524 22.2194 123.035 20.9298 123.962C22.6764 124.772 23.8878 126.54 23.8879 128.592C23.8879 130.414 22.9319 132.012 21.4947 132.915C23.0536 133.788 24.1078 135.455 24.1078 137.369C24.1077 138.109 23.9483 138.812 23.6649 139.447C24.3622 139.938 24.9306 140.6 25.3099 141.371C26.2312 140.043 27.7668 139.173 29.5057 139.173C31.2113 139.173 32.7202 140.011 33.6467 141.296C34.4547 139.544 36.2261 138.327 38.2823 138.327C40.2634 138.327 41.9796 139.457 42.825 141.107C43.7417 139.747 45.2961 138.854 47.0588 138.854C47.572 138.854 48.0672 138.931 48.5345 139.072C48.8946 138.159 49.5095 137.376 50.2923 136.809C48.5317 136.005 47.3074 134.23 47.3074 132.167C47.3074 130.163 48.464 128.429 50.1459 127.594C48.8107 126.674 47.9346 125.135 47.9346 123.391C47.9346 121.498 48.9656 119.848 50.4959 118.967C49.0336 118.069 48.058 116.456 48.0579 114.614C48.0579 112.708 49.1039 111.046 50.6529 110.17C49.2072 109.269 48.2442 107.666 48.2442 105.837C48.2443 103.899 49.3254 102.212 50.9176 101.349C49.5109 100.44 48.5787 98.8599 48.5787 97.0607C48.5787 95.3137 49.4568 93.7722 50.7955 92.8524C49.1187 92.0163 47.9664 90.2852 47.9664 88.2841C47.9664 86.3846 49.0048 84.7283 50.5445 83.8498C49.0907 82.9507 48.1216 81.3426 48.1215 79.5076C48.1215 77.1044 49.7832 75.0901 52.0202 74.5488C52.1028 71.803 54.3539 69.6024 57.1198 69.6024C59.1653 69.6024 60.9286 70.8066 61.7422 72.5443C62.6677 71.2489 64.183 70.4041 65.8963 70.4041C66.1653 70.4041 66.4296 70.4244 66.6874 70.4645C66.8642 68.9631 67.6915 67.6609 68.8812 66.8492C67.2147 66.0095 66.0708 64.2844 66.0707 62.2909C66.0707 60.5305 66.9621 58.978 68.3181 58.0608C67.3042 57.5435 66.4866 56.698 66.0053 55.6633C65.5951 55.7697 65.165 55.8271 64.7215 55.8271C62.8364 55.8271 61.1912 54.8043 60.3077 53.2839C59.4127 54.7563 57.7934 55.7399 55.9444 55.7399C53.1263 55.7398 50.8416 53.4553 50.8416 50.6372C50.8416 50.192 50.899 49.7601 51.0061 49.3485C49.5095 48.3096 48.6187 46.502 48.8434 44.5659C49.1213 42.1721 51.0136 40.3594 53.3064 40.0873C52.5722 37.378 54.1649 34.5817 56.8737 33.8341C59.1325 33.2107 61.4544 34.2091 62.6043 36.1245C63.2734 35.0653 64.3209 34.2696 65.5574 33.9275C65.5387 33.7495 65.5288 33.5686 65.5288 33.3856C65.5288 31.311 66.7672 29.5266 68.5448 28.7289C67.2759 27.8006 66.4507 26.3017 66.4507 24.6091C66.4507 23.7547 66.6613 22.9496 67.0325 22.2421C65.5072 21.5201 64.4649 20.0994 64.1896 18.4898C63.0813 19.4135 61.5913 19.865 60.0579 19.6017C58.4625 19.3277 57.1694 18.3399 56.447 17.0229Z" fill="#FFE45A"/>
<path d="M364.997 17.9077C379.146 17.9077 390.663 20.3048 399.55 25.0988C408.436 29.776 412.879 37.4348 412.879 48.0753V84.2063C412.879 86.1941 413.347 87.8311 414.283 89.1173C415.218 90.4035 416.621 91.0466 418.492 91.0466H424.806V111.217C424.455 111.451 423.52 111.86 422 112.445C420.597 112.912 418.55 113.38 415.861 113.848C413.172 114.432 410.073 114.725 406.565 114.725C399.783 114.725 394.171 113.731 389.728 111.743C385.401 109.638 382.419 106.774 380.782 103.149C376.339 106.657 371.37 109.463 365.874 111.568C360.378 113.672 353.947 114.725 346.581 114.725C324.832 114.725 313.958 106.072 313.958 88.7665C313.958 79.763 316.355 72.9227 321.149 68.2455C326.06 63.4514 333.076 60.1774 342.196 58.4235C351.316 56.6696 363.243 55.7926 377.976 55.7926V51.2324C377.976 47.6076 376.69 44.8598 374.118 42.9889C371.662 41.1181 368.447 40.1826 364.471 40.1826C360.846 40.1826 357.689 40.8257 355 42.112C352.427 43.3982 351.141 45.4444 351.141 48.2507V48.9523H316.764C316.647 48.3676 316.589 47.5491 316.589 46.4968C316.589 37.7271 320.74 30.7699 329.042 25.625C337.46 20.4801 349.446 17.9077 364.997 17.9077ZM377.976 72.2796C368.037 72.2796 360.671 73.3904 355.877 75.612C351.2 77.7167 348.861 80.5815 348.861 84.2063C348.861 90.0527 352.837 92.9759 360.788 92.9759C365.348 92.9759 369.323 91.7482 372.714 89.2927C376.222 86.8372 377.976 83.797 377.976 80.1722V72.2796Z" fill="#2D2D32"/>
<path d="M363.117 12.1195C364.124 12.1063 365.065 12.3865 365.863 12.8794C367.306 13.1261 368.542 13.9787 369.3 15.1666C370.22 13.4114 372.124 12.2812 374.225 12.4477C376.483 12.6267 378.279 14.2501 378.782 16.3389C379.926 15.2193 381.577 14.6528 383.271 14.9623C385.008 15.2796 386.376 16.4408 387.033 17.9454C388.299 16.2248 390.568 15.4224 392.712 16.1159C394.825 16.7991 396.184 18.729 396.243 20.8281C397.721 19.9335 399.617 19.8116 401.259 20.6724C402.962 21.5655 403.951 23.2856 403.991 25.0812C405.98 23.8106 408.653 24.0572 410.373 25.8075C412.055 27.5178 412.284 30.1117 411.077 32.0644C413.105 32.0544 415.03 33.2617 415.835 35.2574C416.625 37.2142 416.114 39.3722 414.711 40.7762C416.804 41.3021 418.413 43.1286 418.559 45.3981C418.689 47.4314 417.61 49.2623 415.939 50.1893C417.405 51.0859 418.384 52.7011 418.384 54.5452C418.384 56.4302 417.361 58.0749 415.84 58.9584C417.313 59.8535 418.296 61.4727 418.296 63.3218C418.296 65.3444 417.119 67.0919 415.413 67.9174C416.73 68.8402 417.592 70.3681 417.592 72.0983C417.592 73.8586 416.701 75.4105 415.345 76.3277C416.999 77.1716 418.132 78.8904 418.132 80.8748C418.132 82.1168 417.688 83.2546 416.95 84.1394C417.715 84.4542 418.414 84.9597 418.971 85.6481C419.148 85.8664 419.302 86.0958 419.437 86.332C420.321 85.5964 421.458 85.1541 422.698 85.1541C425.516 85.1541 427.801 87.4388 427.801 90.2568C427.801 91.304 427.485 92.2773 426.944 93.0872C428.688 93.8986 429.896 95.6656 429.897 97.7153C429.897 99.5611 428.916 101.178 427.448 102.074C428.973 102.956 430 104.604 430 106.493C430 108.932 428.287 110.97 425.999 111.474C426.642 114.13 425.071 116.839 422.419 117.583C420.582 118.099 418.699 117.539 417.437 116.283C416.908 118.238 415.237 119.772 413.102 120.02C411.001 120.265 409.05 119.197 408.069 117.466C407.141 119.039 405.397 120.061 403.445 119.973C401.379 119.881 399.657 118.572 398.935 116.77C397.733 118.233 395.762 118.968 393.798 118.496C391.699 117.991 390.219 116.257 389.936 114.243C388.266 115.424 385.975 115.529 384.168 114.33C382.22 113.038 381.448 110.639 382.13 108.519C381.126 108.599 380.126 108.38 379.255 107.901C379.222 109.634 378.307 111.308 376.694 112.235C374.975 113.222 372.923 113.097 371.368 112.085C371.238 113.999 370.031 115.76 368.126 116.5C366.112 117.284 363.904 116.7 362.523 115.201C361.951 116.913 360.486 118.268 358.584 118.609C356.76 118.936 354.99 118.25 353.85 116.955C353.186 118.909 351.368 120.343 349.184 120.414C347.054 120.484 345.187 119.237 344.363 117.407C343.342 118.821 341.624 119.674 339.762 119.505C337.613 119.309 335.898 117.807 335.327 115.855C334.059 117.059 332.206 117.583 330.403 117.066C328.481 116.515 327.135 114.933 326.791 113.093C325.125 114.221 322.876 114.3 321.098 113.116C319.395 111.981 318.595 110 318.882 108.103C316.701 108.816 314.234 107.982 312.968 105.946C311.801 104.069 312.001 101.728 313.296 100.088C311.155 99.809 309.345 98.1814 308.937 95.9438C308.507 93.5914 309.765 91.3216 311.85 90.3789C310.479 89.3971 309.622 87.7577 309.721 85.9489C309.82 84.1454 310.844 82.613 312.308 81.7849C310.22 80.6286 309.169 78.1237 309.926 75.7646C310.689 73.3862 313.033 71.956 315.424 72.2609C314.702 70.5619 314.929 68.5297 316.187 67.0093C317.548 65.3639 319.725 64.7917 321.644 65.3923C321.454 63.5127 322.32 61.6002 324.034 60.5381C325.616 59.5574 327.525 59.5476 329.067 60.3437C329.037 58.2036 330.366 56.1915 332.499 55.4521C334.499 54.7589 336.636 55.3822 337.967 56.8636C338.323 55.8498 338.993 54.9663 339.883 54.3509C338.333 53.955 337.067 52.8501 336.451 51.4015C335.52 52.6385 334.04 53.4389 332.372 53.439C330.639 53.439 329.109 52.5744 328.187 51.2539C327.36 52.9556 325.615 54.129 323.596 54.1291C321.76 54.1291 320.151 53.1588 319.252 51.7036C318.673 51.9482 318.039 52.091 317.373 52.1047C314.555 52.1628 312.224 49.926 312.166 47.1085C312.123 45.0138 313.348 43.188 315.138 42.3652C313.694 41.0119 313.112 38.8798 313.829 36.9018C314.517 35.0022 316.217 33.7604 318.1 33.5637C316.966 31.6804 317.145 29.2034 318.702 27.4955C320.21 25.8414 322.555 25.4085 324.5 26.251C324.392 24.4143 325.283 22.5815 326.97 21.57C328.656 20.5592 330.69 20.6366 332.259 21.5955C332.426 19.653 333.704 17.8945 335.664 17.2116C337.577 16.5453 339.617 17.0839 340.958 18.4275C341.508 16.7084 342.954 15.3342 344.851 14.9667C346.775 14.594 348.654 15.356 349.801 16.7843C350.527 15.1397 352.102 13.9291 354.02 13.7583C355.736 13.6055 357.327 14.3219 358.364 15.5423C359.05 13.5729 360.911 12.1485 363.117 12.1195ZM309.086 112.616C309.095 112.617 309.103 112.619 309.108 112.621C309.113 112.623 309.117 112.624 309.118 112.625V112.698H309.095C309.088 112.698 309.083 112.701 309.08 112.705C309.077 112.71 309.075 112.716 309.075 112.723V112.855C309.075 112.893 309.059 112.921 309.026 112.938C308.994 112.956 308.952 112.964 308.901 112.964C308.844 112.964 308.8 112.955 308.77 112.936C308.74 112.918 308.724 112.892 308.724 112.86C308.724 112.857 308.725 112.854 308.725 112.852H308.85V112.854C308.85 112.864 308.855 112.872 308.864 112.877C308.874 112.881 308.886 112.883 308.899 112.883C308.913 112.883 308.925 112.88 308.934 112.873C308.943 112.867 308.948 112.856 308.948 112.843V112.827C308.894 112.827 308.851 112.823 308.818 112.817C308.785 112.81 308.759 112.799 308.741 112.781C308.724 112.764 308.715 112.739 308.715 112.706C308.715 112.644 308.754 112.612 308.833 112.612C308.86 112.612 308.884 112.616 308.904 112.624C308.924 112.631 308.942 112.641 308.958 112.654C308.964 112.641 308.975 112.631 308.99 112.623C309.006 112.616 309.027 112.612 309.052 112.612C309.065 112.612 309.076 112.613 309.086 112.616ZM308.885 112.692C308.856 112.692 308.842 112.702 308.842 112.723C308.842 112.736 308.851 112.747 308.868 112.754C308.885 112.762 308.912 112.767 308.948 112.767V112.738C308.948 112.725 308.941 112.713 308.929 112.705C308.916 112.696 308.902 112.692 308.885 112.692ZM369.517 20.2744C368.663 21.9003 366.961 23.0101 364.997 23.0101C364.014 23.0101 363.096 22.7315 362.317 22.2495C361.112 22.0432 360.05 21.4152 359.291 20.5198C358.65 22.3543 356.987 23.7402 354.925 23.9239C353.159 24.0813 351.523 23.318 350.49 22.0315C349.838 23.5097 348.498 24.6553 346.792 24.9859C345.06 25.3213 343.364 24.7392 342.205 23.5782C341.734 25.0549 340.598 26.2997 339.022 26.849C337.518 27.3727 335.937 27.1514 334.677 26.3806C334.541 27.9567 333.678 29.4479 332.217 30.3235C330.751 31.2021 329.022 31.2578 327.565 30.6274C327.644 31.9544 327.21 33.311 326.244 34.371C325.364 35.3354 324.2 35.8842 322.997 36.008C323.762 37.2805 323.969 38.8744 323.424 40.3794C322.939 41.7175 321.952 42.7279 320.753 43.2777C321.082 43.586 321.371 43.9375 321.609 44.3236C322.22 44.0655 322.891 43.9237 323.596 43.9237C325.328 43.9238 326.858 44.788 327.78 46.1082C328.608 44.4065 330.353 43.2335 332.372 43.2335C334.482 43.2336 336.293 44.5146 337.07 46.3411C338.001 45.1042 339.481 44.3043 341.149 44.3043C342.841 44.3043 344.34 45.1291 345.269 46.3978C345.975 44.8233 347.456 43.673 349.227 43.4303C348.83 41.4073 349.691 39.2607 351.547 38.1109C353.525 36.8856 356.013 37.1766 357.656 38.6634C358.128 36.4898 359.993 34.8024 362.323 34.6563C364.633 34.5114 366.679 35.9271 367.434 37.9956C368.824 36.3384 371.176 35.6905 373.283 36.5561C375.59 37.5038 376.829 39.9471 376.342 42.3035C378.97 41.4632 381.803 42.8689 382.713 45.4909C383.481 47.7046 382.635 50.0859 380.798 51.3573C382.022 52.2886 382.813 53.7597 382.814 55.416C382.816 58.234 380.533 60.5198 377.714 60.5219C375.96 60.523 374.412 59.6388 373.493 58.2913C372.675 59.9092 371.018 61.0388 369.079 61.0924C367.344 61.1403 365.789 60.316 364.831 59.0182C364.066 60.6552 362.455 61.8343 360.525 61.9558C358.549 62.08 356.766 61.0619 355.819 59.4704C355.034 60.8176 353.644 61.7897 351.975 61.9763C350.258 62.1683 348.646 61.4839 347.583 60.2808C346.987 61.9257 345.562 63.2218 343.718 63.5653C341.904 63.9032 340.135 63.2354 338.986 61.9564C338.488 63.3759 337.373 64.5636 335.841 65.0945C334.464 65.5718 333.023 65.424 331.824 64.803C331.847 66.5342 330.989 68.2345 329.41 69.2131C328.097 70.0265 326.56 70.1709 325.194 69.7425C325.328 71.0549 324.957 72.418 324.05 73.5148C322.894 74.9113 321.152 75.5336 319.477 75.323C319.942 76.412 320.033 77.6663 319.643 78.8822C319.234 80.1556 318.372 81.1564 317.293 81.7656C318.946 82.6847 320.022 84.4906 319.911 86.5064C319.804 88.472 318.597 90.1154 316.92 90.876C317.962 91.6197 318.728 92.7525 318.976 94.1113C319.25 95.6128 318.836 97.08 317.959 98.1906C319.423 98.3817 320.793 99.2041 321.634 100.556C322.303 101.632 322.521 102.859 322.344 104.02C323.778 103.552 325.404 103.722 326.757 104.623C327.951 105.419 328.7 106.631 328.943 107.938C330.151 107.119 331.701 106.821 333.214 107.255C334.96 107.755 336.23 109.106 336.706 110.729C337.734 109.75 339.163 109.203 340.687 109.342C342.587 109.515 344.147 110.708 344.878 112.331C345.771 111.094 347.208 110.268 348.852 110.214C350.438 110.163 351.878 110.841 352.851 111.946C353.429 110.246 354.889 108.903 356.782 108.564C358.563 108.244 360.293 108.892 361.435 110.13C361.899 108.741 362.956 107.561 364.428 106.988C366.019 106.37 367.731 106.604 369.061 107.469C369.173 105.826 370.076 104.267 371.611 103.385C373.215 102.464 375.108 102.511 376.618 103.341C376.652 101.513 377.671 99.7633 379.416 98.8801C381.931 97.6081 385.001 98.6153 386.273 101.13C386.904 102.377 386.973 103.76 386.577 104.993C387.679 104.903 388.818 105.167 389.81 105.825C391.077 106.666 391.846 107.975 392.042 109.37C393.2 108.55 394.693 108.215 396.181 108.572C397.854 108.974 399.133 110.157 399.727 111.641C400.712 110.44 402.231 109.703 403.902 109.778C405.723 109.859 407.277 110.887 408.114 112.364C408.897 111.036 410.271 110.076 411.921 109.884C413.529 109.697 415.049 110.279 416.113 111.339C416.568 109.663 417.867 108.26 419.661 107.757C419.753 107.731 419.845 107.709 419.937 107.688C419.844 107.305 419.795 106.904 419.795 106.493C419.795 104.647 420.774 103.03 422.242 102.134C420.718 101.251 419.691 99.6037 419.691 97.7153C419.691 96.6683 420.007 95.6948 420.548 94.8849C419.585 94.4369 418.787 93.6974 418.264 92.7802C418.247 92.7946 418.23 92.8101 418.212 92.8244C416.021 94.5966 412.808 94.2569 411.035 92.0657C409.478 90.1395 409.552 87.4238 411.081 85.5914C409.23 84.8257 407.927 83.0027 407.927 80.8748C407.927 79.1146 408.818 77.562 410.174 76.6448C408.52 75.8008 407.387 74.0825 407.387 72.0983C407.387 70.0756 408.564 68.3275 410.27 67.502C408.953 66.5792 408.091 65.0517 408.091 63.3218C408.091 61.4369 409.114 59.7916 410.634 58.908C409.162 58.0128 408.179 56.3938 408.179 54.5452C408.179 52.624 409.241 50.9508 410.809 50.0803C409.44 49.2432 408.485 47.7761 408.374 46.0527C408.276 44.5278 408.859 43.1169 409.861 42.1154C408.335 41.7309 407.006 40.6491 406.372 39.0776C405.74 37.5132 405.94 35.82 406.762 34.4862C405.433 34.4935 404.101 33.9852 403.095 32.962C402.146 31.9959 401.66 30.7474 401.634 29.4919C400.142 30.4417 398.199 30.5906 396.52 29.7105C394.826 28.8224 393.839 27.1165 393.789 25.3316C392.566 26.0733 391.04 26.3009 389.572 25.8262C388.122 25.3574 387.028 24.3012 386.464 23.0064C385.343 24.5265 383.42 25.3637 381.437 25.0015C379.388 24.6272 377.852 23.078 377.393 21.1763C376.376 22.1732 374.95 22.7428 373.418 22.6214C371.759 22.4898 370.348 21.5779 369.517 20.2744ZM377.976 67.1768C380.794 67.1769 383.079 69.4614 383.079 72.2796C383.079 72.6587 383.036 73.0278 382.957 73.3833C383.424 74.1536 383.693 75.0573 383.693 76.0238C383.693 78.2347 382.286 80.1164 380.319 80.825C381.991 82.3211 382.529 84.8022 381.479 86.9057C380.416 89.0326 378.068 90.0933 375.846 89.6165C376.58 91.9005 375.617 94.4562 373.434 95.6492C371.347 96.7895 368.814 96.32 367.262 94.66C366.733 96.7569 364.9 98.3653 362.627 98.5052C360.306 98.6479 358.254 97.2155 357.509 95.1303C356.098 96.7581 353.748 97.3709 351.658 96.4826C349.16 95.4205 347.947 92.6013 348.847 90.0774C346.39 89.8588 344.388 87.8816 344.215 85.3428C344.042 82.8166 345.74 80.595 348.125 80.0308C346.855 77.8181 347.414 74.9563 349.513 73.3989C351.423 71.982 353.997 72.0982 355.763 73.5291C356.187 71.7413 357.564 70.2435 359.467 69.7575C361.31 69.287 363.174 69.8857 364.406 71.1633C365.047 69.3211 366.72 67.9315 368.789 67.7536C370.686 67.5907 372.429 68.4882 373.435 69.9531C374.281 68.3049 375.996 67.1768 377.976 67.1768ZM373.505 75.6145C372.677 76.8881 371.294 77.7815 369.663 77.9217C368.067 78.0589 366.58 77.4453 365.549 76.3751C365.005 77.9371 363.715 79.2061 361.992 79.6459C360.369 80.0603 358.728 79.645 357.518 78.6667C357.252 79.7992 356.601 80.8475 355.594 81.5949C355.021 82.0199 354.388 82.3063 353.735 82.4613C354.107 83.1105 354.342 83.8517 354.397 84.6483C354.446 85.3689 354.341 86.0642 354.114 86.7039C354.63 86.7506 355.148 86.8769 355.651 87.0907C357.016 87.6707 357.996 88.7754 358.459 90.0693C359.325 89.0705 360.576 88.4066 362 88.319C363.58 88.2219 365.035 88.8539 366.039 89.9248C366.374 88.5949 367.241 87.4029 368.54 86.6933C369.657 86.0829 370.902 85.9348 372.056 86.1825C371.663 84.9582 371.729 83.5858 372.349 82.3449C372.96 81.1225 373.995 80.2532 375.187 79.8246C374.144 78.8904 373.488 77.534 373.488 76.0238C373.488 75.886 373.494 75.7496 373.505 75.6145ZM345.805 51.4931C345.421 52.3479 344.811 53.0776 344.048 53.6053C345.041 53.8598 345.934 54.4081 346.609 55.1706C346.884 54.4096 347.337 53.7266 347.922 53.178C347.073 52.8152 346.343 52.2289 345.805 51.4931ZM366.551 43.0261C365.684 44.0593 364.413 44.7501 362.961 44.8412C361.532 44.9308 360.203 44.422 359.219 43.5313C358.936 44.8354 358.146 46.0281 356.922 46.7865C356.296 47.1742 355.618 47.4085 354.933 47.5028C354.995 47.8204 355.028 48.1482 355.028 48.4839C355.028 49.9552 354.404 51.28 353.408 52.2112C354.4 52.6347 355.239 53.3649 355.794 54.2967C356.622 52.8765 358.12 51.8818 359.884 51.7709C361.681 51.658 363.317 52.4895 364.312 53.8376C365.103 52.1424 366.8 50.9465 368.797 50.8913C370.6 50.8415 372.209 51.7337 373.156 53.1207C373.54 52.3597 374.109 51.7081 374.805 51.2252C374.031 50.6377 373.415 49.8236 373.072 48.8364C372.76 47.9358 372.715 47.0072 372.895 46.1368C371.791 46.4895 370.562 46.4708 369.406 45.996C368.025 45.4288 367.026 44.3257 366.551 43.0261Z" fill="#FFE45A"/>
</svg>
