<svg width="104" height="37" viewBox="0 0 104 37" fill="none" xmlns="http://www.w3.org/2000/svg">
<path d="M75.1937 11.9399C77.7193 11.9399 79.6136 12.6696 80.8764 14.1288C82.1392 15.5601 82.7706 17.6086 82.7706 20.2746V34.6709H74.3939V21.2849C74.3939 20.3307 74.1553 19.573 73.6783 19.0118C73.2293 18.4225 72.5838 18.1278 71.7419 18.1278C70.7597 18.1278 69.9599 18.4646 69.3426 19.1381C68.7252 19.8116 68.4165 20.6394 68.4165 21.6216V34.6709H60.0397V21.2849C60.0397 20.3307 59.8012 19.573 59.3241 19.0118C58.8751 18.4225 58.2297 18.1278 57.3878 18.1278C56.4056 18.1278 55.6058 18.4646 54.9884 19.1381C54.371 19.8116 54.0623 20.6394 54.0623 21.6216V34.6709H45.6855V12.4451H52.5469L53.0941 15.7705C53.936 14.5919 55.0445 13.6658 56.4196 12.9923C57.8227 12.2907 59.296 11.9399 60.8395 11.9399C64.179 11.9399 66.424 13.2168 67.5746 15.7705C68.4445 14.5919 69.553 13.6658 70.9 12.9923C72.2751 12.2907 73.7063 11.9399 75.1937 11.9399Z" fill="#2D2D32"/>
<path d="M60.418 10.5651C60.9295 10.5463 61.3789 10.844 61.5782 11.2828C61.8386 10.9105 62.2968 10.6985 62.7755 10.7749C63.2961 10.8581 63.6871 11.2578 63.7839 11.7464C64.1373 11.4477 64.6456 11.363 65.0925 11.5714C65.5533 11.7864 65.8174 12.2515 65.7987 12.7296C66.2593 12.503 66.8318 12.5834 67.2118 12.9691C67.5932 13.3563 67.664 13.933 67.4272 14.3909C67.4999 14.3899 67.5722 14.3955 67.6433 14.4072C67.6328 14.0565 67.7722 13.7039 68.0553 13.4531C68.405 13.1434 68.8824 13.0699 69.292 13.2208C69.1983 12.7142 69.4333 12.1832 69.9103 11.9232C70.3602 11.6779 70.896 11.7444 71.2702 12.0492C71.3343 11.5914 71.6561 11.1895 72.1276 11.0464C72.625 10.8955 73.1437 11.0766 73.4465 11.4622C73.6165 11.038 74.018 10.7265 74.5044 10.6948C74.6538 10.6851 74.7987 10.7026 74.9343 10.7431C75.0179 10.7251 75.1046 10.7154 75.1935 10.7154C75.6551 10.7154 76.0568 10.9711 76.2656 11.3482C76.5231 10.9099 77.0389 10.6619 77.5651 10.7687C78.1332 10.8839 78.5284 11.3752 78.5453 11.9305C78.9073 11.7054 79.3766 11.6757 79.7779 11.8938C80.1911 12.1183 80.423 12.5463 80.4176 12.986C80.9087 12.7247 81.5321 12.8249 81.9139 13.2618C82.2866 13.6883 82.3104 14.3 82.0093 14.7491C82.4495 14.783 82.8564 15.0545 83.0421 15.4886C83.22 15.9046 83.1495 16.3642 82.8974 16.7027C83.4291 16.7578 83.8814 17.1588 83.9772 17.7115C84.0665 18.2266 83.8198 18.7219 83.3955 18.9738C83.7701 19.1789 84.0267 19.5742 84.033 20.0318C84.0388 20.4621 83.8216 20.8433 83.4888 21.0663C83.8836 21.2695 84.1539 21.6808 84.1539 22.1555C84.1539 22.6168 83.8985 23.0182 83.5217 23.227C83.8642 23.4442 84.0917 23.8263 84.0917 24.2618C84.0917 24.7142 83.8461 25.1089 83.4812 25.321C83.8346 25.5358 84.0706 25.9245 84.0706 26.3684C84.0706 26.8538 83.7881 27.273 83.3786 27.4712C83.6948 27.6926 83.9016 28.0594 83.9016 28.4747C83.9015 28.8972 83.6876 29.2697 83.3622 29.4898C83.7592 29.6923 84.0313 30.1048 84.0313 30.5811C84.0313 31.0018 83.819 31.3728 83.4958 31.5933C83.8959 31.7948 84.1705 32.209 84.1705 32.6875C84.1705 33.2271 83.8213 33.6848 83.3366 33.848C83.66 34.0684 83.8724 34.4396 83.8724 34.8605C83.8724 35.5368 83.3241 36.0851 82.6477 36.0852C82.1568 36.0852 81.7333 35.7962 81.5381 35.3791C81.316 35.6899 80.9524 35.8929 80.5412 35.8929C80.0983 35.8929 79.7103 35.6576 79.4952 35.3052C79.2835 35.6712 78.8881 35.9177 78.4349 35.9177C77.9789 35.9177 77.5814 35.6683 77.3706 35.2987C77.1548 35.6477 76.769 35.8803 76.3285 35.8804C75.8591 35.8804 75.4516 35.6162 75.246 35.2284C75.0229 35.5291 74.6654 35.7241 74.2622 35.7241C73.5858 35.7241 73.0376 35.1758 73.0375 34.4995C73.0375 34.0342 73.2969 33.6293 73.679 33.4221C73.3414 33.204 73.1177 32.8247 73.1177 32.393C73.1177 31.9354 73.3687 31.5367 73.7405 31.3265C73.3935 31.1103 73.1625 30.7255 73.1625 30.2866C73.1625 29.8324 73.4099 29.4361 73.7772 29.2247C73.4262 29.0094 73.1921 28.6222 73.1921 28.1802C73.1921 27.6991 73.4696 27.2829 73.8732 27.0826C73.5528 26.8618 73.3425 26.4925 73.3425 26.0738C73.3425 25.6655 73.5425 25.304 73.8497 25.0815C73.4272 24.8884 73.1335 24.4622 73.1335 23.9673C73.1335 23.5272 73.3657 23.1414 73.7143 22.9255C73.3444 22.7148 73.0948 22.3172 73.0948 21.861C73.0948 21.4431 73.3041 21.0742 73.6235 20.8532C73.3704 20.7222 73.1614 20.503 73.0481 20.2171C72.9711 20.0227 72.9473 19.8203 72.9698 19.6262C72.7354 19.6841 72.4815 19.6736 72.2389 19.5806C71.9645 19.4754 71.7498 19.2821 71.6145 19.0454C71.4687 19.2279 71.2694 19.3709 71.0301 19.4471C70.7049 19.5506 70.3684 19.5111 70.0885 19.3638C70.1049 19.6256 70.038 19.8946 69.879 20.1283C69.6946 20.3995 69.4204 20.5729 69.1232 20.6366C69.3663 20.8655 69.5153 21.1923 69.5083 21.5524C69.5004 21.9549 69.299 22.3082 68.9948 22.5255C69.4147 22.7196 69.7062 23.1443 69.7062 23.6374C69.7062 24.0727 69.4789 24.4546 69.1368 24.6717C69.5139 24.8805 69.7693 25.2823 69.7693 25.7438C69.7693 26.2657 69.4426 26.7109 68.9828 26.8872C69.2679 27.1115 69.4512 27.4594 69.4512 27.8503C69.4512 28.2326 69.2758 28.5738 69.0013 28.7984C69.4825 28.9635 69.8283 29.4195 69.8283 29.9567C69.8283 30.4825 69.4968 30.9308 69.0314 31.1043C69.3135 31.3287 69.4947 31.6746 69.4947 32.063C69.4947 32.5188 69.2455 32.9161 68.8761 33.127C69.2252 33.3427 69.4579 33.7289 69.4579 34.1694C69.4579 34.8457 68.9096 35.394 68.2332 35.394C68.1084 35.394 67.9879 35.3752 67.8745 35.3405C67.6633 35.7089 67.2666 35.9573 66.8116 35.9573C66.338 35.9573 65.9274 35.6884 65.7237 35.2951C65.504 35.6235 65.13 35.84 64.7052 35.84C64.2754 35.84 63.8976 35.6184 63.6791 35.2834C63.4728 35.6689 63.0665 35.9312 62.5988 35.9312C62.1129 35.9312 61.6932 35.6482 61.4953 35.2381C61.2738 35.5539 60.9073 35.7606 60.4923 35.7606C59.816 35.7606 59.2677 35.2123 59.2676 34.536C59.2676 34.357 59.3063 34.187 59.3753 34.0338C59.0488 33.8138 58.8341 33.4408 58.8341 33.0175C58.8341 32.5911 59.0521 32.2157 59.3826 31.9963C58.992 31.7917 58.7253 31.3826 58.7253 30.911C58.7253 30.4131 59.0226 29.9848 59.4493 29.7934C59.1448 29.5706 58.947 29.2108 58.947 28.8047C58.947 28.3773 59.1659 28.0012 59.4977 27.7821C59.1085 27.577 58.8431 27.1688 58.8431 26.6983C58.8431 26.231 59.1048 25.8249 59.4896 25.6185C59.1543 25.4 58.9325 25.022 58.9325 24.5919C58.9325 24.1636 59.1525 23.7868 59.4855 23.5679C59.0978 23.3623 58.8337 22.9548 58.8337 22.4854C58.8337 22.0294 59.083 21.6318 59.4527 21.421C59.1588 21.25 58.937 20.9585 58.8663 20.5986C58.819 20.3583 58.8458 20.1207 58.9304 19.909C58.6424 19.9274 58.3469 19.845 58.1011 19.654C57.871 19.4751 57.7224 19.2305 57.6607 18.9672C57.4892 19.104 57.2788 19.1964 57.045 19.2246C56.7761 19.2571 56.5171 19.1996 56.2979 19.076C56.2974 19.3836 56.1821 19.6913 55.9504 19.9289C55.7012 20.1843 55.3676 20.3074 55.037 20.2976C55.1642 20.5311 55.2169 20.8073 55.1684 21.0897C55.1011 21.4813 54.8548 21.7971 54.5279 21.968C54.8793 22.1833 55.1138 22.5707 55.1138 23.013C55.1138 23.4261 54.9089 23.7911 54.5955 24.0129C55.0089 24.2096 55.2945 24.6311 55.2945 25.1193C55.2945 25.5986 55.0191 26.0132 54.6181 26.2144C54.9405 26.435 55.1521 26.8057 55.1521 27.2258C55.1521 27.6585 54.9275 28.0385 54.5888 28.2563C54.9696 28.464 55.228 28.8679 55.228 29.3322C55.228 29.7898 54.9769 30.1883 54.6051 30.3986C54.9521 30.6148 55.1832 30.9996 55.1832 31.4386C55.1832 31.8896 54.9391 32.2833 54.5761 32.4958C54.9312 32.7102 55.1688 33.0998 55.1688 33.545C55.1688 34.0973 54.8029 34.5641 54.3004 34.7167C54.3044 34.7568 54.3065 34.7974 54.3065 34.8385C54.3065 35.5149 53.7582 36.0632 53.0819 36.0632C52.6365 36.0632 52.2466 35.8254 52.0323 35.4698C51.8197 35.8325 51.4262 36.0762 50.9755 36.0762C50.518 36.0762 50.1193 35.8252 49.909 35.4535C49.6929 35.8007 49.3081 36.0321 48.869 36.0321C48.4152 36.0321 48.0193 35.7849 47.8077 35.4181C47.5925 35.7696 47.205 36.0043 46.7626 36.0043C46.1132 36.0043 45.582 35.4987 45.5408 34.8596C44.9256 34.7947 44.4461 34.2744 44.4461 33.642C44.4461 33.1665 44.7173 32.7544 45.1133 32.5516C44.787 32.3316 44.5724 31.9586 44.5724 31.5355C44.5724 31.0853 44.8154 30.6921 45.1772 30.4793C44.8211 30.2651 44.5827 29.875 44.5827 29.4291C44.5827 29.0217 44.7818 28.6609 45.0878 28.4382C44.6636 28.2458 44.3683 27.8189 44.3683 27.3227C44.3683 26.8477 44.6389 26.4362 45.0342 26.2331C44.7074 26.0131 44.4924 25.6398 44.4924 25.2164C44.4924 24.8103 44.6902 24.4504 44.9946 24.2276C44.5678 24.0362 44.2703 23.6079 44.2703 23.1098C44.2703 22.6395 44.5356 22.2311 44.9246 22.026C44.5928 21.8069 44.3737 21.4308 44.3737 21.0035C44.3737 20.5767 44.5921 20.201 44.9231 19.9818C44.533 19.777 44.2667 19.3683 44.2667 18.8971C44.2667 18.4018 44.5609 17.9754 44.984 17.7825C44.6771 17.5599 44.4775 17.1987 44.4775 16.7907C44.4775 16.3093 44.7553 15.8928 45.1593 15.6927C44.8392 15.4718 44.6294 15.1027 44.6294 14.6844C44.6294 14.2881 44.8175 13.9359 45.1094 13.712C44.6621 13.5297 44.3467 13.0907 44.3467 12.5778C44.3467 11.9015 44.895 11.3532 45.5713 11.3532C45.9622 11.3532 46.3101 11.5366 46.5344 11.8217C46.7222 11.3865 47.1552 11.0819 47.6593 11.0819C48.0967 11.0819 48.4803 11.3113 48.6969 11.6562C48.9066 11.2823 49.3065 11.0295 49.7657 11.0295C50.2636 11.0295 50.6917 11.327 50.8831 11.7537C51.1059 11.4492 51.4658 11.2514 51.872 11.2514C52.5484 11.2514 53.0967 11.7997 53.0967 12.476C53.0967 12.5525 53.0893 12.6272 53.0759 12.6998C53.3913 12.7983 53.6582 13.0221 53.8078 13.3223C53.842 13.2869 53.8784 13.2529 53.9176 13.2211C54.2707 12.9341 54.7353 12.8766 55.1314 13.0293C55.0459 12.5132 55.3001 11.9801 55.7925 11.7339C56.2669 11.4968 56.8216 11.5966 57.1847 11.9423C57.2831 11.5104 57.613 11.1468 58.0714 11.0279C58.5343 10.9078 59.0039 11.0694 59.2995 11.4057C59.4552 10.9331 59.8917 10.5844 60.418 10.5651ZM43.1994 34.6711V34.7185C43.1994 34.7221 43.2005 34.7252 43.2027 34.7276C43.205 34.7301 43.208 34.7312 43.2116 34.7312C43.2146 34.7312 43.217 34.7302 43.2186 34.7281C43.2203 34.726 43.2211 34.7233 43.2211 34.7198V34.6711H43.2516V34.7185C43.2516 34.722 43.2527 34.7252 43.2549 34.7276C43.2571 34.7301 43.2602 34.7312 43.2637 34.7312C43.2668 34.7312 43.2691 34.7302 43.2708 34.7281C43.2725 34.726 43.2733 34.7233 43.2733 34.7198V34.6711H43.3038V34.7234C43.3038 34.7331 43.3015 34.7406 43.2969 34.7458C43.2923 34.7511 43.2854 34.7538 43.2763 34.7538C43.2709 34.7538 43.2656 34.7524 43.2606 34.7499C43.2557 34.7474 43.2516 34.7441 43.2485 34.7399C43.2443 34.7491 43.2362 34.7537 43.2241 34.7538C43.2185 34.7538 43.2131 34.7524 43.208 34.7499C43.203 34.7474 43.1989 34.7441 43.1959 34.7399L43.1939 34.752H43.1689V34.6711H43.1994ZM61.467 12.4898C61.2545 12.7937 60.9072 12.998 60.508 13.0127C60.1249 13.0268 59.7765 12.8632 59.542 12.5959C59.4159 12.9779 59.1049 13.2902 58.6866 13.3987C58.2614 13.509 57.8307 13.3818 57.5343 13.0999C57.4558 13.4453 57.2291 13.7542 56.8876 13.9249C56.5664 14.0855 56.2083 14.0915 55.8979 13.9714C55.967 14.3909 55.8158 14.8346 55.4623 15.1219C55.1475 15.3777 54.7442 15.4512 54.3796 15.356C54.4571 15.6936 54.392 16.0617 54.169 16.3614C53.7652 16.904 52.998 17.0166 52.4554 16.6128C51.9335 16.2245 51.8097 15.5 52.1603 14.9624C51.8233 14.7921 51.5694 14.469 51.5034 14.068C51.4797 13.9238 51.4822 13.7813 51.5074 13.6455C51.1709 13.5407 50.897 13.2944 50.7544 12.9764C50.5316 13.2809 50.1719 13.4788 49.7657 13.4788C49.3282 13.4788 48.9445 13.2494 48.7279 12.9043C48.5182 13.2782 48.1184 13.5311 47.6593 13.5312C47.2683 13.5312 46.9203 13.3477 46.6961 13.0625C46.6126 13.2559 46.4808 13.4234 46.3158 13.55C46.7632 13.7323 47.0787 14.1714 47.0787 14.6844C47.0786 15.1658 46.8006 15.582 46.3965 15.7821C46.7167 16.003 46.9268 16.3723 46.9268 16.7907C46.9268 17.2861 46.6324 17.7123 46.2092 17.9052C46.5161 18.1277 46.716 18.489 46.716 18.8971C46.716 19.3239 46.4975 19.6994 46.1664 19.9186C46.5567 20.1233 46.823 20.5322 46.823 21.0035C46.823 21.4739 46.5576 21.8822 46.1685 22.0873C46.5004 22.3064 46.7196 22.6824 46.7196 23.1098C46.7196 23.5159 46.5218 23.8756 46.2174 24.0984C46.6443 24.2898 46.9417 24.7183 46.9417 25.2164C46.9417 25.6914 46.671 26.1028 46.2757 26.3059C46.6026 26.5258 46.8176 26.8992 46.8176 27.3227C46.8176 27.7301 46.6184 28.0908 46.3124 28.3134C46.7367 28.5058 47.032 28.9328 47.032 29.4291C47.032 29.8793 46.7889 30.2725 46.427 30.4853C46.7832 30.6994 47.0217 31.0896 47.0217 31.5355C47.0217 32.011 46.7504 32.4228 46.3544 32.6257C46.6599 32.8317 46.8672 33.1718 46.8924 33.5617C47.2913 33.6037 47.6328 33.8374 47.8239 34.1688C48.0391 33.8173 48.4267 33.5828 48.869 33.5828C49.3264 33.5828 49.7251 33.8337 49.9353 34.2053C50.1515 33.8581 50.5364 33.6269 50.9755 33.6269C51.4208 33.6269 51.8106 33.8646 52.025 34.2201C52.1791 33.9572 52.4283 33.7571 52.7255 33.6668C52.7215 33.6267 52.7195 33.5861 52.7195 33.545C52.7195 33.094 52.9633 32.7001 53.3263 32.4876C52.9713 32.2732 52.7339 31.8836 52.7339 31.4386C52.7339 30.981 52.9849 30.5823 53.3567 30.3721C53.0097 30.1559 52.7787 29.7711 52.7787 29.3322C52.7787 28.8995 53.0033 28.5195 53.342 28.3016C52.9612 28.094 52.7028 27.6901 52.7028 27.2258C52.7028 26.7466 52.9782 26.3318 53.3792 26.1307C53.0569 25.9101 52.8452 25.5394 52.8452 25.1193C52.8453 24.7062 53.0501 24.341 53.3635 24.1192C52.9503 23.9225 52.6645 23.5011 52.6645 23.013C52.6645 22.5411 52.9315 22.1317 53.3226 21.9272C52.9074 21.6732 52.667 21.1841 52.7543 20.6752C52.859 20.066 53.3968 19.6401 53.9974 19.6585C53.7476 19.1991 53.8129 18.6124 54.1971 18.2185C54.5931 17.8126 55.2022 17.7405 55.674 18.0061C55.6745 17.3957 56.1305 16.8679 56.7518 16.793C57.3778 16.7175 57.9501 17.1285 58.0904 17.7287C58.5224 17.3845 59.1489 17.3663 59.6043 17.7203C60.045 18.0629 60.1872 18.6467 59.9902 19.1405C60.595 19.1012 61.1495 19.5156 61.2695 20.1262C61.3737 20.6564 61.1187 21.1734 60.6736 21.4267C61.038 21.6389 61.283 22.0334 61.283 22.4854C61.283 22.9137 61.0629 23.2904 60.7298 23.5093C61.1176 23.7148 61.3818 24.1225 61.3818 24.5919C61.3818 25.0592 61.1199 25.4651 60.7351 25.6716C61.0705 25.89 61.2924 26.2682 61.2924 26.6983C61.2924 27.1256 61.0733 27.5016 60.7415 27.7207C61.1308 27.9257 61.3963 28.3341 61.3963 28.8047C61.3963 29.3026 61.0989 29.7307 60.6721 29.9221C60.9767 30.1449 61.1746 30.5048 61.1746 30.911C61.1746 31.3375 60.9565 31.7128 60.6259 31.9321C61.0167 32.1367 61.2834 32.5459 61.2834 33.0175C61.2834 33.1964 61.2446 33.3662 61.1756 33.5194C61.3552 33.6403 61.501 33.8076 61.5959 34.0041C61.8174 33.6884 62.1839 33.4819 62.5988 33.4819C63.0285 33.4819 63.4062 33.7034 63.6248 34.0383C63.8311 33.6529 64.2375 33.3907 64.7052 33.3907C65.1787 33.3907 65.5891 33.6595 65.7929 34.0528C66.0126 33.7244 66.3868 33.508 66.8116 33.508C66.9363 33.508 67.0568 33.5269 67.1702 33.5616C67.279 33.3717 67.437 33.2138 67.627 33.1053C67.278 32.8895 67.0454 32.5035 67.0454 32.063C67.0454 31.5372 67.3768 31.0887 67.8422 30.9152C67.5601 30.6908 67.379 30.345 67.379 29.9567C67.379 29.5744 67.5543 29.233 67.8287 29.0084C67.3477 28.8432 67.0019 28.3873 67.0019 27.8503C67.0019 27.3284 67.3284 26.883 67.7882 26.7067C67.5032 26.4824 67.32 26.1346 67.32 25.7438C67.32 25.3085 67.5472 24.9264 67.8894 24.7093C67.5124 24.5005 67.2569 24.0989 67.2569 23.6374C67.2569 23.2262 67.4598 22.8625 67.7707 22.6404C67.3428 22.4427 67.0497 22.0058 67.0596 21.5043C67.071 20.9246 67.4833 20.4473 68.0268 20.331C67.5954 19.9257 67.5105 19.2557 67.854 18.7507C68.208 18.2303 68.8921 18.0688 69.4361 18.3555C69.402 17.8083 69.7409 17.2871 70.287 17.1132C70.8473 16.9348 71.4408 17.1808 71.7212 17.6715C72.0453 17.2666 72.6055 17.098 73.1157 17.2936C73.6489 17.498 73.9569 18.0347 73.8943 18.5769C74.4798 18.4321 75.0967 18.7386 75.3251 19.3149C75.5393 19.8555 75.3416 20.457 74.8824 20.7735C75.2754 20.9774 75.5441 21.3877 75.5441 21.861C75.5441 22.3011 75.3116 22.6868 74.963 22.9026C75.3331 23.1133 75.5828 23.511 75.5828 23.9673C75.5828 24.3757 75.3827 24.7372 75.0754 24.9597C75.498 25.1528 75.7918 25.5789 75.7918 26.0738C75.7918 26.555 75.5142 26.9709 75.1106 27.1711C75.4311 27.392 75.6414 27.7615 75.6414 28.1802C75.6414 28.6345 75.3937 29.0305 75.0264 29.2419C75.3775 29.4572 75.6118 29.8445 75.6118 30.2866C75.6118 30.7441 75.3606 31.1427 74.9889 31.3529C75.3359 31.5691 75.5669 31.954 75.567 32.393C75.567 32.8583 75.3075 33.2629 74.9253 33.4702C75.1011 33.5837 75.246 33.7408 75.3445 33.9265C75.5677 33.6259 75.9254 33.431 76.3285 33.431C76.7844 33.431 77.1818 33.6804 77.3926 34.0499C77.6084 33.7009 77.9944 33.4684 78.4349 33.4684C78.8778 33.4684 79.2656 33.7035 79.4807 34.0558C79.6925 33.6898 80.088 33.4436 80.5412 33.4436C81.0322 33.4436 81.4555 33.7325 81.6508 34.1495C81.799 33.942 82.0103 33.7828 82.2568 33.6998C81.9335 33.4794 81.7212 33.1083 81.7212 32.6875C81.7212 32.2667 81.9333 31.8955 82.2565 31.6751C81.8565 31.4736 81.582 31.0596 81.582 30.5811C81.582 30.1586 81.7958 29.786 82.1212 29.5659C81.7243 29.3633 81.4523 28.9509 81.4522 28.4747C81.4522 27.9893 81.7347 27.5697 82.1443 27.3716C81.8282 27.1502 81.6213 26.7835 81.6213 26.3684C81.6213 25.9159 81.8668 25.5209 82.2317 25.3089C81.8784 25.0941 81.6424 24.7055 81.6424 24.2618C81.6424 23.8005 81.8975 23.3989 82.2743 23.1901C81.932 22.973 81.7046 22.5909 81.7046 22.1555C81.7046 21.7311 81.9203 21.3572 82.2481 21.1374C81.8589 20.9368 81.5902 20.5335 81.5838 20.0651C81.5776 19.6111 81.8194 19.2116 82.1836 18.9952C81.8675 18.8222 81.6302 18.5124 81.5639 18.1299C81.5041 17.7847 81.5953 17.4484 81.7895 17.1882C81.3622 17.1434 80.9711 16.8749 80.7901 16.4518C80.621 16.0563 80.6762 15.6212 80.8988 15.2885C80.5899 15.265 80.2896 15.1252 80.0696 14.8735C79.8627 14.6367 79.7633 14.3427 79.7673 14.0512C79.4168 14.237 78.9829 14.2495 78.6083 14.0459C78.2121 13.8305 77.9825 13.4281 77.969 13.0078C77.7127 13.1676 77.3974 13.2339 77.0781 13.1691C76.7115 13.0947 76.417 12.8637 76.2494 12.56C76.0366 12.9218 75.6436 13.1648 75.1935 13.1648C75.0718 13.1647 74.9544 13.1467 74.8434 13.1136C74.785 13.1262 74.725 13.1349 74.6636 13.1389C74.2446 13.1662 73.8612 12.9794 73.6201 12.6723C73.4867 13.0057 73.2091 13.2778 72.8389 13.3902C72.4339 13.5131 72.0146 13.4159 71.7093 13.1674C71.6573 13.5383 71.4366 13.8807 71.0826 14.0737C70.7594 14.2499 70.3918 14.2649 70.0716 14.1466C70.1468 14.5548 70.0128 14.9912 69.6794 15.2865C69.3927 15.5405 69.0201 15.6355 68.6693 15.5782C68.6834 16.0468 68.4268 16.5021 67.9772 16.7188C67.3679 17.0124 66.636 16.7565 66.3423 16.1473C66.1685 15.7866 66.1871 15.3828 66.3577 15.0526C66.0351 15.0574 65.7112 14.9359 65.4669 14.6879C65.2195 14.4369 65.1029 14.106 65.1158 13.7796C64.7945 13.9377 64.4071 13.9543 64.0573 13.7911C63.6894 13.6195 63.4468 13.2884 63.3735 12.9185C63.1106 13.1409 62.7561 13.2522 62.3894 13.1936C61.9679 13.1263 61.6313 12.8513 61.467 12.4898Z" fill="#FFE45A"/>
<path d="M50.9322 1.22559C51.5776 1.22559 52.1529 1.30977 52.6581 1.47815C53.1632 1.61847 53.4158 1.70265 53.4158 1.73072V8.76047H50.7217C48.9818 8.76047 47.719 9.20948 46.9332 10.1075C46.1755 11.0055 45.7967 12.3385 45.7967 14.1064V23.9986H37.4199V1.77281H44.2813L44.8285 5.14036C45.3337 3.84947 46.1334 2.8813 47.2279 2.23585C48.3224 1.56234 49.5571 1.22559 50.9322 1.22559Z" fill="#2D2D32"/>
<path d="M50.9322 0.000732422C51.4248 0.000759994 51.8492 0.291678 52.0435 0.710978C52.3374 0.290332 52.8775 0.0844277 53.3963 0.238577C54.0446 0.431225 54.4141 1.11299 54.2215 1.76132C54.1547 1.9861 54.0289 2.1772 53.8663 2.32312C54.2375 2.5335 54.4882 2.93186 54.4882 3.38901C54.4882 3.78573 54.2993 4.13812 54.0068 4.36192C54.4532 4.54475 54.7676 4.98323 54.7676 5.49538C54.7676 5.99332 54.4703 6.42141 54.0436 6.61285C54.3483 6.83561 54.5464 7.19545 54.5464 7.60175C54.5464 8.15356 54.1813 8.61991 53.6796 8.77304C53.6878 8.83041 53.6925 8.88904 53.6925 8.94869C53.6925 9.62502 53.1441 10.1733 52.4678 10.1733C51.989 10.1733 51.5744 9.89844 51.3731 9.49793C51.1614 9.80661 50.8117 10.0149 50.409 10.0301C50.0671 10.0431 49.7526 9.91442 49.522 9.69676C49.4117 10.0251 49.164 10.305 48.8173 10.4441C48.5398 10.5554 48.2457 10.5578 47.9821 10.4717C47.9882 10.7149 47.9225 10.9622 47.7774 11.18C47.591 11.46 47.3092 11.6382 47.0038 11.7007C47.192 11.9615 47.2782 12.2953 47.2161 12.6367C47.1384 13.0637 46.8478 13.398 46.4739 13.551C46.7507 13.7755 46.9277 14.1182 46.9277 14.5024C46.9277 14.9249 46.7137 15.2973 46.3882 15.5175C46.7853 15.72 47.0573 16.1326 47.0573 16.6089C47.0573 17.0297 46.8449 17.4005 46.5217 17.621C46.9219 17.8224 47.1967 18.2367 47.1967 18.7153C47.1966 19.1604 46.959 19.5499 46.6038 19.7643C46.9668 19.9768 47.2107 20.3706 47.2107 20.8216C47.2107 21.3126 46.9216 21.7358 46.5045 21.931C46.8155 22.1531 47.0183 22.5168 47.0183 22.928C47.0183 23.5413 46.5676 24.0492 45.9793 24.1386C45.9198 24.7595 45.3969 25.245 44.7605 25.245C44.3045 25.245 43.9071 24.9956 43.6963 24.626C43.4805 24.975 43.0946 25.2077 42.6541 25.2077C42.2348 25.2076 41.8647 24.9969 41.644 24.6755C41.4433 25.0779 41.0281 25.3546 40.5478 25.3546C40.0825 25.3546 39.6778 25.0951 39.4705 24.713C39.2525 25.0506 38.8732 25.2745 38.4414 25.2745C37.7894 25.2745 37.2566 24.765 37.219 24.1225C36.635 24.0294 36.1885 23.5237 36.1885 22.9135C36.1885 22.4593 36.436 22.0631 36.8032 21.8517C36.4523 21.6363 36.2181 21.249 36.2181 20.807C36.2181 20.3259 36.4956 19.9097 36.8992 19.7094C36.5788 19.4885 36.3687 19.1192 36.3687 18.7006C36.3687 18.2923 36.5687 17.9308 36.8759 17.7083C36.4534 17.5152 36.1597 17.0892 36.1597 16.5943C36.1597 16.1541 36.3919 15.7683 36.7405 15.5524C36.3705 15.3417 36.1208 14.9441 36.1208 14.4879C36.1208 14.0124 36.392 13.6004 36.788 13.3975C36.4618 13.1775 36.2473 12.8046 36.2473 12.3815C36.2473 11.9721 36.4483 11.6097 36.7569 11.3874C36.3363 11.1935 36.0443 10.7685 36.0443 10.275C36.0443 9.79224 36.3237 9.37477 36.7295 9.17532C36.4108 8.95422 36.2018 8.58595 36.2018 8.16863C36.2018 7.68077 36.4871 7.25957 36.9 7.06268C36.5863 6.84092 36.3812 6.47564 36.3812 6.06226C36.3812 5.62494 36.6106 5.24127 36.9554 5.02463C36.5815 4.81501 36.3286 4.41509 36.3286 3.95589C36.3286 3.54579 36.5302 3.18282 36.8397 2.96056C36.4207 2.76605 36.1299 2.34176 36.1299 1.84937C36.1299 1.17305 36.6782 0.624742 37.3546 0.62472C37.7592 0.62472 38.1179 0.821082 38.3409 1.12358C38.5367 0.707675 38.9593 0.419616 39.4494 0.419614C39.9713 0.419614 40.4166 0.74627 40.5929 1.2061C40.8171 0.921028 41.165 0.73775 41.5558 0.737738C41.9381 0.737738 42.2795 0.912971 42.504 1.18742C42.6692 0.706394 43.1253 0.360564 43.6623 0.360564C44.3386 0.360604 44.887 0.908886 44.887 1.58522C44.887 1.77115 44.8453 1.94731 44.7711 2.10516C44.8955 2.14774 45.0116 2.21012 45.1154 2.28889C45.4923 1.9165 46.0558 1.83668 46.5126 2.05971C46.4958 1.59751 46.7426 1.14547 47.1822 0.922363C47.623 0.698618 48.1352 0.767316 48.4986 1.05586C48.5924 0.563623 48.9849 0.159746 49.5083 0.0759279C49.7778 0.0327788 50.0408 0.0811877 50.2658 0.198064C50.4576 0.073387 50.6864 0.000732422 50.9322 0.000732422ZM34.9338 23.9984V24.0344C34.9338 24.0408 34.9353 24.0457 34.938 24.0489C34.9409 24.0522 34.9454 24.0539 34.9518 24.0539H34.9616V24.0794C34.9616 24.0795 34.9606 24.0798 34.9588 24.0803C34.957 24.0809 34.9548 24.0812 34.9525 24.0812C34.9475 24.0812 34.943 24.0799 34.939 24.0775C34.9351 24.0751 34.9322 24.0717 34.9304 24.067L34.9283 24.0793H34.9033V23.9984H34.9338ZM51.9748 2.0029C51.7591 2.35225 51.3729 2.58516 50.9322 2.58518C50.6807 2.58518 50.4469 2.50921 50.2525 2.37918C50.1429 2.43429 50.0232 2.47401 49.8956 2.49444C49.5418 2.55109 49.1991 2.44999 48.9392 2.24314C48.8705 2.60274 48.6425 2.92793 48.2908 3.10647C47.9348 3.28717 47.5322 3.27724 47.199 3.11484C47.2108 3.42897 47.1026 3.74755 46.8714 3.99566C46.6596 4.2228 46.3817 4.35093 46.0952 4.37896C46.3063 4.70716 46.3573 5.13035 46.1946 5.51721C45.9323 6.14063 45.2143 6.43337 44.5908 6.17109C43.9674 5.90879 43.6747 5.19073 43.9369 4.56732C43.9569 4.51998 43.9797 4.47472 44.0047 4.43128C43.579 4.29571 43.2431 3.9317 43.1666 3.46062C43.1255 3.20747 43.1651 2.95989 43.2666 2.7441C43.048 2.66949 42.8572 2.53514 42.7139 2.36005C42.5488 2.84113 42.0929 3.18705 41.5558 3.18705C41.0339 3.18703 40.5885 2.86046 40.4122 2.40056C40.1879 2.68562 39.8403 2.86892 39.4494 2.86892C39.0448 2.86892 38.686 2.67261 38.4631 2.37006C38.3736 2.56011 38.2368 2.72321 38.0678 2.84456C38.487 3.039 38.7779 3.46339 38.7779 3.95589C38.7779 4.39327 38.5483 4.77677 38.2034 4.99338C38.5775 5.20296 38.8305 5.60294 38.8305 6.06226C38.8305 6.55016 38.5451 6.9712 38.1322 7.16807C38.446 7.38982 38.6511 7.75516 38.6511 8.16863C38.6511 8.65143 38.3716 9.06872 37.9657 9.26816C38.2846 9.48924 38.4936 9.85761 38.4936 10.275C38.4936 10.6844 38.2925 11.0466 37.9839 11.269C38.4045 11.4629 38.6966 11.888 38.6966 12.3815C38.6966 12.8571 38.4253 13.2689 38.0292 13.4718C38.3555 13.6918 38.5701 14.0648 38.5701 14.4879C38.5701 14.928 38.3378 15.3137 37.9892 15.5296C38.3592 15.7403 38.609 16.138 38.609 16.5943C38.609 17.0026 38.4088 17.3639 38.1016 17.5865C38.5242 17.7795 38.818 18.2057 38.818 18.7006C38.818 19.1818 38.5403 19.5978 38.1366 19.7981C38.4571 20.0189 38.6674 20.3883 38.6674 20.807C38.6674 21.2613 38.4199 21.6574 38.0526 21.8689C38.3842 22.0723 38.6113 22.4291 38.6354 22.8406C39.0175 22.9014 39.3406 23.1388 39.5185 23.4666C39.7366 23.129 40.1159 22.9053 40.5478 22.9053C40.9671 22.9053 41.337 23.1162 41.5577 23.4375C41.7584 23.035 42.1739 22.7584 42.6541 22.7583C43.11 22.7583 43.5074 23.0077 43.7182 23.3772C43.9031 23.0783 44.2129 22.8647 44.5748 22.8096C44.617 22.3697 44.8919 21.9979 45.2751 21.8185C44.9642 21.5964 44.7614 21.2328 44.7614 20.8216C44.7614 20.3765 44.9988 19.9868 45.354 19.7724C44.9912 19.5598 44.7474 19.1662 44.7473 18.7153C44.7473 18.2946 44.9594 17.9234 45.2825 17.7029C44.8826 17.5014 44.608 17.0873 44.608 16.6089C44.608 16.1864 44.8221 15.8138 45.1475 15.5937C44.7505 15.3912 44.4784 14.9787 44.4784 14.5024C44.4784 13.99 44.7932 13.5513 45.2398 13.3686C44.9041 13.0959 44.7235 12.6536 44.8064 12.1981C44.8986 11.6917 45.2898 11.3154 45.7648 11.2177C45.4748 10.8155 45.4478 10.2596 45.7388 9.82248C46.0502 9.35485 46.6274 9.17066 47.1367 9.33648C47.1251 8.84043 47.4178 8.36648 47.9054 8.17087C48.3627 7.98746 48.865 8.09958 49.2015 8.41649C49.359 7.94778 49.7931 7.60226 50.3164 7.58247C50.8113 7.56378 51.2483 7.84163 51.4571 8.25698C51.6122 8.03071 51.8413 7.85917 52.1096 7.77726C52.1014 7.71995 52.0971 7.66133 52.0971 7.60175C52.0971 7.10393 52.3942 6.67577 52.8208 6.48428C52.5162 6.2615 52.3183 5.9016 52.3183 5.49538C52.3183 5.09867 52.5071 4.74612 52.7995 4.52233C52.3533 4.33945 52.0389 3.90109 52.0389 3.38901C52.0389 3.02751 52.1955 2.70262 52.4446 2.47844C52.2433 2.36482 52.0824 2.19856 51.9748 2.0029Z" fill="#FFE45A"/>
<path d="M25.2403 10.4888C29.3094 10.4888 32.4104 11.4429 34.5431 13.3512C36.704 15.2595 37.7844 18.178 37.7844 22.1068V23.538H21.1151C21.1151 25.1376 21.4658 26.3443 22.1674 27.1581C22.897 27.9719 24.0336 28.3789 25.5771 28.3789C26.9802 28.3789 28.0045 28.0842 28.6499 27.4949C29.3234 26.9056 29.6602 26.1198 29.6602 25.1376H37.7844C37.7844 27.8316 36.7601 29.9363 34.7115 31.4517C32.6629 32.9671 29.6742 33.7248 25.7454 33.7248C21.6202 33.7248 18.421 32.7707 16.1479 30.8624C13.8748 28.9261 12.7383 26.0075 12.7383 22.1068C12.7383 18.2903 13.8468 15.3998 16.0637 13.4354C18.2807 11.471 21.3396 10.4888 25.2403 10.4888ZM25.5771 15.8347C22.9391 15.8347 21.4658 17.0835 21.1571 19.5811H29.3234C29.3234 18.4306 28.9867 17.5185 28.3132 16.845C27.6677 16.1715 26.7557 15.8347 25.5771 15.8347Z" fill="#2D2D32"/>
<path d="M26.2779 9.83853C26.5026 9.41531 26.9659 9.14619 27.4728 9.19302C28.0174 9.24333 28.4454 9.6429 28.5565 10.1501C28.8397 9.88516 29.2437 9.7587 29.6515 9.84645C30.0704 9.9366 30.3924 10.2311 30.5363 10.6029C30.8614 10.1992 31.4217 10.0322 31.9312 10.2289C32.4337 10.4229 32.7348 10.9121 32.7136 11.422C33.0876 11.2296 33.5508 11.235 33.9314 11.4768C34.3095 11.717 34.511 12.1301 34.4987 12.5475C34.968 12.2844 35.5729 12.3545 35.969 12.7561C36.3499 13.1422 36.4215 13.7171 36.1868 14.1748C36.6362 14.1428 37.0862 14.3607 37.3302 14.7753C37.5729 15.1878 37.5461 15.6842 37.3032 16.0608C37.7975 16.0816 38.2503 16.4026 38.4147 16.9C38.5734 17.3799 38.4186 17.888 38.0624 18.2027C38.4864 18.3415 38.8191 18.7076 38.8924 19.1786C38.9667 19.6568 38.7536 20.1132 38.3815 20.3723C38.7797 20.5644 39.0601 20.9658 39.0746 21.4382C39.0882 21.881 38.8648 22.276 38.5192 22.5017C38.7899 22.7263 38.9623 23.0653 38.9623 23.4446C38.9623 23.8821 38.7327 24.2658 38.3875 24.4824C38.5672 24.6955 38.6756 24.9706 38.6756 25.2711C38.6756 25.5284 38.596 25.7669 38.4605 25.964C38.7984 26.2401 38.9776 26.6883 38.8886 27.1466C38.7927 27.6407 38.4122 28.0069 37.9503 28.1091C38.2938 28.4768 38.3875 29.0346 38.1433 29.5073C37.8768 30.0229 37.2951 30.269 36.7556 30.1323C36.8648 30.5366 36.7639 30.9865 36.4502 31.308C36.1454 31.6204 35.7144 31.7347 35.3169 31.6498C35.5008 32.1825 35.2966 32.7896 34.7955 33.0946C34.3071 33.3917 33.6932 33.3066 33.3026 32.9243C33.2112 33.3156 32.9297 33.654 32.5233 33.7997C32.0704 33.962 31.5851 33.8412 31.2604 33.5288C31.1294 33.9401 30.7849 34.2696 30.3316 34.3596C29.9156 34.4421 29.5071 34.3031 29.2277 34.0246C29.0931 34.4994 28.6774 34.8651 28.1565 34.9108C27.6664 34.9537 27.2187 34.7017 26.9882 34.3019C26.775 34.6539 26.3897 34.8902 25.948 34.8931C25.5005 34.896 25.1075 34.6585 24.8915 34.3016C24.6621 34.6964 24.2203 34.9465 23.7347 34.9078C23.2299 34.8675 22.821 34.5264 22.67 34.0745C22.3921 34.3726 21.9718 34.5257 21.5421 34.443C21.0999 34.3579 20.7596 34.0446 20.6191 33.6489C20.2997 33.9946 19.7948 34.1394 19.3211 33.9766C18.8814 33.8255 18.5832 33.449 18.5111 33.0207C18.1348 33.3221 17.5991 33.3844 17.1513 33.1361C16.6807 32.8751 16.4496 32.3499 16.5399 31.8482C16.1404 31.9827 15.6823 31.9076 15.3421 31.6102C14.9873 31.3001 14.8547 30.8304 14.9573 30.4019C14.4852 30.5119 13.9723 30.3342 13.6766 29.913C13.3835 29.4955 13.3875 28.9583 13.6448 28.5528C13.2068 28.5102 12.8065 28.2326 12.6285 27.7969C12.4529 27.3669 12.5394 26.8949 12.8137 26.5587C12.3519 26.4612 11.9684 26.1001 11.8667 25.6083C11.7661 25.1219 11.9693 24.6434 12.3466 24.3692C11.9657 24.1817 11.6929 23.8013 11.6643 23.3472C11.6371 22.9169 11.8358 22.5247 12.1582 22.2857C11.7073 22.0866 11.4031 21.6251 11.4294 21.1035C11.4563 20.571 11.8196 20.1353 12.3031 19.9914C12.0148 19.7138 11.8679 19.3008 11.9486 18.8784C12.0329 18.4377 12.3438 18.0979 12.7374 17.9561C12.3742 17.6258 12.2312 17.0944 12.4185 16.609C12.6083 16.1171 13.0809 15.8178 13.5789 15.825C13.3888 15.4452 13.4016 14.977 13.6536 14.598C13.923 14.1927 14.3921 13.9998 14.8439 14.0629C14.7148 13.6306 14.8302 13.1431 15.1829 12.815C15.5137 12.5072 15.9692 12.4178 16.3726 12.5397C16.282 12.0521 16.4951 11.5378 16.945 11.2668C17.3868 11.0007 17.9292 11.0464 18.3166 11.3399C18.3863 10.9213 18.6715 10.5505 19.0977 10.392C19.5305 10.231 19.9963 10.3304 20.3234 10.6113C20.4313 10.1636 20.7881 9.79579 21.2691 9.69756C21.7408 9.60122 22.2043 9.79032 22.4812 10.1462C22.6603 9.75504 23.0404 9.47 23.4997 9.434C23.8076 9.40988 24.0975 9.50203 24.327 9.67319C24.5513 9.42225 24.8774 9.26418 25.2404 9.26418C25.6778 9.26418 26.0613 9.49366 26.2779 9.83853ZM11.2758 33.218C11.29 33.218 11.301 33.2207 11.3085 33.2263C11.3159 33.2318 11.3196 33.2395 11.3196 33.2493H11.2901C11.2901 33.2457 11.2888 33.2428 11.2864 33.2406C11.284 33.2385 11.2802 33.2375 11.2752 33.2375C11.2696 33.2375 11.2654 33.2389 11.2627 33.2418C11.2602 33.2448 11.259 33.2493 11.259 33.2551H11.3196V33.2602C11.3196 33.2745 11.3156 33.2851 11.3077 33.292C11.3 33.299 11.2888 33.3025 11.274 33.3025C11.2598 33.3025 11.2487 33.2989 11.2406 33.2917C11.2326 33.2846 11.2285 33.2741 11.2285 33.2602C11.2285 33.246 11.2327 33.2354 11.2409 33.2283C11.2492 33.2214 11.2608 33.218 11.2758 33.218ZM11.2592 33.2695C11.2603 33.2785 11.2656 33.2831 11.2752 33.2831C11.2794 33.2831 11.2828 33.2818 11.2852 33.2793C11.2876 33.2769 11.2888 33.2736 11.2888 33.2695H11.2592ZM26.3557 11.1127C26.1631 11.5366 25.7364 11.8316 25.2404 11.8316C24.9365 11.8316 24.6586 11.7207 24.4445 11.5374C24.2473 11.7274 23.9854 11.8528 23.6911 11.8758C23.2647 11.9093 22.8723 11.72 22.628 11.4058C22.4709 11.7494 22.1578 12.016 21.7593 12.0974C21.3734 12.1762 20.9929 12.0639 20.7155 11.8256C20.6233 12.2084 20.3486 12.54 19.9518 12.6876C19.5443 12.8392 19.1076 12.7597 18.7848 12.5154C18.7283 12.8568 18.5285 13.1724 18.2088 13.3649C17.8996 13.5512 17.541 13.5846 17.2208 13.4874C17.2946 13.8856 17.1698 14.312 16.8513 14.6083C16.5702 14.8697 16.199 14.9736 15.8464 14.9242C15.9472 15.2609 15.9031 15.6384 15.6933 15.954C15.4541 16.3138 15.0576 16.5058 14.6555 16.5003C14.8049 16.7981 14.833 17.1554 14.7037 17.4907C14.5705 17.8358 14.2978 18.0857 13.975 18.2018C14.2799 18.4792 14.4375 18.9041 14.3544 19.3386C14.2655 19.8033 13.9247 20.1557 13.5005 20.2822C13.7474 20.5195 13.8942 20.8583 13.8756 21.2271C13.8564 21.6079 13.6651 21.9393 13.3809 22.1498C13.7854 22.3287 14.0789 22.721 14.1087 23.193C14.1361 23.6274 13.9333 24.0228 13.6055 24.2611C13.933 24.4222 14.1857 24.7271 14.2653 25.1122C14.3431 25.4882 14.2392 25.8594 14.0139 26.1353C14.398 26.2163 14.7365 26.4801 14.896 26.8708C15.0519 27.2525 15.0007 27.667 14.7954 27.9905C15.1393 28.0236 15.4671 28.2007 15.6812 28.5055C15.8915 28.805 15.9486 29.166 15.8693 29.4959C16.24 29.4095 16.6456 29.4965 16.9541 29.7662C17.2897 30.0596 17.4265 30.4956 17.3534 30.9046C17.6684 30.7984 18.0254 30.8201 18.339 30.994C18.6785 31.1823 18.8931 31.5081 18.9527 31.8633C19.2694 31.6096 19.7051 31.5185 20.1173 31.6602C20.4846 31.7864 20.7529 32.0702 20.8734 32.4099C21.1513 32.1093 21.5735 31.9547 22.0051 32.0378C22.4552 32.1245 22.7998 32.4474 22.9354 32.8533C23.1815 32.5889 23.5415 32.4353 23.9295 32.4662C24.3381 32.4988 24.6835 32.7286 24.8805 33.0545C25.0911 32.6918 25.4824 32.4469 25.9321 32.444C26.3887 32.441 26.7882 32.6884 27.0012 33.0575C27.1965 32.7347 27.5378 32.5062 27.9424 32.4707C28.3175 32.4378 28.6678 32.5779 28.915 32.8246C29.0367 32.3962 29.3882 32.0496 29.855 31.9571C30.2632 31.8761 30.6641 32.0084 30.9429 32.2765C31.0546 31.9252 31.3231 31.6281 31.6969 31.4941C32.1527 31.3307 32.6414 31.4541 32.9661 31.7709C33.0381 31.4616 33.2295 31.1802 33.5222 31.0021C33.8008 30.8326 34.1202 30.7878 34.4158 30.8512C34.2704 30.4278 34.3631 29.9398 34.6971 29.5974C35.0129 29.2738 35.4641 29.1625 35.8732 29.2653C35.7959 28.98 35.821 28.6662 35.9674 28.383C36.1411 28.0467 36.449 27.8248 36.7918 27.7491C36.5335 27.4722 36.4066 27.08 36.4843 26.6798C36.5174 26.5094 36.5843 26.3542 36.6767 26.2198C36.5735 26.1355 36.4844 26.0347 36.4133 25.9214C36.2037 26.2954 35.8038 26.5484 35.3446 26.5484C34.8566 26.5484 34.4355 26.263 34.2386 25.8501C34.0169 26.1638 33.6516 26.369 33.2382 26.369C32.7554 26.369 32.338 26.0895 32.1385 25.6835C31.9175 26.0024 31.5492 26.2114 31.1318 26.2114C31.0243 26.2114 30.92 26.1974 30.8206 26.1713C30.6523 26.6704 30.1795 27.007 29.653 27.0031C29.8676 27.4873 29.7492 28.0738 29.3246 28.4333C28.8947 28.7973 28.2869 28.8134 27.8433 28.5105C27.7461 29.012 27.3395 29.4186 26.8052 29.4909C26.336 29.5543 25.8933 29.3429 25.6387 28.9806C25.4215 29.4681 24.901 29.7733 24.3466 29.6939C23.7671 29.6108 23.3411 29.1347 23.2993 28.574C22.8738 28.8778 22.2838 28.8847 21.846 28.5514C21.3801 28.1967 21.2398 27.5732 21.4763 27.0629C20.9531 27.0759 20.4602 26.7499 20.2852 26.2277C20.1181 25.7294 20.2896 25.1991 20.6752 24.8866C20.2537 24.7005 19.9553 24.2836 19.9446 23.7926C19.9299 23.1164 20.4663 22.5563 21.1425 22.5416C21.4917 22.5341 21.8097 22.6737 22.0378 22.9034C22.2623 22.624 22.6067 22.4451 22.9929 22.4451C23.4122 22.4451 23.7822 22.6559 24.0029 22.9773C24.2036 22.5748 24.619 22.2981 25.0993 22.2981C25.5552 22.2981 25.9526 22.5474 26.1634 22.9169C26.3792 22.5679 26.7653 22.3353 27.2057 22.3353C27.6486 22.3353 28.0365 22.5706 28.2515 22.9228C28.4633 22.5569 28.8588 22.3105 29.312 22.3105C29.803 22.3105 30.2263 22.5995 30.4216 23.0166C30.6437 22.7057 31.0074 22.5029 31.4186 22.5029C31.8636 22.5029 32.2533 22.7404 32.4677 23.0955C32.6803 22.7326 33.074 22.4889 33.5249 22.4889C33.9456 22.4889 34.3167 22.7009 34.5372 23.024C34.7387 22.624 35.1528 22.3495 35.6313 22.3495C36.0538 22.3495 36.4262 22.5635 36.6464 22.8889C36.744 22.6975 36.8904 22.5352 37.0693 22.4184C36.8082 22.2019 36.6377 21.8789 36.6265 21.5133C36.6133 21.0836 36.8232 20.6991 37.1514 20.4704C36.8009 20.3014 36.5365 19.9686 36.4722 19.555C36.4056 19.1267 36.5698 18.7159 36.8721 18.4486C36.515 18.3318 36.2162 18.053 36.0892 17.6689C35.9682 17.3028 36.0294 16.9203 36.2235 16.6197C35.8224 16.6025 35.438 16.3891 35.2193 16.0174C34.9986 15.6423 35.0005 15.1978 35.1852 14.8372C34.8403 14.8619 34.4872 14.7416 34.2253 14.4761C33.9805 14.228 33.8635 13.9018 33.8733 13.5789C33.4931 13.7914 33.0114 13.7942 32.618 13.5442C32.2357 13.3013 32.0341 12.8817 32.0512 12.4596C31.7511 12.6142 31.3889 12.645 31.0492 12.5139C30.7135 12.3843 30.4675 12.123 30.3474 11.8119C30.0663 12.1603 29.6039 12.3415 29.1362 12.2409C28.6521 12.1367 28.2972 11.7596 28.1976 11.3055C27.9509 11.5366 27.6106 11.6654 27.2475 11.6319C26.8737 11.5973 26.5549 11.3982 26.3557 11.1127ZM26.1414 24.1657C25.9257 24.5147 25.5398 24.7474 25.0993 24.7474C24.68 24.7474 24.3101 24.5366 24.0893 24.2152C23.8887 24.6177 23.4732 24.8943 22.9929 24.8944C22.6531 24.8944 22.3456 24.7559 22.1238 24.5324C22.0692 24.6004 22.0074 24.6624 21.9396 24.7174C22.2443 24.8515 22.4934 25.1088 22.6075 25.4493C22.711 25.7581 22.6842 26.0789 22.5573 26.3528C22.8261 26.3459 23.099 26.4269 23.3296 26.6025C23.6196 26.8233 23.7833 27.1483 23.8087 27.4852C24.0562 27.3084 24.3694 27.2228 24.6942 27.2694C25.0425 27.3193 25.3353 27.5115 25.5227 27.7784C25.69 27.4043 26.0411 27.1226 26.477 27.0637C26.7893 27.0215 27.0899 27.101 27.3311 27.2656C27.3822 27.0012 27.5203 26.7517 27.7419 26.5641C27.9743 26.3673 28.2586 26.2724 28.541 26.2743C28.4467 26.0619 28.4115 25.8205 28.4532 25.5743C28.5155 25.2064 28.7358 24.9049 29.0328 24.7274C28.709 24.6518 28.4344 24.4482 28.266 24.1723C28.0543 24.5383 27.6589 24.7846 27.2057 24.7846C26.7497 24.7846 26.3522 24.5353 26.1414 24.1657ZM36.7225 24.1297C36.6289 24.3132 36.4906 24.47 36.3217 24.5855C36.3431 24.6138 36.3631 24.6431 36.3821 24.6733C36.4827 24.4938 36.6271 24.3423 36.8009 24.2332C36.7731 24.2001 36.7468 24.1656 36.7225 24.1297ZM29.9842 24.5587C29.9697 24.5683 29.955 24.5775 29.9401 24.5864C29.9507 24.5889 29.9613 24.5916 29.9718 24.5943C29.9758 24.5824 29.9798 24.5705 29.9842 24.5587ZM34.6189 24.2633C34.5943 24.3122 34.5668 24.3593 34.5361 24.4042C34.5735 24.3713 34.6128 24.3404 34.6541 24.3122C34.642 24.2962 34.6302 24.2799 34.6189 24.2633ZM25.5772 14.4628C26.0229 14.4629 26.4129 14.701 26.6271 15.0569C26.9377 14.8841 27.3205 14.847 27.6764 14.9887C28.2005 15.1975 28.5004 15.7277 28.4403 16.2624C28.9967 16.0157 29.6626 16.2159 29.9846 16.7508C30.2928 17.2629 30.1824 17.9097 29.7528 18.2941C30.2687 18.4308 30.653 18.8961 30.6629 19.4562C30.6747 20.1325 30.1361 20.6902 29.4599 20.7021C29.0193 20.7098 28.6291 20.4839 28.4073 20.1385C28.2039 20.5329 27.793 20.8029 27.3187 20.8029C26.8496 20.8029 26.4424 20.5389 26.2367 20.1517C26.0179 20.4851 25.6409 20.7054 25.2123 20.7054C24.7851 20.7054 24.4091 20.4865 24.1899 20.1548C23.9849 20.5442 23.5765 20.8097 23.1058 20.8097C22.7264 20.8097 22.3874 20.6372 22.1628 20.3663C21.902 20.597 21.5452 20.7157 21.1737 20.6613C20.5045 20.5633 20.0415 19.9413 20.1395 19.272C20.2103 18.7891 20.5538 18.4135 20.9911 18.2787C20.6453 17.8713 20.5959 17.269 20.9087 16.8036C21.2119 16.3525 21.7629 16.1678 22.2589 16.3085C22.1122 15.719 22.4228 15.0986 23.0039 14.8727C23.5259 14.6699 24.102 14.8494 24.4239 15.275C24.5932 14.8016 25.0456 14.4628 25.5772 14.4628ZM24.5622 16.5203C24.4346 16.8014 24.2016 17.035 23.8911 17.1557C23.6328 17.2561 23.3612 17.2626 23.1137 17.1923C23.1939 17.5161 23.1423 17.8713 22.9415 18.17C22.8755 18.2682 22.7974 18.3535 22.711 18.4259C22.8349 18.3837 22.9676 18.3604 23.1058 18.3604C23.533 18.3604 23.9089 18.5794 24.128 18.911C24.3331 18.5217 24.7417 18.2561 25.2123 18.2561C25.6813 18.2561 26.0885 18.52 26.2942 18.9071C26.513 18.5737 26.8901 18.3536 27.3187 18.3536C27.7515 18.3536 28.1317 18.5782 28.3495 18.9171C28.4182 18.7839 28.5107 18.665 28.6214 18.5657C28.3247 18.487 28.057 18.2977 27.8862 18.0139C27.7418 17.7741 27.6893 17.5046 27.7183 17.2464C27.4279 17.3747 27.0883 17.3909 26.7701 17.2642C26.553 17.1777 26.3744 17.0361 26.2438 16.8619C26.052 16.9867 25.8231 17.0595 25.5771 17.0595C25.1547 17.0595 24.7823 16.8456 24.5622 16.5203ZM22.2846 18.6572C22.2878 18.6609 22.2911 18.6645 22.2942 18.6682C22.3028 18.6606 22.3115 18.6531 22.3204 18.6457C22.3085 18.6497 22.2966 18.6535 22.2846 18.6572Z" fill="#FFE45A"/>
<path d="M12.4994 3.45288C13.1168 3.45288 13.8886 3.53707 14.8146 3.70545C15.7407 3.84576 16.4844 4.01414 17.0456 4.21058V9.13561H15.1093C14.2113 9.13561 13.5939 9.30399 13.2571 9.64075C12.9204 9.9775 12.752 10.5528 12.752 11.3666V12.2506H17.0456V17.9333H12.752V34.4764H4.37523V17.9333H1.26025V12.2506H4.37523V11.3245C4.37523 8.46211 5.07681 6.44158 6.47995 5.26294C7.88309 4.05623 9.88959 3.45288 12.4994 3.45288Z" fill="#2D2D32"/>
<path d="M11.5243 2.14683C11.7498 2.13383 11.9643 2.18304 12.1518 2.27898C12.262 2.24641 12.3786 2.22861 12.4993 2.2286C12.9624 2.2286 13.3653 2.48572 13.5735 2.86485C13.8266 2.44681 14.3176 2.20427 14.8285 2.29199C15.3543 2.38228 15.7435 2.79541 15.8284 3.293C16.1298 3.042 16.5464 2.94001 16.9517 3.05665C17.6017 3.24372 17.977 3.92226 17.7899 4.57222C17.7667 4.65306 17.7356 4.72961 17.6981 4.80139C18.1116 4.99805 18.3975 5.41947 18.3975 5.9078C18.3975 6.40574 18.1001 6.83383 17.6735 7.02527C17.9781 7.24804 18.1762 7.60786 18.1762 8.01417C18.1762 8.57725 17.7961 9.05119 17.2785 9.19427C17.283 9.23707 17.2857 9.28049 17.2857 9.32448C17.2857 10.0008 16.7374 10.5491 16.061 10.5491C15.6155 10.5491 15.2257 10.3112 15.0114 9.9555C14.8544 10.2047 14.6076 10.3984 14.3013 10.4829C14.2413 10.4995 14.181 10.5111 14.1209 10.5183C14.1605 10.6644 14.1739 10.8203 14.1554 10.9798C14.1488 11.0373 14.1379 11.0933 14.1237 11.1477C14.2715 11.2502 14.3953 11.3843 14.486 11.5403C14.7008 11.1869 15.0894 10.9508 15.5332 10.9508C16.025 10.9509 16.4488 11.2411 16.6436 11.6594C16.7421 11.6339 16.8455 11.6203 16.952 11.6203C17.6283 11.6203 18.1766 12.1686 18.1767 12.8449C18.1767 13.2674 17.9626 13.6399 17.6371 13.86C18.0342 14.0625 18.3063 14.4751 18.3063 14.9514C18.3063 15.3722 18.094 15.7432 17.7708 15.9637C18.1709 16.1651 18.4455 16.5793 18.4455 17.0578C18.4455 17.7342 17.8972 18.2825 17.2208 18.2825C17.1562 18.2825 17.0928 18.2773 17.0309 18.2677C16.9595 18.8759 16.4426 19.3479 15.8151 19.3479C15.3241 19.3479 14.9008 19.0587 14.7056 18.6415C14.5372 18.8772 14.2877 19.0506 13.9976 19.1208C13.9843 19.561 13.739 19.9425 13.3796 20.1475C13.7286 20.3633 13.9612 20.7493 13.9612 21.1898C13.9612 21.6092 13.7503 21.9791 13.4289 22.1998C13.8315 22.4004 14.1082 22.8158 14.1082 23.2962C14.1082 23.7614 13.8487 24.166 13.4666 24.3733C13.8042 24.5913 14.0279 24.9707 14.0279 25.4026C14.0279 25.8602 13.7768 26.2588 13.405 26.469C13.7521 26.6852 13.9832 27.0701 13.9832 27.5091C13.9832 27.9633 13.7357 28.3594 13.3683 28.5708C13.7194 28.7861 13.9536 29.1734 13.9536 29.6154C13.9536 30.0966 13.676 30.5126 13.2724 30.7129C13.5929 30.9337 13.8031 31.3031 13.8031 31.7218C13.8031 32.1301 13.603 32.4915 13.2958 32.714C13.7184 32.9071 14.012 33.3332 14.0121 33.8282C14.0121 34.5045 13.4638 35.0528 12.7874 35.0528C12.6642 35.0528 12.5453 35.0344 12.4331 35.0005C12.2539 35.4545 11.8118 35.7758 11.2941 35.7758C10.8186 35.7758 10.4066 35.5047 10.2037 35.1086C9.98371 35.4348 9.61084 35.6495 9.18775 35.6495C8.77832 35.6495 8.41612 35.4483 8.19376 35.1397C7.99989 35.5603 7.57489 35.8525 7.08138 35.8525C6.59858 35.8525 6.18115 35.573 5.9817 35.1671C5.76061 35.4859 5.39223 35.6949 4.97486 35.6949C4.29854 35.6949 3.75023 35.1466 3.7502 34.4703C3.7502 34.2926 3.78829 34.1238 3.85635 33.9714C3.54204 33.7497 3.33657 33.3841 3.33656 32.9702C3.33656 32.5329 3.56598 32.1492 3.91091 31.9326C3.53684 31.723 3.28378 31.323 3.28378 30.8637C3.2838 30.4536 3.48567 30.0908 3.7952 29.8685C3.37608 29.6741 3.08526 29.2498 3.08526 28.7573C3.08527 28.3221 3.3125 27.94 3.65468 27.7229C3.27765 27.5141 3.02232 27.1125 3.02232 26.651C3.02232 26.1291 3.3488 25.6837 3.80866 25.5074C3.52363 25.2831 3.34031 24.9354 3.34029 24.5446C3.34029 24.1623 3.51549 23.8208 3.78997 23.5962C3.30898 23.431 2.96312 22.9751 2.96312 22.4381C2.96315 21.9123 3.29452 21.464 3.75977 21.2904C3.47777 21.0661 3.29679 20.7201 3.29679 20.3317C3.2968 19.8759 3.54598 19.4785 3.9154 19.2676C3.73239 19.1545 3.58126 18.9947 3.47902 18.8046C3.25462 19.0592 2.9264 19.2201 2.56038 19.2201C2.0073 19.2201 1.53993 18.8534 1.3879 18.3499C1.3641 18.3513 1.34014 18.3521 1.316 18.3521C0.639637 18.3521 0.0913408 17.8038 0.0913408 17.1275C0.0913576 16.6977 0.312831 16.3199 0.647757 16.1013C0.262342 15.8951 2.04441e-08 15.4888 0 15.0211C5.41068e-06 14.5352 0.282964 14.1155 0.693054 13.9175C0.377347 13.696 0.170729 13.3297 0.170722 12.9147C0.170722 12.2384 0.719018 11.6901 1.39538 11.6901C1.46999 11.6901 1.543 11.697 1.61394 11.7098C1.81732 11.3154 2.22849 11.0455 2.70285 11.0455C2.89735 11.0455 3.08129 11.0909 3.24462 11.1716C3.38036 10.9531 3.583 10.7806 3.82391 10.6825C3.50844 10.4289 3.32504 10.0248 3.37288 9.59268C3.42401 9.13101 3.72548 8.75769 4.12708 8.59331C3.75972 8.27461 3.6031 7.75302 3.77263 7.26565C3.94606 6.7671 4.40932 6.45186 4.90804 6.44314C4.69953 6.01964 4.74688 5.49494 5.07098 5.1113C5.39439 4.72849 5.90229 4.59388 6.35394 4.72725C6.27603 4.23218 6.50919 3.71947 6.97359 3.46387C7.43048 3.21242 7.97754 3.28356 8.35372 3.60081C8.45729 3.16761 8.79407 2.80652 9.25666 2.69443C9.69087 2.58922 10.1269 2.72981 10.419 3.02675C10.56 2.54308 10.9927 2.17751 11.5243 2.14683ZM0.966478 34.4768V34.5369H0.982026V34.5577H0.966478V34.5609C0.966478 34.5638 0.967057 34.5659 0.968272 34.5671C0.969495 34.5684 0.971741 34.5689 0.974999 34.5689H0.982026V34.5869C0.979986 34.5876 0.977313 34.5883 0.973953 34.5888C0.970615 34.5894 0.967816 34.5897 0.965581 34.5897C0.956097 34.5897 0.948708 34.5875 0.943606 34.5831C0.938503 34.5788 0.935982 34.5714 0.935982 34.561V34.5577H0.92462V34.5369H0.935982V34.4768H0.966478ZM13.5473 4.08711C13.3326 4.44125 12.9437 4.67791 12.4993 4.67791C12.2986 4.67791 12.1092 4.62931 11.942 4.54367C11.8538 4.56968 11.7613 4.58657 11.6655 4.5921C11.2982 4.61328 10.9596 4.47017 10.7207 4.22674C10.6018 4.63373 10.2751 4.96781 9.83341 5.07482C9.43916 5.17033 9.04339 5.06317 8.75526 4.82038C8.67797 5.14456 8.46955 5.4362 8.1546 5.60956C7.85595 5.77393 7.51866 5.80047 7.21577 5.71062C7.26918 6.04968 7.18092 6.4091 6.94205 6.6919C6.70476 6.97279 6.36802 7.11983 6.02715 7.12573C6.16742 7.40973 6.19834 7.74757 6.08605 8.07038C5.96575 8.41619 5.70578 8.67327 5.3915 8.80155C5.68536 9.05635 5.85343 9.44639 5.80739 9.86221C5.75621 10.3243 5.45406 10.6978 5.05185 10.8619C5.33122 11.0863 5.51019 11.4306 5.5102 11.8168C5.5102 12.4932 4.9619 13.0415 4.28554 13.0415C4.09096 13.0415 3.90715 12.9958 3.74378 12.915C3.52777 13.263 3.1425 13.4948 2.70285 13.4948C2.62817 13.4948 2.55513 13.4877 2.48414 13.4749C2.36244 13.711 2.1666 13.9025 1.92698 14.0181C2.24273 14.2396 2.4493 14.6061 2.44931 15.0211C2.44931 15.4508 2.22778 15.8285 1.89289 16.0471C2.17672 16.1989 2.39362 16.4594 2.48833 16.7729C2.51215 16.7715 2.53621 16.7708 2.56038 16.7708C3.02715 16.7708 3.43278 17.032 3.63943 17.4161C3.86383 17.1615 4.19216 17.0007 4.55822 17.0007C5.23458 17.0007 5.78287 17.549 5.78287 18.2254C5.78287 18.6812 5.5337 19.0784 5.16427 19.2893C5.51341 19.505 5.74609 19.8912 5.7461 20.3317C5.7461 20.8576 5.41465 21.3058 4.9493 21.4794C5.23138 21.7037 5.41241 22.0497 5.41243 22.4381C5.41243 22.8204 5.2372 23.1617 4.96275 23.3863C5.4438 23.5515 5.7896 24.0075 5.7896 24.5446C5.78958 25.0665 5.46299 25.5118 5.00311 25.6881C5.28822 25.9123 5.47163 26.2601 5.47163 26.651C5.47162 27.0863 5.24423 27.4681 4.90206 27.6853C5.27916 27.8941 5.53455 28.2958 5.53456 28.7573C5.53456 29.1675 5.33266 29.5301 5.02315 29.7524C5.44233 29.9468 5.73307 30.3712 5.73309 30.8637C5.73309 31.3011 5.50365 31.6846 5.15874 31.9012C5.53287 32.1108 5.78586 32.5109 5.78586 32.9702C5.78586 33.1479 5.7476 33.3165 5.67957 33.4688C5.84693 33.5868 5.98334 33.7455 6.07439 33.9307C6.29548 33.6119 6.66403 33.4032 7.08138 33.4032C7.4907 33.4032 7.85286 33.6041 8.07521 33.9126C8.26913 33.4921 8.69427 33.2002 9.18775 33.2002C9.66321 33.2002 10.0751 33.4713 10.278 33.8672C10.498 33.541 10.8711 33.3265 11.2941 33.3265C11.4173 33.3265 11.5361 33.345 11.6483 33.3788C11.7347 33.1599 11.8823 32.9719 12.0701 32.8358C11.6476 32.6427 11.3538 32.2168 11.3538 31.7218C11.3538 31.2407 11.6314 30.8245 12.035 30.6242C11.7146 30.4034 11.5043 30.0341 11.5043 29.6154C11.5043 29.1612 11.7518 28.765 12.119 28.5536C11.7681 28.3382 11.5339 27.951 11.5339 27.5091C11.5339 27.0515 11.7849 26.6527 12.1567 26.4424C11.8097 26.2262 11.5786 25.8415 11.5786 25.4026C11.5786 24.9373 11.8381 24.5326 12.2202 24.3253C11.8826 24.1072 11.6589 23.728 11.6589 23.2962C11.6589 22.8769 11.8696 22.5069 12.1909 22.2862C11.7885 22.0855 11.5119 21.6701 11.5119 21.1898C11.5119 20.7339 11.7612 20.3364 12.1307 20.1256C11.7818 19.9098 11.5492 19.5238 11.5492 19.0834C11.5492 18.5067 11.948 18.0232 12.4848 17.8933C12.5047 17.2343 13.0449 16.7062 13.7087 16.7062C14.1997 16.7062 14.6229 16.9952 14.8181 17.4123C15.0402 17.1014 15.4039 16.8986 15.8151 16.8986C15.8797 16.8986 15.9431 16.9035 16.005 16.9131C16.0474 16.5528 16.246 16.2402 16.5315 16.0454C16.1315 15.8439 15.857 15.4299 15.857 14.9514C15.857 14.5289 16.0709 14.1563 16.3963 13.9362C16.153 13.8121 15.9568 13.6091 15.8413 13.3608C15.7428 13.3863 15.6396 13.4001 15.5332 13.4001C15.0807 13.4001 14.6859 13.1546 14.4739 12.7898C14.259 13.1431 13.8704 13.3792 13.4266 13.3792C12.7503 13.3792 12.202 12.8309 12.202 12.1546C12.202 12.0477 12.2157 11.9441 12.2415 11.8453C11.8823 11.5959 11.6685 11.1621 11.7224 10.6974C11.7891 10.1229 12.2433 9.68787 12.7935 9.62257C12.6173 8.97234 12.9996 8.30124 13.6497 8.1218C14.1918 7.97219 14.749 8.2118 15.025 8.67149C15.1856 8.41728 15.437 8.22633 15.7338 8.14423C15.7293 8.1015 15.7269 8.05809 15.7269 8.01417C15.7269 7.51627 16.0241 7.088 16.4508 6.89655C16.1462 6.67377 15.9482 6.31403 15.9482 5.9078C15.9482 5.70275 15.9987 5.50952 16.0878 5.33972C15.7217 5.16645 15.4716 4.82547 15.4055 4.43917C15.1395 4.66086 14.7819 4.76921 14.4139 4.70602C14.031 4.64026 13.7206 4.4032 13.5473 4.08711Z" fill="#FFE45A"/>
<path d="M87.5986 4.29834C90.9942 4.29834 93.7584 4.87363 95.8911 6.02421C98.0239 7.14672 99.0903 8.98484 99.0903 11.5386V20.21C99.0903 20.6871 99.2026 21.0799 99.4271 21.3886C99.6516 21.6973 99.9883 21.8517 100.437 21.8517H101.953V26.6925C101.869 26.7486 101.644 26.8469 101.279 26.9872C100.942 27.0994 100.451 27.2117 99.8059 27.3239C99.1605 27.4643 98.4168 27.5344 97.5749 27.5344C95.9473 27.5344 94.6003 27.2959 93.5339 26.8188C92.4955 26.3137 91.7799 25.6261 91.3871 24.7562C90.3207 25.5981 89.128 26.2716 87.809 26.7767C86.4901 27.2818 84.9466 27.5344 83.1787 27.5344C77.959 27.5344 75.3491 25.4578 75.3491 21.3044C75.3491 19.1436 75.9244 17.5019 77.075 16.3794C78.2536 15.2288 79.9374 14.4431 82.1263 14.0221C84.3152 13.6012 87.1776 13.3907 90.7135 13.3907V12.2963C90.7135 11.4263 90.4049 10.7668 89.7875 10.3178C89.1981 9.86882 88.4264 9.64432 87.4723 9.64432C86.6023 9.64432 85.8446 9.79866 85.1992 10.1074C84.5818 10.416 84.2731 10.9071 84.2731 11.5807V11.749H76.0226C75.9946 11.6087 75.9805 11.4123 75.9805 11.1597C75.9805 9.055 76.9768 7.38526 78.9692 6.15049C80.9898 4.91572 83.8662 4.29834 87.5986 4.29834ZM90.7135 17.3476C88.3282 17.3476 86.5602 17.6142 85.4097 18.1474C84.2871 18.6525 83.7259 19.34 83.7259 20.21C83.7259 21.6131 84.68 22.3147 86.5883 22.3147C87.6828 22.3147 88.6369 22.0201 89.4507 21.4307C90.2926 20.8414 90.7135 20.1118 90.7135 19.2418V17.3476Z" fill="#2D2D32"/>
<path d="M87.1478 2.91002C87.3894 2.90686 87.6154 2.9741 87.8068 3.0924C88.1532 3.15162 88.4497 3.35625 88.6317 3.64134C88.8525 3.22007 89.3096 2.94884 89.8137 2.9888C90.3557 3.03176 90.7867 3.42137 90.9074 3.92269C91.182 3.65397 91.5782 3.51802 91.9848 3.59231C92.4015 3.66844 92.7301 3.94714 92.8876 4.30824C93.1916 3.89531 93.736 3.70273 94.2507 3.86917C94.7576 4.03313 95.0839 4.4963 95.098 5.00009C95.4528 4.78539 95.9079 4.75613 96.3019 4.96272C96.7107 5.17707 96.9479 5.58988 96.9576 6.02084C97.4349 5.7159 98.0764 5.77508 98.4893 6.19515C98.8928 6.60561 98.9478 7.22815 98.6581 7.69681C99.1449 7.69439 99.6069 7.98416 99.8002 8.46312C99.9898 8.93275 99.8672 9.45067 99.5304 9.78764C100.033 9.91385 100.419 10.3522 100.454 10.8969C100.485 11.3849 100.226 11.8243 99.8252 12.0468C100.177 12.262 100.412 12.6496 100.412 13.0922C100.412 13.5446 100.166 13.9393 99.8014 14.1514C100.155 14.3662 100.391 14.7548 100.391 15.1986C100.391 15.684 100.108 16.1034 99.6989 16.3015C100.015 16.523 100.222 16.8897 100.222 17.3049C100.222 17.7274 100.008 18.0999 99.6824 18.32C100.079 18.5225 100.351 18.935 100.351 19.4113C100.351 19.7094 100.245 19.9824 100.068 20.1948C100.251 20.2704 100.419 20.3917 100.553 20.5569C100.595 20.6093 100.632 20.6643 100.665 20.721C100.877 20.5445 101.15 20.4383 101.447 20.4383C102.124 20.4383 102.672 20.9867 102.672 21.663C102.672 21.9143 102.596 22.1479 102.466 22.3423C102.885 22.537 103.175 22.9611 103.175 23.453C103.175 23.896 102.94 24.284 102.587 24.499C102.953 24.7108 103.2 25.1063 103.2 25.5595C103.2 26.1451 102.789 26.6341 102.24 26.755C102.394 27.3925 102.017 28.0426 101.38 28.2213C100.939 28.345 100.487 28.2108 100.185 27.9093C100.058 28.3786 99.6566 28.7465 99.1442 28.8063C98.6401 28.865 98.1717 28.6087 97.9363 28.1932C97.7134 28.5707 97.295 28.8159 96.8265 28.7949C96.3308 28.7727 95.9174 28.4587 95.7442 28.0262C95.4558 28.3773 94.9826 28.5536 94.5111 28.4403C94.0075 28.3193 93.6524 27.9031 93.5844 27.4195C93.1835 27.7031 92.6337 27.7282 92.2 27.4405C91.7326 27.1304 91.5473 26.5548 91.7108 26.0458C91.47 26.0652 91.2299 26.0126 91.0209 25.8976C91.0131 26.3136 90.7934 26.7154 90.4063 26.9377C89.9938 27.1747 89.5012 27.1445 89.128 26.9018C89.0969 27.3611 88.8073 27.7836 88.3499 27.9615C87.8665 28.1494 87.3368 28.0093 87.0053 27.6496C86.8678 28.0605 86.5163 28.3856 86.0598 28.4675C85.6222 28.546 85.1974 28.3814 84.9236 28.0704C84.7644 28.5394 84.3282 28.8836 83.8039 28.9007C83.2927 28.9174 82.8445 28.6183 82.6468 28.1791C82.4018 28.5183 81.9894 28.7232 81.5425 28.6825C81.0268 28.6355 80.6152 28.2751 80.4781 27.8064C80.1739 28.0956 79.7292 28.2212 79.2965 28.0972C78.8352 27.9651 78.512 27.5853 78.4296 27.1436C78.0298 27.4145 77.4899 27.4334 77.0632 27.1491C76.6546 26.8768 76.4626 26.4014 76.5315 25.946C76.0079 26.1171 75.4159 25.917 75.1121 25.4283C74.8319 24.9778 74.8799 24.4161 75.1907 24.0224C74.6769 23.9555 74.2425 23.5649 74.1445 23.0279C74.0415 22.4633 74.3434 21.9185 74.8437 21.6923C74.5146 21.4566 74.309 21.0632 74.3327 20.6291C74.3564 20.1962 74.6024 19.8285 74.9536 19.6297C74.4524 19.3522 74.2003 18.751 74.3819 18.1849C74.5651 17.614 75.1276 17.2708 75.7015 17.344C75.5283 16.9362 75.5827 16.4485 75.8846 16.0836C76.2114 15.6887 76.7337 15.5513 77.1944 15.6955C77.1488 15.2444 77.3565 14.7854 77.7678 14.5305C78.1476 14.2951 78.6058 14.2928 78.9759 14.4838C78.9687 13.9702 79.2875 13.4873 79.7994 13.3099C80.2794 13.1435 80.7923 13.2931 81.1118 13.6486C81.1972 13.4053 81.3581 13.1933 81.5715 13.0456C81.1996 12.9506 80.8957 12.6854 80.748 12.3377C80.5245 12.6346 80.1693 12.8267 79.7691 12.8267C79.3532 12.8267 78.986 12.6192 78.7646 12.3023C78.5661 12.7107 78.1473 12.9923 77.6627 12.9923C77.2221 12.9923 76.8359 12.7595 76.6201 12.4102C76.4812 12.4689 76.3291 12.5032 76.1691 12.5065C75.4929 12.5204 74.9335 11.9836 74.9195 11.3074C74.9091 10.8046 75.2033 10.3665 75.6327 10.169C75.2864 9.84421 75.1466 9.33251 75.3187 8.85778C75.4839 8.40187 75.8918 8.10385 76.3437 8.05665C76.0716 7.60464 76.1145 7.01015 76.4881 6.60028C76.85 6.20328 77.413 6.0994 77.8798 6.30159C77.8538 5.86078 78.0676 5.42091 78.4725 5.17814C78.8772 4.93557 79.3654 4.95414 79.7419 5.18427C79.782 4.71806 80.0887 4.29604 80.5592 4.13213C81.0182 3.97222 81.5079 4.10148 81.8297 4.42394C81.9615 4.01135 82.3087 3.68155 82.7639 3.59336C83.2256 3.50392 83.6767 3.68679 83.9521 4.02958C84.1263 3.63487 84.5043 3.34433 84.9645 3.30334C85.3763 3.26666 85.7583 3.43862 86.007 3.73149C86.1717 3.25885 86.6184 2.91698 87.1478 2.91002ZM74.1803 27.0291C74.1826 27.0295 74.1844 27.0299 74.1856 27.0303C74.1869 27.0308 74.1877 27.0311 74.188 27.0313V27.049H74.1825C74.1809 27.049 74.1797 27.0495 74.1789 27.0506C74.1781 27.0517 74.1777 27.0532 74.1777 27.0549V27.0865C74.1777 27.0957 74.1738 27.1024 74.1661 27.1065C74.1583 27.1107 74.1482 27.1128 74.1359 27.1128C74.1223 27.1128 74.1118 27.1105 74.1045 27.1061C74.0972 27.1016 74.0936 27.0955 74.0936 27.0878C74.0936 27.0869 74.0936 27.0862 74.0937 27.0857H74.1237V27.0863C74.1238 27.0888 74.125 27.0906 74.1272 27.0917C74.1295 27.0928 74.1323 27.0934 74.1354 27.0934C74.1388 27.0934 74.1416 27.0926 74.1438 27.091C74.146 27.0893 74.1472 27.0868 74.1472 27.0836V27.0797C74.1344 27.0797 74.1239 27.0789 74.116 27.0774C74.108 27.0758 74.1019 27.073 74.0976 27.0688C74.0934 27.0648 74.0913 27.0588 74.0913 27.0509C74.0913 27.0358 74.1008 27.0283 74.1197 27.0283C74.1261 27.0283 74.1318 27.0292 74.1366 27.031C74.1414 27.0328 74.1457 27.0353 74.1496 27.0383C74.151 27.0352 74.1536 27.0327 74.1574 27.0309C74.1613 27.0291 74.1663 27.0283 74.1722 27.0283C74.1752 27.0283 74.1779 27.0286 74.1803 27.0291ZM74.1321 27.0473C74.1252 27.0473 74.1218 27.0498 74.1218 27.0549C74.1218 27.0581 74.1239 27.0606 74.1279 27.0624C74.1321 27.0643 74.1386 27.0654 74.1472 27.0654V27.0584C74.1472 27.0552 74.1456 27.0526 74.1426 27.0504C74.1396 27.0483 74.1361 27.0473 74.1321 27.0473ZM88.6837 4.86719C88.4789 5.25742 88.0702 5.52377 87.599 5.52377C87.363 5.52377 87.1427 5.4569 86.9557 5.34124C86.6667 5.29173 86.4117 5.141 86.2295 4.92609C86.0758 5.36638 85.6765 5.69899 85.1818 5.74308C84.7579 5.78085 84.3653 5.59768 84.1174 5.28892C83.9609 5.64368 83.6392 5.91862 83.2297 5.99797C82.8142 6.07846 82.407 5.93874 82.129 5.66011C82.0159 6.01452 81.7433 6.31329 81.3649 6.4451C81.0042 6.57078 80.6245 6.51769 80.3222 6.33268C80.2896 6.71096 80.0824 7.06884 79.7319 7.27898C79.38 7.48985 78.9651 7.50321 78.6153 7.35193C78.6344 7.67039 78.5301 7.99599 78.2982 8.25039C78.0872 8.48185 77.8077 8.61355 77.5189 8.64326C77.7026 8.94867 77.7524 9.33121 77.6215 9.69241C77.5051 10.0135 77.2682 10.256 76.9804 10.388C77.0595 10.462 77.1287 10.5464 77.186 10.639C77.3325 10.5771 77.4937 10.543 77.6627 10.543C78.0785 10.5431 78.4457 10.7505 78.667 11.0673C78.8656 10.6589 79.2845 10.3774 79.7691 10.3774C80.2755 10.3774 80.71 10.6848 80.8964 11.1232C81.1199 10.8264 81.4753 10.6344 81.8755 10.6344C82.2816 10.6344 82.6414 10.8323 82.8642 11.1368C83.0338 10.7589 83.3891 10.4829 83.8141 10.4246C83.719 9.9391 83.9256 9.42391 84.3711 9.14795C84.8458 8.85389 85.4429 8.92374 85.8372 9.28055C85.9505 8.75891 86.3981 8.35392 86.9572 8.31886C87.5116 8.28409 88.0026 8.62385 88.184 9.1203C88.5175 8.72255 89.0819 8.56706 89.5877 8.77482C90.1414 9.00225 90.4387 9.58865 90.3217 10.1542C90.9526 9.95252 91.6325 10.2899 91.8509 10.9192C92.0352 11.4504 91.8322 12.022 91.3913 12.3271C91.685 12.5506 91.8748 12.9037 91.8751 13.3012C91.8756 13.9775 91.3275 14.5261 90.6512 14.5266C90.2302 14.5269 89.8587 14.3147 89.6381 13.9913C89.4416 14.3796 89.0442 14.6507 88.5786 14.6635C88.1623 14.675 87.789 14.4772 87.5591 14.1657C87.3756 14.5586 86.9888 14.8416 86.5256 14.8707C86.0514 14.9005 85.6237 14.6562 85.3962 14.2742C85.2078 14.5976 84.8743 14.8309 84.4738 14.8757C84.0617 14.9217 83.6748 14.7575 83.4196 14.4687C83.2767 14.8635 82.9347 15.1746 82.4921 15.257C82.0567 15.3381 81.6322 15.1778 81.3563 14.8709C81.2369 15.2116 80.9692 15.4966 80.6016 15.624C80.2712 15.7386 79.9252 15.7031 79.6374 15.5541C79.6429 15.9696 79.437 16.3776 79.0581 16.6125C78.7431 16.8077 78.3741 16.8424 78.0462 16.7396C78.0784 17.0545 77.9895 17.3817 77.7717 17.6449C77.4944 17.9801 77.0761 18.1294 76.6743 18.0789C76.7858 18.3402 76.8077 18.6413 76.714 18.9331C76.616 19.2387 76.4091 19.4789 76.15 19.6251C76.5468 19.8457 76.8049 20.2791 76.7785 20.7629C76.7527 21.2346 76.463 21.629 76.0606 21.8116C76.3107 21.9901 76.4945 22.2619 76.5541 22.5881C76.6198 22.9484 76.5203 23.3006 76.3098 23.5671C76.6613 23.613 76.9902 23.8103 77.192 24.1349C77.3525 24.393 77.4048 24.6875 77.3622 24.9661C77.7065 24.8539 78.0967 24.8946 78.4214 25.1109C78.7079 25.3019 78.8877 25.5928 78.946 25.9065C79.236 25.7099 79.6079 25.6385 79.9711 25.7425C80.39 25.8625 80.6949 26.1869 80.8091 26.5763C81.0559 26.3414 81.3987 26.21 81.7647 26.2433C82.2206 26.2849 82.5949 26.5713 82.7705 26.9609C82.9849 26.6638 83.3296 26.4656 83.7241 26.4528C84.1048 26.4404 84.4505 26.6031 84.6839 26.8684C84.8228 26.4603 85.1732 26.1381 85.6275 26.0566C86.0549 25.98 86.47 26.1355 86.7442 26.4326C86.8556 26.0991 87.1091 25.8159 87.4623 25.6785C87.8443 25.5301 88.2552 25.5864 88.5744 25.794C88.6012 25.3996 88.818 25.0254 89.1865 24.8137C89.5712 24.5928 90.0257 24.6039 90.3879 24.8033C90.3962 24.3644 90.6406 23.9445 91.0596 23.7326C91.6632 23.4273 92.3999 23.669 92.7052 24.2726C92.8566 24.5718 92.8732 24.9037 92.7782 25.1996C93.0426 25.178 93.316 25.2414 93.5542 25.3994C93.8582 25.6011 94.0427 25.9153 94.0897 26.2502C94.3678 26.0535 94.726 25.9729 95.0832 26.0587C95.4846 26.1551 95.7915 26.4391 95.9342 26.7951C96.1707 26.507 96.5352 26.33 96.9362 26.348C97.3733 26.3676 97.7462 26.6142 97.9471 26.9687C98.1351 26.6499 98.4647 26.4197 98.8607 26.3735C99.2466 26.3286 99.6114 26.4684 99.8669 26.7228C99.976 26.3204 100.288 25.9839 100.718 25.863C100.74 25.8568 100.762 25.8515 100.784 25.8466C100.762 25.7545 100.75 25.6584 100.75 25.5595C100.75 25.1166 100.986 24.7284 101.338 24.5134C100.972 24.3016 100.726 23.9062 100.726 23.453C100.726 23.2017 100.801 22.9681 100.931 22.7737C100.7 22.6662 100.509 22.4887 100.383 22.2686C100.379 22.2721 100.375 22.2758 100.371 22.2792C99.8448 22.7045 99.0736 22.623 98.6482 22.0971C98.2744 21.6348 98.2922 20.9831 98.6591 20.5433C98.2149 20.3595 97.9021 19.922 97.9021 19.4113C97.9021 18.9888 98.116 18.6162 98.4415 18.3961C98.0445 18.1935 97.7725 17.7812 97.7725 17.3049C97.7725 16.8195 98.055 16.3999 98.4645 16.2018C98.1485 15.9804 97.9416 15.6138 97.9416 15.1986C97.9416 14.7462 98.187 14.3513 98.5518 14.1393C98.1985 13.9244 97.9627 13.5359 97.9627 13.0922C97.9627 12.6311 98.2175 12.2295 98.594 12.0206C98.2653 11.8197 98.0362 11.4676 98.0096 11.054C97.9861 10.688 98.1259 10.3494 98.3664 10.109C98.0001 10.0168 97.6812 9.75713 97.529 9.37997C97.3774 9.00451 97.4253 8.59814 97.6227 8.27805C97.3036 8.27978 96.984 8.1578 96.7426 7.91224C96.5147 7.68036 96.398 7.38071 96.3918 7.0794C96.0338 7.30736 95.5674 7.34309 95.1646 7.13188C94.758 6.91872 94.5212 6.50931 94.509 6.08093C94.2155 6.25895 93.8493 6.31357 93.497 6.19963C93.1491 6.08713 92.8863 5.83363 92.751 5.52287C92.4821 5.8877 92.0205 6.08865 91.5446 6.0017C91.053 5.91187 90.6842 5.54007 90.5741 5.08366C90.3299 5.32291 89.9877 5.45962 89.6201 5.43049C89.2218 5.3989 88.8831 5.18004 88.6837 4.86719ZM90.714 16.1238C91.3903 16.1238 91.9386 16.6721 91.9386 17.3484C91.9386 17.4394 91.9283 17.528 91.9095 17.6133C92.0215 17.7982 92.086 18.0151 92.086 18.247C92.086 18.7777 91.7484 19.2293 91.2764 19.3993C91.6775 19.7584 91.8068 20.3539 91.5546 20.8587C91.2996 21.3692 90.7361 21.6237 90.2029 21.5093C90.3789 22.0575 90.1478 22.6708 89.6239 22.9572C89.1231 23.2308 88.5151 23.1181 88.1425 22.7198C88.0158 23.223 87.5758 23.609 87.0302 23.6426C86.4732 23.6768 85.9806 23.3331 85.8019 22.8326C85.4632 23.2233 84.8992 23.3704 84.3977 23.1572C83.7981 22.9023 83.507 22.2257 83.7231 21.6199C83.1334 21.5675 82.6529 21.0929 82.6113 20.4836C82.5699 19.8773 82.9772 19.3442 83.5498 19.2087C83.245 18.6777 83.379 17.9909 83.8829 17.6171C84.3412 17.277 84.959 17.3049 85.3829 17.6483C85.4846 17.2193 85.8151 16.8598 86.2719 16.7431C86.7142 16.6302 87.1614 16.7739 87.4571 17.0805C87.611 16.6384 88.0125 16.3049 88.5091 16.2622C88.9644 16.2231 89.3826 16.4385 89.624 16.7901C89.8271 16.3945 90.2388 16.1238 90.714 16.1238ZM89.6409 18.1488C89.4423 18.4545 89.1102 18.6689 88.7188 18.7026C88.3358 18.7355 87.979 18.5882 87.7316 18.3314C87.601 18.7062 87.2913 19.0108 86.8778 19.1164C86.4882 19.2158 86.0945 19.1161 85.8042 18.8814C85.7403 19.1531 85.584 19.4047 85.3422 19.5841C85.2047 19.6861 85.0528 19.7549 84.8961 19.7921C84.9854 19.9479 85.0419 20.1257 85.0549 20.3169C85.0667 20.4899 85.0417 20.6568 84.987 20.8103C85.111 20.8215 85.2353 20.8518 85.356 20.9031C85.6835 21.0423 85.9188 21.3074 86.0299 21.618C86.2378 21.3783 86.538 21.2189 86.8798 21.1979C87.2588 21.1746 87.6082 21.3263 87.8491 21.5833C87.9296 21.2641 88.1377 20.978 88.4493 20.8077C88.7174 20.6613 89.0161 20.6257 89.293 20.6851C89.1988 20.3913 89.2147 20.0619 89.3635 19.7641C89.51 19.4707 89.7585 19.2621 90.0446 19.1593C89.7943 18.935 89.6367 18.6095 89.6367 18.247C89.6367 18.214 89.6383 18.1812 89.6409 18.1488ZM82.9929 12.3597C82.9009 12.5648 82.7542 12.74 82.5712 12.8666C82.8095 12.9277 83.0238 13.0593 83.1858 13.2423C83.2519 13.0597 83.3605 12.8957 83.5011 12.7641C83.2973 12.677 83.1221 12.5363 82.9929 12.3597ZM87.972 10.3276C87.764 10.5756 87.4589 10.7414 87.1104 10.7632C86.7673 10.7847 86.4485 10.6626 86.2123 10.4488C86.1443 10.7619 85.9547 11.0481 85.6609 11.2301C85.5107 11.3232 85.3481 11.3794 85.1836 11.402C85.1985 11.4782 85.2065 11.5569 85.2065 11.6375C85.2065 11.9906 85.0568 12.3085 84.8176 12.532C85.0556 12.6337 85.257 12.8089 85.3902 13.0326C85.589 12.6917 85.9485 12.453 86.3719 12.4264C86.8031 12.3993 87.1959 12.5988 87.4347 12.9224C87.6245 12.5155 88.0317 12.2285 88.511 12.2153C88.9438 12.2033 89.33 12.4174 89.5571 12.7503C89.6494 12.5677 89.786 12.4113 89.9529 12.2954C89.7671 12.1544 89.6192 11.959 89.537 11.7221C89.462 11.5059 89.4513 11.2831 89.4944 11.0742C89.2295 11.1588 88.9345 11.1543 88.6571 11.0404C88.3257 10.9043 88.0859 10.6395 87.972 10.3276Z" fill="#FFE45A"/>
</svg>
