<svg width="80" height="91" viewBox="0 0 80 91" fill="none" xmlns="http://www.w3.org/2000/svg">
<g clip-path="url(#clip0_203_333)">
<path d="M61.1555 0C61.8597 0.234674 61.9316 0.509139 62.2958 1.14764C62.3539 1.24816 62.4119 1.34868 62.4717 1.45225C62.5977 1.67072 62.7229 1.88961 62.8476 2.10884C63.1849 2.70193 63.5275 3.29193 63.8694 3.88239C63.9396 4.004 64.0099 4.12561 64.0822 4.25091C64.7705 5.44059 65.4828 6.61455 66.2 7.78699C67.2876 9.56758 68.3594 11.3569 69.4222 13.1523C70.4826 14.9433 71.5508 16.729 72.6333 18.5066C74.7693 22.0169 74.7693 22.0169 75.704 23.5662C75.8486 23.8057 75.9936 24.045 76.1388 24.2842C76.3398 24.6152 76.5398 24.9468 76.7396 25.2785C76.9118 25.5633 76.9118 25.5633 77.0875 25.8538C77.3333 26.3047 77.3333 26.3047 77.3333 26.6602C73.8133 26.6602 70.2933 26.6602 66.6666 26.6602C66.6666 40.854 66.6666 55.0479 66.6666 69.6719C63.1466 69.6719 59.6266 69.6719 56 69.6719C56 55.478 56 41.2841 56 26.6602C52.48 26.6602 48.96 26.6602 45.3333 26.6602C45.6139 25.959 45.8993 25.3775 46.2785 24.7322C46.3659 24.5829 46.3659 24.5829 46.4551 24.4306C46.6472 24.1033 46.8402 23.7765 47.0333 23.4498C47.1697 23.2181 47.3061 22.9864 47.4424 22.7547C48.4711 21.01 49.5193 19.2777 50.5743 17.5488C51.5359 15.972 52.4814 14.3861 53.4222 12.7969C54.8472 10.3904 56.2921 7.99694 57.748 5.60905C58.3759 4.57875 59.0017 3.54715 59.6278 2.51573C59.952 1.98166 60.2764 1.44767 60.6007 0.913666C60.7617 0.648441 60.7617 0.648441 60.9261 0.377859C61.0018 0.253166 61.0775 0.128472 61.1555 0Z" fill="#2D2D32"/>
<path d="M18.4889 0C19.1931 0.234674 19.2649 0.509139 19.6292 1.14764C19.6872 1.24816 19.7453 1.34868 19.8051 1.45225C19.9311 1.67072 20.0563 1.88961 20.181 2.10884C20.5183 2.70193 20.8609 3.29193 21.2028 3.88239C21.273 4.004 21.3432 4.12561 21.4156 4.25091C22.1038 5.44059 22.8161 6.61455 23.5334 7.78699C24.6209 9.56758 25.6928 11.3569 26.7556 13.1523C27.8159 14.9433 28.8841 16.729 29.9667 18.5066C32.1026 22.0169 32.1026 22.0169 33.0373 23.5662C33.182 23.8057 33.327 24.045 33.4722 24.2842C33.6732 24.6152 33.8732 24.9468 34.0729 25.2785C34.2452 25.5633 34.2452 25.5633 34.4209 25.8538C34.6667 26.3047 34.6667 26.3047 34.6667 26.6602C31.1467 26.6602 27.6267 26.6602 24 26.6602C24 40.854 24 55.0479 24 69.6719C20.48 69.6719 16.96 69.6719 13.3334 69.6719C13.3334 55.478 13.3334 41.2841 13.3334 26.6602C9.81335 26.6602 6.29335 26.6602 2.66669 26.6602C2.94723 25.959 3.2327 25.3775 3.61183 24.7322C3.69927 24.5829 3.69927 24.5829 3.78849 24.4306C3.98055 24.1033 4.17358 23.7765 4.36669 23.4498C4.50307 23.2181 4.63944 22.9864 4.7758 22.7547C5.80445 21.01 6.85265 19.2777 7.9077 17.5488C8.86929 15.972 9.81481 14.3861 10.7556 12.7969C12.1806 10.3904 13.6255 7.99694 15.0814 5.60905C15.7093 4.57875 16.3351 3.54715 16.9612 2.51573C17.2854 1.98166 17.6097 1.44767 17.934 0.913666C18.0951 0.648441 18.0951 0.648441 18.2594 0.377859C18.3352 0.253166 18.4109 0.128472 18.4889 0Z" fill="#2D2D32"/>
<path d="M0 80.3359C26.4 80.3359 52.8 80.3359 80 80.3359C80 83.8551 80 87.3742 80 91C53.6 91 27.2 91 0 91C0 87.4809 0 83.9617 0 80.3359Z" fill="#2D2D32"/>
</g>
<defs>
<clipPath id="clip0_203_333">
<rect width="80" height="91" fill="white"/>
</clipPath>
</defs>
</svg>
