<svg preserveAspectRatio="xMidYMid meet" overflow="visible" style="display: block;" viewBox="0 0 116 172" fill="none" xmlns="http://www.w3.org/2000/svg">
<path id="Vector" fill-rule="evenodd" clip-rule="evenodd" d="M58.2283 0.821031C56.2198 1.77788 52.5198 5.07943 52.9621 5.52045C53.1261 5.68355 53.4353 5.53437 53.6495 5.1886C53.9727 4.66712 54.2278 4.73714 55.152 5.60352C55.7644 6.17676 56.2656 6.4599 56.2656 6.23156C56.2656 6.00366 55.8804 5.54002 55.4098 5.20165C54.7534 4.73018 54.6683 4.44965 55.0443 3.99776C55.4434 3.51847 55.6022 3.51368 55.9001 3.97341C56.1967 4.43095 56.3389 4.42443 56.6529 3.93818C56.8692 3.60371 57.2753 3.48367 57.5719 3.66634C57.9815 3.9186 57.9675 4.09084 57.5117 4.41529C57.0577 4.73888 57.0943 4.78107 57.6692 4.59753C58.0813 4.46575 58.5363 4.54838 58.6806 4.78107C58.825 5.01376 59.1334 5.08682 59.3663 4.9433C59.6271 4.78237 59.6755 5.15641 59.4928 5.9145C59.3297 6.59255 59.1744 7.1597 59.1482 7.17493C59.1221 7.19015 58.5389 7.62725 57.8524 8.14569L56.6041 9.08862L57.7717 9.53138C58.4137 9.77494 59.1718 9.97849 59.4562 9.98414C59.7405 9.98936 59.3541 10.2986 58.5973 10.6705C56.5068 11.6986 56.3397 13.237 58.2283 14.066C58.4748 14.1738 58.3797 14.4787 58.0103 14.7662C57.4493 15.2029 57.4655 15.2403 58.1232 15.0289C59.0845 14.7205 61.2017 15.4882 60.8689 16.0253C60.7328 16.2445 60.8685 16.5064 61.1698 16.6073C61.4712 16.7082 61.7177 17.4588 61.7177 18.2752C61.7177 19.4482 61.8782 19.7331 62.481 19.6322C62.9006 19.5622 63.2443 19.6879 63.2443 19.9119C63.2443 20.3994 61.9384 21.0201 61.1725 20.897C60.8728 20.8487 60.6273 21.0135 60.6273 21.2632C60.6273 21.5128 60.971 21.7203 61.3906 21.7238C62.0431 21.7294 62.0588 21.7921 61.4996 22.1522C60.5937 22.7359 59.6363 22.6954 60.0123 22.0887C60.2299 21.7377 59.9774 21.6764 59.1569 21.8817C58.5162 22.0421 57.6234 21.9765 57.1724 21.736C56.2708 21.2545 55.6576 22.0695 56.085 23.1808C56.3602 23.8954 58.1538 24.7618 59.3584 24.7618C59.8374 24.7618 60.1728 25.0071 60.1039 25.3067C60.0349 25.6064 60.4266 26.4797 60.9744 27.247L61.9711 28.6422L60.5357 29.0911C59.1508 29.5247 59.1687 29.5338 61.0407 29.3555C62.3418 29.2315 62.7728 29.3042 62.3492 29.576C61.8005 29.9279 61.8036 30.0362 62.3719 30.4015C62.8434 30.7046 63.2696 30.5794 63.8985 29.9522C64.6522 29.2007 64.6819 29.0263 64.1166 28.6683C63.7568 28.4408 63.6586 28.2547 63.8985 28.2547C65.2663 28.2547 66.3502 30.5707 65.19 31.0148C64.7342 31.1892 64.585 31.5723 64.7599 32.1212C64.9196 32.6223 64.7813 33.1055 64.4176 33.3194C64.0821 33.5165 63.7144 34.1823 63.6006 34.7995C63.4196 35.7798 63.5212 35.8964 64.4093 35.7272C65.1159 35.5924 65.4251 35.7368 65.4251 36.2004C65.4251 36.5671 65.18 36.9685 64.8799 37.0916C64.5497 37.2277 64.7216 37.4335 65.3161 37.6135C66.3659 37.9319 66.659 39.3315 65.7522 39.6964C65.4212 39.8295 65.5014 39.9291 65.9568 39.95C66.4374 39.9721 66.6163 40.2183 66.4553 40.6367C66.2883 41.0703 65.5974 41.2909 64.3971 41.2939L62.59 41.2987L64.0076 42.413C64.7874 43.0253 65.4251 43.7821 65.4251 44.0944C65.4251 44.9256 66.5862 45.7928 66.9386 45.2248C67.3011 44.6398 68.0421 44.6328 68.0421 45.2144C68.0421 45.4597 67.4533 45.7776 66.7336 45.9211C65.4539 46.1764 64.9933 47.0606 65.8613 47.5956C66.1012 47.7435 66.2974 47.5804 66.2974 47.2329C66.2974 46.6348 67.5348 45.8576 67.903 46.2243C68.2789 46.5996 67.0141 48.6212 66.1387 49.0439C65.2833 49.4571 65.3196 49.4962 66.5836 49.5232C67.7865 49.5489 67.9283 49.675 67.7067 50.5201C67.5671 51.0524 67.373 51.2481 67.2749 50.955C67.1772 50.6623 66.8304 50.4226 66.5051 50.4226C65.5241 50.4226 65.2938 51.2969 66.054 52.1345C66.7201 52.8687 66.7083 52.9374 65.8787 53.1536C65.3893 53.2814 64.9889 53.2084 64.9889 52.9913C64.9889 52.7747 64.6945 52.5973 64.3347 52.5973C63.9748 52.5973 63.6804 52.793 63.6804 53.0322C63.6804 53.2714 63.8296 53.4672 64.0115 53.4672C64.1938 53.4672 64.5999 53.8773 64.9139 54.3788C65.3906 55.1399 65.3802 55.4087 64.8498 56.0098C64.449 56.4643 64.2959 57.2515 64.4341 58.1479C64.6936 59.8271 65.3802 60.3978 65.9402 59.3996C66.4418 58.5067 67.6059 58.4636 67.6059 59.3387C67.6059 59.6975 67.814 59.9911 68.0678 59.9911C68.3217 59.9911 68.3993 60.2012 68.2406 60.4578C68.06 60.7488 67.7054 60.5752 67.2998 59.9976C66.7131 59.1626 66.598 59.1404 66.1343 59.7719C65.5219 60.6074 64.1166 60.2225 64.1166 59.2195C64.1166 58.8468 64.0071 58.6502 63.8736 58.7837C63.448 59.2078 64.4053 61.9531 64.9379 61.8356C65.2192 61.7735 65.5769 62.067 65.7326 62.488C65.8883 62.9086 66.2263 63.4127 66.4837 63.608C66.741 63.8028 66.4976 63.8346 65.9428 63.6784C65.0299 63.4214 64.9846 63.4753 65.4665 64.2447C65.7876 64.7575 65.8591 65.4199 65.6462 65.914C65.0936 67.1966 65.0103 67.9699 65.3728 68.4575C65.5564 68.7049 65.7309 69.366 65.7601 69.9271C65.8054 70.7996 65.6593 70.9083 64.7469 70.6799C63.581 70.3881 63.2386 71.1575 64.346 71.5811C64.7556 71.7381 64.869 72.0252 64.6409 72.3288C64.1262 73.0142 64.0878 74.7096 64.5807 75.0132C64.8053 75.1519 64.9889 75.7425 64.9889 76.3266C64.9889 77.7289 65.7688 77.6893 66.1265 76.2692C66.3114 75.5338 66.5556 75.2972 66.8383 75.579C67.0777 75.8178 67.1087 76.2653 66.9081 76.5889C66.7096 76.9086 66.6045 77.7089 66.6734 78.3665C66.8261 79.8157 66.2067 79.914 65.3017 78.5844C64.7852 77.8254 64.5157 77.721 64.1005 78.1203C63.5622 78.637 63.6181 78.8623 64.7813 80.8678C65.1285 81.4658 65.4151 82.5727 65.4185 83.3277C65.4242 84.5238 65.5516 84.673 66.4065 84.4864C66.9848 84.3598 67.1916 84.4211 66.9098 84.6356C66.6468 84.8356 66.2974 85.5867 66.1334 86.3044C65.918 87.246 65.9563 87.4274 66.2721 86.9568C66.601 86.4666 66.6952 86.6997 66.6525 87.8954C66.618 88.8535 66.4047 89.4133 66.116 89.3028C65.8526 89.2019 65.4421 89.5624 65.204 90.1039C64.9658 90.6454 64.3783 91.1086 63.8985 91.133C61.1999 91.27 61.1982 91.2717 62.4832 92.2277C63.1439 92.7192 63.5827 93.2868 63.4576 93.4886C63.3324 93.6904 63.4035 93.9626 63.6154 94.0931C63.8335 94.2275 63.7951 95.0995 63.526 96.1038C63.1579 97.479 63.1758 97.954 63.6045 98.2184C64.0342 98.4829 63.9984 98.6912 63.444 99.1496C62.8386 99.6507 62.747 99.645 62.8382 99.1113C62.9834 98.2615 62.3811 96.9602 61.842 96.9602C61.5925 96.9602 61.5236 97.4316 61.681 98.0571C61.8773 98.8369 61.7582 99.2301 61.2693 99.4171C60.6748 99.6446 60.7027 99.7929 61.4769 100.512C61.9693 100.969 62.3719 101.613 62.3719 101.943C62.3719 102.273 62.4906 102.852 62.6358 103.229C62.853 103.793 62.6624 103.868 61.5733 103.651C60.3472 103.407 60.2443 103.481 60.2142 104.631C60.1963 105.316 60.1606 106.17 60.1344 106.529C60.1082 106.887 60.2299 107.524 60.4039 107.942C60.6312 108.489 60.516 108.703 59.9939 108.703C59.5944 108.703 59.3894 108.9 59.5386 109.141C59.6882 109.382 59.4836 109.705 59.0841 109.857C58.2833 110.164 57.5357 109.31 57.8624 108.461C57.9762 108.164 57.8602 107.792 57.6037 107.634C57.3477 107.476 57.1379 107.659 57.1379 108.039C57.1379 108.419 56.816 108.854 56.4226 109.004C55.7797 109.25 55.791 109.343 56.5316 109.915C57.3207 110.524 57.3141 110.542 56.3751 110.321C55.8355 110.194 55.2842 110.267 55.1499 110.484C55.0155 110.7 54.3286 110.878 53.6229 110.878C52.9171 110.878 52.3401 111.074 52.3401 111.313C52.3401 111.552 51.9964 111.767 51.5768 111.791C51.0878 111.819 51.2056 111.947 51.9039 112.148C54.1432 112.792 59.7013 111.848 59.1277 110.921C59.0387 110.778 59.4383 110.632 60.0149 110.598C60.8571 110.547 61.0634 110.747 61.0634 111.613C61.0634 113.122 62.03 112.663 62.4775 110.941C62.8831 109.381 63.4693 109.437 63.7816 111.067C63.9055 111.712 63.7594 112.226 63.4157 112.358C63.1008 112.479 62.6855 113.185 62.4923 113.929C62.108 115.408 61.2606 115.704 61.316 114.34C61.3526 113.438 60.0297 113.127 59.5368 113.922C59.3885 114.162 59.4684 114.357 59.7139 114.357C59.9595 114.357 60.366 114.741 60.6177 115.209C60.9884 115.9 60.9029 116.152 60.1636 116.547C59.3506 116.98 59.2682 116.924 59.3947 116.021C59.5185 115.141 59.3393 114.999 58.0103 114.926C56.6555 114.852 56.6062 114.884 57.5741 115.209L58.6645 115.576L57.6155 115.619C56.6272 115.66 56.6084 115.708 57.2884 116.458C57.6853 116.895 58.0103 117.678 58.0103 118.197C58.0103 118.933 57.7503 119.142 56.8326 119.142C55.9166 119.142 55.7714 119.258 56.1783 119.664C57.2709 120.753 56.4196 123.491 54.9881 123.491C54.7312 123.491 54.5209 123.891 54.5209 124.379C54.5209 125.753 53.6665 126.363 52.0099 126.17C50.5963 126.005 50.5374 126.05 51.0032 126.918C51.5345 127.907 50.9784 129.58 50.1182 129.58C49.8727 129.58 49.7929 129.776 49.9412 130.015C50.0895 130.254 50.0519 130.463 49.8578 130.479C49.6638 130.496 48.4255 130.574 47.1061 130.653C44.1428 130.831 44.0647 130.858 45.1433 131.32C45.6231 131.525 47.2539 131.707 48.7674 131.724C50.4837 131.743 51.418 131.918 51.2497 132.19C51.1014 132.429 50.5012 132.624 49.9154 132.624C49.3297 132.624 48.8507 132.841 48.8507 133.106C48.8507 133.371 49.1041 133.49 49.4143 133.372C49.7239 133.253 50.3621 133.448 50.8318 133.805C51.6653 134.439 51.6632 134.447 50.7411 134.174C50.2216 134.02 49.6755 134.089 49.5277 134.328C49.3798 134.566 49.0095 134.666 48.7046 134.549C48.1411 134.333 45.7753 135.244 44.3678 136.219C43.7428 136.652 43.519 136.64 43.2168 136.157C43.0105 135.827 42.6236 135.692 42.3571 135.856C42.0901 136.021 41.8721 135.91 41.8721 135.612C41.8721 135.312 41.5868 135.448 41.2379 135.912C40.6866 136.646 40.6857 136.819 41.2313 137.234C42.0047 137.823 41.6091 138.279 40.3237 138.279C39.71 138.279 39.2699 138.61 39.119 139.186C38.9694 139.756 38.5986 140.039 38.1228 139.947C37.018 139.734 36.8932 138.862 37.9287 138.592C38.4237 138.463 38.8189 138 38.8189 137.548C38.8189 136.812 38.565 136.763 36.0928 137.021C33.6473 137.276 30.1269 138.147 31.1602 138.241C31.3862 138.262 31.2021 138.547 30.7515 138.876C29.9608 139.452 29.9656 139.483 30.8863 139.775C31.411 139.941 31.8402 140.244 31.8402 140.449C31.8402 140.654 31.24 140.523 30.5068 140.158C29.7737 139.793 28.7945 139.594 28.3312 139.715C27.8092 139.851 27.1244 139.556 26.529 138.94C25.47 137.842 24.8061 138.137 24.2252 139.963C24.0516 140.508 23.8239 140.868 23.7192 140.764C23.6145 140.659 23.717 140.08 23.9469 139.477C24.3442 138.434 24.2753 138.366 22.5503 138.091C21.1921 137.874 20.8977 137.699 21.3809 137.394C21.8834 137.077 21.7844 136.984 20.936 136.974C19.8029 136.96 18.6536 136.427 18.7181 135.946C18.8272 135.133 18.6614 134.896 17.6648 134.443C16.9399 134.114 16.5744 134.099 16.5744 134.399C16.5744 134.647 16.3528 134.714 16.0824 134.547C15.7439 134.339 15.8067 134.123 16.2821 133.857C16.6629 133.645 16.8631 133.183 16.7275 132.831C16.4064 131.995 15.702 132.003 15.702 132.842C15.702 133.201 15.518 133.494 15.2929 133.494C15.0678 133.494 14.9204 132.956 14.9658 132.298C15.0177 131.541 14.8476 131.142 14.5026 131.211C13.7825 131.354 13.8125 130.967 14.5806 130.201C15.4735 129.311 16.0182 129.428 16.8474 130.689C17.3015 131.381 17.7306 131.645 17.9858 131.391C18.4407 130.937 17.2967 129.355 16.0012 128.647C15.4416 128.341 15.0059 128.383 14.5113 128.789C13.8911 129.298 13.847 129.225 14.1205 128.13C14.3233 127.319 14.2736 126.993 13.9748 127.177C13.7253 127.331 13.5212 127.174 13.5212 126.829C13.5212 126.484 13.1286 126.1 12.6489 125.974C12.1464 125.843 11.7765 125.381 11.7765 124.885C11.7765 123.748 10.3537 123.847 9.94505 125.013C9.77712 125.492 9.75445 124.925 9.89489 123.755C10.0545 122.42 9.99085 121.725 9.72392 121.89C9.20924 122.207 7.41484 119.894 7.41484 118.913C7.41484 118.529 7.58582 117.885 7.79475 117.482C8.07084 116.95 7.87587 116.452 7.08205 115.662C6.15737 114.742 6.03569 114.706 6.2891 115.432C6.45397 115.903 6.44001 116.14 6.25813 115.958C5.73037 115.433 5.77093 112.196 6.30131 112.503C6.55385 112.649 6.22105 112.218 5.56113 111.546C4.90165 110.874 4.36167 109.96 4.36167 109.514C4.36167 109.068 4.21033 108.703 4.02539 108.703C3.84046 108.703 3.43918 107.48 3.1343 105.985C2.5036 102.894 2.47569 102.791 1.85502 101.309C1.58591 100.667 1.5593 100.053 1.79003 99.809C2.2358 99.3379 2.32085 96.8101 1.90562 96.3956C1.25442 95.7467 0 97.0389 0 98.358C0 99.6628 0.82392 102.589 1.32071 103.049C1.44982 103.169 1.58154 103.756 1.61339 104.354C1.82885 108.437 2.17822 110.89 2.75876 112.4C3.12688 113.357 3.44179 113.895 3.4588 113.596C3.47538 113.297 3.70131 113.053 3.95996 113.053C4.25088 113.053 4.32634 113.527 4.15755 114.294C3.62586 116.707 10.817 132.566 11.9366 131.45C12.0884 131.298 12.2127 131.605 12.2127 132.131C12.2127 132.657 12.4892 133.192 12.8277 133.322C13.1657 133.451 13.5613 134.03 13.707 134.608C14.0136 135.826 22.3331 145.357 25.7247 148.376C26.9922 149.504 28.7391 150.656 29.6075 150.936C31.8939 151.674 35.361 153.462 36.7475 154.619C37.4075 155.17 39.0758 156.196 40.455 156.899C41.8341 157.602 43.9242 158.691 45.0993 159.319C46.2743 159.946 47.7956 160.46 48.4796 160.46C49.1635 160.46 49.7231 160.667 49.7231 160.921C49.7231 161.174 49.5473 161.273 49.3327 161.141C48.7487 160.781 48.5363 161.761 48.7504 163.827C48.9275 165.535 49.0662 165.709 50.6286 166.175C51.9645 166.575 52.416 166.983 52.7976 168.137C53.0632 168.938 53.461 169.594 53.6826 169.594C53.9037 169.594 54.0847 169.883 54.0847 170.236C54.0847 170.589 54.5432 171.178 55.1036 171.544C56.9835 172.772 60.9679 171.362 61.7957 169.176C62.1551 168.227 62.6136 167.926 64.0538 167.697C65.8085 167.417 66.3197 166.751 65.4521 165.875C65.197 165.617 65.2066 164.701 65.477 163.445C65.8996 161.481 65.9795 161.403 68.5228 160.479C69.9595 159.956 72.6472 158.479 74.4952 157.195C76.3437 155.912 79.6463 153.766 81.835 152.427C85.8573 149.966 97.8725 140.445 99.8823 138.126C103.22 134.275 109.792 121.809 112.464 114.26C115.46 105.797 116.71 93.4986 115.6 83.4156C114.675 75.0071 111.289 57.5738 109.635 52.6917C106.944 44.7538 105.179 41.5122 100.617 36.1374C94.5428 28.9797 91.3941 26.2553 89.7349 26.7203C88.993 26.9282 88.9136 26.8881 89.4017 26.5537C90.1741 26.0244 90.4533 26.2736 85.925 23.4496C80.7093 20.1972 79.3397 18.7462 76.7493 13.7302C75.4971 11.3055 73.9304 8.53887 73.2678 7.58202C71.3269 4.77976 67.7385 1.28641 66.099 0.603131C63.9762 -0.281082 60.3302 -0.180179 58.2283 0.821031ZM60.4092 1.21943C59.126 2.01274 58.4464 2.03362 58.4464 1.28032C58.4464 0.928893 59.4928 0.603999 61.0634 0.466996C61.4233 0.435681 61.1289 0.774493 60.4092 1.21943ZM57.5741 2.36286C57.2753 2.72167 56.8348 3.01525 56.5949 3.01525C56.3515 3.01525 56.3991 2.72689 56.7018 2.36286C57.0005 2.00404 57.4411 1.71046 57.6809 1.71046C57.9243 1.71046 57.8768 1.99882 57.5741 2.36286ZM59.5368 3.45018C59.6851 3.68939 59.5983 3.88511 59.3445 3.88511C59.0906 3.88511 58.8826 3.68939 58.8826 3.45018C58.8826 3.21097 58.969 3.01525 59.0749 3.01525C59.1809 3.01525 59.3885 3.21097 59.5368 3.45018ZM51.4564 7.03836C50.6813 8.08349 50.6604 8.23442 51.2902 8.23442C51.8908 8.23442 51.9179 8.34619 51.4507 8.90725C51.0721 9.36219 50.7952 9.42656 50.5958 9.10514C50.4209 8.82244 48.4599 10.4608 45.7596 13.1456C43.2617 15.6295 40.5308 17.9873 39.6912 18.3857C37.92 19.2264 35.1342 21.4824 36.3336 21.1049C36.8138 20.9535 37.011 21.0327 36.84 21.308C36.6865 21.5559 36.2346 21.7142 35.8359 21.6594C35.084 21.5563 27.3712 25.1654 27.1152 25.7404C27.035 25.9195 26.6372 26.0666 26.2307 26.0666C25.8242 26.0666 25.0068 26.4054 24.414 26.8194C23.8213 27.2335 23.0637 27.5758 22.7304 27.5805C22.3972 27.5849 21.9061 27.9802 21.6391 28.4587C21.3726 28.9371 21.0944 29.4207 21.0215 29.5334C20.9482 29.646 20.735 29.4908 20.5474 29.1876C20.0515 28.3873 14.6997 34.2219 14.9732 35.2645C15.0848 35.6911 14.9967 35.9982 14.7769 35.9464C14.0891 35.7851 8.82454 46.3195 9.33747 46.8306C9.45655 46.9497 9.26899 47.3312 8.92049 47.6782C8.57243 48.0257 8.30288 48.5407 8.32163 48.8225C8.34562 49.1805 8.42283 49.1705 8.57679 48.789C8.69849 48.4885 8.9772 48.3532 9.19659 48.4885C9.56079 48.7125 9.63711 48.492 9.77015 46.8345C9.79413 46.5357 9.9119 46.1929 10.0318 46.0733C10.5526 45.554 11.3404 43.8561 11.3404 43.2524C11.3404 42.8901 11.5305 42.5939 11.763 42.5939C11.995 42.5939 12.0622 42.2516 11.9113 41.8328C11.7608 41.4139 11.8031 41.2217 12.0051 41.4052C12.207 41.5883 12.6214 41.1482 12.9258 40.4266C13.2303 39.7047 13.6987 39.1145 13.9674 39.1145C14.7446 39.1145 15.7871 37.864 15.456 37.3295C15.2898 37.0616 15.412 36.6836 15.7273 36.4892C16.1997 36.1983 16.1988 36.0143 15.7208 35.4402C15.4024 35.0574 15.2676 34.6186 15.4216 34.4646C15.576 34.3111 15.709 34.4624 15.7173 34.8013C15.726 35.1405 16.0039 34.9296 16.3349 34.3333C16.6655 33.737 17.2277 33.2477 17.5841 33.2459C17.9404 33.2442 18.8402 32.7032 19.5839 32.0434C20.3276 31.384 20.936 30.9978 20.936 31.1857C20.936 31.9181 19.4871 33.5352 18.4931 33.9118C17.4541 34.3059 17.0376 35.2001 17.8929 35.2001C18.1385 35.2001 18.0277 35.6742 17.6465 36.2539C16.9861 37.2595 16.9957 37.2973 17.8545 37.0733C18.35 36.9442 18.7796 36.5675 18.8097 36.2365C18.9183 35.0383 18.9789 34.8317 19.324 34.4877C19.5172 34.2954 19.85 34.4203 20.0637 34.7652C20.2774 35.1101 20.6045 35.2405 20.7908 35.0553C20.9766 34.8695 20.8527 34.5477 20.5151 34.3398C20.0092 34.0279 20.0013 33.8422 20.4685 33.2807C20.7799 32.9063 21.2008 32.7023 21.404 32.8275C21.6069 32.9524 22.1656 32.8106 22.6454 32.5113C23.4348 32.0199 23.4545 31.8977 22.8495 31.2313C22.2437 30.5642 22.2624 30.4689 23.0462 30.221C23.5216 30.0701 24.2413 29.4442 24.6452 28.8301C25.1817 28.0137 25.5088 27.8428 25.8617 28.1947C26.1273 28.4595 26.5508 28.6718 26.8025 28.6666C27.0546 28.6613 26.7698 28.2743 26.17 27.8063C25.1036 26.9743 25.1006 26.9556 26.03 26.946C26.5526 26.9408 27.2469 26.692 27.5732 26.3928C28.623 25.4307 30.0955 24.7305 30.0955 25.1932C30.0955 25.4342 30.39 25.6316 30.7498 25.6316C31.1096 25.6316 31.4102 25.8765 31.418 26.1753C31.4263 26.5045 31.6623 26.4162 32.0169 25.9504C32.3383 25.5277 32.8957 25.2941 33.2551 25.4316C33.6145 25.569 34.2178 25.3733 34.5955 24.9966C34.9736 24.6195 35.4403 24.3521 35.6331 24.4021C36.3685 24.5921 38.8189 23.8023 38.8189 23.3752C38.8189 23.1151 39.2756 23.042 39.9093 23.2008C41.128 23.5057 41.2187 23.3595 40.5108 22.2292C40.161 21.6712 39.6459 21.5033 38.7042 21.6411C37.7856 21.7755 37.4803 21.6825 37.6966 21.3336C37.8672 21.0583 38.2104 20.9587 38.4595 21.1123C38.7517 21.2923 38.8084 21.0248 38.6191 20.3581C38.4255 19.6766 38.4612 19.52 38.7247 19.8975C39.2695 20.6782 41.4359 21.7642 41.4359 21.2567C41.4359 21.0314 41.8524 20.8474 42.3614 20.8474C43.1047 20.8474 43.1875 20.7273 42.7819 20.2398C42.5036 19.9058 41.907 19.7288 41.4555 19.8466C40.4231 20.1158 38.9297 19.3595 39.6354 18.9246C39.9058 18.758 40.1274 18.8289 40.1274 19.082C40.1274 19.3351 40.3402 19.5426 40.5998 19.5426C40.8597 19.5426 40.9897 19.2982 40.8889 18.9989C40.6168 18.1939 41.941 17.374 42.7854 17.8246C43.3598 18.1313 43.4706 17.9995 43.3738 17.1222C43.2857 16.3211 43.4423 16.0727 43.9809 16.1615C44.3805 16.2271 44.6644 16.0549 44.6121 15.7787C44.5597 15.5025 44.8541 15.0132 45.2663 14.6914C45.9424 14.1634 45.9572 14.1803 45.4172 14.8671C45.0251 15.3651 44.9876 15.6282 45.3082 15.6282C45.5773 15.6282 45.822 15.4325 45.8521 15.1933C45.8822 14.9541 45.931 14.5996 45.9611 14.4056C45.9912 14.2121 46.6878 13.2426 47.5095 12.2523C48.873 10.6083 49.0553 10.5156 49.5948 11.1911C50.1296 11.8604 50.1741 11.8274 50.0637 10.844C49.9739 10.0468 50.1296 9.78712 50.6464 9.87106C51.5541 10.0185 52.5115 8.87246 52.1866 8.02782C52.0483 7.66857 52.0753 7.41414 52.2467 7.46198C52.6498 7.57463 54.5209 6.37291 54.5209 6.00105C54.5209 5.20904 52.2411 5.98104 51.4564 7.03836ZM57.7922 6.05976C57.9405 6.29898 58.258 6.49469 58.4979 6.49469C58.7378 6.49469 58.8128 6.29898 58.6645 6.05976C58.5162 5.82055 58.1987 5.62483 57.9588 5.62483C57.7189 5.62483 57.6439 5.82055 57.7922 6.05976ZM61.0634 7.32889C61.0634 7.54853 61.1912 8.06044 61.3474 8.46667C61.5838 9.07992 61.4547 9.15038 60.5841 8.88289C59.2372 8.46928 59.2498 8.4845 59.573 7.64421C59.8618 6.89439 61.0634 6.6404 61.0634 7.32889ZM54.5209 7.72076C54.5209 8.24616 55.3483 8.85897 55.651 8.55757C55.7605 8.44796 55.5511 8.11089 55.1856 7.80818C54.7713 7.46502 54.5209 7.43197 54.5209 7.72076ZM59.7043 13.6088C59.6642 14.3439 59.6114 14.38 59.4544 13.7798C59.3445 13.3609 59.0728 13.0186 58.8507 13.0186C58.6283 13.0186 58.4464 12.829 58.4464 12.5972C58.4464 12.3658 58.7408 12.2888 59.1007 12.4263C59.4605 12.5641 59.7322 13.0961 59.7043 13.6088ZM47.3242 14.7584C47.1759 14.9976 47.2627 15.1933 47.5165 15.1933C47.7704 15.1933 47.9784 14.9976 47.9784 14.7584C47.9784 14.5192 47.892 14.3234 47.7861 14.3234C47.6801 14.3234 47.4725 14.5192 47.3242 14.7584ZM42.7444 19.1333C42.7444 19.3865 42.9407 19.473 43.1806 19.3251C43.4205 19.1773 43.6167 18.9702 43.6167 18.8645C43.6167 18.7589 43.4205 18.6727 43.1806 18.6727C42.9407 18.6727 42.7444 18.8802 42.7444 19.1333ZM44.3072 19.3873C44.1563 19.7805 44.1353 20.2046 44.2605 20.3298C44.3861 20.4551 44.4891 20.329 44.4891 20.0502C44.4891 19.7709 44.8934 19.5426 45.3871 19.5426C45.8809 19.5426 46.1639 19.3469 46.0157 19.1077C45.5974 18.4331 44.6125 18.5945 44.3072 19.3873ZM46.321 21.3693C45.6859 22.0026 45.6318 23.022 46.2337 23.022C46.4736 23.022 46.6699 22.7285 46.6699 22.3696C46.6699 22.0108 46.8662 21.7173 47.1061 21.7173C47.346 21.7173 47.5422 21.8934 47.5422 22.1087C47.5422 22.5893 51.0586 23.4122 53.4305 23.4865C55.8809 23.5635 55.9956 23.5287 55.4504 22.8733C55.1835 22.5523 55.0936 22.1609 55.2515 22.0034C55.4094 21.846 55.2 21.7173 54.7861 21.7173C54.3268 21.7173 54.155 21.9138 54.3456 22.2209C54.575 22.591 54.0329 22.6497 52.2995 22.4423C51.0024 22.2866 49.5975 22.1578 49.1779 22.1561C48.7583 22.1539 48.4146 21.8586 48.4146 21.4998C48.4146 20.7195 47.0577 20.6347 46.321 21.3693ZM43.8392 21.7242C43.9901 21.9673 44.2958 22.0539 44.5192 21.916C45.1241 21.5433 45.0116 21.2823 44.2453 21.2823C43.8715 21.2823 43.6887 21.4811 43.8392 21.7242ZM42.3732 22.8772C42.0491 23.2273 41.8742 23.604 41.9842 23.7136C42.0941 23.8232 42.436 23.6101 42.7444 23.2395C43.4724 22.3649 43.1439 22.0439 42.3732 22.8772ZM35.0513 23.2395C34.7682 23.9754 34.1964 24.092 33.8235 23.49C33.6865 23.2686 33.9203 22.9981 34.3429 22.8881C34.7656 22.778 35.1542 22.6654 35.207 22.6376C35.2593 22.6097 35.1891 22.8807 35.0513 23.2395ZM83.7441 23.022C83.7441 23.2613 83.6578 23.457 83.5518 23.457C83.4458 23.457 83.2382 23.2613 83.0899 23.022C82.9416 22.7828 83.0284 22.5871 83.2822 22.5871C83.5361 22.5871 83.7441 22.7828 83.7441 23.022ZM69.7868 23.8919C69.7868 24.1311 69.5787 24.3268 69.3249 24.3268C69.071 24.3268 68.9842 24.1311 69.1325 23.8919C69.2808 23.6527 69.4884 23.457 69.5944 23.457C69.7004 23.457 69.7868 23.6527 69.7868 23.8919ZM72.4038 23.6488C72.4038 23.7545 72.2075 23.9615 71.9676 24.1094C71.7277 24.2572 71.5314 24.1707 71.5314 23.9176C71.5314 23.6644 71.7277 23.457 71.9676 23.457C72.2075 23.457 72.4038 23.5431 72.4038 23.6488ZM31.6967 25.0501C31.5676 25.1784 31.2318 25.1419 30.9504 24.9684C30.571 24.7344 30.5915 24.5582 31.0303 24.2864C31.6121 23.9263 32.1756 24.5721 31.6967 25.0501ZM62.0937 24.9792C61.828 25.669 61.0634 25.8843 61.0634 25.2693C61.0634 24.8092 61.5402 24.3268 61.9946 24.3268C62.187 24.3268 62.2315 24.6204 62.0937 24.9792ZM64.3347 25.1967C64.6544 25.1967 65.016 24.9962 65.1381 24.7509C65.2598 24.5056 65.3091 24.5547 65.2471 24.8596C65.1852 25.1645 64.7743 25.4142 64.3347 25.4142C63.895 25.4142 63.4842 25.1645 63.4222 24.8596C63.3603 24.5547 63.4096 24.5056 63.5313 24.7509C63.6534 24.9962 64.015 25.1967 64.3347 25.1967ZM42.1918 25.2506C42.4879 25.5481 42.8399 25.6816 42.9738 25.5477C43.1082 25.4137 42.8661 25.1706 42.436 25.0071C41.8145 24.7713 41.7643 24.8209 42.1918 25.2506ZM52.2585 25.0588C52.573 25.1845 52.9494 25.1689 53.0942 25.0245C53.239 24.8801 52.9817 24.7774 52.522 24.7961C52.0138 24.817 51.9104 24.9201 52.2585 25.0588ZM67.9239 25.0245C67.7791 25.1689 67.4027 25.1845 67.0882 25.0588C66.7401 24.9201 66.8435 24.817 67.3516 24.7961C67.8114 24.7774 68.0687 24.8801 67.9239 25.0245ZM69.5687 25.6316C69.717 25.8708 69.532 26.0666 69.1582 26.0666C68.7845 26.0666 68.4783 25.8708 68.4783 25.6316C68.4783 25.3924 68.6628 25.1967 68.8887 25.1967C69.1146 25.1967 69.4204 25.3924 69.5687 25.6316ZM72.8399 26.2584C72.8399 26.7172 72.0029 26.9103 71.7539 26.5084C71.6034 26.2653 71.7862 26.0666 72.16 26.0666C72.5338 26.0666 72.8399 26.1527 72.8399 26.2584ZM63.0262 26.9364C63.1745 27.1756 62.9895 27.3713 62.6157 27.3713C62.2419 27.3713 61.9358 27.1756 61.9358 26.9364C61.9358 26.6972 62.1203 26.5015 62.3462 26.5015C62.5721 26.5015 62.8779 26.6972 63.0262 26.9364ZM59.1735 27.2265C59.0134 27.3857 58.8826 27.7184 58.8826 27.9659C58.8826 28.2382 59.0859 28.2125 59.3986 27.9007C59.6825 27.6175 59.8134 27.2848 59.6895 27.1613C59.5656 27.0373 59.3331 27.0669 59.1735 27.2265ZM27.4785 27.8063C27.4785 28.0455 27.6748 28.2412 27.9147 28.2412C28.1546 28.2412 28.3509 28.0455 28.3509 27.8063C28.3509 27.5671 28.1546 27.3713 27.9147 27.3713C27.6748 27.3713 27.4785 27.5671 27.4785 27.8063ZM70.9771 27.634C70.8323 27.7784 70.4558 27.7941 70.1414 27.6684C69.7933 27.5297 69.8967 27.4266 70.4048 27.4057C70.8645 27.387 71.1219 27.4896 70.9771 27.634ZM23.7894 29.0128C23.5094 29.3111 22.2768 28.5413 22.4884 28.1999C22.6196 27.9881 22.9913 28.0577 23.314 28.3543C23.6368 28.6509 23.8509 28.9471 23.7894 29.0128ZM24.3155 30.1732C23.3969 30.843 23.335 31.2857 24.1606 31.2857C24.4947 31.2857 24.8921 30.9643 25.0434 30.5711C25.4129 29.6108 25.2266 29.509 24.3155 30.1732ZM62.3719 32.5905C61.8128 32.9506 61.8285 33.0133 62.481 33.0189C62.9006 33.0224 63.2443 32.8297 63.2443 32.5905C63.2443 32.0599 63.195 32.0599 62.3719 32.5905ZM16.8012 34.2215C16.635 34.6403 16.4261 35.6676 16.3371 36.5049C16.1862 37.9245 16.2067 37.9536 16.6441 36.9398C17.0821 35.9238 17.4929 33.4604 17.2247 33.4604C17.1584 33.4604 16.9678 33.8027 16.8012 34.2215ZM68.1293 38.3316C67.7224 38.7374 67.4895 38.7374 67.0825 38.3316C66.6756 37.9258 66.7916 37.8097 67.6059 37.8097C68.4203 37.8097 68.5363 37.9258 68.1293 38.3316ZM63.2443 44.3336C63.2443 44.5728 63.5387 44.7686 63.8985 44.7686C64.2584 44.7686 64.5528 44.5728 64.5528 44.3336C64.5528 44.0944 64.2584 43.8987 63.8985 43.8987C63.5387 43.8987 63.2443 44.0944 63.2443 44.3336ZM60.6273 44.9604C60.6273 45.3331 60.8235 45.6384 61.0634 45.6384C61.3033 45.6384 61.4996 45.4544 61.4996 45.2291C61.4996 45.0039 61.3033 44.699 61.0634 44.5511C60.8235 44.4032 60.6273 44.5876 60.6273 44.9604ZM69.7868 45.6384C69.7868 45.8776 69.5787 46.0733 69.3249 46.0733C69.071 46.0733 68.9842 45.8776 69.1325 45.6384C69.2808 45.3992 69.4884 45.2035 69.5944 45.2035C69.7004 45.2035 69.7868 45.3992 69.7868 45.6384ZM58.4464 47.3781C58.4464 47.6173 58.6427 47.8131 58.8826 47.8131C59.1225 47.8131 59.3188 47.6173 59.3188 47.3781C59.3188 47.1389 59.1225 46.9432 58.8826 46.9432C58.6427 46.9432 58.4464 47.1389 58.4464 47.3781ZM57.5741 49.2888C57.5741 49.3827 57.8785 49.5763 58.251 49.7189C58.6392 49.8672 58.8141 49.7942 58.6615 49.548C58.4054 49.1344 57.5741 48.9365 57.5741 49.2888ZM8.14194 49.8429C7.98187 50.0021 7.85101 50.3348 7.85101 50.5823C7.85101 50.8545 8.05427 50.8289 8.367 50.517C8.65094 50.2339 8.7818 49.9012 8.65792 49.7776C8.53405 49.6537 8.30158 49.6833 8.14194 49.8429ZM68.9144 52.3798C68.9144 52.7386 68.7182 53.0322 68.4783 53.0322C68.2384 53.0322 68.0421 52.7386 68.0421 52.3798C68.0421 52.021 68.2384 51.7274 68.4783 51.7274C68.7182 51.7274 68.9144 52.021 68.9144 52.3798ZM7.21552 53.0022C7.07725 53.2249 7.14355 53.5172 7.36207 53.652C7.58059 53.7868 7.87195 53.6046 8.00978 53.2471C8.28107 52.5425 7.62551 52.3402 7.21552 53.0022ZM61.9951 53.1053C61.9624 53.5046 61.8088 54.1896 61.6536 54.6275C61.4355 55.2425 61.4939 55.3117 61.9083 54.9307C62.204 54.6593 62.358 53.9743 62.2502 53.4084C62.1425 52.8426 62.0278 52.7065 61.9951 53.1053ZM55.6397 55.1612C55.5067 55.3756 55.7195 55.6736 56.1125 55.824C56.9617 56.1489 57.3377 55.881 56.9377 55.236C56.587 54.6702 55.9659 54.6345 55.6397 55.1612ZM62.9001 55.8758C62.4282 56.409 62.481 56.5117 63.2273 56.5117C63.7271 56.5117 64.1166 56.2259 64.1166 55.8593C64.1166 55.042 63.6316 55.049 62.9001 55.8758ZM6.4073 56.4029C5.91356 57.2663 5.73385 59.8463 6.12684 60.426C6.4544 60.9097 6.49671 60.7692 6.2904 59.8824C6.11986 59.1508 6.1927 58.6863 6.47752 58.6863C6.73399 58.6863 6.90235 58.0996 6.85219 57.3824C6.75493 55.9984 6.70346 55.8849 6.4073 56.4029ZM68.8329 57.3546C68.9419 57.6808 68.7784 57.8439 68.4512 57.7351C68.1363 57.6303 67.7926 57.2876 67.6879 56.974C67.5789 56.6478 67.7425 56.4847 68.0696 56.5934C68.3841 56.6978 68.7278 57.0405 68.8329 57.3546ZM61.9358 57.3815C61.9358 57.6207 62.132 57.8165 62.3719 57.8165C62.6118 57.8165 62.8081 57.6207 62.8081 57.3815C62.8081 57.1423 62.6118 56.9466 62.3719 56.9466C62.132 56.9466 61.9358 57.1423 61.9358 57.3815ZM70.1388 58.4802C70.0044 58.6141 69.7606 58.3727 69.5966 57.9439C69.3602 57.3241 69.4099 57.2741 69.8409 57.7003C70.1392 57.9957 70.2731 58.3466 70.1388 58.4802ZM61.565 60.8392C61.661 61.1263 61.8817 61.3464 62.0557 61.3285C62.5774 61.2746 62.4762 60.6783 61.914 60.4913C61.6261 60.3956 61.4691 60.5522 61.565 60.8392ZM5.30292 61.7308C5.30292 62.3289 5.40193 62.5737 5.52275 62.2745C5.64401 61.9757 5.64401 61.4864 5.52275 61.1872C5.40193 60.8884 5.30292 61.1328 5.30292 61.7308ZM60.6338 62.9269C60.6377 63.1061 60.8309 63.5467 61.0634 63.9055C61.4054 64.433 61.4874 64.3704 61.493 63.5793C61.4965 63.0408 61.3033 62.6007 61.0634 62.6007C60.8235 62.6007 60.6303 62.7477 60.6338 62.9269ZM59.6162 64.3639C59.2171 65.8505 59.2368 65.9353 59.973 65.9353C60.6827 65.9353 60.7511 65.4647 60.2338 64.1464C59.9259 63.3623 59.8805 63.3783 59.6162 64.3639ZM68.1149 65.7465C67.7272 66.1332 67.6129 65.8975 67.6356 64.7536C67.6631 63.3444 67.694 63.3135 68.1446 64.246C68.4992 64.9798 68.4918 65.3708 68.1149 65.7465ZM63.2508 65.1015C63.2473 65.64 63.4405 66.0801 63.6804 66.0801C64.2269 66.0801 64.2269 65.6187 63.6804 64.7753C63.3385 64.2478 63.2565 64.3104 63.2508 65.1015ZM62.0247 66.0997C61.7316 66.5673 61.6693 66.95 61.8856 66.95C62.2768 66.95 62.9512 65.643 62.6929 65.3851C62.6179 65.3107 62.3174 65.6322 62.0247 66.0997ZM67.2016 66.95C67.4241 66.95 67.6059 67.4393 67.6059 68.0373C67.6059 68.6353 67.4097 69.1246 67.1698 69.1246C66.9299 69.1246 66.7336 68.6353 66.7336 68.0373C66.7336 67.4393 66.5434 66.95 66.311 66.95C66.0789 66.95 66.024 66.6077 66.1893 66.1889C66.4754 65.4638 66.4972 65.4638 66.6438 66.1889C66.7284 66.6077 66.9796 66.95 67.2016 66.95ZM59.7728 67.6489C59.9713 68.17 60.0188 69.0351 59.8784 69.5713C59.693 70.2776 59.7881 70.4908 60.2238 70.3459C61.1441 70.0402 61.0569 66.7021 60.1283 66.7016C59.5722 66.7016 59.4923 66.9139 59.7728 67.6489ZM4.8323 68.5083C4.85323 69.015 4.9566 69.1181 5.09574 68.7715C5.22179 68.4575 5.20609 68.0821 5.06129 67.9377C4.91648 67.7933 4.81354 68.0499 4.8323 68.5083ZM1.68142 73.039C1.41231 74.5595 1.52397 75.1441 1.99372 74.6757C2.13024 74.5391 2.17691 73.7727 2.09666 72.972L1.95098 71.5168L1.68142 73.039ZM2.658 73.2565C2.67065 74.7783 2.72343 74.8688 3.08108 73.9793C3.33842 73.3382 3.33319 72.6954 3.06669 72.2396C2.74393 71.6886 2.6471 71.9299 2.658 73.2565ZM62.8426 73.7275C62.8635 74.2342 62.9669 74.3373 63.106 73.9906C63.2321 73.6766 63.2163 73.3013 63.0715 73.1569C62.9267 73.0125 62.8238 73.2691 62.8426 73.7275ZM68.4783 74.3438C68.4783 74.583 68.1839 74.7787 67.824 74.7787C67.4642 74.7787 67.1698 74.583 67.1698 74.3438C67.1698 74.1046 67.4642 73.9089 67.824 73.9089C68.1839 73.9089 68.4783 74.1046 68.4783 74.3438ZM69.1325 76.5185C69.2808 76.7577 69.2058 76.9534 68.9659 76.9534C68.726 76.9534 68.4085 76.7577 68.2602 76.5185C68.1119 76.2792 68.1869 76.0835 68.4268 76.0835C68.6667 76.0835 68.9842 76.2792 69.1325 76.5185ZM2.24975 78.6931C2.24975 79.2911 2.34876 79.536 2.46958 79.2368C2.59084 78.938 2.59084 78.4487 2.46958 78.1494C2.34876 77.8506 2.24975 78.0951 2.24975 78.6931ZM69.7868 81.0343C69.7868 81.3653 69.3942 81.7385 68.9144 81.8638C68.0696 82.0838 67.698 81.3557 68.333 80.7229C68.846 80.2114 69.7868 80.4128 69.7868 81.0343ZM63.0262 81.3027C62.8521 81.5837 62.9058 82.009 63.1457 82.2482C63.4366 82.5383 63.6874 82.5131 63.8985 82.1725C64.0725 81.8916 64.0189 81.4662 63.779 81.227C63.4881 80.9369 63.2373 80.9621 63.0262 81.3027ZM0.90679 82.4261C0.927726 82.9328 1.0311 83.0359 1.17024 82.6892C1.29629 82.3752 1.28059 81.9999 1.13578 81.8555C0.990974 81.7111 0.888034 81.9677 0.90679 82.4261ZM69.3441 83.4151C69.3401 83.5691 69.1713 83.9558 68.9685 84.275C68.6684 84.7465 68.5524 84.7325 68.3474 84.1998C68.1887 83.7874 67.7625 83.6317 67.1964 83.7792C66.7022 83.9084 66.2974 83.8088 66.2974 83.5582C66.2974 83.3077 66.7388 83.0315 67.2788 82.9445C68.3758 82.7675 69.3541 82.9906 69.3441 83.4151ZM57.1724 84.1658C57.1933 84.6725 57.2967 84.7756 57.4358 84.429C57.5619 84.1149 57.5462 83.7396 57.4014 83.5952C57.2566 83.4508 57.1536 83.7074 57.1724 84.1658ZM63.0292 84.3424C62.8766 84.5886 63.0515 84.6616 63.4397 84.5133C64.1951 84.2241 64.3334 83.9123 63.7062 83.9123C63.4802 83.9123 63.1758 84.1058 63.0292 84.3424ZM0.309242 87.1742C0.142627 88.8487 0.00479949 91.3583 0.00305482 92.7514C0.000437818 94.9343 0.105552 95.2626 0.763293 95.1269C1.21473 95.0339 1.49431 94.6211 1.44764 94.1166C0.83308 87.4648 0.796003 85.9886 1.2518 86.2696C1.54054 86.4475 1.74467 86.2818 1.74467 85.8695C1.74467 85.4824 1.56323 85.2775 1.34165 85.4141C1.11964 85.5507 0.864917 85.3175 0.775066 84.8961C0.685652 84.4746 0.475858 85.4998 0.309242 87.1742ZM63.6804 87.3917C63.6804 87.6309 63.8767 87.8266 64.1166 87.8266C64.3565 87.8266 64.5528 87.6309 64.5528 87.3917C64.5528 87.1525 64.3565 86.9568 64.1166 86.9568C63.8767 86.9568 63.6804 87.1525 63.6804 87.3917ZM1.66834 88.9896C1.85415 89.9 1.96406 90.0096 2.09099 89.4115C2.18564 88.9675 2.07223 88.4142 1.83975 88.1824C1.56671 87.9101 1.50565 88.1959 1.66834 88.9896ZM61.5319 88.4403C61.251 88.7778 61.1877 89.1567 61.391 89.2819C61.5947 89.4076 61.9986 89.1314 62.2882 88.6682C62.894 87.7009 62.2969 87.5209 61.5319 88.4403ZM1.77912 91.9946C1.80006 92.5013 1.90343 92.6043 2.04257 92.2577C2.16862 91.9437 2.15292 91.5683 2.00812 91.424C1.86331 91.2796 1.76037 91.5362 1.77912 91.9946ZM67.6059 91.9585C67.6059 92.3173 67.4097 92.6109 67.1698 92.6109C66.9299 92.6109 66.7336 92.3173 66.7336 91.9585C66.7336 91.5997 66.9299 91.3061 67.1698 91.3061C67.4097 91.3061 67.6059 91.5997 67.6059 91.9585ZM2.39892 94.3506C2.25062 94.5898 2.33742 94.7855 2.59127 94.7855C2.84512 94.7855 3.05317 94.5898 3.05317 94.3506C3.05317 94.1114 2.96681 93.9157 2.86082 93.9157C2.75484 93.9157 2.54722 94.1114 2.39892 94.3506ZM58.596 100.55C58.2493 101.109 59.1408 101.905 59.717 101.55C59.9778 101.389 60.1911 101.009 60.1911 100.704C60.1911 100.068 58.9681 99.9499 58.596 100.55ZM56.0937 102.433C55.931 102.857 56.0283 103.056 56.3472 102.95C56.9992 102.733 57.3582 101.744 56.7846 101.744C56.5504 101.744 56.2398 102.055 56.0937 102.433ZM3.05317 103.484C3.05317 103.723 3.24945 103.919 3.48934 103.919C3.72923 103.919 3.92551 103.723 3.92551 103.484C3.92551 103.245 3.72923 103.049 3.48934 103.049C3.24945 103.049 3.05317 103.245 3.05317 103.484ZM2.617 105.032C2.617 105.405 2.41767 105.587 2.17386 105.437C1.93004 105.286 1.84324 104.982 1.98151 104.759C2.3553 104.156 2.617 104.268 2.617 105.032ZM55.8634 106.03C55.5101 106.689 55.5289 106.99 55.9372 107.225C56.2377 107.397 56.338 107.378 56.1605 107.182C55.9825 106.986 56.0597 106.559 56.3314 106.232C56.6036 105.905 56.7157 105.528 56.5814 105.393C56.4466 105.259 56.1234 105.546 55.8634 106.03ZM61.6972 106.79C61.8594 107.652 61.8812 108.468 61.7456 108.603C61.6104 108.738 61.4996 108.436 61.4996 107.932C61.4996 107.427 61.3033 106.894 61.0634 106.746C60.5235 106.413 60.4855 105.224 61.015 105.224C61.2279 105.224 61.5354 105.929 61.6972 106.79ZM64.9889 106.094C64.9889 106.333 64.5964 106.529 64.1166 106.529C63.6368 106.529 63.2443 106.333 63.2443 106.094C63.2443 105.855 63.6368 105.659 64.1166 105.659C64.5964 105.659 64.9889 105.855 64.9889 106.094ZM50.5954 107.398C50.5954 107.638 50.7917 107.833 51.0316 107.833C51.2715 107.833 51.4677 107.638 51.4677 107.398C51.4677 107.159 51.2715 106.964 51.0316 106.964C50.7917 106.964 50.5954 107.159 50.5954 107.398ZM53.6486 108.678C53.6486 108.903 53.8427 109.207 54.08 109.353C54.3268 109.505 54.4001 109.33 54.2514 108.943C53.9613 108.19 53.6486 108.052 53.6486 108.678ZM3.2621 110.66C3.53165 111.961 3.53034 111.96 2.85646 110.502C2.08575 108.832 2.00114 108.346 2.58604 108.942C2.80892 109.17 3.11336 109.943 3.2621 110.66ZM57.247 112.93C56.3864 113.238 56.6119 113.922 57.5741 113.922C58.0539 113.922 58.4464 113.738 58.4464 113.513C58.4464 112.956 57.9069 112.694 57.247 112.93ZM62.8081 117.837C62.8081 118.076 62.6 118.272 62.3462 118.272C62.0923 118.272 62.0055 118.076 62.1538 117.837C62.3021 117.598 62.5098 117.402 62.6157 117.402C62.7217 117.402 62.8081 117.598 62.8081 117.837ZM53.0672 118.562C52.4783 119.149 52.8046 119.577 53.8409 119.577C55.1141 119.577 55.6685 118.905 54.7006 118.535C53.8165 118.197 53.427 118.203 53.0672 118.562ZM48.62 121.489C47.9008 122.013 47.9169 122.094 48.8721 122.761C49.7907 123.403 49.9656 123.407 50.6325 122.805C51.3356 122.17 52.6646 121.848 54.848 121.781C55.388 121.765 55.8294 121.566 55.8294 121.341C55.8294 120.708 49.512 120.839 48.62 121.489ZM51.6723 123.948C51.2579 124.617 51.8254 125.048 52.3854 124.49C52.6986 124.177 52.706 123.934 52.4081 123.751C52.1639 123.6 51.8328 123.689 51.6723 123.948ZM49.7231 124.361C49.7231 124.6 50.0293 124.796 50.4031 124.796C50.7769 124.796 50.9618 124.6 50.8135 124.361C50.6652 124.122 50.3594 123.926 50.1335 123.926C49.9076 123.926 49.7231 124.122 49.7231 124.361ZM58.4464 126.97C58.4464 127.21 58.2384 127.405 57.9845 127.405C57.7307 127.405 57.6439 127.21 57.7922 126.97C57.9405 126.731 58.1481 126.535 58.2541 126.535C58.3601 126.535 58.4464 126.731 58.4464 126.97ZM54.5209 127.789C54.5209 128.001 54.0302 128.267 53.4305 128.382C52.3741 128.583 52.0339 128.291 52.631 127.695C53.0584 127.269 54.5209 127.342 54.5209 127.789ZM55.3932 129.797C55.3932 130.156 55.2297 130.45 55.0299 130.45C54.8297 130.45 54.6662 130.156 54.6662 129.797C54.6662 129.439 54.8297 129.145 55.0299 129.145C55.2297 129.145 55.3932 129.439 55.3932 129.797ZM53.6486 130.367C53.6486 130.56 53.3594 131.098 53.0057 131.563C52.392 132.369 52.3667 132.353 52.4465 131.211C52.4927 130.553 52.7819 130.015 53.0894 130.015C53.3969 130.015 53.6486 130.173 53.6486 130.367ZM41.6727 133.029C41.548 133.23 41.8359 133.497 42.313 133.622C42.7902 133.746 43.1806 133.691 43.1806 133.5C43.1806 132.989 41.9384 132.601 41.6727 133.029ZM54.7202 133.464C55.0775 134.04 54.2967 134.418 53.4331 134.088C52.8513 133.865 52.8212 133.734 53.2848 133.44C54.0429 132.961 54.4123 132.968 54.7202 133.464ZM20.3241 133.861C20.1732 134.105 20.2622 134.435 20.5217 134.595C21.1925 135.008 21.6252 134.442 21.0651 133.884C20.752 133.572 20.5082 133.564 20.3241 133.861ZM52.4635 135.797C52.5922 136.131 52.3309 136.387 51.8232 136.425C51.1232 136.478 51.0617 136.374 51.4882 135.862C52.1277 135.094 52.1909 135.09 52.4635 135.797ZM19.6275 136.104C19.6275 136.343 19.8238 136.539 20.0637 136.539C20.3036 136.539 20.4999 136.343 20.4999 136.104C20.4999 135.865 20.3036 135.669 20.0637 135.669C19.8238 135.669 19.6275 135.865 19.6275 136.104ZM27.4785 138.319C27.4785 138.536 27.8711 138.713 28.3509 138.713C28.8307 138.713 29.2232 138.638 29.2232 138.547C29.2232 138.455 28.8307 138.278 28.3509 138.152C27.8711 138.028 27.4785 138.102 27.4785 138.319ZM23.1169 139.148C23.1169 139.388 22.9088 139.583 22.655 139.583C22.4011 139.583 22.3143 139.388 22.4626 139.148C22.6109 138.909 22.8185 138.713 22.9245 138.713C23.0305 138.713 23.1169 138.909 23.1169 139.148ZM32.9306 139.148C32.7823 139.388 32.3667 139.583 32.0068 139.583C31.647 139.583 31.4738 139.388 31.6221 139.148C31.7704 138.909 32.1861 138.713 32.5459 138.713C32.9058 138.713 33.0789 138.909 32.9306 139.148ZM35.7657 139.583C35.7657 139.823 36.1513 140.018 36.6228 140.018C37.6273 140.018 38.6414 141.547 37.9287 141.986C37.6774 142.141 37.1889 142.033 36.8426 141.747C36.4963 141.46 35.9162 141.339 35.5533 141.478C35.0556 141.669 34.8934 141.414 34.8934 140.44C34.8934 139.729 35.0897 139.148 35.3296 139.148C35.5694 139.148 35.7657 139.344 35.7657 139.583ZM41.9872 139.843C42.3946 140.249 41.8411 141.323 41.2244 141.323C40.9199 141.323 40.4262 141.617 40.1274 141.975C39.8286 142.334 39.2651 142.621 38.8747 142.613C38.326 142.6 38.3736 142.477 39.0819 142.069C39.5865 141.778 39.9137 141.296 39.809 140.997C39.7043 140.698 39.9294 140.453 40.3093 140.453C40.6892 140.453 40.9997 140.257 40.9997 140.018C40.9997 139.539 41.579 139.436 41.9872 139.843ZM25.5158 140.453C25.3675 140.692 25.05 140.888 24.8101 140.888C24.5702 140.888 24.4952 140.692 24.6435 140.453C24.7918 140.214 25.1093 140.018 25.3492 140.018C25.5891 140.018 25.6641 140.214 25.5158 140.453ZM44.4891 141.106C44.4891 141.464 44.3046 141.758 44.0786 141.758C43.5286 141.758 43.1348 141.079 43.4833 140.731C43.9744 140.241 44.4891 140.433 44.4891 141.106ZM30.9679 141.515C30.9679 141.974 30.1309 142.167 29.8818 141.765C29.7313 141.522 29.9141 141.323 30.2879 141.323C30.6617 141.323 30.9679 141.409 30.9679 141.515ZM32.7126 142.871C32.7126 143.244 32.5163 143.428 32.2764 143.28C32.0365 143.132 31.8402 142.827 31.8402 142.602C31.8402 142.377 32.0365 142.193 32.2764 142.193C32.5163 142.193 32.7126 142.498 32.7126 142.871ZM55.8294 159.518C55.8294 160.084 55.3108 160.46 54.889 160.201C54.438 159.923 54.8271 159.155 55.419 159.155C55.6449 159.155 55.8294 159.318 55.8294 159.518Z" fill="var(--fill-0, #2D2D32)"/>
</svg>
