<svg preserveAspectRatio="xMidYMid meet" overflow="visible" style="display: block;" viewBox="0 0 123 173" fill="none" xmlns="http://www.w3.org/2000/svg">
<path id="Vector" fill-rule="evenodd" clip-rule="evenodd" d="M92.8426 0.785609C92.0725 1.22293 90.9233 1.82018 90.289 2.11318C89.0718 2.67482 88.3919 3.78404 89.4314 3.51228C89.7411 3.43106 90.0639 3.18336 90.1491 2.96157C90.234 2.7401 90.9814 2.30435 91.8096 1.99323C92.6378 1.68242 93.4208 1.2804 93.5497 1.09954C93.7052 0.881818 93.8809 0.922114 94.0723 1.2198C94.3111 1.59121 94.445 1.59808 94.8527 1.25947C95.1234 1.03488 95.3447 0.699395 95.3447 0.514473C95.3447 0.295189 95.2142 0.308308 94.9701 0.552581C94.4466 1.07642 93.9936 1.02051 94.209 0.45887C94.4378 -0.137755 94.49 -0.150249 92.8426 0.785609ZM95.9691 0.302686C96.2266 0.469179 96.5778 0.605372 96.7495 0.605372C96.9212 0.605372 96.851 0.469179 96.5934 0.302686C96.3359 0.136193 95.9847 0 95.813 0C95.6413 0 95.7115 0.136193 95.9691 0.302686ZM95.5732 2.20501C95.2698 2.38182 94.7781 2.49677 94.4806 2.45991C93.8672 2.38431 93.2281 2.58486 91.4425 3.41451C90.7557 3.73344 89.8426 4.07173 89.4133 4.16607C88.9841 4.2604 88.4924 4.65618 88.3207 5.0457C88.149 5.43522 87.5168 6.07121 86.9159 6.45886C86.3149 6.84682 85.6422 7.31756 85.4212 7.50498C85.1018 7.77612 85.0634 7.66492 85.2339 6.96396C85.443 6.10432 85.4324 6.09557 84.8302 6.62879C84.4899 6.92991 84.1063 7.07079 83.9773 6.94178C83.8484 6.81277 83.5437 6.97989 83.3002 7.31319C83.0567 7.64617 82.8575 7.75144 82.8575 7.54684C82.8575 7.34224 82.7171 7.17481 82.5454 7.17481C82.3737 7.17481 82.2332 7.3919 82.2332 7.65711C82.2332 7.92231 82.054 8.09817 81.8348 8.04788C81.3494 7.93636 79.7358 9.16054 79.7358 9.64065C79.7358 9.83057 79.525 9.98613 79.2675 9.98613C79.0099 9.98613 78.7992 10.103 78.7992 10.2454C78.7992 10.3882 78.1321 10.9829 77.3164 11.5667C74.9001 13.2972 73.1129 15.312 70.4172 19.3444C69.0177 21.4376 67.8729 22.9947 67.8729 22.8048C67.8729 22.6149 67.4515 22.8907 66.9364 23.418C66.4213 23.9453 65.9999 24.6612 65.9999 25.0089C65.9999 25.3569 65.8725 25.5627 65.7167 25.4665C65.5597 25.3694 65.5194 25.6046 65.6262 25.9947C65.7826 26.5664 65.8397 26.5954 65.9321 26.1512C65.9945 25.8507 66.1734 25.6046 66.3298 25.6046C66.4862 25.6046 66.3832 26.0891 66.101 26.6813C65.8188 27.2733 65.4348 27.7303 65.2475 27.6965C65.0605 27.6628 64.9441 27.8159 64.989 28.0367C65.0671 28.4197 64.1215 30.3042 62.9652 32.0697C62.2484 33.1642 61.3181 35.85 61.3134 36.838C61.3112 37.2741 60.96 38.2424 60.533 38.9902C60.1059 39.7381 59.7563 40.593 59.7563 40.8904C59.7563 41.1881 59.6592 41.5282 59.5409 41.6469C59.4222 41.7653 59.2708 42.5269 59.204 43.339C59.1375 44.1509 58.9533 44.8622 58.7954 44.9193C58.6371 44.9768 58.5075 45.2311 58.5075 45.4844C58.5075 45.738 58.3802 45.8667 58.2244 45.7705C58.0689 45.674 58.0149 45.8767 58.1048 46.2206C58.2625 46.8235 58.1673 46.8866 56.9722 46.9728C56.2929 47.0216 56.1977 47.7581 56.8427 47.9752C57.1574 48.0814 57.9606 48.7493 58.6274 49.4593C59.2942 50.1693 59.7425 50.5748 59.6236 50.3599C59.5047 50.1453 59.5562 49.9694 59.7379 49.9694C59.9195 49.9694 60.0684 50.1709 60.0684 50.417C60.0684 50.6632 60.3494 50.9537 60.6928 51.0627C61.0362 51.1717 61.3172 51.4341 61.3172 51.6459C61.3172 51.8955 61.6734 51.9898 62.3317 51.9142C63.155 51.8199 63.4053 51.9345 63.6591 52.5236C63.9479 53.1934 63.8518 53.3011 62.4117 53.9243C61.2785 54.4144 60.7883 54.5 60.6207 54.2367C60.4512 53.9696 60.3891 53.9771 60.3853 54.2645C60.3828 54.4794 60.1012 54.6549 59.76 54.6549C59.3024 54.6549 59.1588 54.4703 59.2137 53.9521C59.2764 53.3583 59.1425 53.253 58.3515 53.2739C57.8364 53.2874 57.0284 53.4083 56.5564 53.542C55.9018 53.7278 55.6979 53.6775 55.6979 53.3308C55.6979 53.0809 55.417 52.5521 55.0736 52.156C54.7302 51.7599 54.4492 51.3201 54.4492 51.1792C54.4492 51.038 54.0122 50.6966 53.4783 50.4201C52.9442 50.144 52.6014 50.07 52.7163 50.2558C52.9473 50.6297 51.3471 50.7166 50.148 50.3948C49.626 50.2549 49.4862 50.0484 49.6226 49.6183C49.7537 49.2057 49.6551 49.0323 49.2901 49.0323C49.0048 49.0323 48.6979 49.3134 48.6083 49.657C48.3954 50.4711 47.728 50.4645 47.6665 49.6477C47.6337 49.2122 47.7842 49.041 48.1463 49.101C48.4363 49.1491 48.6386 49.0129 48.5958 48.798C48.5397 48.5162 49.1088 48.4075 50.6403 48.4075H52.7628L53.158 47.3143C53.3753 46.7129 53.6494 46.2188 53.7671 46.2163C53.8848 46.2138 54.506 45.7568 55.1482 45.2011C56.1656 44.3199 56.3903 43.8616 56.9017 41.6207C57.2242 40.2072 57.3662 39.1261 57.2173 39.2183C57.0684 39.3104 56.9467 39.575 56.9467 39.8065C56.9467 40.0838 56.7169 40.1672 56.2736 40.0514C55.8846 39.9495 55.6783 40.0011 55.7847 40.1735C55.8859 40.3378 55.84 40.6761 55.682 40.9257C55.4441 41.3018 55.3945 41.2862 55.3904 40.8326C55.3879 40.5318 55.2525 40.2859 55.0898 40.2859C54.5838 40.2859 53.2005 38.8353 53.2005 38.3049C53.2005 37.5287 54.4845 36.8614 56.8031 36.4335C58.5016 36.1199 58.9633 35.909 59.1687 35.3536C59.3698 34.8098 59.3102 34.6642 58.8878 34.667C57.054 34.6795 51.0396 37.0842 51.2522 37.7195C51.388 38.125 50.8067 39.0365 50.4124 39.0365C50.2947 39.0365 49.7856 38.4873 49.2811 37.816C48.7766 37.1451 48.2674 36.6553 48.1501 36.7281C48.0324 36.8008 47.7511 36.5969 47.5244 36.2751C47.2981 35.9534 46.7949 35.5895 46.4059 35.4664C46.0172 35.3436 45.7787 35.1144 45.8758 34.9566C45.9732 34.7992 45.849 34.7486 45.6002 34.8442C45.3514 34.9397 44.8875 34.742 44.5694 34.4047C42.8689 32.601 34.5162 31.6546 28.7216 32.6092C25.4368 33.1502 21.8542 34.2591 19.3968 35.4951C17.1553 36.6225 14.4131 38.4386 14.6279 38.6535C14.7322 38.7578 15.0231 38.6373 15.2747 38.3855C15.915 37.7448 20.8512 38.1297 23.5434 39.0302C28.7815 40.7823 38.6276 46.5511 38.0301 47.5182C37.9405 47.6638 38.032 47.7828 38.234 47.7828C38.4538 47.7828 38.543 48.0858 38.4563 48.5397C38.3467 49.1129 38.4709 49.3397 38.966 49.4727C40.1595 49.7932 41.0255 49.6736 41.0255 49.1885C41.0255 48.5834 41.3314 48.5918 41.7825 49.2091C41.9798 49.4793 42.7138 49.7411 43.4212 49.7938C44.1258 49.8466 44.8232 49.9588 44.9711 50.0437C45.1188 50.1284 45.6155 50.1774 46.0744 50.1524C46.5333 50.1274 46.8411 50.2168 46.7584 50.3505C46.6756 50.4845 46.9675 50.5941 47.4068 50.5941C47.846 50.5941 48.2056 50.7347 48.2056 50.9065C48.2056 51.0783 48.6801 51.2189 49.2602 51.2189C49.8399 51.2189 50.4892 51.4297 50.7031 51.6874C51.1729 52.2537 52.2955 52.3131 52.1859 51.7655C52.1357 51.5147 52.4285 51.3979 53.0045 51.4391C54.0069 51.5106 54.4992 51.8555 53.9029 52.0685C53.6884 52.1454 53.5127 52.3518 53.5127 52.5277C53.5127 52.7036 53.7234 52.7667 53.9809 52.6676C54.2688 52.5571 54.4492 52.6683 54.4492 52.9566C54.4492 53.844 53.5295 53.7715 50.3288 52.6327C44.4136 50.5279 39.4306 49.7364 36.3984 50.4198C34.8693 50.7647 35.4316 51.0049 37.9842 51.0977C39.4996 51.1526 40.9656 51.451 42.4303 52.0023C43.6322 52.4546 45.037 52.9788 45.5521 53.1671C46.0672 53.3552 46.9101 53.8025 47.4252 54.1611C47.9403 54.5194 48.6342 54.9629 48.9673 55.1466C49.8752 55.6467 49.9307 56.2168 49.0716 56.2168C48.6611 56.2168 48.0598 56.4108 47.7358 56.6478C47.2991 56.9674 46.9191 56.9993 46.2654 56.7712C45.7609 56.5954 43.6831 56.5348 41.4032 56.6297C37.9237 56.7747 37.2172 56.8987 35.7931 57.6143C34.8968 58.0648 34.0227 58.6967 33.8504 59.0187C33.678 59.3408 33.3609 59.7934 33.1452 60.0246C32.9291 60.256 32.4805 60.9345 32.1481 61.5327C31.8153 62.1309 30.6162 63.6765 29.483 64.9675C27.7928 66.8932 27.2943 67.7232 26.7049 69.5915C26.31 70.8438 26.064 72.0701 26.1586 72.3166C26.2532 72.5631 26.2304 72.7499 26.1077 72.7317C25.3154 72.6133 25.1043 72.8764 25.1043 73.9825C25.1043 74.6481 24.8811 75.8079 24.6083 76.5595C24.0192 78.1838 23.255 83.4423 23.2413 85.9699C23.2356 86.958 23.0908 87.7661 22.9191 87.7661C22.724 87.7661 22.6069 89.6403 22.6069 92.764C22.6069 95.6018 22.7312 97.7619 22.8944 97.7619C23.1701 97.7619 23.2628 98.6218 23.7027 105.259C23.8107 106.891 24.1001 109.113 24.3458 110.198C24.5911 111.282 24.8006 112.969 24.8109 113.946C24.8209 114.923 24.9607 116.426 25.1215 117.285C25.2823 118.144 25.5473 119.677 25.7106 120.692C25.8739 121.707 26.1589 122.631 26.3443 122.746C26.5294 122.86 26.7508 123.366 26.836 123.868C26.9209 124.371 27.1104 125.485 27.2565 126.344C27.5556 128.101 28.1999 130.006 28.5826 130.263C28.7225 130.356 28.8867 131.262 28.9476 132.276C29.0097 133.311 29.2176 134.171 29.4224 134.239C29.6231 134.307 29.787 134.671 29.787 135.05C29.787 135.429 30.0667 136.288 30.4086 136.959C30.7504 137.63 31.1172 138.644 31.2237 139.211C31.3301 139.779 31.5265 140.244 31.6601 140.244C31.7937 140.244 32.0007 140.771 32.1206 141.415C32.2405 142.06 32.5963 143.219 32.9116 143.993C33.2269 144.766 33.6503 146.136 33.8522 147.037C34.0542 147.939 34.3383 148.603 34.4838 148.513C34.8125 148.31 35.4543 150.534 35.1902 150.962C35.0757 151.147 35.1575 151.175 35.3916 151.03C35.6788 150.852 35.7306 150.959 35.583 151.424C35.4718 151.775 35.5293 152.153 35.711 152.266C35.8923 152.378 35.9601 152.6 35.8611 152.76C35.7625 152.92 35.8305 153.051 36.0122 153.051C36.1939 153.051 36.3428 153.473 36.3428 153.988C36.3428 154.717 36.4814 154.925 36.9672 154.925C37.6468 154.925 37.7951 155.534 37.2484 156.081C36.8532 156.476 37.1595 157.737 37.6508 157.737C37.8556 157.737 37.8331 157.559 37.5915 157.268C37.323 156.945 37.3112 156.8 37.5534 156.8C37.8787 156.8 38.0376 157.232 37.934 157.835C37.8132 158.54 38.672 160.56 39.0338 160.421C39.2679 160.331 39.3681 160.436 39.2767 160.675C39.1905 160.899 39.4215 161.63 39.7896 162.299L40.4586 163.516L39.6625 162.59C38.9695 161.784 36.7973 158.024 33.6106 152.114C33.1008 151.169 31.8917 148.966 30.9234 147.218C29.955 145.471 29.1627 143.906 29.1627 143.742C29.1627 143.578 28.952 143.269 28.6944 143.055C28.4369 142.841 28.2261 142.401 28.2261 142.076C28.2261 141.751 28.1066 141.241 27.9602 140.943C27.4098 139.82 26.4086 137.561 26.128 136.808C25.9678 136.379 25.5408 135.395 25.179 134.621C23.9546 132.005 22.9519 129.168 21.9769 125.563C21.4425 123.587 20.8771 121.689 20.7207 121.346C20.564 121.002 20.4629 120.51 20.496 120.252C20.5525 119.811 20.4251 119.276 19.3456 115.411C19.1058 114.552 18.8242 112.563 18.7203 110.991C18.616 109.419 18.3157 107.311 18.0522 106.306C17.2427 103.214 17.721 78.4437 18.6185 76.9681C18.7159 76.8078 18.8845 75.7817 18.9934 74.6872C19.1021 73.5929 19.3409 72.4175 19.5238 72.0751C19.7068 71.7328 19.792 71.114 19.7127 70.6995C19.6337 70.2853 19.6612 69.8889 19.7742 69.8192C19.8872 69.7492 20.0143 68.7337 20.0567 67.562C20.0995 66.3903 20.2487 65.3917 20.3886 65.3426C20.5287 65.2936 20.5818 64.9325 20.5069 64.5402C20.2219 63.0489 22.9406 57.2979 25.4946 53.9899C25.9669 53.3783 26.3531 52.7095 26.3531 52.5033C26.3531 52.0401 27.4769 50.8803 28.5986 50.1862C29.3849 49.6995 29.4998 49.7004 30.3711 50.2009C31.1787 50.6647 31.4934 50.6847 32.7346 50.3527C33.5223 50.1418 34.4454 49.9694 34.7863 49.9694C35.1272 49.9694 35.4063 49.8435 35.4063 49.6895C35.4063 49.3212 33.7433 47.8937 31.745 46.5465C30.8637 45.9523 30.2019 45.3704 30.2743 45.2529C30.3468 45.1358 30.0561 44.8103 29.6281 44.5298C29.2005 44.2493 28.8505 43.8082 28.8505 43.549C28.8505 42.2351 25.2286 40.2307 21.6704 39.575C19.5816 39.1905 14.3835 39.5478 14.6966 40.0548C14.8299 40.2706 14.7119 40.3181 14.3691 40.1863C13.8668 39.9936 12.4055 40.6889 11.9463 41.3396C11.8348 41.4973 11.5348 41.5464 11.2798 41.4483C10.7297 41.2371 9.82597 41.8137 7.9941 43.5446C5.04088 46.3344 2.36862 51.5072 1.27662 56.547C0.172753 61.6411 -0.0264158 64.4212 0.00261692 74.3342C0.0388297 86.6862 0.902005 96.2494 3.11785 108.851C3.38976 110.397 3.63639 111.965 3.66604 112.335C3.6957 112.705 3.84149 112.933 3.98977 112.842C4.13837 112.75 4.18676 112.131 4.09747 111.466C4.00601 110.781 4.05814 110.332 4.21798 110.431C4.37344 110.527 4.51049 111.054 4.52235 111.603C4.53453 112.151 4.66502 112.881 4.81268 113.224C5.00841 113.68 5.10113 113.343 5.15545 111.975C5.21476 110.479 5.25535 110.349 5.35587 111.332C5.44796 112.232 5.55972 112.443 5.77169 112.113C6.0102 111.742 6.10884 111.736 6.33018 112.079C6.75443 112.737 6.9767 111.424 6.77379 109.457C6.6433 108.193 6.70074 107.758 6.99793 107.758C7.29607 107.758 7.35413 107.301 7.22739 105.962C7.12405 104.871 7.15964 104.411 7.31792 104.79C7.63134 105.542 7.71158 99.3328 7.42 96.9029C7.18243 94.9246 6.76629 94.7656 6.60209 96.5905C6.5025 97.6982 6.47285 97.6079 6.42352 96.0439C6.35734 93.9554 5.66805 91.2737 5.25941 91.5145C4.98313 91.6772 4.65315 90.5749 4.18364 87.9223C3.59518 84.5965 3.27238 83.1355 2.50598 80.3261C1.78485 77.6825 1.70899 76.8366 1.68058 71.1112C1.66341 67.6439 1.63656 63.4013 1.62095 61.6832C1.59442 58.7957 2.11108 55.9132 3.12753 53.2761C3.30329 52.8194 3.25303 52.7329 2.91463 52.9094C2.67081 53.0365 2.78413 52.8641 3.16655 52.5258C3.55647 52.1813 3.92265 51.421 4.00039 50.7944C4.16959 49.4284 4.43619 48.9558 4.88261 49.2316C5.07054 49.3478 5.13266 49.2975 5.02215 49.1185C4.77022 48.7109 5.54973 47.1231 6.3639 46.3859C6.70448 46.0776 6.92051 45.7237 6.84403 45.6C6.76755 45.476 7.05194 45.0486 7.47588 44.6501C7.89982 44.2515 8.24759 44.0553 8.24884 44.2143C8.24977 44.373 8.52949 44.0812 8.86976 43.5658C9.21035 43.0504 9.73606 42.6131 10.0386 42.594C10.8964 42.54 11.9928 42.1136 11.9928 41.8337C11.9928 41.3874 15.2972 40.8226 17.0557 40.9685C18.316 41.0731 19.2347 41.4086 20.6037 42.2642C24.1996 44.5114 28.356 48.3816 27.7863 48.9517C27.6786 49.0595 26.9599 49.181 26.1892 49.2219C25.4187 49.2625 24.1219 49.5152 23.3074 49.7832C22.493 50.0512 21.4987 50.3186 21.0985 50.3773C20.6979 50.4361 20.2765 50.6291 20.1619 50.8065C20.047 50.9837 19.4501 51.2214 18.8352 51.3341C17.7847 51.5275 16.3633 52.7198 16.3633 53.408C16.3633 53.5782 16.2228 53.7178 16.0511 53.7178C15.8794 53.7178 15.739 53.8765 15.739 54.0705C15.739 54.2645 15.2473 54.9676 14.6463 55.6333C14.0454 56.2986 13.5537 57.0536 13.5537 57.311C13.5537 57.5681 13.4476 57.7786 13.3177 57.7786C13.0642 57.7786 12.2912 59.3695 12.1817 60.1173C12.1448 60.3672 12.0172 60.6696 11.8979 60.7892C11.7783 60.9086 11.6806 61.2572 11.6806 61.5636C11.6806 61.87 11.4349 62.2639 11.1343 62.4392C10.8337 62.6144 10.7488 62.7618 10.9454 62.7672C11.1983 62.7737 11.2233 63.1192 11.031 63.9479C10.8814 64.5923 10.7556 65.705 10.7516 66.4209C10.7472 67.155 10.5796 67.7772 10.3667 67.8482C9.9012 68.0034 9.94116 86.9427 10.4094 88.1753C10.7069 88.9584 10.981 91.1072 11.1939 94.3258C11.4128 97.6366 11.769 100.261 11.9994 100.261C12.3852 100.261 12.7224 105.001 12.3527 105.229C11.9488 105.479 12.5419 120.043 12.9624 120.2C13.116 120.258 13.2518 120.961 13.2643 121.762C13.2987 123.949 13.7195 126.527 14.0803 126.761C14.2561 126.875 14.4902 127.601 14.6004 128.374C14.711 129.147 14.9314 130.483 15.0906 131.342C15.2498 132.201 15.4711 133.536 15.5826 134.309C15.694 135.082 16.0633 136.24 16.4033 136.881C17.0476 138.096 17.323 138.973 17.4369 140.175C17.4741 140.566 17.6692 141.051 17.8705 141.252C18.0716 141.454 18.2364 141.872 18.2364 142.181C18.2364 142.49 18.3769 142.743 18.5486 142.743C18.7203 142.743 18.8608 142.996 18.8608 143.305C18.8608 143.615 19.0087 144.016 19.1898 144.197C19.3709 144.378 19.5753 144.971 19.644 145.514C19.7127 146.057 19.9862 146.812 20.2515 147.191C20.5169 147.57 20.7338 148.053 20.7338 148.265C20.7338 148.477 21.0903 149.176 21.5258 149.818C22.1074 150.676 22.2666 151.219 22.1252 151.862C22.0072 152.4 22.0631 152.739 22.2701 152.739C22.4552 152.739 22.6069 153.293 22.6069 153.97C22.6069 154.647 22.7474 155.288 22.9191 155.394C23.0908 155.5 23.2313 155.845 23.2313 156.16C23.2313 156.475 23.4567 156.819 23.732 156.925C24.0292 157.039 24.1569 157.315 24.0461 157.604C23.9 157.984 24.0114 158.047 24.5599 157.893C25.0613 157.752 25.1371 157.781 24.8268 157.996C24.48 158.236 24.6142 158.517 25.498 159.401C26.1058 160.009 26.5407 160.569 26.4648 160.645C26.2266 160.883 29.5392 163.127 31.6601 164.164C32.7762 164.709 34.4619 165.395 35.4063 165.688C36.3506 165.98 37.334 166.3 37.5915 166.398C37.8491 166.497 38.2003 166.626 38.372 166.686C38.5437 166.745 40.0187 167.256 41.6499 167.821C43.281 168.385 45.5989 169.313 46.8008 169.883C52.5568 172.61 55.4026 173.176 62.2537 172.958C66.0292 172.837 67.5726 172.653 69.2777 172.122C70.4796 171.747 71.6737 171.403 71.9313 171.356C72.1888 171.31 72.8912 171.06 73.4922 170.801C74.0931 170.543 75.3574 170.079 76.3018 169.771C77.2461 169.464 78.1702 169.093 78.3553 168.947C78.8161 168.585 82.0446 168.137 88.169 167.586C95.8349 166.896 99.2298 165.601 103.343 161.794C105.214 160.063 106.869 158.028 108.06 155.996C109.334 153.823 109.484 153.352 108.831 153.582C108.398 153.733 108.372 153.69 108.69 153.347C108.905 153.116 109.081 152.665 109.081 152.346C109.081 152.026 109.2 151.839 109.346 151.929C109.491 152.019 109.622 151.696 109.636 151.213C109.649 150.728 109.866 149.293 110.116 148.021C110.367 146.75 110.584 144.094 110.597 142.118C110.626 137.971 110.905 135.246 111.302 135.246C111.454 135.246 111.578 134.485 111.578 133.554C111.578 131.8 111.348 130.786 110.999 131.001C110.77 131.143 110.786 125.471 111.027 121.502C111.126 119.865 111.113 119.625 110.993 120.877L110.798 122.908L110.596 121.19C110.342 119.036 110.644 112.756 111.001 112.756C111.146 112.756 111.266 111.631 111.266 110.257C111.266 108.244 111.357 107.758 111.734 107.758C112.111 107.758 112.202 107.275 112.202 105.285C112.202 103.777 112.069 102.768 111.862 102.698C111.63 102.621 111.729 101.689 112.171 99.7829C112.528 98.2417 112.905 96.2838 113.009 95.4316C113.168 94.1231 113.249 93.975 113.53 94.4779C113.772 94.9109 113.764 95.1064 113.501 95.1942C113.302 95.2607 113.14 95.6899 113.141 96.1479L113.142 96.981L114.093 95.9658C114.616 95.4072 115.177 94.9506 115.34 94.9506C115.503 94.9506 115.648 94.4939 115.662 93.9354L115.687 92.9202L116.127 93.9244C116.431 94.6207 116.477 95.1611 116.278 95.6871C116.119 96.1041 116.067 96.7417 116.161 97.1037C116.261 97.4829 116.186 97.7619 115.985 97.7619C115.762 97.7619 115.636 98.5403 115.636 99.9247C115.636 102.231 115.074 105.259 114.646 105.259C114.281 105.259 114.323 107.683 114.69 107.81C114.882 107.876 114.884 108.084 114.695 108.382C114.441 108.782 114.396 108.771 114.392 108.304C114.39 108.004 114.183 107.758 113.933 107.758C113.466 107.758 112.893 109.802 113.258 110.167C113.364 110.274 113.451 109.99 113.451 109.538C113.451 108.934 113.576 108.762 113.919 108.894C114.749 109.213 114.429 112.756 113.571 112.756C112.821 112.756 113.011 115.318 113.812 116.005C114.465 116.564 114.467 116.591 113.89 116.913C113.185 117.306 112.515 117.942 112.515 118.218C112.515 118.326 112.655 118.328 112.827 118.222C112.998 118.116 113.139 118.17 113.139 118.341C113.139 118.513 113.029 118.722 112.895 118.805C112.761 118.888 112.619 119.708 112.581 120.628C112.542 121.548 112.371 122.787 112.201 123.383C111.777 124.861 111.81 125.25 112.359 125.25C112.691 125.25 112.828 125.591 112.831 126.422C112.834 127.066 112.984 127.804 113.164 128.062C113.419 128.425 113.446 128.368 113.287 127.805C112.949 126.607 112.839 119.003 113.16 119.003C113.32 119.003 113.47 119.882 113.494 120.955C113.517 122.029 113.588 122.556 113.651 122.127C113.714 121.697 113.911 120.643 114.088 119.784C114.266 118.925 114.473 117.519 114.548 116.66C114.759 114.263 115.213 111.455 115.563 110.38C115.737 109.846 115.823 109.003 115.753 108.506C115.65 107.761 115.678 107.712 115.912 108.226C116.106 108.65 116.184 107.916 116.156 105.947C116.131 104.191 116.246 102.956 116.448 102.823C116.631 102.703 116.951 101.557 117.158 100.277C117.366 98.9973 117.65 97.8025 117.79 97.6219C117.93 97.4411 118.367 95.5363 118.761 93.3887C119.155 91.2412 119.785 88.7797 120.16 87.9185C120.536 87.0576 120.945 85.5842 121.07 84.6446C121.194 83.705 121.427 82.8553 121.587 82.7566C121.746 82.6576 121.951 81.7414 122.042 80.7203C122.133 79.6991 122.286 78.1607 122.382 77.3017C122.478 76.4427 122.618 75.1073 122.694 74.3342C122.77 73.5611 122.898 72.6277 122.978 72.2601C123.058 71.8924 122.914 69.1114 122.658 66.0798C122.24 61.1275 122.08 60.2773 121.087 57.7037C119.974 54.8199 118.493 52.0982 117.55 51.2051C116.384 50.1006 112.937 47.5676 112.359 47.3905C112.015 47.2852 111.172 46.9853 110.485 46.7239C109.799 46.4624 108.675 46.2247 107.988 46.1957C106.782 46.1447 106.795 46.1347 108.375 45.9042C109.275 45.7727 110.259 45.5687 110.561 45.4513C111.056 45.2585 111.035 45.1767 110.354 44.6207L109.598 44.0038L110.276 43.8267C110.649 43.7289 110.954 43.5411 110.954 43.409C110.954 42.8327 107.538 42.0518 104.74 41.9887C101.937 41.9253 101.704 41.9724 99.5888 43.032C98.3707 43.6424 97.0068 44.3945 96.5582 44.7035C96.1096 45.0127 95.6532 45.1758 95.5436 45.0664C95.4343 44.9568 95.3447 45.0265 95.3447 45.2208C95.3447 45.415 95.0725 45.7199 94.7397 45.8983C93.481 46.5724 94.2174 45.0021 96.0852 43.0292L97.943 41.0669L96.7221 40.965C96.0502 40.9088 94.9904 41.0316 94.3664 41.2374C93.7423 41.4433 93.0399 41.5351 92.8055 41.442C92.5638 41.3458 92.7171 41.2446 93.1595 41.2087C93.9181 41.1465 92.458 40.792 90.1938 40.4884C89.6784 40.419 88.4415 40.1932 87.4447 39.9861C86.0649 39.6996 84.8621 39.6928 82.4027 39.9576C79.2272 40.2997 77.3473 40.2025 76.81 39.6684C76.6605 39.5194 76.3442 39.4719 76.1076 39.5628C75.3833 39.8411 75.6 38.4589 76.8031 35.1262C78.0269 31.7364 78.5598 28.7477 77.7631 29.7435C77.3036 30.3176 75.8385 30.4913 75.5394 30.0068C75.443 29.8513 75.6805 29.8 76.0673 29.8931C76.6433 30.0321 76.6998 29.9874 76.3798 29.6454C75.7851 29.0094 75.9028 28.8257 76.923 28.7967C77.5252 28.7795 78.0122 28.9926 78.2954 29.3971C78.8017 30.1205 78.7483 30.1802 80.2964 27.1664C80.8702 26.0497 81.611 24.9027 81.9425 24.6175C82.6375 24.0193 82.7133 23.5473 82.1551 23.2909C81.9407 23.1922 82.0531 23.1809 82.4049 23.2659C83.2041 23.4589 85.2432 21.4963 84.8705 20.8928C84.7 20.6167 84.7818 20.5595 85.1477 20.7001C85.4333 20.8097 85.6672 20.7498 85.6672 20.5664C85.6672 19.9829 89.7751 15.9514 91.253 15.0849C92.0356 14.6258 92.4983 14.1909 92.2804 14.1182C91.9769 14.0169 91.9694 13.8842 92.2482 13.5481C92.5279 13.2104 92.5192 13.1098 92.2092 13.1098C91.9879 13.1098 91.8873 13.0292 91.9857 12.9305C92.0843 12.8321 92.5926 12.9727 93.1148 13.2429C93.9633 13.6818 94.273 13.6861 96.0078 13.281C97.0764 13.0317 98.0869 12.9121 98.2536 13.0152C98.4344 13.127 98.4927 12.8652 98.3975 12.3679C98.3098 11.9088 98.3598 11.4577 98.5084 11.3659C98.657 11.274 98.7809 10.4691 98.7834 9.57724C98.7871 8.34307 98.868 8.06756 99.1212 8.42429C99.3662 8.76914 99.4084 8.44365 99.2801 7.19136C99.1146 5.57548 98.6947 4.94887 97.6861 4.81298C97.5144 4.78987 97.0929 4.73864 96.7495 4.69866C96.4061 4.65899 96.2919 4.55872 96.496 4.47563C96.742 4.37536 96.6371 4.09485 96.1839 3.64129L95.5008 2.95782L96.2032 2.85787C96.5897 2.8032 96.9056 2.55705 96.9056 2.31122C96.9056 1.79144 96.3584 1.74771 95.5732 2.20501ZM95.3447 3.56413C95.3447 3.64004 95.2042 3.78873 95.0325 3.89493C94.8608 4.00114 94.7204 3.93898 94.7204 3.75718C94.7204 3.57538 94.8608 3.42638 95.0325 3.42638C95.2042 3.42638 95.3447 3.48823 95.3447 3.56413ZM91.9108 4.51967C91.6969 4.77737 91.2936 4.98385 91.0142 4.97823C90.5871 4.96979 90.6027 4.89514 91.1119 4.50967C91.9008 3.91274 92.409 3.91898 91.9108 4.51967ZM100.237 4.28539C100.16 4.4144 100.077 4.87109 100.052 5.30059C100.027 5.7301 99.9765 6.48947 99.9391 6.98801C99.9019 7.48687 100.035 7.95136 100.234 8.02008C100.479 8.10504 100.631 7.48093 100.702 6.09776C100.797 4.25947 100.633 3.62005 100.237 4.28539ZM86.4807 5.48302C86.3643 5.78695 86.4339 5.93002 86.6621 5.8538C87.1288 5.69824 87.3857 4.98822 86.9752 4.98822C86.8076 4.98822 86.5853 5.21094 86.4807 5.48302ZM90.742 14.2887C90.5812 14.7085 90.5178 14.6923 90.3171 14.1803C90.1875 13.8492 90.0761 13.3675 90.0695 13.1098C90.0601 12.7481 90.1572 12.7728 90.4944 13.2182C90.7348 13.5356 90.8462 14.0173 90.742 14.2887ZM83.2884 22.1276C83.0751 22.4041 82.2145 21.2021 82.4049 20.8938C82.5354 20.6826 82.762 20.8313 82.9968 21.282C83.2059 21.6837 83.3371 22.0642 83.2884 22.1276ZM80.7294 23.7982C80.5056 24.0221 80.3601 24.0406 80.3601 23.845C80.3601 23.428 80.7294 23.0585 80.9376 23.2671C81.0263 23.3558 80.9327 23.5948 80.7294 23.7982ZM81.6088 24.1655C81.6088 24.233 81.3909 24.372 81.1243 24.4744C80.8465 24.581 80.7213 24.5285 80.8306 24.3517C81.0138 24.0546 81.6088 23.9125 81.6088 24.1655ZM66.8761 25.1442C66.78 25.2404 66.6055 25.067 66.4881 24.759C66.3189 24.3139 66.3545 24.278 66.6629 24.5841C66.8765 24.7962 66.9723 25.0483 66.8761 25.1442ZM78.487 25.9354C78.487 26.0972 78.3466 26.2293 78.1749 26.2293C78.0032 26.2293 77.8627 26.01 77.8627 25.7423C77.8627 25.4746 78.0032 25.3422 78.1749 25.4484C78.3466 25.5546 78.487 25.7736 78.487 25.9354ZM80.4382 25.499C80.2237 25.5859 79.8725 25.5859 79.6577 25.499C79.4432 25.4125 79.6187 25.3416 80.0479 25.3416C80.4772 25.3416 80.6529 25.4125 80.4382 25.499ZM76.4579 31.5396C76.564 31.7114 76.5019 31.852 76.3202 31.852C76.1385 31.852 75.9896 31.7114 75.9896 31.5396C75.9896 31.3678 76.0514 31.2272 76.1273 31.2272C76.2031 31.2272 76.3517 31.3678 76.4579 31.5396ZM76.3018 33.4138C76.3018 33.8087 75.664 33.8087 75.0531 33.4138C74.6881 33.178 74.7743 33.1099 75.4433 33.1061C75.9153 33.1036 76.3018 33.242 76.3018 33.4138ZM28.096 35.3661C28.2249 35.4948 28.1131 35.6004 27.8481 35.6004C27.583 35.6004 27.1925 35.8097 26.9802 36.0655C26.7679 36.3214 26.4751 36.4569 26.329 36.3667C26.1832 36.2764 25.7899 36.4763 25.4549 36.8115C24.9885 37.2781 24.5299 37.3918 23.4926 37.2975C20.4785 37.0242 20.1931 36.6781 22.1518 35.6723C23.25 35.1087 27.614 34.8838 28.096 35.3661ZM98.4081 41.124C98.6332 41.2143 98.9026 41.2031 99.0063 41.0994C99.1099 40.9956 98.9257 40.9219 98.5967 40.9354C98.233 40.9504 98.159 41.0244 98.4081 41.124ZM43.2061 42.0821C43.2033 42.2108 43.0687 42.5259 42.9067 42.7824C42.6841 43.1344 42.5243 43.1601 42.2521 42.8877C42.0538 42.6893 41.9861 42.3741 42.1013 42.1873C42.3376 41.8047 43.2133 41.7213 43.2061 42.0821ZM84.8948 42.5437C86.0855 42.7696 86.9159 43.086 86.9159 43.3137C86.9159 43.7914 87.8705 44.3118 88.3987 44.1225C89.1324 43.8591 88.7902 44.5407 87.8337 45.2486C87.0632 45.8183 86.9496 46.0417 87.2474 46.4006C87.5287 46.7395 87.5299 46.9503 87.2533 47.284C86.9743 47.6204 86.9833 47.7597 87.293 47.884C87.515 47.973 87.3904 48.0571 87.0161 48.0705C86.6421 48.0839 86.1155 48.316 85.8454 48.5859C85.5757 48.8561 85.355 48.9264 85.355 48.7421C85.355 48.2607 84.7631 48.3304 84.2177 48.8761C83.9602 49.1338 83.3733 49.3465 82.9134 49.349C82.4533 49.3512 81.7259 49.4312 81.2966 49.5265C80.6305 49.6745 80.5961 49.6489 81.0625 49.3506C81.3628 49.1585 81.6088 48.7802 81.6088 48.51C81.6088 48.127 81.704 48.0977 82.0406 48.3772C82.3746 48.6546 82.5157 48.6234 82.6627 48.2395C82.7723 47.9537 83.0196 47.8359 83.2456 47.9621C83.4613 48.0827 83.3477 47.8753 82.9927 47.5014C82.2113 46.678 81.3734 46.8997 81.0965 48.003C80.9561 48.564 80.8315 48.6652 80.6479 48.3679C80.4478 48.0439 80.3514 48.0667 80.195 48.4747C79.9518 49.1088 79.1632 48.8852 78.4215 47.9718L77.8876 47.3143L78.0678 48.0171C78.1667 48.4038 78.3881 48.7199 78.5598 48.7199C78.7393 48.7199 78.7805 49.0189 78.6569 49.4227C78.5385 49.8095 78.4287 50.3014 78.4124 50.516C78.3962 50.7309 78.31 50.9065 78.2211 50.9065C77.9251 50.9065 76.614 49.5533 76.614 49.2478C76.614 49.0829 76.2849 48.6424 75.8825 48.2695C74.6747 47.1493 74.6179 46.1625 75.6531 44.2868C76.5649 42.634 76.5734 42.6284 78.1827 42.5719C79.0708 42.5406 79.8772 42.435 79.9746 42.3376C80.2758 42.0365 82.7733 42.1411 84.8948 42.5437ZM46.4646 43.3059C46.7131 43.2103 46.961 43.2659 47.0156 43.4293C47.0746 43.6067 47.517 43.5739 48.1163 43.3478C49.1693 42.9501 49.9207 43.2356 49.1331 43.7342C48.1388 44.3633 45.0838 43.8598 45.0838 43.0667C45.0838 42.8093 45.2146 42.8171 45.548 43.0938C45.8034 43.3059 46.2158 43.4015 46.4646 43.3059ZM49.4543 44.4845C49.4543 44.5604 49.3139 44.7091 49.1422 44.8153C48.9705 44.9215 48.83 44.8593 48.83 44.6775C48.83 44.4957 48.9705 44.3467 49.1422 44.3467C49.3139 44.3467 49.4543 44.4086 49.4543 44.4845ZM7.70034 44.8659C7.25392 45.0461 7.16995 45.5962 7.58889 45.5962C7.74217 45.5962 7.94852 45.3854 8.04748 45.1277C8.14613 44.87 8.19639 44.6704 8.15893 44.6838C8.12115 44.6972 7.91512 44.7794 7.70034 44.8659ZM38.6086 45.1776C38.3267 45.2914 38.3083 45.4978 38.5415 45.9339C38.9567 46.7098 38.4809 46.7173 37.997 45.9423C37.5862 45.2835 37.7592 44.959 38.5022 44.9962C38.8206 45.0121 38.8587 45.0764 38.6086 45.1776ZM71.9075 45.9623C73.1232 46.2431 73.4922 46.4655 73.4922 46.9179C73.4922 47.2421 73.6367 47.418 73.8131 47.3089C73.9895 47.1996 74.4062 47.4373 74.7393 47.8372C75.5738 48.8389 75.5245 49.3209 74.6803 48.4144C74.2623 47.9655 73.9479 47.8206 73.8736 48.043C73.8068 48.2435 73.5533 48.4075 73.3102 48.4075C73.0667 48.4075 72.8678 48.5481 72.8678 48.7199C72.8678 48.8917 73.2284 49.0323 73.6692 49.0323C74.3169 49.0323 74.4343 49.1472 74.281 49.6308C74.1765 49.96 74.2373 50.3196 74.4159 50.4301C74.5948 50.5407 74.7409 50.467 74.7409 50.2668C74.7409 50.0665 74.9516 49.9834 75.2091 50.0825C75.5126 50.199 75.679 50.0734 75.6821 49.7254C75.6862 49.2722 75.7324 49.2603 75.9781 49.6489C76.1638 49.9432 76.1507 50.1821 75.9409 50.3117C75.7177 50.4498 75.742 50.7522 76.0161 51.2573C76.5409 52.2231 76.6161 53.1927 76.1878 53.4679C76.0008 53.5879 75.2472 53.6041 74.5136 53.5035C71.7549 53.1249 73.3748 53.8665 78.0884 55.1394C78.9853 55.3815 80.1241 55.4986 80.6189 55.3996C81.2873 55.2659 81.5711 55.3553 81.7209 55.7463C82.2307 57.0755 81.2342 57.1442 77.5667 56.0322C74.2754 55.0345 72.8678 54.39 72.8678 53.8818C72.8678 53.4982 70.7072 53.1015 68.5875 53.0959C68.0206 53.0943 67.3425 52.8404 67.0266 52.5111C66.7194 52.191 66.2574 51.8589 65.9999 51.7727C65.7311 51.6827 66.1001 51.4591 66.8665 51.247C68.063 50.9162 68.152 50.8287 67.725 50.4014C67.0463 49.7223 67.1334 49.1685 68.0287 48.4635C68.649 47.9752 68.713 47.8125 68.3409 47.6697C68.0837 47.571 67.8729 47.3367 67.8729 47.1493C67.8729 46.96 68.0462 46.9129 68.2632 47.0434C68.5413 47.2105 68.5338 47.1303 68.2363 46.7632C67.3023 45.6103 68.8869 45.2645 71.9075 45.9623ZM110.642 45.9086C110.642 46.0804 110.914 46.221 111.247 46.221C111.581 46.221 111.94 46.0804 112.046 45.9086C112.156 45.7315 111.893 45.5962 111.44 45.5962C111.001 45.5962 110.642 45.7368 110.642 45.9086ZM46.8008 46.221C46.907 46.3928 46.8448 46.5333 46.6631 46.5333C46.4815 46.5333 46.3325 46.3928 46.3325 46.221C46.3325 46.0492 46.3944 45.9086 46.4702 45.9086C46.5461 45.9086 46.6947 46.0492 46.8008 46.221ZM97.9689 46.6892C97.4697 47.1184 96.851 47.4839 96.5934 47.5011C96.1564 47.5301 97.6914 47.8019 103.461 48.7174C104.749 48.9217 106.348 49.2453 107.015 49.4365C109.054 50.0216 112.804 53.532 112.121 54.2161C112.018 54.3188 111.257 53.934 110.429 53.3611C108.66 52.1366 106.739 51.2032 103.305 49.8994C101.282 49.131 100.186 48.9226 97.53 48.8021C92.231 48.5609 88.2835 49.4343 84.4603 51.694C83.7104 52.1372 83.0199 52.4224 82.9253 52.3278C82.8307 52.2334 82.9175 52.156 83.1176 52.156C83.318 52.156 83.4819 51.9451 83.4819 51.6874C83.4819 51.4297 83.2862 51.2189 83.047 51.2189C82.8079 51.2189 82.5313 51.008 82.4324 50.7503C82.196 50.1337 82.6833 50.1521 83.3146 50.7837C83.7376 51.207 83.9611 51.2254 84.7416 50.9018C85.2507 50.691 85.6672 50.412 85.6672 50.2818C85.6672 49.9222 87.0548 49.4883 90.662 48.7199C94.6027 47.8806 95.3107 47.6363 96.6328 46.6605C97.1931 46.2469 97.9268 45.9086 98.2636 45.9086C98.7931 45.9086 98.7534 46.0139 97.9689 46.6892ZM68.9656 46.5333C68.8594 46.7051 69.0701 46.8457 69.4338 46.8457C69.7975 46.8457 70.0082 46.7051 69.9021 46.5333C69.796 46.3615 69.5852 46.221 69.4338 46.221C69.2824 46.221 69.0717 46.3615 68.9656 46.5333ZM48.0239 46.7229C48.7089 46.986 48.6414 47.3283 47.8934 47.3845C47.5366 47.4114 47.2691 47.239 47.2691 46.9825C47.2691 46.4768 47.3293 46.4562 48.0239 46.7229ZM40.7133 48.0952C40.7133 48.4388 40.5728 48.7199 40.4011 48.7199C40.2294 48.7199 40.089 48.4388 40.089 48.0952C40.089 47.7516 40.2294 47.4704 40.4011 47.4704C40.5728 47.4704 40.7133 47.7516 40.7133 48.0952ZM53.2005 47.7828C53.2005 47.9546 53.3494 48.0952 53.5311 48.0952C53.7128 48.0952 53.7749 47.9546 53.6688 47.7828C53.5626 47.611 53.414 47.4704 53.3382 47.4704C53.2623 47.4704 53.2005 47.611 53.2005 47.7828ZM88.8938 47.6794C89.1954 47.9812 88.158 49.0342 87.5699 49.0229C87.1441 49.0148 87.1513 48.967 87.6183 48.6949C87.9186 48.5197 88.1646 48.1726 88.1646 47.9234C88.1646 47.4486 88.538 47.3236 88.8938 47.6794ZM47.1967 48.7199C46.9822 49.0635 46.7 49.3447 46.5695 49.3447C46.2242 49.3447 46.2785 49.0673 46.7228 48.5625C47.309 47.8962 47.6418 48.0068 47.1967 48.7199ZM28.2261 49.8132C28.2261 50.0709 28.0154 50.2818 27.7579 50.2818C26.9456 50.2818 27.2087 49.6661 28.1481 49.3693C28.1909 49.3559 28.2261 49.5555 28.2261 49.8132ZM72.8678 49.9694C72.8678 50.1412 73.0167 50.2818 73.1984 50.2818C73.3801 50.2818 73.4422 50.1412 73.3361 49.9694C73.2299 49.7976 73.0813 49.657 73.0055 49.657C72.9296 49.657 72.8678 49.7976 72.8678 49.9694ZM80.0479 49.9694C80.0479 50.1412 79.8288 50.2818 79.5612 50.2818C79.2937 50.2818 79.1613 50.1412 79.2675 49.9694C79.3736 49.7976 79.5925 49.657 79.7542 49.657C79.9159 49.657 80.0479 49.7976 80.0479 49.9694ZM32.2845 51.2189C31.8967 51.4697 31.9236 51.5216 32.4406 51.5216C32.784 51.5216 33.2756 51.3854 33.5332 51.2189C33.9209 50.968 33.8941 50.9162 33.3771 50.9162C33.0337 50.9162 32.542 51.0524 32.2845 51.2189ZM95.6569 51.8617C95.6569 52.2141 92.9366 53.4055 92.1327 53.4055C91.7359 53.4055 91.2355 53.5813 91.021 53.7959C90.8063 54.0108 90.5325 54.1898 90.4123 54.1942C89.7115 54.2195 88.1384 55.2138 87.8012 55.8441C87.5839 56.2502 87.022 56.7812 86.5522 57.0243C86.0824 57.2673 85.5691 57.6968 85.4115 57.9785C85.0131 58.6911 84.4665 58.2634 83.8119 56.7278C83.4229 55.8157 83.3408 55.2063 83.5325 54.6549C84.0363 53.2037 87.4332 51.6221 90.7863 51.2776C92.9107 51.0592 95.6569 51.3885 95.6569 51.8617ZM82.0771 52.156C82.1929 52.3437 81.7952 52.4665 81.0809 52.4637C80.1981 52.4599 80.0127 52.3809 80.3601 52.156C80.9707 51.7611 81.8333 51.7611 82.0771 52.156ZM104.78 54.3241C108.998 56.5138 111.665 61.5021 110.969 65.9002C110.955 65.9861 110.835 65.8843 110.701 65.6738C110.568 65.4635 110.184 65.2486 109.848 65.1961C109.511 65.144 109.045 64.9819 108.812 64.836C108.546 64.6704 108.291 64.7251 108.133 64.9812C107.924 65.3192 107.79 65.3173 107.374 64.9719C106.992 64.6542 106.781 64.6401 106.508 64.9138C105.97 65.452 105.647 65.3533 105.647 64.6507C105.647 63.9514 105.324 63.8492 104.793 64.3809C104.528 64.6454 104.316 64.613 103.955 64.2525C103.69 63.9866 103.212 63.8373 102.894 63.9207C102.514 64.0201 102.14 63.8052 101.806 63.2947C101.489 62.8109 101.087 62.5679 100.74 62.651C99.782 62.8812 99.2541 62.2817 99.1149 60.8058C99.1015 60.6668 98.966 60.6302 98.8137 60.7246C98.6613 60.8189 98.4369 60.2298 98.3148 59.4154C98.1927 58.6011 97.9467 57.8439 97.7675 57.733C97.4023 57.5065 98.1128 54.6549 98.5346 54.6549C98.6688 54.6549 98.7787 54.4559 98.7787 54.2123C98.7787 53.6101 99.2623 53.4589 101.285 53.4301C102.618 53.4111 103.413 53.6147 104.78 54.3241ZM58.9758 54.9448C59.4279 55.1229 59.2268 55.1913 58.2459 55.1925C57.3846 55.1938 57.0437 55.0979 57.3094 54.9295C57.8073 54.6137 58.1429 54.6165 58.9758 54.9448ZM68.1071 56.3983C69.0352 56.7747 69.5462 57.7786 68.8095 57.7786C68.6378 57.7786 68.4973 57.9545 68.4973 58.1691C68.4973 58.384 68.1814 58.5814 67.7949 58.608C65.4907 58.7666 65.0989 58.8329 65.2282 59.0422C65.3071 59.1699 64.5195 59.4245 63.4781 59.6082C62.4366 59.7915 61.1074 60.237 60.5242 60.5978C59.361 61.3171 57.5804 61.4593 56.2442 60.9395C55.7722 60.7558 55.3858 60.6824 55.3858 60.7761C55.3858 60.8701 55.1906 60.7611 54.9524 60.534C54.7139 60.3073 54.2223 59.8768 53.8598 59.5779C53.4971 59.2789 53.2005 58.8922 53.2005 58.7189C53.2005 58.0042 54.4876 57.1879 55.9096 57.0008C56.7375 56.8918 58.1173 56.6553 58.9758 56.4754C59.8343 56.2952 61.1689 56.0775 61.9415 55.9916C62.7142 55.9057 63.4035 55.782 63.4734 55.7167C63.715 55.4911 67.0965 55.9884 68.1071 56.3983ZM76.0633 60.2776C76.7741 60.6212 77.6907 60.9023 78.0999 60.9023C79.0071 60.9023 81.4134 62.2374 82.7442 63.4787C83.8503 64.5108 84.0448 64.3893 84.5839 62.3314C85.1661 60.1098 85.5507 60.4269 87.2112 64.4946C87.814 65.9714 87.7391 69.201 87.0511 71.3901C86.5716 72.9148 85.6672 74.2752 85.6672 73.4714C85.6672 73.0691 82.8738 72.1476 81.6541 72.1476C81.1427 72.1476 80.6748 71.9992 80.6145 71.8184C80.5543 71.6372 80.2967 71.4529 80.0423 71.4085C79.0461 71.2361 78.1749 70.8422 78.1749 70.5648C78.1749 70.4046 77.7534 70.2734 77.2383 70.2734C76.7232 70.2734 76.3018 70.1481 76.3018 69.9948C76.3018 69.8417 75.9524 69.6287 75.5254 69.5215C75.0983 69.4141 74.5202 68.9771 74.2408 68.5504C73.9611 68.1237 73.5521 67.7744 73.3314 67.7744C73.1107 67.7744 72.4379 67.2818 71.8364 66.6799C70.9307 65.7737 70.7241 65.317 70.6345 64.0248C70.5617 62.9711 70.6463 62.4638 70.8955 62.4638C71.0984 62.4642 71.5585 62.0509 71.9182 61.5455C72.2778 61.0404 72.8513 60.5381 73.1928 60.4297C73.534 60.3213 73.7329 60.102 73.6345 59.9427C73.3217 59.4367 74.7234 59.6297 76.0633 60.2776ZM7.21115 103.443C7.11157 103.692 7.03758 103.618 7.02259 103.254C7.00917 102.925 7.08285 102.741 7.18649 102.844C7.29013 102.948 7.30137 103.218 7.21115 103.443ZM113.813 103.385C113.813 103.814 113.884 103.99 113.97 103.775C114.057 103.56 114.057 103.209 113.97 102.994C113.884 102.779 113.813 102.955 113.813 103.385ZM5.4617 113.25C5.47668 113.614 5.55067 113.688 5.65025 113.439C5.74047 113.214 5.72924 112.944 5.62559 112.84C5.52195 112.737 5.44828 112.921 5.4617 113.25ZM4.23764 113.693C4.23764 114.122 4.30851 114.298 4.39498 114.083C4.48177 113.869 4.48177 113.517 4.39498 113.302C4.30851 113.088 4.23764 113.263 4.23764 113.693ZM113.947 115.175C113.611 115.511 113.433 115.04 113.669 114.44C113.89 113.877 113.907 113.876 114.016 114.42C114.079 114.734 114.048 115.074 113.947 115.175ZM5.17418 114.942C5.17418 115.372 5.24505 115.548 5.33152 115.333C5.41831 115.118 5.41831 114.767 5.33152 114.552C5.24505 114.337 5.17418 114.513 5.17418 114.942ZM4.52516 116.686C4.54015 117.05 4.61413 117.124 4.71372 116.875C4.80394 116.65 4.7927 116.38 4.68905 116.276C4.58541 116.173 4.51174 116.357 4.52516 116.686ZM114.075 117.891C114.075 117.967 113.935 118.116 113.763 118.222C113.592 118.328 113.451 118.266 113.451 118.084C113.451 117.903 113.592 117.754 113.763 117.754C113.935 117.754 114.075 117.815 114.075 117.891ZM114.393 121.613C114.094 124.04 114.083 124.996 114.348 125.44C114.64 125.927 114.698 125.727 114.678 124.313C114.665 123.368 114.755 121.646 114.878 120.487C115.001 119.327 115.033 118.378 114.947 118.378C114.862 118.378 114.612 119.834 114.393 121.613ZM113.476 124.183C113.491 124.547 113.565 124.621 113.664 124.372C113.755 124.146 113.743 123.877 113.64 123.773C113.536 123.669 113.462 123.854 113.476 124.183ZM111.351 126.5C111.351 127.273 111.412 127.589 111.486 127.203C111.561 126.816 111.561 126.184 111.486 125.797C111.412 125.41 111.351 125.727 111.351 126.5ZM13.9152 128.374C13.9152 128.804 13.9861 128.979 14.0725 128.765C14.1593 128.55 14.1593 128.199 14.0725 127.984C13.9861 127.769 13.9152 127.945 13.9152 128.374ZM112.287 128.999C112.287 129.772 112.348 130.088 112.423 129.702C112.497 129.315 112.497 128.683 112.423 128.296C112.348 127.909 112.287 128.226 112.287 128.999ZM113.763 128.043C113.763 128.205 113.904 128.424 114.075 128.53C114.247 128.636 114.388 128.504 114.388 128.236C114.388 127.969 114.247 127.749 114.075 127.749C113.904 127.749 113.763 127.881 113.763 128.043ZM113.842 131.342C113.845 132.029 113.909 132.273 113.984 131.884C114.059 131.496 114.056 130.934 113.978 130.635C113.9 130.336 113.839 130.654 113.842 131.342ZM22.2947 155.844C22.2947 156.006 22.4352 156.225 22.6069 156.331C22.7786 156.437 22.9191 156.305 22.9191 156.037C22.9191 155.769 22.7786 155.55 22.6069 155.55C22.4352 155.55 22.2947 155.682 22.2947 155.844Z" fill="var(--fill-0, #2D2D32)"/>
</svg>
