<svg preserveAspectRatio="xMidYMid meet" overflow="visible" style="display: block;" viewBox="0 0 98 152" fill="none" xmlns="http://www.w3.org/2000/svg">
<path id="Vector" fill-rule="evenodd" clip-rule="evenodd" d="M44.1694 0.48152C44.0782 0.832596 44.2035 1.00885 44.5629 1.03603C44.9996 1.06922 45.0394 0.980523 44.7956 0.521577C44.4311 -0.16398 44.3388 -0.169989 44.1694 0.48152ZM45.9415 0.930451C45.9415 1.17165 46.165 1.50041 46.4386 1.66093C47.0398 2.01344 47.0407 2.01315 45.0937 2.12531C44.2365 2.17452 43.3981 2.09985 43.2299 1.95964C43.062 1.81916 42.0372 1.77252 40.9527 1.85578C39.868 1.93904 37.696 2.03118 36.126 2.06007L33.2709 2.11301L32.0262 3.18598C31.3415 3.77626 30.5415 4.25895 30.2483 4.25895C29.9551 4.25895 29.3706 4.63692 28.9499 5.09902C28.5288 5.56111 27.8276 6.07499 27.3915 6.24094C26.9551 6.4069 26.3798 6.94739 26.113 7.4421C25.846 7.93681 25.2201 8.76257 24.722 9.27702C24.224 9.79148 23.427 10.9074 22.9511 11.7569C22.475 12.6061 21.6888 13.7452 21.2038 14.2879C20.0606 15.5675 19.6185 16.4448 18.625 19.4047C18.1755 20.7444 17.4081 22.3407 16.9203 22.9524C16.3322 23.6892 15.9853 24.4903 15.8915 25.3272C15.814 26.0217 15.6392 26.6589 15.5037 26.7433C15.3682 26.8277 15.2574 27.3075 15.2571 27.8097C15.2571 28.3118 14.8878 29.5087 14.4366 30.4692C13.9854 31.4297 13.5311 32.6049 13.4274 33.0807C13.3237 33.5562 12.926 34.3725 12.5436 34.8947C12.0387 35.5837 11.8481 36.2115 11.8481 37.1849C11.8481 37.9225 11.5284 39.3812 11.1378 40.4264C10.7471 41.4716 10.4275 42.9077 10.4275 43.6178C10.4275 44.328 10.2508 45.1941 10.0349 45.5426C9.81893 45.8911 9.56238 46.7191 9.46493 47.3824C9.36748 48.0456 8.96859 49.0614 8.57907 49.6396C8.07562 50.3867 7.87049 51.0754 7.87049 52.0182C7.87049 52.7481 7.68554 53.6111 7.45967 53.9358C7.2338 54.2606 6.89713 55.1584 6.71132 55.931C6.52551 56.7032 6.13514 57.7367 5.84364 58.2274C5.4564 58.8792 5.31349 59.6789 5.31349 61.1965C5.31349 63.0918 5.21149 63.4595 4.14863 65.3986C3.17214 67.1803 3.00451 67.7176 3.11248 68.7242C3.1835 69.3846 2.99429 71.0836 2.69228 72.4999C2.39055 73.9162 1.96552 76.2339 1.74817 77.6502C1.53083 79.0665 1.08193 81.6053 0.750942 83.2917C0.247212 85.858 0.193513 86.6983 0.421939 88.442C0.631329 90.0409 0.595532 91.0586 0.267667 92.8148C-0.203106 95.3365 -0.290612 94.7997 2.04194 103.688C2.46129 105.285 2.86274 107.749 2.95138 109.267C3.08975 111.639 3.24743 112.277 4.18926 114.274C4.78305 115.533 5.45469 117.558 5.6817 118.773C6.01439 120.554 6.3522 121.362 7.42274 122.94C8.48787 124.51 8.80153 125.258 9.00609 126.714C9.23111 128.318 9.40839 128.684 10.5244 129.843C11.219 130.565 11.8802 131.466 11.9932 131.845C12.2058 132.557 17.6303 138.166 18.1065 138.166C18.2539 138.166 18.7179 138.688 19.1375 139.327C19.5571 139.965 20.4336 140.803 21.0851 141.187C21.7363 141.572 22.4125 142.203 22.5875 142.59C22.8918 143.262 24.2751 144.142 25.7522 144.603C26.1332 144.722 27.0699 145.465 27.8336 146.255C28.8743 147.331 29.1274 147.751 28.8453 147.931C28.6382 148.063 28.3726 148.173 28.2555 148.176C28.1384 148.178 28.0424 148.487 28.0424 148.863C28.0424 150.859 34.648 151.914 47.6461 151.992C56.0578 152.043 58.5188 151.863 63.1271 150.863C65.4784 150.352 67.1348 149.445 66.6944 148.911C66.5339 148.716 66.4682 148.49 66.5489 148.409C66.6293 148.328 66.5049 148.103 66.2722 147.908C65.9071 147.603 65.9671 147.454 66.7089 146.826C67.1819 146.425 68.1635 145.985 68.8903 145.848C69.7324 145.69 70.5245 145.295 71.0745 144.76C71.5683 144.28 72.4746 143.799 73.1923 143.638C74.0693 143.44 74.7865 143.003 75.5763 142.184C76.1974 141.539 77.0471 140.808 77.4645 140.56C77.8818 140.312 78.4711 139.735 78.774 139.278C79.5317 138.135 82.7424 135.297 84.3161 134.381C85.2534 133.835 85.7472 133.301 86.0918 132.462C86.3546 131.822 86.7873 130.769 87.0535 130.121C87.3198 129.474 88.0854 128.154 88.7551 127.189C89.4247 126.223 89.9739 125.235 89.9756 124.993C89.9773 124.75 90.4896 123.983 91.1141 123.289C92.2122 122.067 92.7244 120.968 93.3173 118.566C93.5983 117.427 93.8859 116.526 95.0987 112.987C95.449 111.964 95.8923 110.274 96.0837 109.231C96.275 108.189 96.6414 107.034 96.8986 106.664C97.4313 105.898 97.4966 104.46 97.0693 102.911C96.85 102.115 96.8886 101.197 97.223 99.2553C97.8458 95.6418 98.2191 89.0406 97.8594 88.0022C97.702 87.547 97.6478 86.3707 97.739 85.3876C97.8512 84.1779 97.7628 83.1015 97.4657 82.056C96.3235 78.0393 96.3139 77.9827 96.5932 76.8748C96.8173 75.9858 96.7554 75.4642 96.2653 74.11C95.9329 73.1921 95.661 71.831 95.661 71.085C95.661 70.1623 95.4794 69.4965 95.0928 69.0015C94.7802 68.6012 94.5245 68.1096 94.5245 67.909C94.5245 67.7082 94.141 66.7279 93.6725 65.7302C93.1009 64.5136 92.8202 63.4718 92.8202 62.5668C92.8199 61.2995 92.0996 59.1951 91.6664 59.1951C91.5584 59.1951 91.3928 58.8042 91.2979 58.3261C91.203 57.8483 90.7544 56.9793 90.3009 56.3948C89.816 55.7699 89.3989 54.8053 89.2881 54.0523C89.1844 53.3481 88.9139 52.5658 88.6875 52.3138C88.4607 52.0617 88.1661 51.2663 88.0326 50.5461C87.8814 49.732 87.4092 48.7664 86.7839 47.9927C86.116 47.1664 85.5779 46.0281 85.1818 44.6027C84.8539 43.4224 84.3434 41.8129 84.0476 41.0261C83.7519 40.2393 83.4163 39.0161 83.3018 38.3079C83.0541 36.7728 82.7737 36.1831 81.6977 34.9359C81.252 34.4192 80.8872 33.8378 80.8872 33.6441C80.8872 33.4506 80.6315 32.8117 80.319 32.2246C80.0064 31.6372 79.7507 30.7948 79.7507 30.3522C79.7507 29.9095 79.5629 29.2975 79.3337 28.9919C79.1041 28.6866 78.9123 28.0371 78.9075 27.549C78.9024 27.0609 78.5836 26.224 78.1992 25.6892C77.8145 25.1544 77.1591 24.0774 76.7423 23.2958C76.3258 22.5138 75.6288 21.5392 75.1936 21.1298C74.7583 20.72 74.2529 19.8147 74.0702 19.1175C73.8878 18.4205 73.4284 17.5544 73.0497 17.193C72.6707 16.8319 72.1848 16.1237 71.9698 15.6193C71.755 15.1151 70.9981 14.1529 70.2878 13.4808C69.427 12.6665 68.7809 11.6994 68.3496 10.5792C67.4896 8.3454 67.0893 7.90076 65.1002 6.97056C64.1729 6.5368 63.145 5.93736 62.8157 5.63808C62.4864 5.33908 61.8472 5.0272 61.3951 4.94508C60.9431 4.86325 59.5856 4.34765 58.3787 3.79972C56.2999 2.8555 56.0737 2.81316 54.0787 2.99513C52.2425 3.1628 51.7961 3.10443 50.5909 2.53991C49.8307 2.18368 48.953 1.79684 48.6405 1.68067C48.1376 1.49326 46.7432 0.884957 46.1545 0.596256C46.0375 0.538745 45.9415 0.688961 45.9415 0.930451ZM49.1377 2.44549C48.9425 2.52503 48.6229 2.52503 48.4274 2.44549C48.2322 2.36623 48.3919 2.30128 48.7826 2.30128C49.1732 2.30128 49.3332 2.36623 49.1377 2.44549ZM55.7049 7.28015C55.9962 7.4833 56.4107 7.58116 56.6257 7.49818C56.8411 7.41492 57.092 7.54396 57.1837 7.78459C57.2755 8.02522 57.8517 8.30734 58.4645 8.41149C59.0774 8.51593 59.5788 8.71736 59.5788 8.85957C59.5788 9.00177 59.9624 9.48733 60.4311 9.93855C60.8999 10.3895 61.2835 10.97 61.2835 11.2284C61.2835 11.4868 61.4753 11.6982 61.7096 11.6982C61.944 11.6982 62.1358 11.8914 62.1358 12.1274C62.1358 12.3635 62.3276 12.5566 62.562 12.5566C62.7964 12.5566 62.9881 12.6851 62.9881 12.8424C62.9881 12.9995 63.5075 13.667 64.1422 14.3257C64.7769 14.9844 65.3664 15.8765 65.452 16.308C65.5392 16.7463 65.7543 17.0359 65.9401 16.9641C66.1367 16.888 66.2989 17.1595 66.3375 17.6287C66.3731 18.0651 66.5452 18.4705 66.7197 18.5295C67.3439 18.7406 68.1022 19.7206 68.1022 20.3158C68.1022 20.6491 68.4857 21.3618 68.9545 21.8995C69.4233 22.4371 69.8068 23.1945 69.8068 23.5825C69.8068 23.9704 69.9247 24.2877 70.0688 24.2877C70.2131 24.2877 70.4876 24.7653 70.6788 25.3487C70.87 25.9324 71.2953 26.6363 71.624 26.913C72.0093 27.2371 72.0846 27.4194 71.8362 27.4257C71.6195 27.4308 71.5192 27.6151 71.6072 27.8457C71.6933 28.0718 71.6109 28.319 71.4246 28.3954C71.2282 28.4761 71.2808 28.5439 71.5493 28.557C71.8047 28.5693 72.0911 28.8048 72.186 29.0804C72.2809 29.3559 72.7221 30.2452 73.1662 31.0569C73.6102 31.8684 73.9929 32.7053 74.0165 32.9167C74.185 34.4369 74.458 35.1808 74.799 35.0492C75.0447 34.9542 75.1186 35.0544 75.0112 35.3365C74.9137 35.5923 75.0939 35.9439 75.4518 36.1963C75.7848 36.4315 76.0573 36.8 76.0573 37.0158C76.0573 37.2315 76.3775 37.6615 76.769 37.9717C77.3466 38.4292 77.5145 38.8776 77.6617 40.3531C77.8418 42.1606 78.5509 44.3165 78.9654 44.3165C79.0848 44.3165 79.1825 44.6462 79.1825 45.0487C79.1825 45.4513 79.3016 45.7068 79.447 45.6164C79.5925 45.5257 79.7916 45.5826 79.8899 45.7426C79.988 45.9025 79.9542 46.0333 79.8149 46.0333C79.4055 46.0333 79.5246 46.8528 79.9581 47.0204C80.1763 47.1048 80.2695 47.3129 80.1653 47.4831C80.0607 47.6533 80.2332 48.0725 80.5485 48.415C80.8636 48.7575 81.1676 49.3595 81.2241 49.7529C81.281 50.1489 81.4901 50.4336 81.6926 50.391C81.9591 50.3346 81.9841 50.4474 81.7838 50.8073C81.5716 51.1893 81.648 51.3715 82.1216 51.613C82.5271 51.8196 82.7302 52.1867 82.7228 52.6989C82.7166 53.1244 82.8615 53.4726 83.0447 53.4726C83.228 53.4726 83.4757 53.7624 83.5953 54.1164C84.0761 55.5407 84.2411 55.8875 84.2681 55.5301C84.3062 55.0294 84.8647 55.3959 84.8647 55.9215C84.8647 56.1484 84.673 56.3338 84.4386 56.3338C83.7516 56.3338 83.9499 56.9024 84.6517 56.945L85.2909 56.9839L84.6517 57.1081C84.2999 57.1762 84.0124 57.3519 84.0124 57.4984C84.0124 57.6446 84.2999 57.7793 84.6517 57.7976C85.1574 57.824 85.1838 57.8589 84.7775 57.9647C84.4951 58.0386 84.3033 58.2878 84.3514 58.519C84.3994 58.7502 84.5664 58.9001 84.7227 58.8526C84.8789 58.8048 84.9716 58.6597 84.9287 58.5301C84.8858 58.4002 84.9818 58.3756 85.1418 58.4755C85.302 58.575 85.433 59.0351 85.433 59.4981C85.433 60.0555 85.577 60.3396 85.8591 60.3396C86.0935 60.3396 86.2853 60.5044 86.2853 60.7055C86.2853 60.907 86.541 61.2572 86.8535 61.4841C87.2982 61.8068 87.4217 62.2249 87.4217 63.4071C87.4217 64.2378 87.5448 64.9176 87.6948 64.9176C87.8451 64.9176 88.1059 65.4326 88.2741 66.0621C88.4423 66.6916 88.7031 67.2066 88.8534 67.2066C89.0034 67.2066 89.1264 67.4075 89.1264 67.6527C89.1264 67.8979 89.2563 68.0178 89.4151 67.9191C89.5739 67.8201 89.6304 67.6195 89.5404 67.473C89.4506 67.3265 89.5125 67.2066 89.6779 67.2066C89.8432 67.2066 89.9788 67.671 89.9788 68.2387C89.9788 68.9972 90.0825 69.2307 90.3697 69.1196C90.6708 69.0032 90.7524 69.2836 90.7248 70.3402C90.7038 71.1508 90.8052 71.6673 90.9731 71.6026C91.4081 71.435 91.4851 73.8379 91.0547 74.1431C90.8248 74.3062 91.0848 74.3366 91.7544 74.2253C92.8682 74.0396 93.1972 74.4049 92.3474 74.8836C91.9289 75.1197 91.9451 75.1723 92.4894 75.3463C93.2216 75.5804 93.2236 75.6794 92.5181 76.7918C91.6519 78.1578 91.5777 78.409 91.969 78.6525C92.2318 78.8161 92.2883 79.2991 92.1661 80.3378C92.0178 81.5987 92.0704 81.8345 92.5599 82.098C92.9949 82.3326 93.106 82.6454 93.0432 83.46C92.9784 84.304 93.0554 84.5018 93.425 84.4411C93.9265 84.3584 94.358 85.6978 93.9182 85.9716C93.783 86.0557 93.6722 85.9882 93.6722 85.8216C93.6722 85.6551 93.5591 85.5186 93.421 85.5186C93.283 85.5186 93.2108 85.937 93.2608 86.4486C93.3108 86.9599 93.36 87.4749 93.3699 87.5931C93.3799 87.7112 93.5185 87.8077 93.6776 87.8077C93.8447 87.8077 93.8915 87.5049 93.789 87.0923C93.679 86.6517 93.7316 86.377 93.9256 86.377C94.0987 86.377 94.2404 86.6239 94.2404 86.9258C94.2404 87.2277 94.318 87.6783 94.4129 87.9273C94.526 88.2242 94.4285 88.3799 94.1288 88.3799C93.8776 88.3799 93.6722 88.5167 93.6722 88.684C93.6722 88.8511 93.9597 88.9479 94.3115 88.8986C94.6959 88.8449 94.9237 88.9473 94.8834 89.1559C94.651 90.3513 94.4484 92.6675 94.4637 93.9594C94.4995 97.0263 94.4092 97.822 94.0248 97.822C93.8049 97.822 93.6836 97.9831 93.7552 98.1797C93.8268 98.3766 94.029 98.505 94.2049 98.4658C94.62 98.3728 94.6115 98.8447 94.1839 99.6292C93.9964 99.9729 93.8776 100.544 93.92 100.898C93.9623 101.252 93.8444 101.542 93.6577 101.542C93.429 101.542 93.4083 101.658 93.5935 101.899C94.1555 102.63 93.7941 105.253 92.4883 109.92C92.1897 110.988 92.017 111.978 92.1045 112.12C92.192 112.263 92.1011 112.484 91.9025 112.612C91.7039 112.739 91.5149 113.037 91.4826 113.273C91.3851 113.982 90.7098 116.267 90.5518 116.42C90.3819 116.586 90.27 116.994 89.9728 118.53C89.8549 119.139 89.6333 119.718 89.4807 119.817C89.3279 119.916 89.1131 120.287 89.0034 120.641C88.8937 120.995 88.5468 121.423 88.2329 121.593C87.8939 121.775 87.7277 122.074 87.824 122.326C87.9459 122.646 87.8451 122.707 87.42 122.571C86.9322 122.415 86.853 122.522 86.8493 123.34C86.8444 124.41 86.2248 126.397 85.8083 126.678C85.6571 126.78 85.4477 127.057 85.3429 127.293C84.5173 129.153 80.4539 133.513 78.9007 134.205C78.4307 134.414 78.0461 134.719 78.0461 134.882C78.0461 135.044 77.8105 135.38 77.523 135.628C77.2352 135.876 76.8002 136.367 76.5562 136.717C76.0385 137.462 74.2682 137.966 73.8063 137.501C73.5878 137.281 73.5003 137.382 73.5003 137.853C73.5003 138.405 73.3892 138.486 72.8298 138.345C72.3692 138.228 72.0019 138.351 71.6553 138.736C71.3777 139.045 70.8805 139.305 70.5498 139.315C68.0169 139.388 66.3975 139.681 66.3975 140.064C66.3975 140.386 66.0762 140.457 64.9769 140.38C63.9183 140.306 63.5564 140.38 63.5564 140.671C63.5564 140.885 63.4265 140.98 63.2677 140.881C63.1089 140.782 63.0455 140.593 63.1268 140.46C63.2907 140.193 62.8376 140.249 62.0466 140.592C61.7579 140.718 61.2176 140.672 60.8178 140.489C60.4255 140.309 59.9558 140.254 59.774 140.367C59.2728 140.679 55.5691 140.739 55.7572 140.432C55.8462 140.287 55.7194 140.169 55.4759 140.169C55.2325 140.169 55.033 140.297 55.033 140.455C55.033 140.612 54.7242 140.741 54.3463 140.741C53.9687 140.741 53.5852 140.902 53.494 141.099C53.3616 141.385 53.2951 141.385 53.1627 141.099C52.926 140.588 52.4607 140.654 52.6573 141.17C52.7473 141.406 52.69 141.599 52.53 141.599C52.37 141.599 52.1882 141.445 52.1257 141.257C52.0396 140.996 51.7862 141.008 51.0714 141.307C49.8807 141.803 49.1334 141.872 43.3364 142.018C38.5997 142.138 37.1209 141.969 35.6276 141.135C35.1898 140.891 34.6506 140.761 34.4292 140.846C34.2079 140.932 33.9446 140.868 33.8437 140.703C33.7428 140.539 33.4067 140.472 33.0962 140.553C32.7859 140.635 32.6064 140.627 32.697 140.536C32.9482 140.283 31.379 139.025 30.8125 139.024C30.5389 139.024 30.3153 138.885 30.3153 138.714C30.3153 138.544 30.1556 138.461 29.9602 138.53C29.765 138.6 29.2701 138.42 28.8609 138.132C28.4515 137.844 27.7802 137.479 27.3694 137.322C26.9582 137.164 26.6219 136.842 26.6219 136.605C26.6219 136.164 25.6224 135.771 24.9092 135.931C24.6908 135.98 24.3919 135.762 24.245 135.448C24.0981 135.133 23.2307 134.329 22.3167 133.662C21.403 132.995 20.6555 132.247 20.6555 132C20.6555 131.753 20.5277 131.631 20.3714 131.728C20.2151 131.825 20.0714 131.768 20.0518 131.602C19.91 130.393 19.2659 129.34 18.611 129.246C18.2511 129.195 17.9565 128.968 17.9565 128.742C17.9565 128.516 17.5363 128.221 17.0229 128.087C16.5095 127.953 16.166 127.719 16.2597 127.566C16.3535 127.413 16.2302 127.087 15.9859 126.841C15.7415 126.595 15.5415 126.532 15.5415 126.7C15.5415 126.869 15.4137 127.007 15.2574 127.007C15.1011 127.007 14.9733 126.621 14.9733 126.148C14.9733 125.676 14.8454 125.29 14.6892 125.29C14.5329 125.29 14.4042 125.58 14.4034 125.934C14.4017 126.525 14.3667 126.51 13.9786 125.761C13.7459 125.312 13.6266 124.829 13.713 124.688C13.7996 124.547 13.7348 124.432 13.5695 124.432C13.4041 124.432 13.2686 124.279 13.2686 124.092C13.2686 123.906 13.0018 123.467 12.676 123.118C12.1975 122.605 12.143 122.371 12.3927 121.901C12.597 121.517 12.6052 121.259 12.4171 121.142C12.2603 121.044 12.1322 120.78 12.1322 120.555C12.1322 120.021 11.2452 118.983 10.9466 119.169C10.8187 119.249 10.7358 118.766 10.7616 118.098C10.7895 117.384 10.6716 116.836 10.4761 116.77C9.93087 116.587 10.0988 116.134 10.7116 116.134C11.3114 116.134 11.4762 115.718 10.9946 115.418C10.8378 115.321 10.7843 114.941 10.8755 114.574C11.0798 113.754 10.563 113.376 9.94423 113.892C9.53141 114.237 9.50669 114.164 9.69335 113.16C9.84138 112.363 9.79421 111.979 9.52857 111.813C9.23508 111.63 9.22571 111.398 9.48425 110.708C9.77319 109.937 9.74478 109.798 9.24531 109.529C8.92483 109.356 8.74613 109.046 8.83392 108.816C8.91915 108.592 8.86432 108.409 8.71146 108.409C8.55378 108.409 8.58305 108.168 8.7788 107.852C9.06177 107.396 9.03592 107.198 8.63476 106.752C8.3657 106.453 8.17961 105.963 8.22109 105.663C8.32763 104.894 7.51905 101.542 7.22698 101.542C7.09373 101.542 7.06362 101.413 7.16022 101.256C7.25681 101.098 7.20027 100.969 7.03492 100.969C6.45903 100.969 6.73831 100.436 7.3733 100.324C7.99266 100.214 7.99465 100.202 7.44433 99.946C7.1318 99.8009 6.85877 99.5531 6.83775 99.3957C6.81672 99.2384 6.71246 98.7877 6.6062 98.3943C6.47494 97.9093 6.4988 97.804 6.67978 98.0673C7.03236 98.5794 7.34119 98.0595 7.00367 97.5222C6.86019 97.2939 6.73888 96.6561 6.73405 96.1053C6.72751 95.3525 6.65705 95.2103 6.44994 95.533C6.22719 95.8801 6.17378 95.8389 6.17009 95.3184C6.16781 94.9642 6.30674 94.7067 6.4792 94.7462C6.65137 94.7854 6.83434 94.4666 6.88519 94.0377C6.93633 93.6086 6.85167 93.2867 6.6974 93.3224C6.2718 93.4206 6.17776 90.7181 6.57154 89.7027C6.76189 89.2114 6.88065 88.2297 6.83491 87.5215C6.62722 84.2995 6.7224 82.872 7.16647 82.5449C7.41109 82.365 7.64832 81.8657 7.69378 81.4356C7.73952 81.0056 7.86169 80.5681 7.96567 80.4634C8.2941 80.1323 8.16995 78.7054 7.79947 78.5549C7.58723 78.4688 7.64463 78.4016 7.94152 78.3881C8.24183 78.3744 8.43872 78.1389 8.43872 77.7933C8.43872 77.4785 8.56657 77.221 8.72283 77.221C8.87909 77.221 9.00694 77.4141 9.00694 77.6502C9.00694 77.8862 9.11348 78.0794 9.24361 78.0794C9.37373 78.0794 9.45925 77.793 9.43368 77.443C9.40384 77.0362 9.13934 76.7369 8.69982 76.6133C8.32195 76.5068 8.15176 76.407 8.32195 76.3912C8.75579 76.3512 9.30952 75.0276 9.11093 74.5062C9.00609 74.2307 9.11206 74.0736 9.40271 74.0736C9.65386 74.0736 9.85928 73.9449 9.85928 73.7875C9.85928 73.6301 9.6675 73.5014 9.43311 73.5014C9.19872 73.5014 9.00694 73.3712 9.00694 73.2118C9.00694 73.0344 9.44646 72.9932 10.1434 73.1054C10.9048 73.2281 11.2798 73.182 11.2798 72.9657C11.2798 72.7883 11.1668 72.643 11.029 72.643C10.8909 72.643 10.7068 72.3689 10.6196 72.0335C10.5139 71.6264 10.3141 71.481 10.0184 71.5955C9.73228 71.7059 9.57516 71.6066 9.57516 71.3159C9.57516 71.0435 9.73512 70.9268 9.97945 71.0212C10.2437 71.1234 10.4849 70.8856 10.675 70.3365C10.9119 69.6521 10.8878 69.4956 10.5446 69.4956C10.2246 69.4956 10.296 69.2389 10.8397 68.4332C11.3114 67.7342 11.4605 67.2741 11.2761 67.0884C11.1219 66.9331 10.9957 66.4455 10.9957 66.0049C10.9957 65.3362 11.1159 65.2037 11.7228 65.2037C12.166 65.2037 12.3765 65.0844 12.2623 64.8981C12.1592 64.7299 11.8958 64.6615 11.6773 64.7459C11.448 64.8346 11.2798 64.7219 11.2798 64.4795C11.2798 64.2483 11.4134 64.0592 11.5764 64.0592C11.7395 64.0592 11.8523 63.8984 11.8267 63.7016C11.7142 62.8292 11.8625 62.5945 12.4146 62.7711C12.8493 62.9101 12.9413 62.848 12.8103 62.5041C12.7163 62.2578 12.5254 62.0563 12.3859 62.0563C12.2464 62.0563 12.1322 61.9276 12.1322 61.7702C12.1322 61.6128 12.3387 61.4841 12.5916 61.4841C12.93 61.4841 13.0146 61.2932 12.9129 60.7588C12.8183 60.2598 12.9308 59.9496 13.2726 59.765C13.7289 59.5193 14.1928 57.9321 13.8962 57.6334C13.6613 57.3968 13.655 55.1893 13.8894 55.1893C14.0167 55.1893 14.121 55.3181 14.121 55.4754C14.121 55.9393 14.6127 55.8025 14.8105 55.2837C14.9105 55.0208 14.8559 54.7209 14.6892 54.6171C14.3653 54.4154 14.5994 53.4726 14.9733 53.4726C15.3858 53.4726 15.5651 52.5195 15.196 52.288C14.9045 52.1055 14.9017 51.9447 15.1818 51.4897C15.3745 51.1764 15.4568 50.7218 15.3645 50.4797C15.2722 50.2373 15.3287 50.0391 15.4904 50.0391C15.6517 50.0391 15.8532 50.2642 15.9378 50.5398C16.0225 50.8153 16.0376 50.5429 15.9714 49.9343C15.8904 49.1933 15.993 48.6851 16.2819 48.3944C16.5189 48.1555 16.6916 47.6233 16.6652 47.2113C16.5743 45.7789 16.6816 45.4413 17.3007 45.2104C17.8951 44.9892 17.8857 44.9689 17.0999 44.7701L16.2757 44.562L17.1871 44.1174C18.2681 43.5901 18.3988 43.0853 17.3882 43.3406C16.6075 43.538 16.3927 43.0573 17.1337 42.7712C17.3911 42.6716 17.5192 42.4115 17.4283 42.1726C17.3343 41.9257 17.499 41.6252 17.8249 41.4496C18.1318 41.2842 18.3826 40.8959 18.3826 40.5869C18.3826 40.2776 18.5105 40.0247 18.6667 40.0247C18.823 40.0247 18.9508 39.8315 18.9508 39.5955C18.9508 39.3594 19.077 39.1663 19.2313 39.1663C19.5813 39.1663 21.0379 36.881 20.8248 36.6661C20.739 36.58 20.5882 36.7208 20.4899 36.9794C20.1549 37.8581 19.5191 37.511 19.5191 36.4495C19.5191 35.4584 19.5282 35.4509 20.5845 35.5994C21.5007 35.7282 21.5843 35.6964 21.1806 35.3723C20.6254 34.9265 20.7726 33.4875 21.4272 32.9622C21.659 32.776 21.7647 32.4861 21.6616 32.3184C21.5522 32.1399 21.7172 32.0131 22.0593 32.0131C22.3809 32.0131 22.6443 31.8844 22.6443 31.727C22.6443 31.5696 22.4207 31.4389 22.1471 31.4366C21.7403 31.4329 21.7238 31.3851 22.0562 31.1734C22.2795 31.0309 22.4914 30.7141 22.527 30.4695C22.5628 30.2249 22.8633 29.6772 23.1949 29.2526C23.5975 28.737 23.6938 28.4163 23.4853 28.2864C23.2898 28.1648 23.4998 27.8148 24.045 27.3527C24.934 26.5996 25.203 25.9521 24.5621 26.1095C24.3669 26.1576 24.3029 26.1427 24.42 26.0769C24.537 26.0108 24.6331 25.7682 24.6331 25.5375C24.6331 25.3072 24.8888 24.5856 25.2013 23.9341C25.5138 23.2826 25.7695 22.5807 25.7695 22.3741C25.7695 22.1676 25.9613 21.9987 26.1957 21.9987C26.4412 21.9987 26.6219 21.7401 26.6219 21.3884C26.6219 21.0528 26.8892 20.5447 27.2162 20.2591C27.5429 19.9738 27.7273 19.6044 27.6256 19.4388C27.5174 19.2625 27.7131 19.1292 28.0967 19.1175C28.7132 19.0986 28.7183 19.0831 28.1845 18.864C27.6631 18.6499 27.6813 18.6136 28.4052 18.4219C29.0368 18.2548 29.1291 18.1343 28.8675 17.817C28.6879 17.599 28.6527 17.4116 28.7891 17.4007C28.9252 17.3895 28.7811 17.2682 28.4686 17.1312C27.9109 16.8865 27.9117 16.8782 28.5135 16.6957C28.8504 16.5933 29.1934 16.2508 29.2755 15.9349C29.3576 15.6187 29.5525 15.4396 29.7084 15.5369C29.8644 15.6339 30.0673 15.5904 30.1596 15.4402C30.252 15.29 30.1386 15.0605 29.9079 14.9306C29.6022 14.7583 29.5678 14.5795 29.7815 14.2693C30.0025 13.9486 30.1099 13.932 30.2184 14.2018C30.5187 14.9469 30.8835 14.5151 30.8835 13.415C30.8835 12.5984 31.0031 12.2705 31.3015 12.2705C31.5322 12.2705 31.8322 11.8539 31.9708 11.3406C32.1089 10.8293 32.3794 10.4464 32.5717 10.4905C32.7641 10.5343 32.9817 10.3371 33.0556 10.0524C33.2059 9.47445 35.9294 7.80548 36.5158 7.93223C36.7226 7.97687 37.0445 7.88588 37.2309 7.73023C37.4173 7.57458 38.2983 7.40004 39.189 7.34281C40.4678 7.26041 40.8334 7.33137 40.9272 7.68016C40.9973 7.94225 41.059 7.86013 41.0786 7.47786C41.1135 6.79345 41.5548 6.59917 41.748 7.18316C41.819 7.39775 42.3423 7.51277 43.1074 7.48187C43.7916 7.4544 44.495 7.55226 44.6706 7.69904C44.8735 7.86843 45.4999 7.78345 46.3889 7.46528C47.7615 6.97428 50.5739 6.8647 52.0731 7.24353C52.451 7.33909 52.7601 7.29503 52.7601 7.14567C52.7601 6.49645 54.7074 6.58544 55.7049 7.28015ZM79.8536 44.4596C79.9434 44.6957 79.8931 44.8888 79.7419 44.8888C79.5905 44.8888 79.4666 44.6957 79.4666 44.4596C79.4666 44.2236 79.5169 44.0304 79.5783 44.0304C79.6396 44.0304 79.7635 44.2236 79.8536 44.4596ZM45.6321 57.4288C42.5492 58.6852 34.7409 65.5042 33.5911 67.9439C33.3331 68.4919 32.874 69.0962 32.5709 69.2867C32.268 69.4773 32.02 69.7955 32.02 69.9938C32.02 70.1917 31.9129 70.354 31.7819 70.354C31.6506 70.354 30.7273 71.9958 29.7295 74.0021C28.732 76.0084 27.7748 77.8433 27.6029 78.0794C27.431 78.3154 26.9367 79.7961 26.5042 81.3698C26.0718 82.9435 25.5917 84.5495 25.4368 84.939C25.282 85.3284 25.0911 86.2297 25.0127 86.9418C24.934 87.654 24.7382 88.7519 24.5777 89.3813C23.8106 92.3845 24.6865 104.466 25.7809 105.977C25.8948 106.134 26.0792 106.713 26.1906 107.264C26.5244 108.914 29.5934 115.057 30.6293 116.15C33.072 118.725 36.366 120.545 41.9639 122.414C43.016 122.765 48.7826 123.199 48.7826 122.928C48.7826 122.84 47.568 122.548 46.0835 122.278C44.3786 121.969 43.3844 121.658 43.3844 121.433C43.3844 121.237 42.873 120.719 42.248 120.283C41.623 119.847 41.1116 119.441 41.1116 119.382C41.1116 119.139 43.5686 119.681 44.0871 120.039C44.395 120.252 44.9704 120.422 45.3656 120.417C46.023 120.409 46.0417 120.376 45.5863 120.028C45.001 119.58 44.9502 119.34 45.4443 119.358C46.8304 119.41 47.6649 119.189 48.3641 118.584C48.8076 118.2 49.1974 117.701 49.2303 117.475C49.3687 116.524 49.6934 115.851 49.9395 116.004C50.3628 116.267 50.2457 115.985 49.6403 115.282C49.1522 114.715 49.0539 114.691 48.8996 115.095C48.6132 115.847 48.1339 115.637 48.3311 114.847C48.4627 114.319 48.3962 114.131 48.0777 114.131C47.8405 114.131 47.6461 113.89 47.6461 113.595C47.6461 113.224 47.9177 113.004 48.5277 112.881C49.7002 112.645 49.9886 112.875 49.771 113.872C49.6713 114.329 49.7062 114.703 49.8488 114.703C50.219 114.703 50.7753 112.737 50.4605 112.541C49.965 112.232 50.1852 111.028 50.7713 110.841C51.0839 110.741 51.3396 110.469 51.3396 110.235C51.3396 109.752 52.9687 108.97 53.5267 109.185C53.7301 109.264 53.8966 109.186 53.8966 109.012C53.8966 108.837 53.7074 108.695 53.4758 108.695C53.1389 108.695 53.09 108.424 53.23 107.336C53.3261 106.588 53.5778 105.775 53.7889 105.529C54.0821 105.188 54.0943 105.003 53.8406 104.747C53.6579 104.563 53.613 104.314 53.7415 104.193C53.8696 104.072 54.0338 104.142 54.1065 104.347C54.1793 104.553 54.4691 104.939 54.7509 105.206C55.0327 105.472 55.3072 106.011 55.3612 106.403C55.4214 106.84 55.6774 107.157 56.0246 107.224C56.3354 107.284 56.7581 107.575 56.9638 107.87C57.4519 108.572 57.8741 108.557 57.8741 107.836C57.8741 107.513 58.0636 107.264 58.3103 107.264C58.66 107.264 58.6856 107.379 58.4392 107.842C58.2702 108.16 58.204 108.538 58.2918 108.681C58.5904 109.168 57.7898 109.357 57.4446 108.882C57.0252 108.304 56.7377 108.274 56.7377 108.807C56.7377 109.248 57.3357 109.553 58.1983 109.553C58.5071 109.553 58.6816 109.681 58.5858 109.837C58.4901 109.993 58.5424 110.347 58.7023 110.624C58.8626 110.901 58.9972 111.014 59.0021 110.877C59.0066 110.74 59.191 110.778 59.4115 110.963C59.6856 111.192 59.8706 111.203 59.9965 110.998C60.0976 110.833 60.3968 110.702 60.661 110.707C61.0482 110.715 61.0099 110.827 60.4618 111.287C60.0882 111.6 59.8606 111.935 59.9564 112.032C60.0519 112.128 59.8575 112.608 59.5245 113.097C59.1913 113.587 59.0927 113.827 59.3055 113.63C59.5183 113.434 59.918 113.273 60.1939 113.273C60.4695 113.273 60.8477 112.986 61.034 112.635C61.3622 112.018 61.3789 112.016 61.571 112.564C61.8054 113.234 61.1815 114.321 60.4226 114.563C60.0848 114.671 59.8655 115.059 59.8089 115.647C59.7351 116.414 59.5243 116.653 58.5134 117.113C57.7321 117.469 57.3059 117.847 57.3059 118.186C57.3059 118.816 57.8264 118.881 58.0554 118.28C58.1455 118.044 58.4929 117.847 58.8279 117.841C59.4816 117.831 60.7153 116.939 60.7153 116.477C60.7153 116.322 60.8752 116.129 61.0704 116.048C61.2659 115.966 61.9051 115.693 62.491 115.441C63.6533 114.94 63.7939 114.996 63.11 115.685C62.704 116.093 62.704 116.134 63.11 116.134C64.2385 116.134 63.3663 117.039 61.1778 118.138C60.1754 118.642 59.6925 119.068 59.6299 119.505C59.5802 119.854 59.6569 120.14 59.8007 120.14C61.2517 120.14 65.4647 117.305 68.0516 114.589C69.9739 112.57 71.6413 109.361 72.8247 105.404C73.5045 103.13 73.6088 102.235 73.7173 97.7408C73.8747 91.2097 73.352 87.9232 71.1811 81.799C70.1532 78.8997 67.8314 74.1512 66.5643 72.3569C66.0642 71.6487 65.5801 70.8693 65.4883 70.6247C64.7405 68.6307 59.2998 62.0563 58.3978 62.0563C58.2361 62.0563 57.0613 61.3708 55.7871 60.5327C51.6319 57.7999 50.4009 57.2019 48.6047 57.0443C47.3702 56.9358 46.5963 57.036 45.6321 57.4288ZM51.47 59.3602C52.6473 59.923 53.771 60.6108 53.9668 60.8887C54.1625 61.1665 54.4946 61.4503 54.7043 61.5193C55.3288 61.725 60.7155 66.776 61.8094 68.1817C62.2881 68.7969 62.0653 69.0982 61.5733 68.501C61.1826 68.0272 60.4311 67.9085 60.4311 68.3205C60.4311 68.461 60.6312 68.6532 60.8752 68.7477C61.1195 68.8421 61.2431 69.0438 61.1499 69.1957C61.0565 69.348 61.1431 69.7351 61.3423 70.0561C61.6366 70.5308 61.6346 70.7523 61.3321 71.2401C61.1275 71.5703 61.0329 71.9137 61.1218 72.0032C61.2107 72.0928 61.2835 72.0198 61.2835 71.8413C61.2835 71.6627 61.4753 71.5906 61.7096 71.681C61.944 71.7717 62.1358 72.0393 62.1358 72.2753C62.1358 72.5949 62.3247 72.6573 62.8734 72.5185C63.2933 72.4124 63.7825 72.4759 64.0098 72.6656C64.4695 73.0501 64.5442 74.2416 64.1246 74.5028C63.9683 74.6001 63.8405 74.5646 63.8405 74.4244C63.8405 74.2839 63.6487 74.1689 63.4143 74.1689C62.8398 74.1689 62.8702 74.5803 63.4532 74.6965C63.7913 74.7638 63.9325 75.1406 63.9709 76.0765C63.9999 76.7847 64.174 77.6453 64.3581 77.989C64.8246 78.8599 64.7795 79.0273 64.1246 78.8548C63.7263 78.7501 63.5549 78.8468 63.5521 79.1792C63.5493 79.4943 63.4771 79.5415 63.337 79.3197C62.9808 78.7555 62.0327 79.6539 62.2205 80.3778C62.3446 80.8551 62.2762 80.9501 61.902 80.8196C61.519 80.6857 61.5301 80.7349 61.9582 81.0694C62.2861 81.3252 62.4216 81.6683 62.3103 81.9607C62.173 82.3206 62.0372 82.359 61.7494 82.1183C61.1985 81.6579 59.7007 82.9518 60.201 83.4557C60.4669 83.7235 60.4675 83.8019 60.2039 83.8019C60.0163 83.8019 59.8439 83.6411 59.8209 83.4442C59.7979 83.2477 59.7527 82.8934 59.7209 82.6574C59.689 82.4213 59.6439 82.0674 59.6209 81.8705C59.5402 81.1841 58.7265 81.4943 58.7265 82.2113C58.7265 82.5956 58.5966 82.9907 58.4378 83.0894C58.279 83.1884 58.2225 83.389 58.3125 83.5355C58.4023 83.682 58.2125 83.8019 57.8909 83.8019C57.5693 83.8019 57.3059 83.9306 57.3059 84.088C57.3059 84.2454 57.4977 84.3741 57.7321 84.3741C57.9665 84.3741 58.1583 84.5673 58.1583 84.8033C58.1583 85.4422 59.0404 85.3226 59.2123 84.6603C59.2941 84.3455 59.4603 84.088 59.5817 84.088C59.9166 84.088 60.2004 85.0205 59.9229 85.2096C59.7891 85.3009 59.5998 85.5927 59.5027 85.8586C59.2401 86.5762 57.7591 86.3547 57.644 85.5804C57.5102 84.6803 56.8905 84.2731 56.4564 84.7999C56.2604 85.0377 55.7163 85.2325 55.2475 85.2325C54.5174 85.2325 54.4466 85.1701 54.7535 84.7979C55.0452 84.4437 55.0259 84.268 54.6483 83.848C54.2642 83.4208 54.2475 83.2471 54.5489 82.8319C54.7489 82.5564 55.0995 82.3721 55.3279 82.4225C55.5564 82.4731 55.7433 82.3212 55.7433 82.0851C55.7433 81.8491 55.5555 81.6974 55.3259 81.7484C54.3534 81.9638 53.2082 81.8654 53.1065 81.5581C53.0462 81.3758 52.805 81.2268 52.5706 81.2268C51.9788 81.2268 52.2479 80.5787 52.8786 80.4854C53.1874 80.4399 53.4494 80.6296 53.5355 80.9612C53.754 81.8024 54.1591 81.6185 54.054 80.726C54.0031 80.2934 53.9469 79.7137 53.929 79.4385C53.9111 79.1632 53.7727 78.9378 53.6213 78.9378C53.4701 78.9378 53.4198 79.1309 53.5096 79.3669C53.5997 79.603 53.5318 79.7961 53.3588 79.7961C53.1857 79.7961 53.0442 79.6811 53.0442 79.5406C53.0442 79.4001 52.859 79.2136 52.6326 79.126C52.3709 79.0247 52.2732 79.1046 52.3646 79.3446C52.4439 79.5524 52.3095 79.7993 52.066 79.8934C51.5527 80.0917 50.7713 79.8476 50.7713 79.4883C50.7713 79.3529 50.5574 79.3246 50.2957 79.4256C49.9355 79.5649 49.8645 79.4934 50.0028 79.1306C50.2307 78.5326 50.0869 78.5234 49.5153 79.0991C48.9508 79.6677 48.5047 79.405 48.7076 78.6236C48.8485 78.0808 48.8076 78.0588 48.2777 78.3921C47.7976 78.694 47.6095 78.6911 47.231 78.3747C46.9108 78.1071 46.8603 77.898 47.066 77.6908C47.5163 77.2373 47.4194 76.0808 46.9148 75.8857C46.6068 75.7666 46.5199 75.502 46.6361 75.0361C46.7466 74.5927 46.6804 74.3572 46.444 74.352C46.2457 74.3477 45.7701 73.8327 45.3871 73.2075C45.0042 72.5823 44.5885 72.0707 44.4638 72.0707C44.3391 72.0707 44.2368 71.8933 44.2368 71.6765C44.2368 71.4599 44.045 71.1222 43.8106 70.9262C43.5762 70.7302 43.3844 70.1794 43.3844 69.7025C43.3844 68.8352 43.3842 68.8349 42.7674 69.3797C42.4281 69.6796 42.2437 69.764 42.3579 69.5671C42.4722 69.3706 42.4344 69.2095 42.2736 69.2095C42.113 69.2095 42.0602 69.0035 42.1562 68.7514C42.3151 68.3348 42.2491 68.3357 41.4323 68.7611C40.6604 69.1634 40.5766 69.3093 40.8368 69.7995C41.0036 70.1134 41.2616 70.2945 41.4099 70.202C41.5656 70.1053 41.6798 70.594 41.6798 71.3554C41.6798 72.2198 41.7849 72.6115 41.9832 72.4879C42.1503 72.384 42.2182 72.1188 42.1344 71.8988C42.0503 71.6785 42.1057 71.4985 42.2568 71.4985C42.4082 71.4985 42.5321 71.6916 42.5321 71.9277C42.5321 72.1637 42.7239 72.3569 42.9583 72.3569C43.1927 72.3569 43.3844 72.546 43.3844 72.7772C43.3844 73.033 43.218 73.1328 42.9583 73.0327C42.6659 72.9197 42.5321 73.0499 42.5321 73.447C42.5321 73.7655 42.4003 74.0702 42.2392 74.1243C42.0414 74.1906 42.0511 74.5263 42.269 75.1555C42.521 75.8842 42.5108 76.1867 42.2219 76.5374C41.886 76.9449 41.8204 76.9435 41.5147 76.5226C41.2297 76.1297 41.0593 76.1128 40.4081 76.4115C39.7146 76.7297 39.5867 76.696 39.1182 76.0705C38.6386 75.4301 38.5574 75.411 38.0792 75.8258C37.7937 76.0731 37.3346 76.3563 37.0587 76.4548C36.5121 76.6502 35.8958 77.9684 36.1544 78.3895C36.2427 78.5337 36.1737 78.6516 36.0007 78.6516C35.8279 78.6516 35.3793 78.9853 35.0043 79.393C34.6267 79.803 34.1775 80.0442 33.9985 79.9329C33.7656 79.7878 33.7616 79.6445 33.984 79.4205C34.4605 78.9406 34.35 78.3655 33.7815 78.3655C33.5002 78.3655 33.1357 78.2302 32.9715 78.0648C32.5754 77.6659 32.8368 76.3626 33.3124 76.3626C33.7798 76.3626 34.0681 75.4762 34.1474 73.7969C34.2034 72.6132 34.2682 72.5062 34.8901 72.5723C35.2975 72.6155 35.4347 72.5551 35.2313 72.4218C35.0441 72.2991 34.9801 72.0639 35.0892 71.8993C35.4114 71.4121 36.2319 71.2172 36.4084 71.586C36.4984 71.774 36.518 71.635 36.4516 71.277C36.3788 70.8825 36.4612 70.6538 36.6615 70.6962C37.23 70.8158 38.5318 69.7691 38.3636 69.3276C38.2545 69.041 38.3452 68.9703 38.6634 69.093C38.9142 69.19 39.0571 69.3709 38.981 69.495C38.8114 69.7714 40.2547 70.168 40.5058 69.9142C40.6047 69.8141 40.3837 69.4862 40.0146 69.1849C39.5066 68.7703 39.4549 68.6372 39.8015 68.6372C40.0532 68.6372 40.2592 68.4507 40.2592 68.2229C40.2592 67.9949 40.5788 67.461 40.9695 67.0364C41.7707 66.1657 41.8769 65.5482 41.2664 65.3122C40.9226 65.1791 40.9428 65.0552 41.3866 64.5754C41.6801 64.2581 42.0579 64.0841 42.2261 64.1888C42.3946 64.2936 42.5321 64.2386 42.5321 64.0672C42.5321 63.8956 42.3463 63.6833 42.1193 63.5957C41.7872 63.4672 41.7727 63.3293 42.0457 62.8893C42.2321 62.5885 42.5457 62.3425 42.7426 62.3425C42.9392 62.3425 43.1003 62.2887 43.1003 62.2229C43.1003 62.1571 43.1859 61.8672 43.2907 61.5791C43.4725 61.0781 43.4558 61.0769 42.9123 61.5562C42.5997 61.832 42.2591 61.9719 42.1551 61.8672C41.8352 61.545 44.576 59.2257 45.7897 58.7916C47.7345 58.0964 49.115 58.2343 51.47 59.3602ZM90.1254 66.3239C89.6057 66.5285 88.5582 66.4266 88.5582 66.1717C88.5582 66.1116 89.0378 66.0713 89.6236 66.0821C90.435 66.0976 90.5546 66.1551 90.1254 66.3239ZM62.6949 70.6232C62.6878 70.9797 62.6023 70.958 62.2688 70.5139C62.0395 70.2083 61.8557 69.7577 61.8608 69.5125C61.8679 69.156 61.9534 69.1777 62.287 69.6218C62.5162 69.9274 62.7001 70.378 62.6949 70.6232ZM91.6834 69.9248C91.6834 70.1608 91.5556 70.354 91.3993 70.354C91.243 70.354 91.1152 70.1608 91.1152 69.9248C91.1152 69.6887 91.243 69.4956 91.3993 69.4956C91.5556 69.4956 91.6834 69.6887 91.6834 69.9248ZM10.4275 69.9079C10.4275 69.9774 10.2996 70.1136 10.1434 70.2109C9.98713 70.3082 9.85928 70.2513 9.85928 70.0847C9.85928 69.9182 9.98713 69.7817 10.1434 69.7817C10.2996 69.7817 10.4275 69.8384 10.4275 69.9079ZM37.134 70.0679C37.134 70.2252 36.9985 70.354 36.8331 70.354C36.6678 70.354 36.6112 70.2252 36.7078 70.0679C36.8044 69.9105 36.9397 69.7817 37.0087 69.7817C37.0777 69.7817 37.134 69.9105 37.134 70.0679ZM43.3844 70.9669C43.3844 71.1357 43.1822 71.1955 42.935 71.0999C42.6878 71.0043 42.4321 70.9262 42.3668 70.9262C42.3014 70.9262 42.248 70.7285 42.248 70.487C42.248 70.1365 42.3628 70.1096 42.8162 70.354C43.1287 70.5225 43.3844 70.7983 43.3844 70.9669ZM39.9751 71.2124C39.9751 71.3697 40.1106 71.4985 40.276 71.4985C40.4413 71.4985 40.4979 71.3697 40.4013 71.2124C40.3047 71.055 40.1694 70.9262 40.1004 70.9262C40.0314 70.9262 39.9751 71.055 39.9751 71.2124ZM44.6291 73.2702C44.5513 73.3972 44.3459 73.5014 44.1726 73.5014C43.9995 73.5014 43.9387 73.4201 44.0373 73.3208C44.1359 73.2212 44.0294 72.8707 43.8007 72.5417C43.1191 71.5617 43.3489 71.2865 44.0879 72.1972C44.4638 72.6602 44.7073 73.1428 44.6291 73.2702ZM40.6766 72.3712C40.4067 72.8112 40.7763 73.0951 41.1411 72.7277C41.3451 72.5222 41.3499 72.3623 41.1559 72.2415C40.9968 72.1426 40.7811 72.2009 40.6766 72.3712ZM92.1556 73.0006C92.0769 73.1975 92.0124 73.0364 92.0124 72.643C92.0124 72.2496 92.0769 72.0888 92.1556 72.2853C92.2346 72.4822 92.2346 72.8041 92.1556 73.0006ZM39.6953 73.0006C39.7012 73.4805 40.0382 73.9145 40.4723 74.0021C40.976 74.1037 40.9138 73.8745 40.2592 73.2152C39.9211 72.8748 39.6927 72.7878 39.6953 73.0006ZM41.1116 74.0825C41.1116 74.7337 41.546 74.8373 41.7735 74.2404C41.8585 74.0173 41.7443 73.7637 41.5198 73.6771C41.2502 73.5729 41.1116 73.7105 41.1116 74.0825ZM38.8387 74.0736C38.8387 74.231 38.9742 74.3597 39.1395 74.3597C39.3049 74.3597 39.3614 74.231 39.2648 74.0736C39.1682 73.9162 39.033 73.7875 38.964 73.7875C38.8949 73.7875 38.8387 73.9162 38.8387 74.0736ZM33.5397 75.0842C33.4519 75.3151 33.2655 75.5042 33.126 75.5042C32.8345 75.5042 32.7831 74.831 33.0539 74.5583C33.357 74.253 33.7107 74.6359 33.5397 75.0842ZM47.2228 75.2227C47.3211 75.3826 47.5203 75.4396 47.6657 75.3489C48.0598 75.1037 47.9865 74.932 47.4873 74.932C47.2438 74.932 47.1248 75.0628 47.2228 75.2227ZM65.261 76.0765C65.8466 76.6662 66.0517 77.3932 65.5432 77.0768C65.3858 76.9787 65.1752 77.1131 65.0752 77.3755C64.9326 77.7503 64.811 77.6551 64.509 76.9317C63.8604 75.3778 64.1925 75.0004 65.261 76.0765ZM34.0088 76.0141C34.0088 76.3477 35.3739 76.3984 35.5739 76.0722C35.6731 75.9105 35.3759 75.7904 34.8779 75.7904C34.4 75.7904 34.0088 75.8911 34.0088 76.0141ZM45.3729 76.9944C45.3729 77.0405 45.0218 77.0985 44.5925 77.1237C43.6365 77.1795 43.256 76.6633 43.9021 76.1875C44.293 75.8994 44.4683 75.9329 44.876 76.3735C45.1496 76.6691 45.3732 76.9486 45.3729 76.9944ZM49.919 76.0934C49.919 76.2599 50.0469 76.3168 50.2031 76.2196C50.3594 76.1223 50.4872 75.9861 50.4872 75.9166C50.4872 75.847 50.3594 75.7904 50.2031 75.7904C50.0469 75.7904 49.919 75.9269 49.919 76.0934ZM52.3732 76.5057C52.2834 76.7417 52.3337 76.9349 52.4848 76.9349C52.6363 76.9349 52.7601 76.7417 52.7601 76.5057C52.7601 76.2696 52.7098 76.0765 52.6485 76.0765C52.5871 76.0765 52.4632 76.2696 52.3732 76.5057ZM32.3961 77.7183C32.4828 78.1529 32.643 78.8774 32.7524 79.328L32.951 80.1472L32.1555 79.6225L31.36 79.0977L31.5211 80.3051C31.6958 81.6187 31.2932 81.9738 30.9935 80.7704C30.8736 80.2894 30.7341 80.1489 30.5974 80.3718C30.3 80.8562 30.1355 80.3964 30.186 79.2239C30.2676 77.3426 30.3091 77.221 30.8668 77.221C31.1702 77.221 31.4986 77.0902 31.5967 76.9303C31.8677 76.4888 32.2203 76.8364 32.3961 77.7183ZM33.1607 76.8633C33.1686 77.255 33.6911 77.9226 33.8579 77.7543C34.0818 77.5289 33.7252 76.6487 33.4101 76.6487C33.2706 76.6487 33.1584 76.7452 33.1607 76.8633ZM38.8537 77.0779C38.8313 77.5025 38.1957 77.4247 38.0483 76.9789C37.9687 76.7383 38.0986 76.6313 38.3949 76.6928C38.6554 76.7475 38.862 76.9206 38.8537 77.0779ZM62.8736 77.1764C62.7753 77.3366 62.8333 77.5538 63.0023 77.6591C63.4393 77.9309 63.7212 77.5586 63.3564 77.1912C63.1524 76.9858 62.9935 76.9809 62.8736 77.1764ZM43.031 77.9526C43.0711 77.9718 42.8466 78.2865 42.5321 78.6516C42.2176 79.0167 41.8653 79.213 41.7491 79.0874C41.6329 78.9621 41.6974 78.8021 41.8923 78.7317C42.1241 78.6485 42.1815 78.3397 42.0582 77.841C41.8812 77.1251 41.9034 77.104 42.4139 77.4977C42.7134 77.7286 42.991 77.9332 43.031 77.9526ZM34.719 77.7933C34.6224 77.9506 34.6713 78.0794 34.8276 78.0794C34.9838 78.0794 35.1907 77.9506 35.2873 77.7933C35.3839 77.6359 35.335 77.5071 35.1787 77.5071C35.0225 77.5071 34.8156 77.6359 34.719 77.7933ZM37.5602 77.7933C37.6568 77.9506 37.6002 78.0794 37.4349 78.0794C37.2695 78.0794 37.134 77.9506 37.134 77.7933C37.134 77.6359 37.1902 77.5071 37.2593 77.5071C37.3283 77.5071 37.4636 77.6359 37.5602 77.7933ZM68.584 80.126C68.89 80.823 68.8369 80.9527 67.9374 81.7057L66.9575 82.5261L67.4013 84.0308C67.6453 84.8585 67.9669 85.4597 68.1158 85.3673C68.2644 85.2746 68.3863 85.3996 68.3863 85.6448C68.3863 86.1444 67.9453 86.2437 67.676 85.8048C67.3888 85.337 66.9259 85.4797 66.9805 86.0194C67.1419 87.6159 66.9447 88.4062 66.3265 88.642C65.5099 88.953 65.2568 88.7278 65.8949 88.2577C66.3137 87.9493 66.3344 87.7853 66.0364 87.139C65.8443 86.7224 65.5838 86.3805 65.4574 86.3793C65.3309 86.3782 65.3079 86.2463 65.4059 86.0863C65.5042 85.9264 65.7034 85.8694 65.8489 85.9601C66.3802 86.2906 66.096 85.1415 65.5227 84.6405C65.1977 84.357 64.9065 83.9555 64.8755 83.7487C64.8443 83.5418 64.7329 83.2342 64.6275 83.0648C64.3127 82.5581 64.7235 81.5129 65.2375 81.5129C65.5003 81.5129 65.8861 81.674 66.0941 81.8705C66.4063 82.1655 66.4427 82.0665 66.3017 81.3072C66.1344 80.4033 66.148 80.389 67.0455 80.5409C67.872 80.6808 67.9124 80.6562 67.4629 80.286C67.1896 80.0605 66.9657 79.6113 66.9657 79.2877C66.9657 78.9641 66.8151 78.6488 66.6313 78.587C66.4333 78.5206 66.391 78.3217 66.5273 78.0994C66.7015 77.8153 66.9396 77.924 67.5041 78.5455C67.9146 78.9973 68.4008 79.7086 68.584 80.126ZM30.5994 78.5086C30.3039 78.8671 30.3449 78.9378 30.8489 78.9378C31.1955 78.9378 31.4518 78.7552 31.4518 78.5086C31.4518 78.2725 31.3395 78.0794 31.2023 78.0794C31.0654 78.0794 30.794 78.2725 30.5994 78.5086ZM41.1116 78.4476C41.1116 78.6502 40.8462 78.8362 40.5217 78.8608C40.0385 78.8974 39.9936 78.831 40.2726 78.4925C40.6948 77.9801 41.1116 77.9581 41.1116 78.4476ZM65.5452 78.3655C65.5452 78.5229 65.4173 78.6516 65.261 78.6516C65.1048 78.6516 64.9769 78.5229 64.9769 78.3655C64.9769 78.2081 65.1048 78.0794 65.261 78.0794C65.4173 78.0794 65.5452 78.2081 65.5452 78.3655ZM93.5952 78.2522C93.5009 78.3472 93.2557 78.3575 93.0508 78.2748C92.8241 78.1835 92.8915 78.1157 93.2225 78.102C93.5219 78.0897 93.6895 78.1572 93.5952 78.2522ZM37.6252 78.8244C37.5309 78.9194 37.2857 78.9297 37.0809 78.8471C36.8541 78.7558 36.9215 78.688 37.2525 78.6742C37.5519 78.6619 37.7195 78.7295 37.6252 78.8244ZM36.9718 79.3873C37.5403 79.9601 37.5556 80.2671 36.9919 79.7961C36.647 79.508 36.5658 79.5177 36.5658 79.8471C36.5658 80.0708 36.7192 80.4084 36.9067 80.5973C37.2786 80.9718 36.9064 81.0599 36.3819 80.7217C36.0904 80.5338 35.8768 79.7295 35.9649 79.1523C36.0189 78.7976 36.4967 78.9091 36.9718 79.3873ZM44.6629 79.2239C44.7595 79.3812 44.703 79.51 44.5377 79.51C44.3723 79.51 44.2368 79.3812 44.2368 79.2239C44.2368 79.0665 44.293 78.9378 44.3621 78.9378C44.4311 78.9378 44.5664 79.0665 44.6629 79.2239ZM60.3377 79.1272C60.0303 79.4368 60.1186 80.3169 60.4794 80.5415C60.703 80.6805 60.7525 80.5924 60.6303 80.2722C60.4186 79.7169 60.7366 79.6459 61.2267 80.1395C61.7787 80.6954 61.6162 80.1109 61.0479 79.4968C60.7624 79.1878 60.4428 79.0216 60.3377 79.1272ZM65.2483 80.2096C65.5494 80.5753 65.5454 80.6528 65.2247 80.6453C64.6931 80.633 63.8405 79.9521 63.8405 79.5401C63.8405 79.1315 64.6942 79.5378 65.2483 80.2096ZM48.6712 80.0107C49.1437 80.6376 49.1854 81.1747 48.7257 80.7117C48.1663 80.1484 47.5833 80.2906 47.7882 80.9406C47.8916 81.2688 47.8393 81.5129 47.6652 81.5129C47.4984 81.5129 47.362 81.3684 47.362 81.1918C47.362 80.9721 47.2251 80.985 46.929 81.2325C46.6909 81.4316 46.4148 81.5129 46.3159 81.413C46.2168 81.3135 45.9642 81.3753 45.7545 81.5504C45.4622 81.7947 45.3732 81.7607 45.3732 81.4047C45.3732 81.1495 45.565 80.9406 45.7994 80.9406C46.0338 80.9406 46.2256 80.8119 46.2256 80.6545C46.2256 80.4971 46.5452 80.3684 46.9358 80.3684C47.3779 80.3684 47.6461 80.2061 47.6461 79.9392C47.6461 79.3578 48.2087 79.397 48.6712 80.0107ZM37.9863 80.6545C37.9863 80.8119 37.8585 80.9406 37.7022 80.9406C37.546 80.9406 37.4181 80.8119 37.4181 80.6545C37.4181 80.4971 37.546 80.3684 37.7022 80.3684C37.8585 80.3684 37.9863 80.4971 37.9863 80.6545ZM35.7134 81.5129C35.7134 81.6703 35.5779 81.799 35.4126 81.799C35.2472 81.799 35.1907 81.6703 35.2873 81.5129C35.3839 81.3555 35.5191 81.2268 35.5881 81.2268C35.6572 81.2268 35.7134 81.3555 35.7134 81.5129ZM63.6084 82.1472C63.4047 82.3524 63.2723 82.3693 63.2723 82.1901C63.2723 82.0273 63.3575 81.8085 63.4618 81.7037C63.5657 81.5987 63.7172 81.5796 63.7979 81.6608C63.8786 81.7421 63.7933 81.961 63.6084 82.1472ZM69.0295 81.9701C69.3062 82.2485 68.9264 82.9435 68.4979 82.9435C68.2803 82.9435 68.1022 82.7718 68.1022 82.5621C68.1022 81.9283 68.6445 81.5821 69.0295 81.9701ZM53.8966 82.4837C53.8966 82.5455 53.7048 82.6703 53.4704 82.761C53.236 82.8514 53.0442 82.8007 53.0442 82.6485C53.0442 82.496 53.236 82.3713 53.4704 82.3713C53.7048 82.3713 53.8966 82.4219 53.8966 82.4837ZM50.8901 83.1172C51.5177 83.3598 51.4518 83.8019 50.7881 83.8019C50.1952 83.8019 49.8199 83.4248 50.1162 83.1263C50.3384 82.9029 50.3355 82.9029 50.8901 83.1172ZM53.3284 84.088C53.3284 84.2454 53.2005 84.3741 53.0442 84.3741C52.888 84.3741 52.7601 84.2454 52.7601 84.088C52.7601 83.9306 52.888 83.8019 53.0442 83.8019C53.2005 83.8019 53.3284 83.9306 53.3284 84.088ZM29.1698 84.3026C29.1485 84.8068 28.3748 85.5427 28.1873 85.2371C28.0808 85.0634 28.1481 84.7338 28.3368 84.5046C28.7016 84.062 29.1848 83.9447 29.1698 84.3026ZM52.476 84.3741C52.476 84.5315 52.4198 84.6603 52.3507 84.6603C52.2817 84.6603 52.1464 84.5315 52.0499 84.3741C51.9533 84.2168 52.0098 84.088 52.1751 84.088C52.3405 84.088 52.476 84.2168 52.476 84.3741ZM29.7471 85.8048C29.7471 86.1195 29.6192 86.377 29.463 86.377C29.3067 86.377 29.1789 86.1195 29.1789 85.8048C29.1789 85.49 29.3067 85.2325 29.463 85.2325C29.6192 85.2325 29.7471 85.49 29.7471 85.8048ZM60.561 86.0712C60.651 86.2176 60.6079 86.4099 60.4655 86.4986C60.3232 86.5873 60.1334 86.4674 60.0436 86.2322C59.8669 85.7687 60.2939 85.6357 60.561 86.0712ZM51.7657 86.9493C51.6691 87.1066 51.47 87.2354 51.3228 87.2354C51.1756 87.2354 51.0555 87.1066 51.0555 86.9493C51.0555 86.7919 51.2549 86.6631 51.4984 86.6631C51.7419 86.6631 51.8623 86.7919 51.7657 86.9493ZM37.9153 87.9642C38.6702 88.2016 38.2699 88.7278 37.4891 88.5241C37.0596 88.4122 36.5467 88.2938 36.3498 88.2614C36.153 88.2291 35.8333 88.0391 35.6396 87.8397C35.3557 87.5476 35.5086 87.5135 36.4237 87.6646C37.0488 87.7679 37.7201 87.9026 37.9153 87.9642ZM53.0028 89.6497C52.6976 89.9215 51.6237 90.0958 51.6237 89.8735C51.6237 89.4964 52.8797 88.9688 53.0028 89.2941C53.0582 89.4406 53.0582 89.6005 53.0028 89.6497ZM93.9032 89.7198C94.108 89.8025 94.3532 89.7922 94.4475 89.6972C94.5419 89.6022 94.3742 89.5347 94.0748 89.547C93.7438 89.5607 93.6765 89.6286 93.9032 89.7198ZM54.1807 91.4938C54.1807 91.83 53.0263 92.1221 52.6428 91.8832C52.4743 91.7785 52.6539 91.6068 53.0471 91.4964C54.0622 91.212 54.1807 91.2117 54.1807 91.4938ZM39.9751 92.5118C39.9751 92.8137 39.4299 92.9407 39.2677 92.6764C39.1696 92.5164 39.2887 92.3857 39.5322 92.3857C39.7757 92.3857 39.9751 92.4423 39.9751 92.5118ZM45.6525 103.02C45.6551 103.282 45.5204 103.543 45.3528 103.599C45.1761 103.658 45.3065 104.032 45.6642 104.49C46.0213 104.947 46.2054 105.474 46.1025 105.743C45.9596 106.119 45.786 106.02 45.2056 105.234C44.8098 104.699 44.4141 103.906 44.326 103.473C44.2379 103.04 44.0538 102.686 43.9172 102.686C43.56 102.686 43.6109 102 43.9967 101.612C44.3973 101.208 45.6448 102.269 45.6525 103.02ZM46.9125 101.429C47.6044 101.696 47.4453 102.114 46.6517 102.114C45.9619 102.114 45.7446 101.835 46.131 101.446C46.3614 101.214 46.3563 101.214 46.9125 101.429ZM56.7178 106.773C56.7286 106.897 56.4738 106.856 56.151 106.682C55.6635 106.419 55.6254 106.292 55.9246 105.929C56.2439 105.542 56.3081 105.552 56.4914 106.02C56.6047 106.311 56.7067 106.65 56.7178 106.773ZM46.6844 108.248C46.7708 108.475 46.7117 108.893 46.5534 109.178C46.2932 109.646 46.2361 109.619 45.9613 108.891C45.5718 107.859 45.5747 107.836 46.0923 107.836C46.3318 107.836 46.598 108.022 46.6844 108.248ZM62.9683 111.055C62.9791 111.331 62.8467 111.556 62.6736 111.556C62.5006 111.556 62.4296 111.371 62.5157 111.145C62.6018 110.919 62.5441 110.692 62.3878 110.639C62.2296 110.586 62.1955 110.302 62.3114 109.998C62.5154 109.462 62.5233 109.463 62.7339 110.003C62.8518 110.307 62.9572 110.78 62.9683 111.055ZM9.10354 111.628C9.2007 112.375 9.18678 112.987 9.07257 112.987C8.95836 112.987 8.82454 112.313 8.77539 111.49C8.66714 109.675 8.86034 109.756 9.10354 111.628ZM53.6125 110.428C53.6125 110.595 53.7403 110.652 53.8966 110.555C54.0528 110.457 54.1807 110.321 54.1807 110.252C54.1807 110.182 54.0528 110.125 53.8966 110.125C53.7403 110.125 53.6125 110.262 53.6125 110.428ZM50.7713 111.556C50.7713 111.713 50.8992 111.842 51.0555 111.842C51.2117 111.842 51.3396 111.713 51.3396 111.556C51.3396 111.399 51.2117 111.27 51.0555 111.27C50.8992 111.27 50.7713 111.399 50.7713 111.556ZM64.5508 114.99C64.6474 115.147 64.5908 115.276 64.4255 115.276C64.2601 115.276 64.1246 115.147 64.1246 114.99C64.1246 114.832 64.1809 114.703 64.2499 114.703C64.3189 114.703 64.4542 114.832 64.5508 114.99ZM49.6573 117.159C49.671 117.493 49.7383 117.56 49.8289 117.332C49.9111 117.126 49.9008 116.879 49.8065 116.784C49.7122 116.689 49.6451 116.858 49.6573 117.159ZM11.5639 117.851C11.5639 118.008 11.6995 118.137 11.8648 118.137C12.0302 118.137 12.0867 118.008 11.9901 117.851C11.8935 117.693 11.7583 117.565 11.6892 117.565C11.6202 117.565 11.5639 117.693 11.5639 117.851ZM52.9104 120.814C52.5996 121.043 52.4544 121.387 52.5559 121.654C52.6507 121.902 52.5755 122.163 52.3891 122.234C52.1723 122.316 52.2269 122.436 52.5397 122.566C53.1937 122.839 53.8255 122.166 53.8255 121.197C53.8255 120.326 53.6642 120.259 52.9104 120.814ZM72.9321 139.436C72.9321 139.738 72.3868 139.865 72.2246 139.601C72.1266 139.441 72.2456 139.31 72.4891 139.31C72.7326 139.31 72.9321 139.367 72.9321 139.436ZM60.4311 140.581C60.4311 140.65 60.3033 140.787 60.147 140.884C59.9908 140.981 59.8629 140.924 59.8629 140.758C59.8629 140.591 59.9908 140.455 60.147 140.455C60.3033 140.455 60.4311 140.511 60.4311 140.581ZM55.033 141.313C55.033 141.471 54.8412 141.599 54.6069 141.599C54.3725 141.599 54.1807 141.471 54.1807 141.313C54.1807 141.156 54.3725 141.027 54.6069 141.027C54.8412 141.027 55.033 141.156 55.033 141.313Z" fill="var(--fill-0, #2D2D32)"/>
</svg>
