<svg preserveAspectRatio="xMidYMid meet" overflow="visible" style="display: block;" viewBox="0 0 156 150" fill="none" xmlns="http://www.w3.org/2000/svg">
<path id="Vector" fill-rule="evenodd" clip-rule="evenodd" d="M62.471 0.222341C62.471 0.349101 62.5797 0.51991 62.7126 0.602133C62.8508 0.687782 62.8918 0.589654 62.8086 0.371861C62.6461 -0.0519787 62.471 -0.129554 62.471 0.222341ZM63.2916 0.537042C63.1024 0.843665 63.225 0.931516 64.5804 1.46205L65.7681 1.92676L64.4248 1.94217C63.4645 1.95294 63.1861 2.02488 63.4479 2.19447C63.6494 2.3249 64.2265 2.43331 64.7301 2.43551C65.3709 2.43796 65.6459 2.5471 65.6459 2.79866C65.6459 2.99614 65.7847 3.10455 65.9544 3.03946C66.4831 2.8361 68.0059 4.57698 68.5869 6.04916C68.8921 6.82269 69.3295 7.676 69.5586 7.94518C69.7875 8.21436 70.1108 9.15038 70.2769 10.0252C70.443 10.9001 70.6825 11.8101 70.8093 12.0478C71.1717 12.7266 70.3629 12.8918 69.7745 12.259C69.5081 11.9726 69.3579 11.7382 69.4407 11.7382C69.5232 11.7382 69.2497 11.4504 68.8326 11.0988C68.233 10.5932 68.1331 10.3884 68.3553 10.1199C68.58 9.84854 68.5324 9.78051 68.118 9.78051C67.8142 9.78051 67.5997 9.62464 67.5997 9.40366C67.5997 8.68274 66.6211 7.08869 66.1786 7.08869C65.6726 7.08869 65.1546 5.84972 65.0347 4.35258C64.9355 3.11703 64.7316 2.91123 63.5141 2.82044C62.2932 2.72916 61.4727 2.29823 61.9362 1.99185C62.3956 1.68816 61.109 0.869847 60.5585 1.11578C60.3343 1.21587 59.6014 1.27705 58.9298 1.2516L57.7087 1.2051L58.4414 1.62772L59.174 2.05033L58.5635 2.20157C58.2277 2.28477 57.5959 2.44089 57.1592 2.54881C56.2348 2.77737 56.1396 3.06858 56.9091 3.31329C58.3371 3.76747 59.4925 4.9438 58.6043 5.03924C58.4475 5.05612 58.2094 5.08353 58.075 5.10041C57.5837 5.16208 57.845 6.39102 58.4863 7.03363C58.8468 7.39482 59.1638 7.85782 59.1906 8.0624C59.3179 9.03194 59.6197 10.0252 59.787 10.0252C60.0393 10.0252 60.8428 11.2794 60.8428 11.6731C60.8428 11.8706 61.0345 11.9435 61.3518 11.8664C61.6317 11.7984 61.7232 11.806 61.5552 11.8833C61.1376 12.0754 61.1664 12.5568 61.586 12.3955C61.7836 12.3196 62.0327 12.5103 62.1912 12.8587C62.3394 13.1847 62.5775 13.4512 62.7204 13.4512C62.9959 13.4512 63.278 13.6572 64.48 14.7359C64.8925 15.1059 65.3245 15.4089 65.4401 15.4089C65.5556 15.4089 66.1053 15.7392 66.6617 16.143C67.4713 16.7308 67.9219 16.8771 68.921 16.8771C70.1624 16.8771 70.1687 16.8813 70.1665 17.6597C70.1643 18.3452 70.262 18.4626 70.9527 18.6065C71.3866 18.6971 72.1833 18.69 72.7233 18.5911C73.866 18.3816 73.9864 18.49 73.0337 18.8701C72.6302 19.0308 72.4891 19.185 72.6803 19.2557C72.916 19.3431 72.8845 19.4579 72.5582 19.6987C72.1464 20.0023 72.145 20.0339 72.5372 20.1864C72.768 20.2759 73.5636 20.3114 74.3053 20.2649C75.5585 20.1866 75.643 20.2152 75.4991 20.6682C75.3655 21.0891 75.397 21.1121 75.7284 20.8363C76.0498 20.5691 76.2865 20.61 77.1835 21.0886C78.2454 21.6549 78.252 21.6666 77.9428 22.426C77.7711 22.8474 77.1596 23.5717 76.5839 24.0357C75.0234 25.293 72.5552 26.9101 72.1923 26.9125C71.6633 26.9162 69.5332 28.0321 69.7125 28.2114C69.8041 28.3034 69.713 28.3786 69.51 28.3786C69.3068 28.3786 68.9417 28.5988 68.6987 28.868C68.4557 29.1372 68.1089 29.3574 67.9282 29.3574C67.7475 29.3574 67.5997 29.4675 67.5997 29.6021C67.5997 29.9004 67.4561 29.9124 69.0651 29.4798C70.8166 29.0087 70.8826 29.0173 70.3042 29.6391C70.0349 29.9288 69.86 30.2393 69.9157 30.3294C69.9714 30.4197 69.4456 30.6938 68.7471 30.939C68.0488 31.1839 67.2507 31.5892 66.9735 31.8393C66.6961 32.0894 66.3339 32.2939 66.1686 32.2939C66.0032 32.2939 65.5922 32.5705 65.2549 32.9082C64.7216 33.4426 64.6944 33.5427 65.0464 33.678C65.2689 33.7634 65.536 33.6956 65.6401 33.527C65.7842 33.2933 65.8716 33.2894 66.0081 33.5109C66.1129 33.6807 65.9668 33.956 65.6559 34.1743C65.3639 34.3794 65.1836 34.7009 65.2554 34.8889C65.3421 35.1147 65.2117 35.2305 64.871 35.2305C64.5875 35.2305 64.0404 35.5608 63.6555 35.9646C63.2704 36.3684 62.812 36.6987 62.6371 36.6987C62.462 36.6987 62.083 36.919 61.7946 37.1882C61.5064 37.4573 61.1559 37.6776 61.016 37.6776C60.876 37.6776 60.7615 37.7877 60.7615 37.9223C60.7615 38.0569 60.5622 38.167 60.3187 38.167C59.905 38.167 58.0743 39.0066 56.9819 39.6972C55.2569 40.7881 53.7332 41.6483 51.5194 42.7818C49.9236 43.5986 48.7091 44.4064 48.2224 44.9746C47.7981 45.4694 47.126 46.1497 46.7282 46.4865C44.8843 48.0482 42.2282 50.7388 42.3444 50.9272C42.4155 51.0425 42.3823 51.1367 42.2704 51.1367C42.1588 51.1367 41.8501 51.5407 41.5846 52.0348C41.3194 52.5286 40.362 53.7125 39.4577 54.6654C38.5533 55.6183 37.808 56.5081 37.8014 56.6427C37.7838 56.9946 36.6543 58.2333 36.3509 58.2333C36.2103 58.2333 36.095 58.3356 36.095 58.4607C36.095 58.5857 35.715 59.0918 35.2502 59.5853C34.7857 60.0789 34.2643 60.8025 34.0916 61.1933C33.919 61.5842 33.6975 61.904 33.5995 61.904C33.5013 61.904 33.2522 62.2312 33.0459 62.631C32.5494 63.5932 31.8247 64.2464 30.589 64.8459C29.657 65.2979 29.5149 65.3079 28.8655 64.9687C27.9233 64.4764 27.8722 64.4832 26.2565 65.3233C25.2393 65.8522 24.7079 65.9983 24.3095 65.8583C23.678 65.6368 22.2478 65.664 22.0102 65.9023C21.8417 66.0712 22.4119 66.1478 23.3109 66.0768C24.1784 66.0083 24.1955 66.4987 23.34 66.901C21.5352 67.7494 19.4639 68.2538 18.3158 68.1245C15.8689 67.8492 15.5971 67.7729 15.7395 67.4009C15.8526 67.1058 15.5478 67.0429 14.0067 67.0429C12.169 67.0429 10.6958 66.602 10.6958 66.0518C10.6958 65.9173 10.4242 65.7039 10.0921 65.5773C9.73358 65.4406 9.41926 65.0715 9.31816 64.668C9.22462 64.2946 8.99603 63.8365 8.81018 63.6502C8.40745 63.2467 8.57719 62.2258 9.27737 60.8402C9.72283 59.9585 9.69328 59.196 9.24196 59.9279C8.93277 60.4289 8.18692 60.0527 8.36642 59.4862C8.56986 58.8444 8.1476 57.1133 7.67136 56.6363C7.45425 56.4188 7.27499 56.1109 7.27304 55.9524C7.27084 55.7833 7.17119 55.8158 7.03248 56.0309C6.84809 56.317 6.79485 56.2494 6.79192 55.725C6.78996 55.355 6.8708 55.0518 6.97142 55.0518C7.07204 55.0516 7.18634 54.5835 7.22517 54.0118C7.26376 53.4399 7.40125 52.9353 7.53045 52.8905C7.6594 52.8455 7.76514 52.6069 7.76514 52.3603C7.76514 52.1136 7.90264 51.8557 8.07042 51.7874C8.31196 51.6893 8.31001 51.6171 8.0609 51.4409C7.81228 51.2652 7.80666 51.0687 8.03428 50.5046L8.32222 49.7908L8.50783 50.4026C8.66388 50.9174 8.69417 50.8592 8.69832 50.0355C8.70125 49.4971 8.64777 49.1949 8.57987 49.364C8.51173 49.5331 8.35567 49.6092 8.23283 49.5331C8.10999 49.457 8.0079 49.4289 8.00619 49.4705C8.00448 49.5121 7.67039 50.8675 7.26376 52.4826C6.35207 56.1034 5.85239 58.6391 5.67289 60.5556C5.59742 61.362 5.3322 62.6834 5.08358 63.4922C4.83496 64.3012 4.56387 65.2702 4.48157 65.6459C4.39902 66.0215 4.23661 66.2699 4.12012 66.1979C3.86002 66.0367 3.61336 66.6367 3.61336 67.4301C3.61336 67.7555 3.49979 68.0218 3.36132 68.0218C3.2226 68.0218 3.00988 68.2694 2.88826 68.5724C2.71047 69.0158 2.66431 69.0368 2.65185 68.6803C2.64355 68.4368 2.53414 68.301 2.40909 68.3783C2.28405 68.4559 2.23301 68.8014 2.29529 69.1465C2.35781 69.4915 2.31116 69.7135 2.19174 69.6393C2.07207 69.5654 2.00833 69.7492 2.04984 70.048C2.26623 71.6029 2.31141 72.916 2.14851 72.916C2.0474 72.916 1.79634 72.5675 1.59046 72.1417L1.21631 71.3672L0.950842 72.3253C0.626759 73.4942 0.614545 73.8921 0.917382 73.4125C1.04242 73.2145 1.22901 73.1372 1.33232 73.2407C1.43562 73.3442 1.38604 73.6164 1.22193 73.8454C1.05805 74.0745 0.849977 74.4271 0.760103 74.629C0.669985 74.8309 0.510262 75.0548 0.405246 75.1265C0.300475 75.1984 0.145149 76.1344 0.0604033 77.2065C-0.0722096 78.8847 -0.011397 79.3955 0.495854 80.8755C1.06538 82.5356 1.12692 83.3466 0.661923 83.0585C0.320988 82.8476 0.401096 83.6816 0.839721 84.9068C1.07051 85.5519 1.36944 87.7898 1.5614 90.3098C1.93848 95.2596 2.23765 96.4912 3.09219 96.6126C3.40992 96.6576 3.78895 96.5749 3.93451 96.4291C4.08031 96.283 4.49989 96.1635 4.86695 96.1635C5.5813 96.1635 5.57105 96.1447 6.07268 98.3659C6.54721 100.466 6.88448 101.058 8.65119 102.893L10.3004 104.606L10.4557 103.75L10.6111 102.893L10.9207 103.627C11.091 104.031 11.2658 104.582 11.3091 104.851C11.47 105.853 12.2608 108.28 12.4518 108.358C12.5605 108.403 12.6496 108.642 12.6496 108.889C12.6496 109.135 12.866 109.843 13.1307 110.462C13.3952 111.081 13.6021 111.613 13.5903 111.645C13.5786 111.677 13.7466 112.129 13.964 112.65C14.1814 113.171 14.3592 113.658 14.3592 113.732C14.3592 114.037 15.9315 117.1 16.173 117.266C16.3171 117.365 16.3303 117.448 16.2023 117.45C16.0743 117.452 16.3581 117.866 16.8329 118.371C17.3077 118.876 18.2022 120.015 18.8209 120.902C20.1145 122.757 21.4023 123.967 22.63 124.481C23.1018 124.679 23.877 125.105 24.353 125.429C25.5954 126.275 25.7758 126.155 24.7552 125.162C24.1984 124.62 24.0113 124.305 24.2458 124.305C24.4497 124.305 24.6165 124.195 24.6165 124.061C24.6165 123.926 24.3901 123.816 24.1137 123.816C23.8372 123.816 23.6728 123.715 23.7488 123.592C23.8247 123.469 23.7798 123.331 23.6489 123.286C23.517 123.241 23.4994 123.062 23.6091 122.885C23.7693 122.627 24.0028 122.644 24.8295 122.975C25.6615 123.309 25.8237 123.475 25.7001 123.865C25.5751 124.259 25.6491 124.33 26.1204 124.263C26.5891 124.197 26.6924 124.293 26.6924 124.795C26.6924 125.131 26.8023 125.488 26.9366 125.586C27.0714 125.686 26.9623 125.775 26.6924 125.785C26.2433 125.803 26.2482 125.823 26.7535 126.026C27.0558 126.148 27.303 126.389 27.303 126.563C27.303 126.736 27.6603 127.023 28.0967 127.2C28.5334 127.376 29.182 127.679 29.5386 127.871C29.8951 128.063 30.3189 128.221 30.4803 128.221C30.6417 128.221 31.0879 128.486 31.4721 128.809C32.0668 129.311 32.1178 129.442 31.8157 129.693C31.6206 129.856 31.2899 129.923 31.0811 129.842C30.7814 129.727 30.7568 129.592 30.9644 129.203C31.1707 128.817 31.1529 128.71 30.8813 128.71C30.3741 128.71 30.1877 129.722 30.6093 130.189C30.8056 130.406 30.9663 130.774 30.9663 131.006C30.9663 131.391 32.0702 133.584 32.8051 134.658C32.9714 134.901 33.9956 136.033 35.0815 137.173L37.0555 139.246L39.5669 139.972C40.9482 140.371 42.4084 140.699 42.8116 140.7C43.7746 140.701 48.4886 139.802 49.3306 139.455C49.9551 139.198 50.1419 139.321 52.9964 141.86C54.6505 143.332 56.239 144.662 56.5264 144.816C56.8136 144.97 58.2411 145.126 59.6989 145.161C63.2811 145.248 65.0872 144.758 69.6756 142.453C72.7973 140.885 73.5646 140.597 74.8651 140.506C76.6953 140.378 78.2935 140.936 80.9099 142.617C84.0606 144.641 84.929 145.09 86.4591 145.487C87.296 145.704 88.2033 146.001 88.4751 146.148C88.7467 146.294 90.0133 146.689 91.2893 147.026C93.2995 147.557 94.1802 147.644 97.8833 147.677C101.456 147.709 102.438 147.8 103.867 148.232C107.009 149.182 110.54 150 111.496 150C112.151 150 112.891 149.729 113.894 149.121C114.692 148.637 115.859 147.978 116.487 147.657C117.189 147.299 118.058 146.529 118.741 145.662C119.353 144.885 120.125 143.923 120.458 143.525L121.062 142.801L122.023 143.341C122.551 143.639 123.23 143.882 123.531 143.882C124.704 143.882 126.457 142.303 126.457 141.247C126.457 140.999 126.124 140.27 125.716 139.625L124.974 138.454L125.878 137.069C126.374 136.307 126.8 135.656 126.824 135.622C126.847 135.588 127.203 135.677 127.614 135.821C128.23 136.036 128.744 135.966 130.524 135.423C131.712 135.061 133.247 134.516 133.934 134.213C135.011 133.737 135.183 133.565 135.192 132.96C135.202 132.191 135.381 131.253 135.769 129.931C135.986 129.195 136.288 128.932 137.879 128.096C139.104 127.452 140.471 126.421 141.895 125.067C145.137 121.984 146.348 119.255 147.486 112.459C147.666 111.384 147.654 110.966 147.439 110.833C147.239 110.709 147.302 110.573 147.644 110.39C147.915 110.244 148.201 109.874 148.278 109.568C148.363 109.234 148.855 108.782 149.507 108.437C150.835 107.737 153.336 105.296 154.47 103.595C155.594 101.908 155.989 99.5839 156 94.5891C156.009 90.4442 155.665 88.4001 154.732 87.0498C154.011 86.0073 154.084 82.8907 154.887 80.3797C155.419 78.7176 155.513 77.9786 155.506 75.4855C155.492 69.8625 155.214 67.9586 153.99 65.0852C152.508 61.6076 152.518 61.6581 153.078 60.5581C153.692 59.3507 153.696 58.6716 153.092 58.1234C152.307 57.4121 152.055 55.5873 152.642 54.8693C153.057 54.3625 152.431 52.4829 151.082 50.1884C148.563 45.9018 148.236 45.3348 146.861 42.8574C146.003 41.3135 145.42 39.951 145.363 39.3587C145.264 38.3229 144.215 36.6987 143.646 36.6987C143.461 36.6987 143.309 36.5478 143.309 36.3632C143.309 36.1787 142.925 35.7657 142.456 35.4456C141.987 35.1255 141.602 34.7809 141.601 34.6799C141.6 34.5788 141.421 34.4963 141.203 34.4963C140.863 34.4963 140.854 34.4393 141.14 34.094C141.436 33.7363 141.412 33.7111 140.926 33.8657C140.592 33.9719 140.378 33.9379 140.378 33.7786C140.378 33.635 140.213 33.5175 140.012 33.5175C139.81 33.5175 139.645 33.4074 139.645 33.2728C139.645 33.1382 139.481 33.0281 139.279 33.0281C138.835 33.0281 138.794 32.6338 139.218 32.4391C139.386 32.3617 139.283 32.3576 138.99 32.43C138.593 32.5279 138.316 32.3725 137.913 31.8256C137.614 31.4208 137.279 31.146 137.168 31.2148C137.057 31.2835 136.628 30.9546 136.216 30.4841C135.768 29.9733 135.324 29.6829 135.113 29.7636C134.919 29.8383 134.761 29.7656 134.761 29.6021C134.761 29.4342 134.596 29.3684 134.382 29.4509C134.163 29.5348 134.066 29.4935 134.153 29.3528C134.236 29.2189 134.104 29.0383 133.861 28.9514C133.617 28.8646 133.229 28.6313 132.998 28.4329C132.766 28.2337 131.915 28.0274 131.097 27.9728C129.756 27.8828 129.525 27.7817 128.648 26.9025C128.115 26.3685 127.679 25.8213 127.679 25.6867C127.679 25.5521 127.554 25.442 127.402 25.442C127.222 25.442 127.175 25.1391 127.267 24.5713C127.444 23.4814 127.266 22.9949 126.69 22.9949C126.444 22.9949 126.174 22.8848 126.091 22.7502C125.854 22.3663 125.521 22.4617 125.236 22.9949C125.059 23.3267 125.056 23.4843 125.228 23.4843C125.367 23.4843 125.481 23.3192 125.481 23.1173C125.481 22.9154 125.597 22.7502 125.739 22.7502C125.881 22.7502 125.932 22.8571 125.851 22.9878C125.771 23.1185 125.984 23.2954 126.325 23.3813C127.035 23.5597 127.103 23.7834 126.58 24.2185C126.143 24.5816 126.095 25.3618 126.501 25.4976C126.691 25.561 126.718 25.7557 126.581 26.0685C126.383 26.518 126.366 26.5139 126.275 25.9926C126.222 25.6897 126.095 25.442 125.991 25.442C125.888 25.442 125.678 25.1667 125.525 24.8303C125.372 24.4938 125.084 24.2185 124.885 24.2185C124.686 24.2185 124.137 24.0259 123.665 23.7902C122.914 23.4156 122.805 23.247 122.8 22.4443C122.796 21.8218 122.684 21.5266 122.451 21.5266C122.23 21.5266 122.152 21.6977 122.232 22.0051C122.346 22.4404 122.3 22.457 121.723 22.1886C121.374 22.0264 121.087 21.811 121.086 21.7102C121.085 21.6094 120.92 21.5266 120.718 21.5266C120.517 21.5266 120.352 21.4165 120.352 21.2819C120.352 21.1473 120.179 21.0372 119.968 21.0372C119.757 21.0372 119.419 20.872 119.218 20.6702C119.016 20.4683 118.749 20.3031 118.625 20.3031C118.5 20.3031 118.398 20.4683 118.398 20.6702C118.398 20.872 118.526 21.0372 118.683 21.0372C118.84 21.0372 118.904 21.1011 118.826 21.1794C118.748 21.2577 118.464 21.2034 118.194 21.0588C117.334 20.5975 116.909 20.0285 117.063 19.5433C117.164 19.2227 117.092 19.0795 116.827 19.0795C116.616 19.0795 116.444 18.9846 116.444 18.8688C116.444 18.7529 116.194 18.7059 115.888 18.7646C115.534 18.8324 115.165 18.6865 114.873 18.3635C114.621 18.0843 114.163 17.856 113.856 17.856C113.55 17.856 113.226 17.7383 113.137 17.5946C113.048 17.4507 112.822 17.3923 112.634 17.4644C112.446 17.5369 112.292 17.4547 112.292 17.2819C112.292 17.1091 111.908 16.7839 111.438 16.5593C110.609 16.1633 110.288 15.6536 110.868 15.6536C111.024 15.6536 111.082 15.5829 110.996 15.4962C110.909 15.4098 110.692 15.4615 110.512 15.6112C110.264 15.8168 109.902 15.7324 109.024 15.2642C108.385 14.9236 107.749 14.6833 107.609 14.7298C107.28 14.8399 109.752 16.9552 110.431 17.1436C110.716 17.2227 110.92 17.4206 110.884 17.5836C110.849 17.7464 111.477 18.177 112.281 18.5407C114.089 19.359 114.25 19.901 112.476 19.1968C112.241 19.1035 112.048 19.1018 112.048 19.1931C112.048 19.4476 112.715 20.0584 112.993 20.0584C113.128 20.0584 113.603 20.3929 114.048 20.8018C114.493 21.2107 115.374 21.7887 116.007 22.0865C117.137 22.6183 117.475 23.0977 116.872 23.3126C116.704 23.3723 116.846 23.3877 117.187 23.3468C118.128 23.234 119.871 23.5191 119.721 23.7616C119.649 23.8793 119.321 23.9082 118.994 23.8257C118.117 23.6055 118.233 24.2447 119.165 24.7767C119.586 25.0165 119.855 25.2869 119.765 25.3777C119.603 25.5397 118.143 24.8848 117.421 24.3264C116.858 23.8906 115.467 23.4746 115.467 23.7418C115.467 23.8693 115.248 23.7535 114.979 23.4843C114.447 22.9509 114.108 22.8694 113.891 23.2223C113.814 23.3471 114 23.5064 114.304 23.5761C114.608 23.6456 114.2 23.6591 113.397 23.6055C112.427 23.5409 111.841 23.3764 111.651 23.1158C111.493 22.9 111.134 22.7062 110.852 22.6849C110.569 22.6636 110.339 22.5466 110.339 22.425C110.339 22.3031 110.136 22.2569 109.889 22.3217C109.616 22.3932 109.324 22.2561 109.148 21.9737C108.988 21.7173 108.773 21.5602 108.669 21.6243C108.565 21.6886 108.102 21.2374 107.639 20.622C107.176 20.0065 106.494 19.1975 106.124 18.8243C105.174 17.867 101.358 15.1642 100.956 15.1642C100.773 15.1642 100.559 14.999 100.481 14.7971C100.404 14.5952 100.186 14.43 99.9976 14.43C99.6618 14.43 97.2579 12.2731 97.2882 11.9991C97.2965 11.923 96.7062 11.2549 95.9762 10.5146C94.928 9.45162 94.6882 9.29721 94.8345 9.78051C94.9361 10.117 95.2838 10.709 95.6067 11.0961C96.3093 11.9381 96.1533 12.2678 95.3791 11.5765C94.5795 10.8624 93.0399 10.0252 92.5263 10.0252C92.2819 10.0252 91.9451 9.86005 91.7778 9.65816C91.4547 9.26809 90.9237 9.14133 91.1501 9.50815C91.2236 9.62732 90.8739 9.51549 90.3725 9.25953C89.8714 9.00331 89.3859 8.60296 89.2935 8.36951C89.1409 7.9836 89.1241 7.98678 89.1084 8.40328C89.095 8.76716 89.021 8.80314 88.7506 8.57825C88.5633 8.42261 88.3162 8.31641 88.2011 8.34259C88.0864 8.36853 87.8275 8.32252 87.626 8.23981C87.4245 8.15734 86.6073 7.97479 85.8102 7.83408C85.013 7.69313 83.8908 7.35004 83.3164 7.07132C82.7418 6.79259 81.8609 6.51362 81.3585 6.45122C80.2663 6.31541 79.9887 6.12429 80.808 6.07265C81.3324 6.03937 79.9112 5.81644 77.341 5.52891C75.6469 5.33925 74.4397 5.08695 74.3234 4.89828C74.2589 4.79379 73.7456 4.70839 73.1831 4.70839C72.4742 4.70839 72.0597 4.57111 71.8336 4.26106C71.6541 4.01512 71.5073 3.8957 71.5073 3.99554C71.5073 4.09539 71.1502 3.9072 70.7136 3.57733C70.2769 3.24771 69.4206 2.74507 68.8106 2.46071C67.7607 1.97129 66.6976 0.732809 67.0363 0.393395C67.1223 0.307257 67.0737 0.23678 66.9281 0.23678C66.7826 0.23678 66.6262 0.349102 66.5806 0.48614C66.5259 0.650341 65.973 0.663801 64.9631 0.525295C64.0582 0.401471 63.3722 0.406121 63.2916 0.537042ZM77.3686 1.9642C77.3686 2.10662 77.4785 2.15532 77.6129 2.07211C77.7472 1.98891 77.8571 1.87243 77.8571 1.81296C77.8571 1.7535 77.7472 1.70505 77.6129 1.70505C77.4785 1.70505 77.3686 1.82178 77.3686 1.9642ZM75.4148 3.66274C75.4148 3.79733 75.5313 3.90745 75.6735 3.90745C75.8156 3.90745 75.8642 3.79733 75.7812 3.66274C75.6981 3.52814 75.5819 3.41802 75.5226 3.41802C75.4632 3.41802 75.4148 3.52814 75.4148 3.66274ZM65.7698 3.90475C65.6843 4.04326 65.7822 4.08437 65.9996 4.00093C66.4226 3.83819 66.5 3.66274 66.1488 3.66274C66.0223 3.66274 65.8518 3.77163 65.7698 3.90475ZM82.8636 6.35456C82.9467 6.48915 83.0629 6.59927 83.1223 6.59927C83.1816 6.59927 83.23 6.48915 83.23 6.35456C83.23 6.21997 83.1135 6.10985 82.9713 6.10985C82.8292 6.10985 82.7806 6.21997 82.8636 6.35456ZM103.452 12.0319C103.679 12.2602 103.81 12.2602 104.038 12.0319C104.266 11.8035 104.201 11.7382 103.745 11.7382C103.289 11.7382 103.224 11.8035 103.452 12.0319ZM102.768 12.717C102.768 13.1739 102.833 13.239 103.061 13.0107C103.289 12.7824 103.289 12.6517 103.061 12.4234C102.833 12.1951 102.768 12.2602 102.768 12.717ZM104.363 12.4603C104.152 12.8022 104.42 13.2065 104.858 13.2065C105.307 13.2065 105.31 12.8602 104.865 12.4904C104.63 12.2944 104.471 12.2851 104.363 12.4603ZM103.378 13.4512C103.295 13.5858 103.46 13.6959 103.745 13.6959C104.029 13.6959 104.194 13.5858 104.111 13.4512C104.028 13.3166 103.863 13.2065 103.745 13.2065C103.626 13.2065 103.461 13.3166 103.378 13.4512ZM106.187 13.6773C106.187 13.7933 106.352 13.9516 106.553 14.0292C106.755 14.1065 106.92 14.075 106.92 13.9592C106.92 13.8432 106.755 13.6849 106.553 13.6073C106.352 13.53 106.187 13.5615 106.187 13.6773ZM106.187 15.6391C106.187 15.7659 106.297 15.9374 106.431 16.0206C106.565 16.1039 106.675 16.0001 106.675 15.7904C106.675 15.5807 106.565 15.4089 106.431 15.4089C106.297 15.4089 106.187 15.5124 106.187 15.6391ZM107.286 15.8983C107.369 16.0329 107.54 16.143 107.667 16.143C107.793 16.143 107.896 16.0329 107.896 15.8983C107.896 15.7637 107.725 15.6536 107.516 15.6536C107.306 15.6536 107.203 15.7637 107.286 15.8983ZM113.453 16.6053C114.023 16.8762 114.492 17.241 114.494 17.4157C114.497 17.6563 114.551 17.6497 114.716 17.3881C115.029 16.8938 114.496 16.4526 113.366 16.2678L112.415 16.1124L113.453 16.6053ZM124.436 18.1188C124.734 18.4303 125.04 18.6236 125.115 18.5485C125.19 18.4731 124.946 18.2184 124.572 17.982L123.893 17.5523L124.436 18.1188ZM118.217 19.4429C118.026 19.6602 118.004 19.843 118.156 19.9375C118.289 20.02 118.398 19.9705 118.398 19.8281C118.398 19.6857 118.57 19.569 118.779 19.569C118.988 19.569 119.092 19.4588 119.009 19.3242C118.806 18.9956 118.581 19.0294 118.217 19.4429ZM116.104 20.7925C116.45 20.7925 116.978 21.3992 116.794 21.5846C116.719 21.659 116.374 21.4562 116.027 21.1339C115.68 20.8116 115.22 20.5468 115.004 20.5458C114.789 20.5449 114.486 20.2703 114.331 19.936C114.057 19.3426 114.071 19.3455 114.936 20.0603C115.424 20.4629 115.949 20.7925 116.104 20.7925ZM110.583 20.433C110.583 20.6308 110.748 20.7925 110.949 20.7925C111.151 20.7925 111.316 20.6941 111.316 20.574C111.316 20.4538 111.151 20.2921 110.949 20.2145C110.726 20.1289 110.583 20.2143 110.583 20.433ZM111.716 21.1596C111.793 21.3615 111.966 21.5266 112.101 21.5266C112.235 21.5266 112.288 21.6742 112.219 21.8548C111.999 22.4287 112.386 22.6352 113.391 22.4805C113.929 22.3978 114.231 22.3146 114.063 22.2955C113.895 22.2764 113.758 22.0956 113.758 21.8937C113.758 21.6654 113.527 21.5266 113.147 21.5266C112.767 21.5266 112.537 21.3879 112.537 21.1596C112.537 20.9577 112.321 20.7925 112.056 20.7925C111.729 20.7925 111.62 20.91 111.716 21.1596ZM124.015 21.5266C124.217 21.6571 124.546 21.7638 124.748 21.7638C125.073 21.7638 125.073 21.7376 124.748 21.5266C124.546 21.3962 124.217 21.2895 124.015 21.2895C123.69 21.2895 123.69 21.3157 124.015 21.5266ZM120.352 21.7513C120.352 21.8749 120.419 22.1502 120.5 22.3631C120.74 22.9905 119.727 22.8356 119.031 22.1384L118.42 21.5266H119.386C119.917 21.5266 120.352 21.6277 120.352 21.7513ZM117.864 23.6515C118.04 23.7222 118.251 23.7134 118.332 23.6321C118.413 23.5509 118.269 23.4931 118.011 23.5037C117.727 23.5154 117.669 23.5734 117.864 23.6515ZM122.306 23.7291C122.306 23.8636 122.147 23.9738 121.954 23.9738C121.76 23.9738 121.534 23.8636 121.451 23.7291C121.368 23.5945 121.526 23.4843 121.803 23.4843C122.079 23.4843 122.306 23.5945 122.306 23.7291ZM115.561 24.3536C116.205 24.4133 116.675 24.7923 116.685 25.2585C116.687 25.3593 116.579 25.442 116.444 25.442C116.31 25.442 116.2 25.3319 116.2 25.1973C116.2 25.0627 115.863 24.9526 115.45 24.9526C115.037 24.9526 114.543 24.7953 114.351 24.6029C113.874 24.1252 113.912 23.883 114.429 24.1047C114.664 24.2055 115.174 24.3176 115.561 24.3536ZM118.025 25.676C118.105 25.8047 118.32 25.8524 118.503 25.7817C118.687 25.7112 118.91 25.7709 118.998 25.9148C119.178 26.2055 118.801 26.2449 117.971 26.022C117.669 25.9407 117.421 25.777 117.421 25.6581C117.421 25.3693 117.844 25.3818 118.025 25.676ZM120.352 26.4209C120.352 26.5555 120.731 26.6656 121.194 26.6656C121.658 26.6656 122.125 26.8146 122.232 26.9967C122.34 27.179 122.593 27.3904 122.794 27.4668C123.037 27.559 122.974 27.6124 122.607 27.6251C122.303 27.6356 121.864 27.5424 121.631 27.4176C121.397 27.2928 121.042 27.1232 120.84 27.041C120.639 26.9585 120.199 26.7319 119.863 26.5374C119.261 26.1882 119.26 26.1833 119.802 26.1798C120.104 26.1779 120.352 26.2863 120.352 26.4209ZM131.83 26.5288C131.83 26.7385 131.94 26.9103 132.075 26.9103C132.209 26.9103 132.319 26.8068 132.319 26.68C132.319 26.5533 132.209 26.3817 132.075 26.2985C131.94 26.2153 131.83 26.3191 131.83 26.5288ZM127.679 29.6021C127.679 29.7367 127.63 29.8468 127.571 29.8468C127.511 29.8468 127.395 29.7367 127.312 29.6021C127.229 29.4675 127.278 29.3574 127.42 29.3574C127.562 29.3574 127.679 29.4675 127.679 29.6021ZM69.1872 30.0915C69.1041 30.2261 69.1527 30.3363 69.2949 30.3363C69.437 30.3363 69.5535 30.2261 69.5535 30.0915C69.5535 29.9569 69.5051 29.8468 69.4458 29.8468C69.3865 29.8468 69.2702 29.9569 69.1872 30.0915ZM129.388 29.9547C129.388 30.2129 128.919 30.3216 128.78 30.0955C128.696 29.9587 128.798 29.8468 129.007 29.8468C129.217 29.8468 129.388 29.8953 129.388 29.9547ZM69.7977 32.4163C69.7977 32.6422 69.5865 32.7724 69.2482 32.755C68.8348 32.7337 68.8045 32.6989 69.1261 32.6148C69.3611 32.5531 69.5535 32.4006 69.5535 32.2761C69.5535 32.1513 69.6085 32.0492 69.6756 32.0492C69.7428 32.0492 69.7977 32.2144 69.7977 32.4163ZM71.9957 32.3923C71.9957 32.4464 71.666 32.6059 71.2631 32.7467C70.8601 32.8874 70.5304 32.906 70.5304 32.7878C70.5304 32.6028 70.7692 32.5171 71.8126 32.3272C71.9134 32.3089 71.9957 32.3382 71.9957 32.3923ZM67.4617 33.5432C67.2913 33.8195 66.6228 33.8315 66.6228 33.5584C66.6228 33.2138 66.8978 33.0552 67.2559 33.193C67.4434 33.265 67.5362 33.4226 67.4617 33.5432ZM131.811 34.6799C131.694 35.1847 131.595 36.1114 131.592 36.7396C131.589 37.3675 131.493 37.9181 131.38 37.9632C131.266 38.0079 131.097 38.3567 131.004 38.7382C130.908 39.1285 130.929 39.3725 131.052 39.2966C131.285 39.1525 130.929 40.9734 130.603 41.593C130.497 41.7949 130.263 41.905 130.082 41.8377C129.902 41.7704 128.92 41.7229 127.901 41.7322C126.259 41.7471 125.933 41.8306 125.037 42.4663C124.283 43.001 124.024 43.3515 124.02 43.8436C124.013 44.7402 122.979 46.6242 121.939 47.6366C121.469 48.0942 121.085 48.5734 121.085 48.7013C121.085 48.8296 120.865 48.9343 120.596 48.9343C120.327 48.9343 120.108 49.0373 120.108 49.1631C120.108 49.2891 119.727 49.5299 119.261 49.6988C118.796 49.8674 118.359 50.1522 118.29 50.3318C118.189 50.5959 118.269 50.6027 118.707 50.3681C119.537 49.9227 120.352 49.8985 120.352 50.3191C120.352 50.5188 120.517 50.8475 120.718 51.0493C120.92 51.2512 121.085 51.5187 121.085 51.6435C121.085 51.9836 120.409 51.9176 120.281 51.5649C120.194 51.3244 120.072 51.3222 119.712 51.5544C118.2 52.5274 116.597 53.0853 115.718 52.9446C115.191 52.8602 114.572 52.9199 114.265 53.0846C113.758 53.3565 111.606 53.8371 106.92 54.7256C105.778 54.9422 104.679 55.2527 104.477 55.4155C104.276 55.5784 103.894 55.7896 103.629 55.8846C103.226 56.0292 103.206 56.0943 103.507 56.2849C103.705 56.4102 104.059 56.5145 104.294 56.5167C104.906 56.5221 104.822 56.9258 104.172 57.1003C103.363 57.3176 101.475 57.2789 101.094 57.0374C100.909 56.9195 100.375 56.9288 99.8733 57.0585C99.3834 57.1852 98.3779 57.4353 97.6391 57.6137C96.9003 57.7923 96.4058 57.9575 96.5401 57.9808C97.2454 58.1029 95.5923 58.4462 94.22 58.4626C92.3673 58.4849 90.0113 58.8341 88.1144 59.3673C84.7341 60.318 83.2967 60.7974 82.5994 61.2066C82.1854 61.4496 81.1414 61.8274 80.2793 62.0462C79.4172 62.2649 78.547 62.5838 78.3455 62.7546C78.144 62.9254 77.4018 63.2005 76.6963 63.3656C75.9907 63.5311 75.3592 63.7542 75.2927 63.8617C75.2263 63.9691 74.6307 64.1874 73.9688 64.3464C73.3018 64.5067 72.6991 64.8092 72.6165 65.0245C72.4082 65.5681 73.5207 67.7156 74.5928 68.8406C75.3074 69.5904 75.4202 69.8268 75.1472 70.003C74.8558 70.1909 74.8592 70.2604 75.1706 70.4652C75.3721 70.5976 75.4163 70.7077 75.2691 70.7099C75.1218 70.7119 74.7476 70.4934 74.438 70.2242C74.1283 69.955 73.7979 69.7347 73.7036 69.7347C73.6093 69.7347 73.2142 69.4563 72.8251 69.1161C72.4361 68.7757 71.953 68.3729 71.7515 68.221C71.55 68.069 70.9324 67.5125 70.379 66.9847L69.373 66.0249L67.8935 66.7733C67.0795 67.1849 66.2685 67.7166 66.0909 67.9552C65.9134 68.1938 65.6032 68.4251 65.4017 68.4693C65.2002 68.5136 64.862 68.7062 64.6498 68.8976C64.4378 69.0887 64.175 69.2453 64.0661 69.2453C63.6946 69.2453 61.7384 70.3101 61.7384 70.5122C61.7384 70.623 61.6341 70.7136 61.5064 70.7136C61.2194 70.7136 59.1318 72.0796 58.3605 72.7721C58.0477 73.053 57.7729 73.2285 57.75 73.1617C57.7273 73.0949 57.2967 73.2838 56.7929 73.5816C56.0226 74.037 55.877 74.2541 55.877 74.9476C55.877 75.5691 55.5808 76.1423 54.6747 77.2736C54.0134 78.0992 53.4016 78.9983 53.3149 79.2714C53.2284 79.5445 53.0553 79.7679 52.93 79.7679C52.8047 79.7679 52.7021 79.9245 52.7021 80.1161C52.7021 80.3077 52.443 80.7759 52.1265 81.1561C51.8097 81.5367 51.3213 82.3709 51.0412 83.0103C50.7608 83.6498 50.424 84.1727 50.2926 84.1727C50.1612 84.1727 49.9229 84.5858 49.7634 85.0904C49.3543 86.3844 48.5015 88.0881 48.2629 88.0881C48.1523 88.0881 48.0619 88.2922 48.0619 88.5418C48.0619 88.7914 47.7872 89.2925 47.4513 89.6555C47.1155 90.0186 46.8408 90.3991 46.8408 90.5014C46.8408 90.6035 46.5021 91.0342 46.0881 91.4585C45.6741 91.8828 45.4057 92.3441 45.4919 92.4838C45.5782 92.6233 45.477 92.7376 45.2677 92.7376C45.0477 92.7376 44.887 92.9478 44.887 93.2356C44.887 93.5097 44.7163 93.9947 44.5077 94.3135C44.2926 94.6427 44.0867 95.6227 44.0317 96.5805C43.9765 97.5415 43.716 98.779 43.4266 99.4556C43.1472 100.109 42.806 101.147 42.6682 101.762C42.5307 102.377 42.3366 102.939 42.2369 103.009C42.0484 103.143 41.2171 108.106 41.2212 109.072C41.2227 109.375 41.3116 109.623 41.4188 109.623C41.5263 109.623 41.5739 109.98 41.525 110.418C41.4752 110.862 41.5912 111.423 41.7873 111.687C42.1307 112.151 42.1427 112.149 42.3139 111.608C42.4238 111.261 42.6199 111.106 42.8409 111.191C43.1811 111.322 43.8268 110.192 43.5633 109.928C43.4292 109.793 46.2141 105.577 46.5907 105.344C46.7282 105.259 46.8408 105.306 46.8408 105.448C46.8408 105.591 46.9507 105.707 47.085 105.707C47.2193 105.707 47.3016 105.616 47.2682 105.504C47.2154 105.328 48.9448 102.745 49.6494 101.946C49.7837 101.794 50.2013 101.257 50.5776 100.752C51.3513 99.7141 51.6312 99.6184 51.831 100.324C51.9072 100.593 52.0317 101.033 52.1079 101.302C52.2127 101.672 52.1299 101.792 51.7687 101.792C51.502 101.792 51.3062 101.946 51.325 102.141C51.3631 102.533 48.1596 105.968 47.9513 105.759C47.8778 105.686 47.8177 105.798 47.8177 106.007C47.8177 106.217 47.6541 106.452 47.4538 106.529C47.2538 106.606 46.6862 107.306 46.1926 108.085C45.699 108.863 45.1894 109.571 45.0599 109.656C44.9305 109.742 44.9012 109.937 44.9952 110.09C45.0892 110.242 45.0355 110.763 44.8758 111.247C44.6633 111.892 44.5287 112.038 44.3737 111.793C44.2193 111.549 44.1607 111.541 44.158 111.764C44.1561 111.932 44.1797 112.097 44.211 112.131C44.242 112.165 44.1011 112.43 43.8974 112.722C43.6053 113.14 43.5614 113.655 43.6886 115.169C43.7775 116.224 43.8022 117.169 43.7436 117.27C43.6849 117.371 43.744 117.453 43.8745 117.453C44.0051 117.453 44.3402 118.161 44.6191 119.026C44.8982 119.892 45.4145 121.131 45.7665 121.779C46.1184 122.428 46.9336 123.966 47.5779 125.197C48.6903 127.322 49.484 128.685 49.7658 128.955C50.1175 129.292 50.7843 130.901 50.6575 131.107C50.4966 131.367 51.1269 132.773 51.5115 133.011C51.7687 133.171 52.1924 134.14 52.3517 134.932C52.4039 135.192 52.5661 135.478 52.7124 135.568C52.8587 135.659 53.1329 136.031 53.3217 136.396C53.6434 137.017 53.6346 137.049 53.1835 136.906C52.5957 136.719 52.5671 136.965 53.1078 137.563C53.7757 138.303 53.2658 138.373 52.266 137.679C51.3062 137.012 50.1202 136.744 50.6995 137.324C51.057 137.682 51.0873 138.499 50.7432 138.499C50.606 138.499 50.374 138.236 50.2277 137.914C49.9253 137.249 48.894 136.671 48.6668 137.04C48.4297 137.424 47.8145 137.308 47.6438 136.847C47.4694 136.376 46.6352 135.562 46.3267 135.562C46.2195 135.562 45.7765 135.039 45.3422 134.4C44.908 133.76 44.4731 133.182 44.3756 133.114C44.2782 133.046 43.6984 131.998 43.0873 130.784C42.4763 129.57 41.642 128.255 41.2337 127.863C40.8251 127.471 40.491 127.027 40.491 126.875C40.491 126.36 39.0645 125.529 38.1807 125.529C37.2985 125.529 37.0531 125.156 37.5845 124.624C37.8778 124.33 37.4641 124.21 35.1794 123.928C34.4743 123.841 33.8359 123.67 33.7607 123.548C33.6855 123.426 33.3394 123.326 32.9919 123.326C31.9395 123.326 29.7672 121.375 26.7254 117.698C24.7687 115.333 22.9292 113.448 20.8921 111.721C20.1199 111.066 19.4878 110.435 19.4878 110.318C19.4878 109.83 17.8765 107.698 17.5824 107.797C17.4075 107.856 17.3348 107.79 17.4205 107.651C17.6017 107.357 15.749 104.189 14.8486 103.252C14.5123 102.902 13.966 102.255 13.6343 101.815C13.0032 100.977 12.1888 100.009 11.5008 99.2812C11.2065 98.9696 11.0446 98.9305 10.9156 99.1397C10.804 99.3206 10.5923 99.081 10.3502 98.5003C10.1373 97.9898 9.96315 97.4845 9.96315 97.3776C9.96315 97.2706 9.8469 97.1444 9.705 97.0969C9.37091 96.9853 8.45336 94.94 8.73764 94.94C8.85633 94.94 9.02558 95.1683 9.11399 95.447C9.21045 95.752 9.41194 95.9015 9.61879 95.8219C9.80831 95.749 9.96315 95.7962 9.96315 95.9264C9.96315 96.0569 10.1681 96.1635 10.4186 96.1635C11.0849 96.1635 13.1962 97.9739 14.5304 99.6891C15.1683 100.509 15.8028 101.298 15.9405 101.443C16.0782 101.588 16.4656 102.064 16.8014 102.502C17.1372 102.941 17.8515 103.801 18.3888 104.415C18.9261 105.029 19.5218 105.764 19.7125 106.048C20.0315 106.522 22.2903 109.2 23.1512 110.124C23.636 110.645 24.3481 111.519 25.1387 112.564C25.493 113.032 26.0699 113.746 26.4206 114.15C26.7713 114.554 27.0583 114.966 27.0585 115.067C27.0585 115.169 27.2236 115.251 27.4251 115.251C27.6266 115.251 27.7931 115.113 27.7951 114.945C27.7975 114.754 27.8659 114.731 27.9782 114.886C28.0769 115.022 28.6523 115.453 29.2567 115.843C29.8612 116.234 30.6855 116.944 31.0884 117.422C31.4914 117.899 32.1943 118.625 32.6502 119.034C33.1062 119.443 33.8198 120.136 34.236 120.573C34.9322 121.305 35.1147 121.369 36.5207 121.369C37.7672 121.369 38.0488 121.296 38.0488 120.972C38.0488 120.754 37.491 119.405 36.8093 117.974C34.5224 113.175 34.3854 112.878 34.3854 112.725C34.3854 112.642 34.0958 111.937 33.7417 111.159C33.3875 110.381 33.0761 109.551 33.0495 109.315C33.0232 109.078 32.7909 108.638 32.5335 108.336C31.9229 107.62 31.4548 106.772 31.4548 106.381C31.4548 106.21 31.2308 105.929 30.9568 105.758C30.683 105.587 30.5218 105.345 30.5988 105.22C30.6757 105.095 30.3951 104.664 29.9752 104.262C29.5545 103.859 29.2878 103.408 29.3808 103.257C29.4785 103.099 29.3454 102.929 29.0663 102.856C28.8001 102.786 28.3768 102.303 28.1258 101.781C27.8569 101.223 27.4685 100.804 27.1809 100.762C26.87 100.717 26.7185 100.535 26.7642 100.262C26.8055 100.016 26.6834 99.8342 26.4753 99.8342C26.277 99.8342 26.045 99.6142 25.96 99.3453C25.8748 99.0766 25.5377 98.7893 25.2107 98.7071C24.8839 98.6248 24.6165 98.4685 24.6165 98.3593C24.6165 98.1717 24.0919 97.5371 21.7987 94.951C20.4909 93.4759 19.4878 92.0974 19.4878 91.7751C19.4878 91.6315 19.387 91.514 19.2636 91.514C19.1401 91.514 18.7869 91.1051 18.4787 90.6052C18.1705 90.1055 17.7495 89.5165 17.5428 89.2962C15.8001 87.4376 15.3299 86.8344 14.9919 86.0232C14.5089 84.865 14.505 84.9068 15.0918 84.9068C15.6328 84.9068 15.7046 84.6181 15.3353 83.9268C14.9292 83.166 15.5126 83.1058 15.9923 83.859C16.2309 84.2334 16.883 85.0353 17.4415 85.641C18 86.2466 18.7691 87.1276 19.1508 87.5987C19.5323 88.0697 20.0134 88.6203 20.22 88.8222C20.4266 89.0241 21.0821 89.7949 21.6766 90.5352C23.0369 92.2293 27.2238 96.4083 27.5606 96.4083C27.6993 96.4083 27.7804 96.2196 27.7411 95.9888C27.6984 95.7395 27.8539 95.5317 28.1248 95.4762C28.4217 95.4152 28.5424 95.4965 28.4716 95.7099C28.4117 95.8897 28.5089 96.1834 28.6877 96.3623C28.8662 96.5414 29.0142 96.9278 29.0162 97.2209C29.0218 98.0486 29.5908 98.9775 30.0935 98.979C30.4217 98.9799 30.8911 99.6521 31.7881 101.406L33.0285 103.833L33.2129 102.943C33.3499 102.283 33.2383 101.531 32.7802 100.026C32.4407 98.9112 31.7217 96.292 31.1827 94.2059C30.6437 92.1197 30.0446 90.1689 29.8517 89.8708C29.6587 89.5727 29.501 89.2137 29.501 89.0728C29.501 88.9321 29.2946 88.3502 29.0423 87.7795C26.3603 81.7126 25.116 79.1358 24.1689 77.6879C22.9226 75.782 20.9419 73.3075 20.136 72.6488C19.6117 72.2203 19.6114 72.2161 20.0757 71.344C20.462 70.6186 20.676 70.4689 21.3268 70.4689C21.7589 70.4689 22.6102 70.6896 23.2191 70.9595C23.8396 71.2346 24.5144 71.3777 24.7547 71.2852C25.1074 71.1497 25.1575 71.2201 25.0368 71.6826C24.8783 72.29 26.351 75.5011 26.6504 75.2011C26.7408 75.1108 26.8145 75.1446 26.8145 75.2762C26.8145 75.4079 27.0285 75.7456 27.29 76.027C27.5516 76.3082 27.9409 77.2161 28.1551 78.0444C28.6875 80.1036 29.7506 82.9998 30.123 83.4055C30.3716 83.6767 30.4647 83.3311 30.6171 81.5702C30.8965 78.3437 30.8642 75.3577 30.548 75.162C30.229 74.9642 29.836 69.4472 30.1093 69.004C30.3587 68.6 31.1925 71.0704 31.2025 72.243C31.2069 72.7479 31.3116 73.1607 31.4355 73.1607C31.7017 73.1607 31.8558 72.4236 32.0756 70.1018C32.1647 69.1597 32.3496 68.1686 32.4866 67.8994C32.8498 67.1851 34.1949 66.0653 34.6907 66.0646C35.325 66.0638 35.2082 66.5312 34.5075 66.7982C34.1717 66.9262 33.897 67.1988 33.897 67.4039C33.897 67.7861 34.2799 67.9234 34.4262 67.5935C34.4709 67.4925 34.9271 67.0958 35.44 66.7121C35.9641 66.3196 36.3182 65.8727 36.2488 65.6916C36.1582 65.4547 36.3519 65.3906 36.9815 65.4494C37.5916 65.5061 37.8803 65.4171 37.9867 65.1388C38.069 64.9242 38.5199 64.4113 38.9885 63.9992C39.4574 63.5871 40.1877 62.9195 40.6114 62.5158C41.0351 62.112 42.0057 61.1973 42.7681 60.4829C43.5306 59.7689 44.1543 59.1069 44.1543 59.0125C44.1543 58.9178 44.5365 58.5111 45.0037 58.1085C45.4712 57.7062 45.8558 57.2393 45.8585 57.0709C45.8615 56.9028 45.9462 56.7633 46.0471 56.7614C46.6791 56.7484 46.8459 56.3415 46.4959 55.6656C46.1396 54.9772 46.1504 54.9571 47.6909 53.4208C48.5459 52.5683 49.4188 51.8708 49.6305 51.8708C49.8423 51.8708 50.2186 51.678 50.4665 51.4426C50.9081 51.0232 52.0952 50.3172 54.0454 49.3143C54.5827 49.0381 55.0589 48.7295 55.1036 48.6284C55.1485 48.5273 55.3209 48.4449 55.487 48.4449C55.6533 48.4449 56.2211 48.0756 56.7489 47.6244C57.2769 47.1731 58.0934 46.6086 58.5635 46.3697C59.0336 46.1309 59.6344 45.7085 59.8984 45.4308C60.3756 44.9289 60.3756 44.9272 59.8984 45.1119C59.6344 45.2142 59.1159 45.3591 58.7466 45.4337C58.3774 45.5083 58.075 45.6659 58.075 45.7836C58.075 45.9013 57.8631 45.9978 57.6039 45.9978C57.3451 45.9978 56.9628 46.1683 56.7548 46.3768C56.5467 46.5853 56.2365 46.7385 56.0656 46.7175C55.6174 46.6617 54.6559 47.0018 54.6559 47.2157C54.6559 47.316 54.134 47.4604 53.4959 47.537C52.8577 47.6133 52.116 47.7418 51.8474 47.8223C51.5787 47.9028 51.8239 47.7509 52.3925 47.4846C52.9608 47.2184 53.8126 46.9277 54.2852 46.8388C54.7578 46.75 55.1444 46.5794 55.1444 46.46C55.1444 46.3404 55.3302 46.2425 55.5573 46.2425C55.9168 46.2425 55.909 46.197 55.4963 45.8913C55.0459 45.5578 55.0713 45.5201 55.9991 45.1386C57.7067 44.4368 59.155 43.7711 59.7846 43.3989C61.6204 42.3139 64.7301 41.3754 65.4782 41.6808C65.6376 41.7459 65.4657 41.8078 65.0964 41.8183C64.7272 41.8289 64.4248 41.9439 64.4248 42.0738C64.4248 42.494 65.3411 42.8165 66.5457 42.8202C67.3875 42.8229 67.6178 42.8904 67.3555 43.058C67.1049 43.2181 67.2979 43.2467 67.9661 43.1488L68.9429 43.0054L68.2713 43.6551C67.9021 44.0124 67.5997 44.4103 67.5997 44.5393C67.5997 44.6685 67.4349 44.7742 67.2334 44.7742C66.7154 44.7742 66.7752 45.2619 67.2944 45.2715C67.6757 45.2783 67.6691 45.3192 67.2334 45.6493C66.9647 45.8529 66.5242 45.9642 66.2545 45.8965C65.9847 45.8289 65.6 45.8774 65.3998 46.0041C65.1993 46.1311 65.1314 46.2366 65.2483 46.2388C65.5991 46.2449 64.8813 46.9766 64.5247 46.9766C64.3328 46.9766 64.2544 46.8239 64.3364 46.6095C64.5296 46.1054 63.784 46.1487 62.748 46.702L61.9257 47.1411L62.5976 47.6706C62.9673 47.9618 63.3866 48.2002 63.5297 48.2002C63.6953 48.2002 63.6836 48.3066 63.4968 48.4938C63.3356 48.6553 63.2037 48.9818 63.2037 49.2194C63.2037 49.4568 62.9839 49.769 62.7153 49.9131C62.4466 50.0573 62.2268 50.2893 62.2268 50.4287C62.2268 50.8262 61.7286 51.2042 60.1964 51.9699C58.6934 52.7207 58.6939 53.0834 60.1976 53.0907C61.142 53.0951 61.3291 53.3435 61.0135 54.175C60.6987 55.0048 61.1102 55.0105 62.7104 54.198C63.3876 53.8542 63.9728 53.6895 64.0534 53.8202C64.3025 54.224 62.3787 56.2756 61.7511 56.2756C61.5401 56.2756 61.2372 56.4844 61.0782 56.7396C60.9193 56.9946 60.2884 57.3949 59.6764 57.6291C59.0644 57.8636 58.5635 58.2054 58.5635 58.389C58.5635 58.5725 58.4062 58.7227 58.2142 58.7227C58.022 58.7227 57.8296 58.9677 57.7869 59.2672C57.7439 59.5668 57.4596 59.9358 57.1548 60.0873C56.8503 60.2387 56.2001 60.7646 55.71 61.2558C55.2198 61.7469 54.6098 62.1487 54.3545 62.1487C54.0019 62.1487 53.9274 62.2659 54.0449 62.6367C54.1557 62.9868 54.1057 63.0884 53.8671 62.9966C53.6844 62.9264 53.2934 63.1474 52.9981 63.4878C52.7026 63.8279 52.2406 64.1064 51.9712 64.1064C51.7016 64.1064 51.481 64.2314 51.481 64.3841C51.481 64.5371 51.2073 64.9161 50.8729 65.2269C50.5061 65.5673 50.3224 65.9429 50.4106 66.1725C50.4966 66.3976 50.4257 66.5535 50.2372 66.5535C50.0115 66.5535 49.9942 66.6298 50.1778 66.8139C50.3547 66.991 50.7017 66.9981 51.2646 66.8359C51.7194 66.705 51.9267 66.5834 51.7252 66.566C51.2358 66.5236 52.875 65.8194 53.4629 65.8194C54.1059 65.8194 54.0395 65.1809 53.3737 64.9604C52.8411 64.784 52.8399 64.7752 53.3276 64.6761C53.6043 64.6198 54.0226 64.2486 54.2571 63.8507C54.4918 63.453 54.8423 63.1275 55.0362 63.1275C55.2298 63.1275 55.3886 63.0174 55.3886 62.8828C55.3886 62.7482 55.6084 62.6381 55.877 62.6381C56.1484 62.6381 56.3655 62.4749 56.3655 62.2711C56.3655 62.0692 56.4786 61.904 56.6168 61.904C56.9284 61.904 60.0789 59.4904 60.3463 59.0467C60.4538 58.8686 60.7009 58.7227 60.8958 58.7227C61.0905 58.7227 61.2499 58.617 61.2499 58.4876C61.2499 58.3584 61.7994 57.8922 62.471 57.4515C63.1427 57.011 63.6922 56.5661 63.6922 56.4631C63.6922 56.3601 63.912 56.2756 64.1806 56.2756C64.4492 56.2756 64.669 56.3858 64.669 56.5203C64.669 56.8407 66.0604 56.8385 66.2582 56.5177C66.3547 56.3613 66.604 56.4061 66.9374 56.64C67.227 56.8434 67.9343 57.0098 68.509 57.0098C69.4126 57.0098 69.5535 56.9393 69.5535 56.4876C69.5535 56.2003 69.6563 55.5672 69.7821 55.0805C70.6672 51.6548 71.0183 50.1243 71.1646 49.0567L71.3322 47.8331L71.5488 48.6284C71.7957 49.5348 72.2248 49.701 72.1801 48.8731C72.1176 47.7139 72.2519 47.0243 72.5636 46.9047C72.831 46.8016 72.8337 47.0623 72.5797 48.4079C72.4107 49.3031 72.1945 51.5498 72.0998 53.4003C71.9444 56.4264 71.9674 56.7651 72.3279 56.7651C72.6273 56.7651 72.7362 57.0122 72.7589 57.7439C72.7758 58.2823 72.8171 58.8329 72.8505 58.9675C72.884 59.102 72.9252 59.3223 72.9421 59.4569C72.999 59.9138 73.5795 59.7006 75.2927 58.5938C76.233 57.9862 77.6067 57.2682 78.3455 56.9985C79.0843 56.7286 79.9085 56.4063 80.1772 56.2822C80.7731 56.0069 82.4985 55.7933 84.9395 55.6925C88.4962 55.5457 92.7705 55.0518 93.6419 54.6872C94.1826 54.4609 95.2917 54.3179 96.5089 54.3179C97.6008 54.3179 99.2634 54.1547 100.203 53.955C101.144 53.7556 102.517 53.5887 103.256 53.5845C103.995 53.5801 105.314 53.4064 106.187 53.1984C107.06 52.9904 108.323 52.7146 108.993 52.5854C111.43 52.1158 115.543 50.3177 117.446 48.889C118.041 48.4429 119.252 47.7134 120.139 47.2683C121.855 46.4057 122.464 45.6554 122.347 44.5442C122.308 44.1661 122.442 43.742 122.658 43.5624C122.867 43.3884 123.038 43.0943 123.038 42.909C123.038 42.7235 123.203 42.5718 123.405 42.5718C123.606 42.5718 123.771 42.4066 123.771 42.2047C123.771 42.0029 123.674 41.8377 123.557 41.8377C123.439 41.8377 123.206 42.0029 123.038 42.2047C122.468 42.8934 122.289 42.5743 122.833 41.8377C123.359 41.1246 124.015 40.853 124.015 41.3483C124.015 41.4828 124.139 41.593 124.289 41.593C124.491 41.593 124.491 41.5061 124.291 41.2646C123.98 40.8879 124.164 40.6141 124.731 40.6141C124.945 40.6141 125.23 40.3665 125.364 40.0635C125.498 39.7606 125.798 39.5281 126.03 39.5464C126.262 39.5648 126.4 39.4948 126.335 39.3906C126.144 39.0798 126.878 38.6146 127.482 38.6643C128.495 38.7477 128.859 38.6623 129.276 38.2438C129.663 37.857 129.655 37.8193 129.156 37.6343C128.84 37.5171 128.695 37.3225 128.798 37.1546C128.922 36.9547 128.783 36.9197 128.325 37.0347C127.943 37.1311 127.679 37.0957 127.679 36.9481C127.679 36.7969 126.797 36.6987 125.44 36.6987C124.209 36.6987 123.273 36.6263 123.362 36.5375C123.451 36.4489 124.093 36.3965 124.789 36.4212C125.513 36.4469 126.128 36.3478 126.225 36.19C126.347 35.9932 126.533 35.9876 126.874 36.1707C127.523 36.5189 130.121 36.2426 130.121 35.8251C130.121 35.6514 129.928 35.4632 129.693 35.4067C129.397 35.3357 129.425 35.311 129.785 35.3259C130.075 35.3382 130.629 34.9987 131.043 34.5551C131.45 34.119 131.836 33.7622 131.903 33.7622C131.969 33.7622 131.928 34.1753 131.811 34.6799ZM12.2833 37.9223C12.2002 38.0569 12.2488 38.167 12.391 38.167C12.5331 38.167 12.6496 38.0569 12.6496 37.9223C12.6496 37.7877 12.6012 37.6776 12.5419 37.6776C12.4826 37.6776 12.3663 37.7877 12.2833 37.9223ZM130.384 38.065C130.396 38.3501 130.454 38.408 130.532 38.213C130.602 38.0363 130.594 37.8251 130.512 37.7439C130.431 37.6627 130.374 37.807 130.384 38.065ZM84.5732 38.7157C83.9551 39.0812 83.4742 39.1618 83.4742 38.8999C83.4742 38.6469 83.9338 38.4541 84.5732 38.4384L85.0616 38.4266L84.5732 38.7157ZM11.4427 39.5438C10.8726 40.5116 10.8851 40.7788 11.4781 40.3058C11.8224 40.031 12.314 38.6564 12.0679 38.6564C12.0114 38.6564 11.7301 39.0558 11.4427 39.5438ZM81.697 39.6815C80.0597 40.1404 79.2572 40.2223 78.9927 39.9576C78.7417 39.7057 80.2422 39.1459 81.1678 39.1459C81.6144 39.1459 82.0465 39.0379 82.1278 38.906C82.2211 38.7548 82.4494 38.7751 82.7462 38.9608C83.164 39.2224 83.0468 39.303 81.697 39.6815ZM130.014 39.0742C129.882 39.4229 129.91 39.451 130.151 39.2112C130.318 39.045 130.393 38.8475 130.318 38.7724C130.243 38.6971 130.106 38.8329 130.014 39.0742ZM129.449 39.7973C128.97 39.9908 129.092 40.3694 129.632 40.3694C129.904 40.3694 130.121 40.2062 130.121 40.0023C130.121 39.6252 129.981 39.5824 129.449 39.7973ZM11.3667 40.9672C11.132 41.1393 10.94 41.4359 10.94 41.6267C10.94 41.8174 10.7837 42.1969 10.593 42.47C10.402 42.7431 10.1373 43.3458 10.0044 43.8093L9.76289 44.6519L9.72796 43.7954C9.69841 43.0759 9.60097 43.2497 9.11985 44.8797C8.8048 45.9471 8.60698 46.9769 8.68025 47.168C8.75327 47.3591 8.68391 47.5955 8.52565 47.6934C8.32344 47.8187 8.3083 48.0472 8.47461 48.464C8.68147 48.9828 8.71297 48.9952 8.72665 48.5648C8.73495 48.2941 8.99261 47.7986 9.29886 47.4636C9.60512 47.1283 9.8193 46.6751 9.7751 46.4561C9.68058 45.9882 10.6963 43.5507 10.9857 43.5507C11.0949 43.5507 11.1843 43.4109 11.1843 43.2404C11.1843 43.0698 11.4556 42.53 11.7875 42.0408C12.2505 41.3578 12.3214 41.0935 12.092 40.9029C11.8869 40.7323 11.66 40.7524 11.3667 40.9672ZM10.1195 41.8455C9.87303 42.2637 9.7221 42.6565 9.78413 42.7186C9.94923 42.8843 10.7408 41.6054 10.6472 41.3243C10.6035 41.1929 10.3659 41.4273 10.1195 41.8455ZM10.6958 44.7742C10.6958 44.9088 10.8123 45.0189 10.9545 45.0189C11.0966 45.0189 11.1452 44.9088 11.0622 44.7742C10.9791 44.6396 10.8629 44.5295 10.8035 44.5295C10.7442 44.5295 10.6958 44.6396 10.6958 44.7742ZM123.636 47.9435C123.281 48.3 122.752 47.8607 122.941 47.3664C123.09 46.9776 123.14 46.9737 123.489 47.3229C123.735 47.57 123.788 47.7917 123.636 47.9435ZM132.544 48.7508C132.555 48.8518 132.33 48.9343 132.045 48.9343C131.6 48.9343 131.572 48.8795 131.847 48.5474C132.091 48.2528 132.101 48.0546 131.891 47.7174C131.739 47.4736 131.688 47.2008 131.778 47.111C131.916 46.972 132.488 48.195 132.544 48.7508ZM131.286 48.1544C131.432 48.5946 130.928 48.5021 130.757 48.0572C130.666 47.8191 130.721 47.7071 130.899 47.7668C131.059 47.8201 131.233 47.9944 131.286 48.1544ZM122.306 48.4449C122.306 48.5795 122.196 48.6896 122.061 48.6896C121.927 48.6896 121.817 48.5795 121.817 48.4449C121.817 48.3103 121.927 48.2002 122.061 48.2002C122.196 48.2002 122.306 48.3103 122.306 48.4449ZM55.2926 49.9122C54.9038 50.1613 54.4833 50.511 54.358 50.6896C54.1851 50.9363 54.1013 50.9429 54.0095 50.7173C53.8825 50.4055 53.2228 50.6664 52.5278 51.3033C52.3544 51.4624 51.7223 51.8375 51.1235 52.1373C50.5246 52.4371 50.0772 52.7516 50.1295 52.8365C50.182 52.9211 49.9029 53.1333 49.5097 53.3078C49.1165 53.482 48.7946 53.7377 48.7946 53.8755C48.7946 54.2829 50.0027 53.8645 51.2182 53.0364C53.3945 51.5534 54.0671 51.159 56.1066 50.1711C56.5775 49.943 56.734 49.4191 56.3247 49.4416C56.1457 49.4514 55.6812 49.6633 55.2926 49.9122ZM6.71083 57.3005C6.63293 57.4955 6.57505 57.4375 6.56332 57.1524C6.55282 56.8945 6.61046 56.7501 6.69154 56.8314C6.77262 56.9126 6.78142 57.1238 6.71083 57.3005ZM78.8425 57.4294C78.1086 57.785 77.6353 58.1186 77.7911 58.1704C77.947 58.2226 78.2869 58.1509 78.547 58.0114C79.043 57.7454 80.8088 57.1324 81.6425 56.9366C81.9112 56.8735 81.6914 56.813 81.1541 56.8025C80.5636 56.7905 79.6494 57.0386 78.8425 57.4294ZM63.5114 57.6179C63.3449 57.8075 63.2953 58.0165 63.4015 58.0821C63.5075 58.1479 63.7273 57.9886 63.8895 57.728C64.2292 57.183 63.9618 57.1052 63.5114 57.6179ZM68.4264 57.8513C68.3522 58.0449 67.9802 58.272 67.5997 58.3557C67.2192 58.4394 66.8461 58.6694 66.7706 58.8666C66.6062 59.2956 64.6141 60.191 63.824 60.191C63.096 60.191 62.5844 60.7649 63.0176 61.0955C63.4919 61.4574 65.6413 61.198 65.4879 60.7974C65.2957 60.2957 66.4079 60.6665 66.9191 61.2746C67.1826 61.5876 67.4175 61.6882 67.5338 61.5369C67.6371 61.4023 67.9392 61.1716 68.2052 61.0243C68.6653 60.7688 68.9154 60.0623 69.1715 58.2945C69.2575 57.7023 69.1943 57.4992 68.9241 57.4992C68.7246 57.4992 68.5007 57.6578 68.4264 57.8513ZM56.2434 58.7227C56.3264 58.8573 56.5525 58.9675 56.7462 58.9675C56.9399 58.9675 57.0981 58.8573 57.0981 58.7227C57.0981 58.5882 56.8718 58.478 56.5953 58.478C56.3188 58.478 56.1603 58.5882 56.2434 58.7227ZM61.362 58.9838C61.0839 59.4346 61.4526 59.5335 61.8663 59.1189C62.2078 58.7768 62.2112 58.7227 61.8922 58.7227C61.6893 58.7227 61.4504 58.8402 61.362 58.9838ZM54.768 59.718C54.5433 60.0824 54.8039 60.2803 55.2714 60.1007C55.4872 60.0178 55.5954 59.8389 55.5117 59.7033C55.3139 59.3825 54.9707 59.3891 54.768 59.718ZM60.3952 59.9463C60.3121 60.0809 60.4157 60.191 60.625 60.191C60.8343 60.191 61.0057 60.0809 61.0057 59.9463C61.0057 59.8117 60.9024 59.7016 60.7759 59.7016C60.6494 59.7016 60.4782 59.8117 60.3952 59.9463ZM53.7401 60.5977C53.3908 60.7389 53.3251 61.1699 53.6529 61.1699C53.7728 61.1699 53.9342 61.0047 54.0117 60.8028C54.0888 60.6009 54.1282 60.4445 54.0988 60.4551C54.0693 60.4656 53.9081 60.5299 53.7401 60.5977ZM65.2796 61.6593C65.3626 61.7939 65.4789 61.904 65.5382 61.904C65.5976 61.904 65.6459 61.7939 65.6459 61.6593C65.6459 61.5247 65.5294 61.4146 65.3873 61.4146C65.2452 61.4146 65.1966 61.5247 65.2796 61.6593ZM60.3961 62.3917C60.3097 62.5319 60.5031 62.6137 60.8526 62.5845C61.1862 62.5569 61.4055 62.4475 61.34 62.3415C61.1725 62.0699 60.5751 62.1017 60.3961 62.3917ZM55.3886 64.3511C55.0755 64.5537 55.0843 64.589 55.4496 64.5921C55.6846 64.5941 55.877 64.4857 55.877 64.3511C55.877 64.0526 55.8494 64.0526 55.3886 64.3511ZM49.423 66.5912C49.2117 67.0155 49.0388 67.3774 49.0388 67.3951C49.0388 67.4129 49.2376 67.4274 49.4804 67.4274C49.812 67.4274 49.9275 67.2274 49.9446 66.6235C49.9571 66.1813 49.9314 65.8194 49.8872 65.8194C49.8433 65.8194 49.6345 66.1666 49.423 66.5912ZM14.8476 67.7771C14.8476 67.9116 14.7993 68.0218 14.7399 68.0218C14.6806 68.0218 14.5643 67.9116 14.4813 67.7771C14.3982 67.6425 14.4468 67.5323 14.589 67.5323C14.7311 67.5323 14.8476 67.6425 14.8476 67.7771ZM18.5407 73.6266C18.3556 73.7441 18.2797 73.9626 18.372 74.1121C18.6409 74.548 18.309 74.4266 17.7783 73.8948L17.2898 73.4054L18.0836 73.4091C18.6309 73.4118 18.7728 73.4793 18.5407 73.6266ZM84.6115 75.7422C84.6814 75.9245 85.141 76.201 85.6326 76.3569C86.1245 76.5128 86.9002 76.8544 87.3564 77.1157C87.8126 77.3773 88.4346 77.5584 88.7389 77.5185C89.0735 77.4747 89.5895 77.7114 90.0445 78.1176C90.4582 78.4868 90.9076 78.7891 91.0429 78.7891C91.1785 78.7891 91.2893 78.944 91.2893 79.1331C91.2893 79.3646 91.1091 79.4358 90.7398 79.3507C90.2528 79.2386 90.2807 79.3123 90.9841 79.9979C91.4207 80.4235 91.7778 80.9339 91.7778 81.1324C91.7778 81.4491 91.6901 81.4481 91.0671 81.1253C90.6763 80.9227 90.3193 80.6694 90.2734 80.5622C90.1549 80.2845 87.1922 78.2996 86.896 78.2996C86.7602 78.2996 86.6491 78.1895 86.6491 78.0549C86.6491 77.9203 86.5665 77.8102 86.4657 77.8102C86.0644 77.8102 82.4966 75.8073 82.5996 75.6399C82.8026 75.3107 84.4789 75.3959 84.6115 75.7422ZM40.1615 76.2808C39.8277 77.4921 39.6943 79.6468 39.6572 84.4274C39.6177 89.5111 39.5969 89.7181 39.0767 90.2393C38.4254 90.892 38.3003 90.9094 38.2686 90.3517C38.2524 90.0661 38.1792 90.1273 38.0488 90.5352C37.775 91.3919 37.7093 91.0077 37.4629 87.1092C37.1073 81.4821 36.9456 82.7027 37.0255 90.4123C37.0729 94.9882 37.1552 98.7758 37.2086 98.8292C37.2619 98.8828 37.4113 98.6628 37.5405 98.3403C37.7017 97.9375 37.7293 98.4746 37.6285 100.057C37.5278 101.634 37.5623 102.309 37.7376 102.201C37.9777 102.052 38.4239 100.419 38.334 100.018C38.3116 99.9167 38.3931 99.8342 38.5157 99.8342C38.6383 99.8342 38.8127 99.3942 38.9033 98.8564C39.0051 98.2529 39.2938 97.7006 39.6575 97.414C39.9815 97.1585 40.2468 96.8639 40.2468 96.7594C40.2468 96.6547 40.3958 96.3953 40.5777 96.1829C40.7596 95.9702 41.2068 94.8813 41.5709 93.7624C42.3432 91.3912 44.1932 84.1299 44.0593 83.9958C43.9448 83.8813 42.2006 87.0405 42.2006 87.3623C42.2006 87.4922 42.1124 87.5987 42.0047 87.5987C41.897 87.5987 41.7805 88.0117 41.7456 88.5163C41.6325 90.1547 41.6103 90.2562 41.3954 90.1233C41.2789 90.0512 41.2144 90.496 41.2522 91.1122C41.2901 91.7282 41.2442 92.3093 41.1502 92.4033C41.0564 92.4975 40.9704 92.3084 40.9597 91.9831C40.9406 91.4179 40.9257 91.4237 40.6219 92.1141C40.3816 92.6605 40.3713 92.9451 40.5806 93.2838C40.7919 93.6256 40.7833 93.7776 40.5437 93.9269C40.3635 94.0395 40.2954 94.3223 40.3835 94.5925C40.4712 94.8605 40.4485 94.9574 40.3308 94.8176C40.2175 94.683 39.9049 94.535 39.6362 94.4885C38.948 94.3696 38.8828 94.245 39.3258 93.8975C39.889 93.4556 40.1537 92.0035 39.6711 92.0035C39.4342 92.0035 39.2694 92.2898 39.2132 92.7988L39.1255 93.5941L38.915 92.8729C38.7702 92.3769 38.7927 92.1221 38.9871 92.0571C39.1426 92.0052 39.2699 91.7994 39.2699 91.5994C39.2699 91.3552 39.4203 91.2843 39.7295 91.3826C40.3454 91.5784 40.4248 90.9461 40.3938 86.089C40.3801 83.9583 40.4595 82.1849 40.5699 82.148C40.6805 82.111 40.8168 80.6795 40.8727 78.9667C40.9567 76.3902 40.9142 75.8525 40.627 75.8525C40.436 75.8525 40.2265 76.0454 40.1615 76.2808ZM86.8271 76.245C86.7461 76.3263 86.5353 76.3351 86.3592 76.2644C86.1643 76.1863 86.2222 76.1283 86.5067 76.1166C86.7641 76.106 86.9082 76.1638 86.8271 76.245ZM88.6029 77.0761C88.6029 77.2107 88.493 77.3208 88.3587 77.3208C88.2243 77.3208 88.1144 77.2107 88.1144 77.0761C88.1144 76.9415 88.2243 76.8314 88.3587 76.8314C88.493 76.8314 88.6029 76.9415 88.6029 77.0761ZM12.1201 77.6556C12.2752 78.4624 11.789 78.5688 11.4964 77.7919C11.2504 77.139 11.2663 77.056 11.6244 77.125C11.8493 77.1686 12.0725 77.4072 12.1201 77.6556ZM20.2403 78.3035C20.3451 78.373 20.2418 78.6814 20.0105 78.9885C19.7181 79.3766 19.4544 79.495 19.1457 79.3764C18.7476 79.2232 18.7422 79.1828 19.0949 78.9851C19.311 78.8639 19.4878 78.5683 19.4878 78.3283C19.4878 77.7691 19.8122 77.4353 19.9467 77.8562C20.0034 78.0327 20.1353 78.2341 20.2403 78.3035ZM59.7846 77.9326C59.7846 78.1345 59.6759 78.2996 59.5431 78.2996C59.2295 78.2996 58.3193 79.0812 58.3193 79.3504C58.3193 79.4647 58.1544 79.7234 57.9529 79.9253C57.5673 80.3114 57.4369 81.1131 57.7956 80.8909C57.9104 80.8197 57.9534 81.0287 57.8911 81.3551C57.8289 81.6815 57.4877 82.1345 57.1328 82.3618C56.778 82.5892 56.291 82.9792 56.0507 83.2291C55.7754 83.5154 55.2787 83.6803 54.7074 83.6754C53.8717 83.6684 53.8368 83.6407 54.2591 83.3204C54.5108 83.1293 54.717 82.6734 54.717 82.3073C54.717 81.8093 55.1339 81.2296 56.3723 80.006C57.2825 79.1064 58.203 78.3028 58.4177 78.2203C58.6321 78.1379 58.8077 77.9568 58.8077 77.8178C58.8077 77.679 59.0275 77.5655 59.2962 77.5655C59.5675 77.5655 59.7846 77.7287 59.7846 77.9326ZM143.065 78.5713C142.769 78.7842 142.793 78.8028 143.187 78.6679C143.455 78.5759 143.95 78.4545 144.286 78.398C144.889 78.2967 144.887 78.3031 144.164 78.9006C142.674 80.1311 141.942 80.6702 140.989 81.2391C140.451 81.5597 139.957 81.8878 139.89 81.9683C139.794 82.0829 136.526 83.7662 135.7 84.1267C135.604 84.1685 135.653 83.9314 135.809 83.5998C135.975 83.2492 137.169 82.3278 138.663 81.3987C140.077 80.5199 141.618 79.4674 142.088 79.0602C142.558 78.6528 143.052 78.3168 143.187 78.3133C143.321 78.3099 143.266 78.4259 143.065 78.5713ZM38.3545 79.4008C38.3572 79.9392 38.4073 80.1306 38.4657 79.8261C38.524 79.5217 38.5218 79.0812 38.4608 78.8473C38.3997 78.6134 38.3519 78.8625 38.3545 79.4008ZM143.997 80.0738C143.947 80.4276 143.723 80.6523 143.37 80.7027C142.717 80.7954 142.674 80.5801 143.225 79.9708C143.772 79.3646 144.092 79.4074 143.997 80.0738ZM20.0803 80.1758C20.1663 80.4002 20.1231 80.6976 19.9843 80.8366C19.8107 81.0105 19.7321 80.9594 19.7321 80.6733C19.7321 80.4445 19.6222 80.2573 19.4878 80.2573C19.3535 80.2573 19.2436 80.1472 19.2436 80.0126C19.2436 79.6071 19.9125 79.7376 20.0803 80.1758ZM154.075 89.6334C153.885 89.8243 153.81 89.7245 153.81 89.2791C153.81 88.472 154.153 88.127 154.259 88.8271C154.303 89.1247 154.221 89.4876 154.075 89.6334ZM27.6178 92.4926C27.6881 92.7616 27.6459 93.0435 27.5242 93.1189C27.4026 93.1942 27.303 93.1482 27.303 93.0168C27.303 92.8852 27.2363 92.6035 27.1547 92.3906C27.0732 92.1777 27.1154 92.0035 27.2483 92.0035C27.3814 92.0035 27.5477 92.2237 27.6178 92.4926ZM49.0388 93.6575C49.0388 93.7598 48.819 93.981 48.5503 94.1491C48.0155 94.4836 47.888 94.2333 48.355 93.7654C48.6857 93.434 49.0388 93.3782 49.0388 93.6575ZM28.5241 94.4506C28.5241 94.5852 28.4142 94.6953 28.2799 94.6953C28.1455 94.6953 28.0356 94.5852 28.0356 94.4506C28.0356 94.316 28.1455 94.2059 28.2799 94.2059C28.4142 94.2059 28.5241 94.316 28.5241 94.4506ZM22.9387 102.098C23.0889 102.378 23.0811 102.526 22.9155 102.526C22.7765 102.526 22.6627 102.356 22.6627 102.148C22.6627 101.94 22.5255 101.788 22.3575 101.81C21.6771 101.899 21.5144 101.766 21.6206 101.209C21.6817 100.888 21.6116 100.551 21.4646 100.46C21.3176 100.369 21.1974 100.176 21.1974 100.031C21.1974 99.7571 22.5345 101.345 22.9387 102.098ZM18.1446 109.623C18.2276 109.757 18.179 109.867 18.0369 109.867C17.8948 109.867 17.7783 109.757 17.7783 109.623C17.7783 109.488 17.8266 109.378 17.886 109.378C17.9453 109.378 18.0616 109.488 18.1446 109.623ZM82.4973 112.491C82.2958 112.567 81.8438 112.83 81.4928 113.076C81.1419 113.322 80.7755 113.444 80.6788 113.347C80.5821 113.25 80.5394 113.336 80.5843 113.538C80.6395 113.788 80.4715 113.905 80.0585 113.905C79.6443 113.905 79.4223 113.749 79.3603 113.416C79.3104 113.147 79.3549 113.009 79.4597 113.111C79.5642 113.212 79.8863 113.14 80.1757 112.95C80.7094 112.599 81.4904 112.393 82.3752 112.367C82.7117 112.358 82.7498 112.396 82.4973 112.491ZM78.8501 113.791C79.4865 114.133 79.454 114.762 78.7998 114.762C78.5123 114.762 78.1367 114.954 77.965 115.19C77.679 115.581 77.6387 115.562 77.4878 114.959C77.3833 114.543 77.4434 114.164 77.651 113.929C78.0456 113.481 78.232 113.46 78.8501 113.791ZM13.392 114.101C13.371 114.519 14.1433 115.74 14.4266 115.737C14.6361 115.734 14.6447 115.679 14.4556 115.553C14.3074 115.454 14.0094 115.043 13.7938 114.639C13.5781 114.235 13.3974 113.993 13.392 114.101ZM76.985 114.901C77.5025 115.42 77.468 115.74 76.8946 115.74C76.6338 115.74 76.3527 115.851 76.2696 115.985C76.1866 116.12 75.9055 116.23 75.6447 116.23C75.3838 116.23 75.1706 116.327 75.1706 116.445C75.1706 116.971 73.0239 117.444 69.9198 117.602C68.7109 117.664 67.557 117.784 67.3555 117.868C67.154 117.953 66.9342 118.034 66.8671 118.047C66.3454 118.149 64.9775 118.857 64.6314 119.204C64.3977 119.438 63.7657 119.749 63.2269 119.894C62.6882 120.04 62.1814 120.266 62.1006 120.397C62.02 120.527 61.7369 120.635 61.4722 120.635C61.2072 120.635 60.9271 120.8 60.8499 121.002C60.7725 121.204 60.4672 121.369 60.1712 121.369C59.6903 121.369 57.5429 123.278 55.6939 125.35C54.8308 126.316 54.1809 127.987 54.1484 129.322C54.112 130.822 53.848 131.874 53.6065 131.482C53.5108 131.327 53.365 130.265 53.2822 129.122C53.161 127.445 53.2177 126.816 53.5762 125.859C53.8204 125.206 54.0808 124.617 54.155 124.55C54.3904 124.336 54.8979 123.475 55.2792 122.643C55.4821 122.2 55.8096 121.775 56.007 121.699C56.204 121.623 56.3662 121.435 56.3672 121.281C56.3682 121.128 56.7802 120.73 57.283 120.399C57.7859 120.067 58.5728 119.379 59.0319 118.87C59.6239 118.212 60.0674 117.943 60.5583 117.943C60.9385 117.943 61.2507 117.86 61.2514 117.759C61.2531 117.526 63.2059 117.422 63.6922 117.629C64.3401 117.906 64.8749 117.883 64.7601 117.583C64.6327 117.25 66.1801 116.719 67.2798 116.719C68.3734 116.719 72.5479 116.002 73.0337 115.73C73.4398 115.504 73.5859 115.683 73.4899 116.291C73.474 116.392 73.5827 116.475 73.7314 116.475C73.8802 116.475 73.9371 116.306 73.8582 116.1C73.7126 115.719 74.5554 115.212 75.4923 115.117C75.7362 115.092 76.0603 114.947 76.2127 114.794C76.559 114.447 76.527 114.443 76.985 114.901ZM51.7443 118.976C51.184 119.632 50.7484 119.51 50.7484 118.697C50.7484 117.858 51.2033 117.608 51.7377 118.154C52.0769 118.501 52.0777 118.586 51.7443 118.976ZM38.293 124.197C38.293 124.407 38.4029 124.511 38.5372 124.428C38.6715 124.344 38.7814 124.173 38.7814 124.046C38.7814 123.919 38.6715 123.816 38.5372 123.816C38.4029 123.816 38.293 123.988 38.293 124.197ZM38.4762 126.417C39.0083 126.56 39.2672 127.242 38.789 127.242C38.6591 127.242 38.6115 127.396 38.6837 127.584C38.7558 127.772 38.6974 127.999 38.5538 128.088C38.3311 128.226 38.1736 127.676 38.354 127.39C38.3875 127.337 38.2058 127.062 37.9499 126.778C37.4634 126.24 37.5623 126.172 38.4762 126.417ZM30.4779 127.731C30.4779 127.866 30.4295 127.976 30.3702 127.976C30.3108 127.976 30.1946 127.866 30.1115 127.731C30.0285 127.597 30.0771 127.487 30.2192 127.487C30.3614 127.487 30.4779 127.597 30.4779 127.731ZM31.2105 129.459C31.2105 129.601 31.3204 129.65 31.4548 129.567C31.5891 129.483 31.699 129.367 31.699 129.307C31.699 129.248 31.5891 129.2 31.4548 129.2C31.3204 129.2 31.2105 129.316 31.2105 129.459ZM32.3542 130.469C32.2763 130.664 32.2184 130.606 32.2067 130.321C32.1962 130.063 32.2539 129.919 32.3349 130C32.416 130.081 32.4248 130.292 32.3542 130.469ZM54.2258 139.103C54.2893 139.435 54.2471 139.649 54.1323 139.578C53.9298 139.453 53.828 138.499 54.0168 138.499C54.0683 138.499 54.1623 138.77 54.2258 139.103Z" fill="var(--fill-0, #2D2D32)"/>
</svg>
