<svg preserveAspectRatio="xMidYMid meet" overflow="visible" style="display: block;" viewBox="0 0 160 173" fill="none" xmlns="http://www.w3.org/2000/svg">
<path id="Vector" fill-rule="evenodd" clip-rule="evenodd" d="M92.2443 0.204137C92.0839 0.398078 91.7263 1.0459 91.4501 1.64374C91.0243 2.56454 89.0364 5.54115 88.6215 5.87905C88.5493 5.93779 87.7471 6.87054 86.8389 7.95174C85.032 10.1028 80.6503 14.3388 78.8026 15.7211C77.5852 16.6317 76.9597 17.1906 77.5108 16.8754C77.7407 16.7438 77.778 16.7946 77.6657 17.0877C77.5391 17.4183 77.5658 17.4337 77.8526 17.1951C78.0898 16.9978 78.1162 16.8728 77.9436 16.7658C77.794 16.6731 77.9345 16.5317 78.3065 16.3999C79.2348 16.071 82.3973 13.1444 86.3869 8.92208C90.0461 5.04924 91.9615 2.57906 92.4327 1.12472C92.7466 0.155224 92.6552 -0.292036 92.2443 0.204137ZM47.3893 5.45187C47.615 5.74555 48.5816 6.80283 49.5374 7.80137C51.6866 10.0466 55.2644 14.1805 56.0787 15.3591C56.6767 16.225 57.4843 17.1325 57.1937 16.612C57.0993 16.4429 57.1819 16.345 57.4193 16.345C57.7179 16.345 57.7403 16.291 57.5295 16.0797C57.319 15.8687 57.2205 15.8794 57.0468 16.1331C56.88 16.3769 56.861 16.3363 56.9667 15.961C57.1116 15.4462 56.731 14.7704 56.4086 14.9701C56.3061 15.0336 56.2777 14.9402 56.3459 14.7623C56.4235 14.5596 56.0798 14.0173 55.4251 13.3095C54.8506 12.6883 53.9547 11.7112 53.4343 11.1381C52.3738 9.97082 50.7815 8.43339 49.5099 7.34899C49.044 6.95171 48.2839 6.24215 47.821 5.77225C47.358 5.30235 47.1638 5.15818 47.3893 5.45187ZM56.0314 14.3693C56.2963 14.7081 56.2888 14.7155 55.9508 14.45C55.5958 14.1709 55.4831 13.9955 55.6584 13.9955C55.7026 13.9955 55.8705 14.1636 56.0314 14.3693ZM126.651 14.4637C126.183 14.7108 124.888 15.643 123.774 16.5351C120.915 18.8235 119.636 19.7712 115.96 22.3245C111.845 25.1828 107.954 28.3431 105.712 30.6471C104.744 31.641 103.953 32.5041 103.953 32.5647C103.953 32.6256 103.594 33.0184 103.154 33.4377C102.714 33.857 101.974 34.7483 101.509 35.4181C101.043 36.0881 100.633 36.6362 100.597 36.6362C100.329 36.6362 101.715 34.6509 102.641 33.7075C103.866 32.459 103.978 31.9695 102.84 32.8373C101.695 33.7102 97.7391 35.7861 97.5012 35.6387C97.38 35.5638 97.3408 35.5992 97.4139 35.7178C97.487 35.8363 97.2866 36.1635 96.9687 36.4451C96.5367 36.8274 96.4847 36.8445 96.7622 36.5125C97.27 35.9055 97.2282 35.7163 96.6541 36.023C96.2477 36.24 96.2124 36.233 96.4227 35.9771C96.6315 35.7227 96.4538 35.6701 95.2992 35.6441C94.545 35.627 93.7866 35.4954 93.614 35.3519C93.4414 35.2084 93.0416 35.1404 92.7255 35.2009C92.3956 35.2641 91.9411 35.1733 91.6587 34.9879C91.3881 34.8102 91.1667 34.7496 91.1667 34.8532C91.1667 34.957 90.8071 35.011 90.3675 34.9736C87.735 34.7496 86.125 34.7212 85.6417 34.8899C85.3235 35.0012 84.8783 35.0035 84.5872 34.8957C84.1333 34.7274 84.0932 34.76 84.1821 35.2259C84.2507 35.5856 84.1976 35.7109 84.0078 35.6379C83.8556 35.5794 83.7921 35.3752 83.8641 35.1767C83.9788 34.8608 83.9443 34.8638 83.5592 35.202C83.1355 35.574 83.1219 35.5678 82.9991 34.9535C82.76 33.7553 80.8434 28.9933 78.8191 24.5683C78.2279 23.2761 77.7435 22.093 77.7427 21.9392C77.7418 21.7854 77.6653 21.7064 77.573 21.7636C77.4807 21.8209 77.3855 21.6291 77.3614 21.3377C77.3373 21.0462 77.2167 20.6188 77.0933 20.3875C76.9697 20.1564 76.9269 19.8731 76.9979 19.758C77.0688 19.6431 77.0219 19.5489 76.8936 19.5489C76.7266 19.5489 76.7251 19.428 76.8885 19.1217C77.1449 18.6418 76.8084 18.5085 76.5262 18.9782C76.2699 19.4049 73.2378 21.7594 71.8978 22.5725C71.2504 22.9653 70.7191 23.3348 70.7172 23.3935C70.7153 23.4523 71.0481 23.7176 71.4569 23.9828C71.8658 24.2483 72.2002 24.6399 72.2002 24.8532C72.2002 25.0666 71.9553 25.9547 71.6559 26.827C71.3567 27.6993 71.0729 28.6532 71.0251 28.9469C70.9776 29.2406 70.8717 29.7122 70.7898 29.9948C70.6722 30.4021 70.7035 30.4713 70.9412 30.3276C71.1975 30.1729 71.1982 30.1996 70.9467 30.5102C70.7589 30.7424 70.6432 31.4722 70.627 32.5269C70.5976 34.4619 70.3913 34.8201 69.5568 34.3862C69.0795 34.1378 68.9661 34.1361 68.8742 34.3762C68.8088 34.5473 68.4222 34.6686 67.9214 34.6757C67.4581 34.6821 66.9021 34.7434 66.6863 34.8121C66.4612 34.8837 66.1784 34.7983 66.0242 34.612C65.7429 34.2722 65.3625 34.1707 65.4059 34.4469C65.4765 34.8948 65.3544 35.15 65.1346 35.014C64.9857 34.9215 64.9465 34.955 65.0351 35.0988C65.1155 35.2293 65.2981 35.291 65.4409 35.2361C65.596 35.1765 65.7053 35.3307 65.7124 35.6193C65.7192 35.885 65.7987 36.4145 65.8893 36.7964C66.0259 37.3723 65.9922 37.4906 65.6913 37.4906C65.4296 37.4906 65.3878 37.4163 65.5415 37.2236C65.6627 37.0715 65.6804 36.7727 65.5826 36.5294C65.488 36.2945 65.404 36.1813 65.3957 36.2776C65.3535 36.7723 64.7415 35.7163 64.7415 35.1488C64.7415 34.784 64.5872 34.2243 64.3986 33.9054L64.0559 33.3255L64.4764 33.7942L64.897 34.2628L65.1728 33.6874C65.5594 32.8811 65.7019 29.4019 65.3902 28.3835C65.0089 27.138 63.8871 24.5249 63.0643 22.9664C62.3306 21.5763 60.1158 18.2674 59.9193 18.2674C59.862 18.2674 59.8741 18.3635 59.9466 18.4809C60.1955 18.8846 59.6928 18.6941 59.287 18.231C58.8906 17.7787 58.8906 17.7712 59.284 17.9156C59.6327 18.0435 59.6493 18.0177 59.4068 17.7248C59.1591 17.4258 59.105 17.4237 58.9469 17.7069C58.8452 17.8891 58.5722 17.9901 58.3161 17.9408C58.0676 17.8927 57.9334 17.9226 58.0175 18.007C58.1017 18.0916 58.2826 18.1648 58.4192 18.1702C58.5561 18.1755 58.6385 18.312 58.6027 18.4735C58.5522 18.6999 58.6044 18.711 58.8314 18.5222C59.0528 18.338 59.1875 18.3395 59.3763 18.5288C59.7315 18.8848 59.6885 19.2253 59.3262 18.9239C59.0961 18.7323 58.9884 18.734 58.8672 18.9308C58.7711 19.0863 58.7986 19.132 58.9365 19.0465C59.0618 18.969 59.2011 19.016 59.2459 19.151C59.3075 19.3357 59.4407 19.336 59.784 19.1518C60.1279 18.9673 60.278 18.9679 60.3928 19.1542C60.4819 19.2988 60.4523 19.3439 60.3214 19.2627C60.1985 19.1864 60.0433 19.2661 59.977 19.4398C59.9106 19.6132 59.7149 19.701 59.5423 19.6346C59.3247 19.5508 59.404 19.8464 59.8006 20.5974C60.4325 21.7942 60.5731 21.8803 60.8992 21.2696C61.0826 20.9261 61.0564 20.867 60.7468 20.9268C60.4734 20.9793 60.3638 20.849 60.3393 20.4426C60.3108 19.9707 60.3376 19.9436 60.5162 20.2634C60.6726 20.5434 60.7981 20.5812 61.0034 20.4105C61.2116 20.2373 61.307 20.2852 61.3904 20.6045C61.4511 20.8377 61.3656 21.1408 61.2005 21.2781C60.981 21.4608 60.9622 21.6026 61.1308 21.8064C61.2972 22.0073 61.2883 22.222 61.0986 22.5789C60.8646 23.0189 60.8725 23.0428 61.1713 22.7957C61.43 22.5821 61.5432 22.5774 61.6653 22.7754C61.7601 22.9292 61.7339 22.9766 61.6001 22.8937C61.2007 22.6464 61.1568 23.287 61.5214 24.0437C61.7171 24.4498 62.054 25.2488 62.2703 25.8195C62.496 26.4157 62.727 26.754 62.8129 26.6147C62.8951 26.4812 62.9723 26.6869 62.9842 27.072C62.9961 27.4571 63.0718 28.5949 63.1523 29.6007L63.2989 31.4293L62.1867 34.2598C61.5749 35.8167 61.0338 37.0495 60.984 36.9997C60.9343 36.9498 60.9884 36.6589 61.1046 36.353C61.333 35.7507 61.1003 35.4258 60.6392 35.7035C60.4555 35.8141 60.4629 35.7524 60.663 35.5052C60.9288 35.1767 60.8974 35.1661 60.2897 35.3786C59.9246 35.5061 59.5698 35.7015 59.501 35.8132C59.4255 35.9359 59.2568 35.9171 59.0752 35.766C58.8452 35.5747 58.7745 35.5753 58.7745 35.7684C58.7745 35.907 58.6952 35.9715 58.5985 35.9115C58.5015 35.8515 57.8061 35.9519 57.0534 36.1343C56.3005 36.3167 55.3104 36.4564 54.8535 36.4446C54.3964 36.4329 53.8973 36.5275 53.7441 36.6548C53.5909 36.7823 53.3714 36.8282 53.2561 36.7569C53.141 36.6856 52.9479 36.7975 52.8271 37.0055C52.6196 37.3631 52.607 37.3633 52.6008 37.01C52.5974 36.8045 52.4985 36.6362 52.3813 36.6362C52.2641 36.6362 52.1923 36.7565 52.2215 36.9032C52.2549 37.0709 52.0614 37.1559 51.7011 37.1318C51.2559 37.1018 51.1566 37.1693 51.2578 37.4338C51.3296 37.6211 51.2989 37.7189 51.1898 37.6514C51.0807 37.5837 50.8007 37.6756 50.5675 37.8552C50.1626 38.1675 50.1707 38.1758 50.7476 38.0414C51.1662 37.9438 51.3064 37.9737 51.2043 38.1393C51.1235 38.2704 51.2552 38.5626 51.4973 38.7886C51.9596 39.2202 52.2856 39.3072 52.4352 39.0391C52.4842 38.9509 52.4966 38.996 52.4623 39.1391C52.3766 39.4968 52.7453 39.6931 52.8791 39.3608C52.9441 39.1989 52.9935 39.2408 53.0038 39.4663C53.0129 39.6718 53.1063 39.8401 53.2109 39.8401C53.3156 39.8401 53.4545 39.9794 53.5197 40.1496C53.6043 40.3704 53.5344 40.4208 53.2761 40.3254C52.6127 40.0804 51.3158 39.1968 51.3158 38.9898C51.3158 38.8774 51.1561 38.8469 50.9612 38.9219C50.7227 39.0137 50.657 38.9765 50.7606 38.8084C50.8593 38.6485 50.7566 38.5585 50.4759 38.5585C50.2347 38.5585 50.0371 38.4654 50.0371 38.3516C50.0371 38.2379 49.8875 38.2023 49.7047 38.2725C49.3251 38.4186 48.1192 37.3699 48.1192 36.8938C48.1192 36.705 47.9919 36.6394 47.782 36.7202C47.5966 36.7915 47.4038 36.8498 47.3533 36.8498C47.3028 36.8498 47.5024 37.2324 47.7967 37.6999C48.3676 38.6062 48.4591 38.8759 48.1253 38.6692C48.0118 38.5987 47.6252 38.6931 47.2667 38.8789C46.9083 39.0648 46.5253 39.1613 46.4158 39.0934C46.3063 39.0257 46.0184 39.169 45.7761 39.4118C45.5338 39.6547 45.0455 39.9116 44.6911 39.9826C44.2869 40.0637 44.0859 40.2139 44.1516 40.3854C44.2091 40.536 44.1164 40.713 43.9453 40.7788C43.6874 40.8779 43.6806 40.9726 43.905 41.3327C44.0537 41.5717 44.3389 41.819 44.5381 41.8825C44.7604 41.9532 44.8518 42.1259 44.774 42.3289C44.7044 42.5108 44.7751 42.739 44.9311 42.8357C45.1574 42.9758 45.1617 43.0758 44.9518 43.3291C44.7915 43.5226 44.7689 43.6965 44.894 43.7738C45.007 43.8439 45.1431 43.7802 45.1966 43.6326C45.3349 43.2514 46.1132 43.7441 46.0384 44.1657C45.9951 44.4105 46.2355 44.4889 47.0903 44.5081C48.3847 44.5374 48.8721 44.8514 48.1021 45.1598L47.5864 45.3663L48.0859 45.38C48.413 45.3888 48.6238 45.2461 48.6967 44.9663C48.8228 44.4827 49.0886 44.4088 49.2736 44.8061C49.3727 45.0193 49.423 45.019 49.5225 44.8048C49.7034 44.4156 50.0365 44.6993 50.0403 45.2459C50.0425 45.5413 50.1034 45.6199 50.2055 45.4588C50.3843 45.1769 52.1021 45.4599 52.4772 45.8328C52.5886 45.9437 52.9002 46.0342 53.1698 46.0342C53.4394 46.0342 53.6599 46.115 53.6599 46.2137C53.6599 46.3123 54.0676 46.5246 54.5656 46.6853C55.0637 46.8459 55.5231 47.0505 55.5862 47.1398C55.6495 47.2291 56.009 47.3256 56.3853 47.3544C56.881 47.3923 57.0696 47.5119 57.0696 47.7885C57.0696 48.0486 57.232 48.1702 57.5796 48.1702C57.86 48.1702 58.1471 48.3205 58.2174 48.504C58.2877 48.6877 58.4418 48.7782 58.5599 48.705C58.678 48.6319 58.7745 48.674 58.7745 48.7983C58.7745 48.9226 58.9901 49.0341 59.254 49.0459C59.7141 49.0662 59.7117 49.0741 59.2007 49.2381C58.7048 49.3972 58.7001 49.4107 59.1349 49.4303C59.6308 49.453 59.9317 49.78 59.941 50.3061C59.944 50.4823 60.0506 50.6079 60.1774 50.585C60.3044 50.5622 60.4084 50.6822 60.4084 50.852C60.4084 51.0216 60.3346 51.1604 60.2445 51.1604C60.1546 51.1604 59.8142 51.2621 59.4882 51.3862C59.0025 51.5714 58.952 51.6519 59.2079 51.832C59.4537 52.005 59.4208 52.0302 59.0547 51.9501C58.7764 51.8894 58.5433 51.9678 58.4753 52.1453C58.4077 52.3219 58.4989 52.442 58.7008 52.442C58.9654 52.442 58.9861 52.5069 58.7949 52.7378C58.5987 52.9747 58.6679 53.065 59.1417 53.1913C59.4671 53.278 59.6137 53.3933 59.4671 53.4474C59.1208 53.5751 59.1208 54.1497 59.4671 54.1539C59.6663 54.1565 59.6619 54.2028 59.449 54.338C59.2325 54.4756 59.2697 54.5461 59.6052 54.6341C59.9979 54.737 60.0207 54.821 59.8153 55.4113C59.6795 55.8018 59.4364 56.073 59.2224 56.073C59.023 56.073 58.7685 56.1621 58.6573 56.2713C58.546 56.3802 57.8794 56.7937 57.1762 57.1901C55.8715 57.9253 54.562 58.1334 54.6814 57.5861C54.7246 57.3866 54.5989 57.3379 54.2662 57.4251C54.0035 57.4941 53.665 57.4475 53.514 57.3217C53.3614 57.1948 53.072 57.166 52.8636 57.257C52.6568 57.3471 51.9365 57.462 51.2625 57.5126C50.2151 57.591 50.0371 57.5517 50.0371 57.241C50.0371 56.9738 49.9152 56.9095 49.5764 56.9983C48.9844 57.1536 48.3314 56.8031 48.3355 56.3326C48.3382 56.0179 48.3679 56.0115 48.5454 56.2866C48.7218 56.5605 48.7525 56.5528 48.7553 56.2332C48.757 56.0278 48.6089 55.8595 48.4263 55.8595C48.2436 55.8595 48.1543 55.7618 48.2279 55.6424C48.3016 55.523 48.4499 55.4799 48.5577 55.5468C48.6654 55.6134 48.6948 55.5143 48.6227 55.3263C48.5447 55.1226 48.6532 54.8622 48.8917 54.6813C49.1114 54.5145 49.1954 54.3733 49.0781 54.3677C48.9609 54.3624 48.9997 54.2722 49.1645 54.1678C49.3292 54.0634 49.495 53.7524 49.5327 53.4768C49.6793 52.4102 49.7575 52.1878 50.052 52.0009C50.3344 51.8219 50.1739 51.7068 49.7486 51.7833C49.3754 51.8503 48.7568 51.5498 48.8744 51.3587C48.9418 51.2497 48.8951 51.1604 48.7711 51.1604C48.647 51.1604 48.5454 51.0297 48.5454 50.87C48.5454 50.6594 48.2965 50.5993 47.6397 50.6517C46.8352 50.7157 45.4826 50.2845 45.1357 49.8533C44.9006 49.5611 36.9321 49.9551 36.5296 50.2789C36.3987 50.3842 35.9802 50.5372 35.5992 50.6188C35.0913 50.7275 34.9057 50.6914 34.9034 50.4831C34.9012 50.2973 34.846 50.2781 34.7435 50.4276C34.5211 50.7518 32.7872 51.4065 32.5462 51.2572C32.4356 51.1886 32.1036 51.3232 31.8082 51.556C31.5129 51.7888 30.8899 52.0439 30.4241 52.1229C29.9582 52.2017 29.6311 52.3538 29.6972 52.461C29.7632 52.568 29.4519 52.6633 29.0054 52.6725C28.559 52.6816 28.3141 52.738 28.4614 52.7974C28.9017 52.9753 28.5323 53.2964 27.8875 53.2964C27.314 53.2964 26.6868 53.744 26.9253 53.983C26.9875 54.0454 26.8428 54.1477 26.6035 54.2105C26.3644 54.2731 26.2216 54.2385 26.2866 54.1332C26.3514 54.0281 26.2557 53.9993 26.0737 54.0691C25.8917 54.1392 25.743 54.2887 25.743 54.4015C25.743 54.5145 25.5512 54.5456 25.3168 54.4711C25.0363 54.3818 24.8906 54.4327 24.8906 54.62C24.8906 54.9384 23.2644 55.7198 22.9747 55.5403C22.8727 55.4771 22.7288 55.523 22.6551 55.6424C22.5816 55.7618 22.6285 55.8595 22.7595 55.8595C22.8906 55.8595 22.9385 55.9556 22.8661 56.073C22.7936 56.1905 22.5551 56.2866 22.3359 56.2866C22.1168 56.2866 21.7982 56.4263 21.6279 56.5968C21.4579 56.7674 21.2592 56.8475 21.1866 56.7749C21.1141 56.7021 21.0547 56.7787 21.0544 56.9451C21.0542 57.1115 20.573 57.5186 19.9849 57.8497C19.3967 58.1808 18.5577 58.7812 18.1204 59.1838C17.6831 59.5862 17.2217 59.9162 17.0949 59.9166C16.9681 59.9173 16.7363 60.158 16.5794 60.4517C16.4226 60.7454 16.1926 60.9856 16.0686 60.9856C15.8476 60.9856 14.2939 62.575 14.2295 62.867C14.1651 63.1583 13.9092 63.4456 13.5263 63.6555C13.3121 63.773 13.1682 63.9394 13.2066 64.0253C13.245 64.1111 13.0606 64.3328 12.7968 64.5178C12.5332 64.703 12.3173 64.9898 12.3173 65.1554C12.3173 65.3207 12.1417 65.5503 11.9271 65.6654C11.7123 65.7806 11.2089 66.4662 10.8083 67.1892C9.64218 69.2929 9.60914 69.3439 9.4329 69.3146C9.34042 69.2993 9.14116 69.5816 8.99007 69.942C8.83876 70.3023 8.61458 70.5973 8.49161 70.5973C8.36887 70.5973 8.26828 70.7837 8.26828 71.0118C8.26828 71.24 8.16578 71.4899 8.04068 71.5674C7.91538 71.6449 7.86487 71.8438 7.92816 72.0091C7.99145 72.1744 7.85421 72.4282 7.62299 72.573C7.39177 72.7176 7.20275 72.9421 7.20275 73.0719C7.20275 73.2016 7.01095 73.4818 6.77653 73.6943C6.54212 73.9069 6.35032 74.3426 6.35032 74.6625C6.35032 75.1711 5.72144 76.074 5.70461 75.5893C5.70099 75.487 5.59997 75.572 5.47978 75.7786C5.3598 75.9851 5.31377 76.2384 5.37749 76.3418C5.44121 76.445 5.35042 76.6481 5.17589 76.7933C5.00136 76.9386 4.85858 77.2378 4.85858 77.4582C4.85858 77.6789 4.76566 77.8594 4.65208 77.8594C4.5387 77.8594 4.49715 77.9937 4.56023 78.1582C4.62309 78.3224 4.57216 78.5204 4.44685 78.598C4.32176 78.6755 4.21862 78.9495 4.21798 79.2069C4.21713 79.4643 4.0882 79.9216 3.93114 80.2232C3.77429 80.5246 3.5793 81.0532 3.4981 81.3979C3.14009 82.9168 2.46433 84.9079 2.30684 84.9079C2.06454 84.9079 1.90109 86.4833 2.12783 86.6333C2.23332 86.7031 2.22479 86.9821 2.10844 87.2741L1.90215 87.7914L1.88851 87.2982C1.88127 87.0269 1.78665 86.8597 1.6786 86.9268C1.4672 87.0577 1.20998 89.0567 1.15053 91.0281C1.12858 91.7599 1.01137 92.2806 0.856865 92.3321C0.668052 92.3953 0.65974 92.5303 0.825963 92.8417C0.969597 93.1104 0.978547 93.3578 0.850683 93.5186C0.739868 93.6579 0.71664 93.9575 0.798899 94.1844C0.980039 94.6827 0.833424 95.5875 0.571516 95.5875C0.468159 95.5875 0.383342 95.7374 0.383342 95.9205C0.383342 96.1035 0.47924 96.1941 0.596449 96.1214C0.713657 96.0488 0.809555 96.0809 0.809555 96.1928C0.809555 96.3047 0.644398 96.4596 0.442586 96.5373C0.18558 96.6362 0.150843 96.725 0.327082 96.8342C0.517173 96.9519 0.502255 97.2118 0.265494 97.9004C0.043011 98.5478 0.0146679 98.9274 0.167891 99.2142C0.454093 99.7501 0.44216 100.783 0.146155 101.08C0.00848833 101.218 -0.0164451 101.437 0.0869115 101.603C0.377589 102.07 0.392505 102.5 0.135286 103.003C-0.0469199 103.358 -0.0454285 103.55 0.141892 103.776C0.278706 103.942 0.332623 104.229 0.261659 104.414C0.190481 104.6 0.200924 104.862 0.284462 104.998C0.420423 105.218 0.490322 107.542 0.377375 108.083C0.283608 108.532 0.39208 108.85 0.596449 108.723C0.862618 108.558 0.869651 109.045 0.607318 109.461C0.499486 109.631 0.46965 109.865 0.540615 109.981C0.611792 110.096 0.747755 110.004 0.842801 109.777C0.94083 109.543 0.960434 109.896 0.887977 110.592C0.817865 111.268 0.843438 111.821 0.944876 111.821C1.04631 111.821 1.14733 112.181 1.16928 112.622C1.30673 115.362 1.42288 116.338 1.64365 116.604C1.83566 116.836 1.8297 116.926 1.61766 116.998C1.4005 117.071 1.39688 117.157 1.60103 117.405C1.74339 117.578 1.91238 118.146 1.97652 118.668C2.24078 120.815 2.66017 122.5 2.93018 122.5C2.99454 122.5 3.03225 122.906 3.01393 123.402C2.99453 123.932 3.15053 124.638 3.39113 125.111C3.64728 125.614 3.75639 126.137 3.68138 126.504L3.56161 127.092L3.8883 126.451C4.11611 126.005 4.17877 125.957 4.09523 126.295C3.94137 126.915 4.36438 128.208 4.80146 128.453C5.0069 128.568 5.14947 128.959 5.16652 129.454C5.18207 129.9 5.311 130.305 5.45293 130.352C5.61958 130.408 5.66625 130.299 5.58442 130.047C5.48319 129.734 5.50173 129.718 5.67605 129.964C5.82523 130.175 5.8248 130.403 5.67477 130.684C5.55416 130.91 5.54052 131.043 5.64451 130.978C5.74851 130.914 5.95607 131.166 6.10568 131.54C6.54063 132.624 6.69875 132.859 6.99433 132.859C7.14713 132.859 7.29587 133.099 7.32486 133.393C7.3841 133.992 7.48724 134.388 7.72955 134.951C8.02171 135.628 7.67243 135.592 7.31953 134.908C7.132 134.545 7.05315 134.244 7.14393 134.24C7.23493 134.236 7.08298 134.044 6.80616 133.813C6.52954 133.582 6.36162 133.381 6.43322 133.366C6.50482 133.352 6.65123 133.328 6.75885 133.313C7.14542 133.26 7.21106 133.02 6.83833 133.022C6.04941 133.027 5.92411 132.953 5.92091 132.485C5.91835 132.115 5.87339 132.075 5.72443 132.311C5.59081 132.523 5.71121 132.885 6.11462 133.486C6.43535 133.963 7.6752 135.952 8.86967 137.904C10.6689 140.845 11.1224 141.449 11.5154 141.428C11.8395 141.411 12.007 141.538 12.0449 141.83C12.0859 142.144 12.0586 142.172 11.9427 141.937C11.7952 141.638 11.2518 141.383 11.2518 141.613C11.2518 141.833 12.6472 144.016 13.425 145.013C14.8741 146.869 17.2224 149.222 17.4719 149.067C17.6205 148.975 17.6511 149.016 17.5529 149.175C17.356 149.495 17.8272 150.098 18.1283 149.911C18.2502 149.836 18.293 149.866 18.2229 149.98C18.0079 150.329 24.615 156.218 28.7265 159.342C37.5915 166.079 46.0009 169.827 55.0549 171.076C56.3389 171.254 58.5401 171.594 59.9466 171.834C67.8228 173.173 76.3359 173.357 85.9456 172.394C89.1102 172.077 92.297 171.725 93.0275 171.611C93.758 171.498 96.0596 171.261 98.142 171.085C105.576 170.457 111.064 169.092 118.404 166.047C124.211 163.637 133.318 158.766 134.025 157.691C134.097 157.582 134.214 157.525 134.286 157.564C134.475 157.667 136.132 156.61 136.132 156.388C136.132 156.285 135.983 156.259 135.801 156.329C135.611 156.402 135.526 156.366 135.601 156.244C135.673 156.128 135.952 156.088 136.222 156.155C136.564 156.241 136.897 156.115 137.327 155.736C137.666 155.437 137.835 155.19 137.703 155.186C137.571 155.182 137.348 155.318 137.208 155.487C137.068 155.656 136.793 155.743 136.596 155.681C136.29 155.583 136.285 155.6 136.558 155.797C136.956 156.083 136.571 156.104 136.132 155.82C135.816 155.615 135.871 155.581 136.612 155.521C137.001 155.49 137.385 155.103 137.249 154.879C137.184 154.773 137.23 154.747 137.35 154.821C137.47 154.896 137.844 154.719 138.182 154.428C138.52 154.136 138.884 153.898 138.991 153.898C139.099 153.898 139.131 153.842 139.063 153.774C138.995 153.705 138.715 153.759 138.441 153.892C137.967 154.124 137.963 154.12 138.357 153.803C138.585 153.62 138.892 153.471 139.04 153.471C139.188 153.471 139.549 153.23 139.842 152.937C140.135 152.643 140.481 152.403 140.61 152.403C140.74 152.403 140.786 152.307 140.714 152.189C140.641 152.072 140.689 151.976 140.82 151.976C140.952 151.976 140.992 151.867 140.91 151.734C140.82 151.588 140.877 151.532 141.057 151.593C141.232 151.652 141.548 151.378 141.826 150.926C142.086 150.505 142.302 150.236 142.306 150.329C142.315 150.567 143.009 149.845 143.451 149.139C143.655 148.812 143.903 148.595 144.002 148.656C144.101 148.717 144.232 148.576 144.293 148.342C144.355 148.101 144.297 147.914 144.157 147.909C144.021 147.904 144.222 147.765 144.603 147.599C144.984 147.433 145.296 147.148 145.296 146.966C145.296 146.785 145.445 146.636 145.628 146.636C145.811 146.636 145.902 146.541 145.83 146.425C145.759 146.309 146.089 145.82 146.565 145.339C147.04 144.857 147.366 144.361 147.289 144.235C147.205 144.099 147.249 144.069 147.396 144.161C147.558 144.261 147.691 144.085 147.776 143.66C147.847 143.3 147.996 143.005 148.105 143.005C148.215 143.005 148.244 143.125 148.169 143.272C148.095 143.419 148.185 143.352 148.37 143.124C148.554 142.896 148.705 142.546 148.705 142.346C148.705 142.146 148.855 141.925 149.038 141.854C149.222 141.784 149.319 141.64 149.254 141.535C149.189 141.43 149.278 141.227 149.451 141.082C149.624 140.938 149.717 140.74 149.656 140.642C149.596 140.544 149.739 140.359 149.976 140.232C150.212 140.105 150.387 139.932 150.363 139.848C150.273 139.529 150.853 138.756 151.284 138.619C151.61 138.516 151.668 138.413 151.497 138.242C151.148 137.892 151.213 137.659 151.617 137.814C151.9 137.923 151.945 137.855 151.845 137.471C151.763 137.156 151.86 136.852 152.131 136.581C152.357 136.355 152.541 136.023 152.541 135.843C152.541 135.663 152.664 135.468 152.815 135.411C152.965 135.353 153.108 135.043 153.132 134.723C153.156 134.403 153.417 133.929 153.711 133.67C154.005 133.412 154.246 133.099 154.246 132.976C154.246 132.853 154.342 132.752 154.459 132.752C154.576 132.752 154.672 132.464 154.672 132.112C154.672 131.759 154.745 131.471 154.833 131.471C154.972 131.471 155.604 130.283 155.629 129.976C155.634 129.917 155.726 129.729 155.834 129.558C155.942 129.387 156.062 128.955 156.101 128.597C156.14 128.239 156.266 127.915 156.381 127.875C156.496 127.836 156.59 127.473 156.59 127.068C156.59 126.606 156.711 126.285 156.914 126.207C157.092 126.139 157.212 125.973 157.181 125.84C157.151 125.706 157.214 125.597 157.322 125.597C157.632 125.597 157.871 124.399 157.646 123.977C157.534 123.767 157.456 123.277 157.473 122.888C157.502 122.196 157.507 122.2 157.646 123.034C157.787 123.874 157.792 123.878 157.961 123.291C158.056 122.962 158.073 122.633 157.999 122.559C157.925 122.485 158.078 122.197 158.339 121.919C158.734 121.498 158.77 121.346 158.558 121.006C158.394 120.743 158.379 120.551 158.516 120.466C158.633 120.394 158.657 120.221 158.569 120.082C158.297 119.652 158.327 118.592 158.624 118.132C158.78 117.891 158.93 116.974 158.957 116.092C158.991 115.028 159.12 114.347 159.342 114.063C159.526 113.828 159.593 113.703 159.493 113.786C159.392 113.869 159.187 113.813 159.037 113.663C158.756 113.38 158.851 112.538 159.341 110.968C159.632 110.034 159.643 108.83 159.361 108.83C158.992 108.83 159.117 107.082 159.518 106.638C159.843 106.279 159.849 106.198 159.571 105.981C159.328 105.791 159.258 105.262 159.272 103.704C159.282 102.588 159.369 101.348 159.465 100.948C159.609 100.35 159.587 100.252 159.341 100.401C159.085 100.555 159.084 100.528 159.333 100.221C159.593 99.9003 159.529 99.7777 159.127 99.823C159.057 99.8311 158.996 99.1935 158.992 98.4066C158.988 97.6198 158.933 96.8316 158.871 96.6554C158.641 96.0063 158.516 94.6195 158.716 94.9405C158.958 95.3294 159.052 95.2297 159.216 94.4127C159.286 94.0603 159.291 93.8926 159.228 94.0402C159.164 94.1878 159.024 94.2542 158.916 94.1878C158.588 93.9845 158.7 93.2715 159.094 93.0494C159.448 92.8501 159.448 92.8321 159.088 92.6931C158.835 92.5952 158.751 92.4133 158.836 92.1448C158.906 91.9227 158.861 91.7428 158.736 91.7428C158.437 91.7428 158.44 90.1016 158.739 89.9166C158.869 89.8357 158.91 89.5383 158.833 89.2301C158.75 88.8997 158.797 88.6239 158.953 88.5274C159.114 88.4279 159.146 88.2205 159.039 87.9731C158.881 87.606 158.862 87.6045 158.779 87.9513C158.73 88.1568 158.458 88.3837 158.173 88.4552C157.574 88.6058 157.489 89.0697 158.023 89.2752C158.334 89.395 158.343 89.4452 158.079 89.6086C157.669 89.863 157.362 89.3181 157.532 88.6378C157.624 88.272 157.76 88.1654 158.012 88.2621C158.29 88.3691 158.338 88.3008 158.243 87.9343C158.163 87.6286 158.22 87.471 158.409 87.471C158.717 87.471 159.025 85.9872 158.9 85.1016C158.843 84.6939 158.703 84.5894 158.225 84.5973C157.704 84.6057 157.669 84.5719 157.971 84.3508C158.212 84.174 158.246 84.0484 158.08 83.9457C157.948 83.8636 157.894 83.6552 157.96 83.4822C158.027 83.3089 157.937 83.0236 157.762 82.8476C157.407 82.4924 157.32 81.8166 157.656 82.0244C157.773 82.097 157.869 82.0065 157.869 81.8234C157.869 81.6297 157.685 81.4904 157.43 81.4904C157.187 81.4904 157.051 81.3935 157.125 81.2734C157.199 81.154 157.348 81.1115 157.457 81.1792C157.567 81.2467 157.656 81.1011 157.656 80.8556C157.656 80.61 157.521 80.3571 157.356 80.2937C157.004 80.1583 156.679 79.3757 156.481 78.1815C156.283 76.9982 156.094 76.7854 155.909 77.539C155.772 78.0994 155.763 78.0798 155.838 77.3833C155.925 76.5676 155.549 75.546 154.991 75.0818C154.819 74.9389 154.469 74.4003 154.212 73.8844C153.955 73.3688 153.628 72.9468 153.485 72.9468C152.999 72.9468 152.98 72.3528 153.462 72.2201C153.923 72.0935 153.922 72.0901 153.394 71.819C153.101 71.6689 152.861 71.4371 152.861 71.3045C152.861 70.9717 151.851 70.2143 151.549 70.32C151.413 70.3674 151.246 70.3168 151.179 70.2075C151.112 70.0979 151.362 69.9473 151.735 69.8725C152.354 69.7484 152.384 69.7068 152.076 69.3984C151.801 69.1235 151.651 69.1077 151.266 69.3136C150.816 69.5551 150.801 69.5364 150.939 68.9073C151.053 68.3874 151.012 68.2478 150.747 68.2478C150.562 68.2478 150.41 68.3439 150.41 68.4613C150.41 68.5788 150.513 68.6749 150.638 68.6749C150.764 68.6749 150.712 68.8306 150.522 69.0207C150.05 69.4938 149.975 69.3422 150.196 68.3603C150.401 67.4491 150.329 67.1798 149.88 67.1798C149.656 67.1798 149.631 67.0288 149.771 66.539C149.926 65.9954 149.896 65.8982 149.569 65.8982C149.146 65.8982 148.574 64.7891 148.804 64.4159C148.881 64.2914 148.839 64.1895 148.711 64.1895C148.583 64.1895 148.395 64.4057 148.294 64.6701C148.115 65.1342 148.104 65.1362 147.965 64.7235C147.886 64.4885 147.733 64.1295 147.624 63.9255C147.516 63.7215 147.427 63.3546 147.427 63.11C147.427 62.754 147.337 62.6942 146.974 62.8097C146.668 62.9071 146.569 62.8766 146.668 62.7157C146.748 62.5848 146.668 62.4214 146.489 62.3528C146.311 62.2841 146.098 62.0203 146.018 61.767C145.875 61.3156 145.869 61.315 145.705 61.7332L145.539 62.1604L145.499 61.7332C145.476 61.4983 145.464 61.2509 145.471 61.1836C145.478 61.1164 145.276 61.0683 145.023 61.0768C144.725 61.0869 144.534 60.9419 144.481 60.6653C144.436 60.4303 144.265 60.086 144.101 59.9004C143.937 59.7146 143.875 59.483 143.963 59.3858C144.052 59.2885 143.971 59.2632 143.785 59.3299C143.353 59.4843 142.89 59.2009 142.823 58.7404C142.752 58.2572 142.489 58.0406 142.372 58.3692C142.319 58.5161 142.117 58.6346 141.922 58.6329C141.633 58.6302 141.622 58.5941 141.864 58.4409C142.346 58.1348 141.976 57.5139 141.408 57.6743C141.067 57.7702 141.013 57.7504 141.221 57.606C141.598 57.3446 141.344 56.9274 140.808 56.9274C140.58 56.9274 140.394 56.7832 140.394 56.607C140.394 56.4308 140.298 56.2866 140.181 56.2866C140.064 56.2866 139.968 56.3988 139.968 56.5359C139.968 56.8569 139.651 56.5457 139.641 56.2155C139.637 56.0784 139.733 55.8874 139.854 55.7909C139.976 55.6939 139.765 55.6536 139.382 55.7005C138.936 55.7552 138.689 55.6937 138.689 55.5269C138.689 55.3848 138.498 55.2182 138.263 55.1567C137.999 55.0875 137.837 54.8654 137.837 54.5717C137.837 54.1753 137.785 54.1415 137.517 54.3643C137.341 54.5106 137.197 54.5463 137.196 54.4438C137.194 54.2317 136.188 53.7235 135.77 53.7235C135.617 53.7235 135.493 53.6466 135.493 53.5524C135.493 53.335 133.673 52.442 133.23 52.442C133.047 52.442 132.717 52.2256 132.497 51.9614C132.277 51.697 132.094 51.6011 132.09 51.7478C132.079 52.1596 131.609 52.0535 130.978 51.4964C130.599 51.1617 130.443 50.8509 130.515 50.5739C130.671 49.9793 130.044 49.4203 129.404 49.5816C129.026 49.6764 128.886 49.6241 128.886 49.387C128.886 49.1969 128.732 49.0877 128.514 49.1236C128.309 49.1574 127.971 49.0356 127.763 48.8534C127.473 48.5993 127.326 48.5807 127.134 48.7733C126.783 49.1247 126.532 49.0865 126.678 48.7041C126.773 48.4568 126.63 48.3837 126.05 48.3837C125.637 48.3837 125.261 48.2684 125.214 48.1274C125.167 47.9865 124.773 47.8711 124.337 47.8711C123.802 47.8711 123.578 47.7868 123.646 47.6108C123.714 47.4324 123.548 47.3754 123.119 47.4296C122.678 47.4856 122.493 47.4177 122.493 47.1987C122.493 47.0283 122.349 46.8886 122.174 46.8886C121.998 46.8886 121.854 46.9745 121.854 47.0793C121.854 47.1842 121.705 47.3273 121.523 47.3974C121.341 47.4672 121.246 47.4373 121.312 47.3307C121.378 47.2242 121.143 47.0734 120.79 46.9958C120.438 46.9181 120.149 46.7342 120.149 46.5868C120.149 46.4396 120.005 46.3029 119.829 46.2835C119.654 46.2639 119.371 46.2318 119.202 46.2122C119.033 46.1927 118.913 46.0725 118.936 45.9452C119.007 45.5464 117.334 45.527 117.112 45.9242C116.964 46.1895 116.85 46.2145 116.628 46.0304C116.469 45.898 116.387 45.662 116.447 45.5062C116.506 45.3505 116.453 45.1596 116.328 45.082C116.199 45.002 116.099 45.1081 116.099 45.3275C116.098 45.6389 115.911 45.719 115.14 45.7403C114.613 45.7551 114.182 45.6829 114.182 45.5801C114.182 45.4774 113.99 45.3935 113.756 45.3935C113.522 45.3935 113.33 45.261 113.33 45.0991C113.33 44.7273 110.577 44.2343 108.692 44.2683C107.926 44.2821 107.41 44.2085 107.48 44.0953C107.546 43.987 107.212 43.8983 106.736 43.8983C106.26 43.8983 105.871 43.8097 105.871 43.7014C105.871 43.4579 104.391 42.9335 103.953 43.022C103.777 43.0576 103.563 43.1971 103.477 43.3323C103.391 43.4673 103.319 43.4874 103.317 43.3769C103.315 43.2663 103.178 43.3624 103.012 43.5901C102.845 43.818 102.649 43.944 102.575 43.8699C102.501 43.796 102.586 43.604 102.763 43.4432C103.475 42.7979 103.734 42.6136 103.893 42.6398C104.375 42.7195 104.814 42.5905 104.699 42.4032C104.626 42.2857 104.671 42.1896 104.797 42.1896C104.937 42.1896 104.973 41.9762 104.89 41.6437C104.787 41.2323 104.906 40.9033 105.372 40.3087C105.712 39.8747 106.145 39.2794 106.334 38.9857C106.524 38.692 106.881 38.2394 107.127 37.9801C107.374 37.7206 107.576 37.4464 107.576 37.3703C107.576 37.2943 107.865 36.8028 108.218 36.278C108.572 35.7532 108.797 35.2199 108.718 35.0928C108.64 34.9655 108.672 34.9215 108.791 34.995C108.909 35.0682 109.33 34.7227 109.725 34.2269C110.121 33.7312 111.98 31.6832 113.858 29.6759C117.33 25.9648 120.255 22.6806 122.294 20.204C122.917 19.4483 124.415 17.8171 125.624 16.5791C128.25 13.8887 128.426 13.526 126.651 14.4637ZM57.5538 16.9766C57.5881 17.4352 57.7654 17.3707 57.8383 16.8728C57.8637 16.7 57.8029 16.5586 57.7034 16.5586C57.6039 16.5586 57.5366 16.7468 57.5538 16.9766ZM58.1927 17.0005C58.1558 17.4912 58.2562 17.5343 58.4226 17.0994C58.4887 16.9271 58.471 16.7415 58.3832 16.687C58.2954 16.6327 58.2098 16.7737 58.1927 17.0005ZM60.831 20.2512C60.7721 20.3962 60.7187 20.3458 60.7093 20.1363C60.7001 19.9306 60.6012 19.7625 60.49 19.7625C60.3785 19.7625 60.1897 19.9306 60.0702 20.1363C59.8696 20.4812 59.8524 20.4821 59.8464 20.147C59.8372 19.629 60.5337 19.2723 60.7606 19.6788C60.857 19.8511 60.8885 20.1087 60.831 20.2512ZM119.972 21.6769C119.868 21.9381 119.826 21.9178 119.762 21.578C119.628 20.8648 119.34 20.7247 118.876 21.1464C118.638 21.3614 118.444 21.4783 118.444 21.4061C118.444 21.3339 118.708 21.0287 119.03 20.7275L119.616 20.1803L119.859 20.7644C119.992 21.0857 120.043 21.4962 119.972 21.6769ZM61.9562 22.0586C61.9643 22.2056 61.865 22.3256 61.7352 22.3256C61.6054 22.3256 61.554 22.1825 61.6209 22.0078C61.6879 21.833 61.6742 21.7002 61.5905 21.7126C61.1734 21.775 61.0931 21.6526 61.3488 21.3437C61.6054 21.034 61.6457 21.0389 61.7863 21.3971C61.8713 21.6141 61.9478 21.9119 61.9562 22.0586ZM60.6125 21.8553C60.5548 21.949 60.5955 22.1652 60.7033 22.3358C60.8561 22.5781 60.8998 22.5407 60.9024 22.1654C60.9055 21.6714 60.7973 21.5554 60.6125 21.8553ZM116.845 22.5407C116.772 22.659 116.407 22.9072 116.033 23.0922L115.354 23.4284L115.994 22.8848C116.646 22.3301 117.084 22.153 116.845 22.5407ZM118.944 23.0823C118.875 23.2637 118.772 23.3662 118.716 23.3102C118.66 23.2543 118.678 23.1058 118.755 22.9807C118.965 22.6398 119.088 22.706 118.944 23.0823ZM123.985 25.4511L122.6 25.7178L123.985 25.5997C124.747 25.5346 125.41 25.4442 125.459 25.3987C125.683 25.1896 125.265 25.2044 123.985 25.4511ZM121.814 25.8889C121.968 25.9507 122.152 25.943 122.222 25.8721C122.293 25.8012 122.167 25.7507 121.943 25.7599C121.695 25.7702 121.644 25.8208 121.814 25.8889ZM73.6919 27.1547C73.6919 27.2989 73.7516 27.593 73.8247 27.8081C73.9344 28.1316 73.8999 28.1223 73.6246 27.7549C73.4415 27.5103 73.2314 27.0297 73.1577 26.6869C73.03 26.0929 73.0394 26.0831 73.3578 26.478C73.5415 26.7061 73.6919 27.0105 73.6919 27.1547ZM114.395 28.3061C114.145 28.6586 113.892 28.9469 113.834 28.9469C113.775 28.9469 113.932 28.6586 114.182 28.3061C114.433 27.9537 114.685 27.6654 114.744 27.6654C114.802 27.6654 114.646 27.9537 114.395 28.3061ZM73.6919 28.8527C73.6919 29.2052 73.3552 29.2647 73.1592 28.9469C73.0867 28.8295 73.1347 28.7333 73.2657 28.7333C73.3968 28.7333 73.4356 28.6223 73.352 28.4866C73.2576 28.3339 73.2934 28.298 73.4458 28.3927C73.5811 28.4764 73.6919 28.6834 73.6919 28.8527ZM72.2002 28.6139C72.2002 28.6658 72.1043 28.7675 71.9871 28.8401C71.8699 28.9127 71.774 28.8702 71.774 28.7459C71.774 28.6216 71.8699 28.5197 71.9871 28.5197C72.1043 28.5197 72.2002 28.562 72.2002 28.6139ZM100.756 34.8931C100.756 34.9918 100.517 35.1821 100.224 35.3158C99.6216 35.5907 99.488 35.2808 100.064 34.9446C100.525 34.6757 100.756 34.6586 100.756 34.8931ZM55.538 36.1413C55.6917 36.2031 55.8756 36.1954 55.9464 36.1245C56.0171 36.0535 55.8914 36.0031 55.6668 36.0123C55.4185 36.0226 55.368 36.0732 55.538 36.1413ZM50.0371 37.4906C49.8451 37.6149 49.8187 37.6988 49.9713 37.701C50.1109 37.7027 50.2843 37.6081 50.3568 37.4906C50.5202 37.2253 50.4465 37.2253 50.0371 37.4906ZM64.9972 37.9605C64.8604 38.0976 64.6777 38.1388 64.5914 38.0521C64.5049 37.9654 64.5725 37.8088 64.7415 37.7042C65.1395 37.4577 65.3192 37.6377 64.9972 37.9605ZM46.9486 38.5562C46.874 38.6771 46.9594 38.713 47.1491 38.6401C47.5182 38.4981 47.5858 38.3449 47.2793 38.3449C47.1689 38.3449 47.0202 38.44 46.9486 38.5562ZM48.6909 39.0259C48.623 39.1961 48.5724 39.1455 48.5622 38.8967C48.5531 38.6715 48.6033 38.5455 48.6741 38.6164C48.7448 38.6873 48.7525 38.8717 48.6909 39.0259ZM52.1194 40.6009C52.048 40.6725 51.8747 40.5065 51.7343 40.2322C51.4903 39.7553 51.4961 39.7495 51.8643 40.102C52.0761 40.3049 52.191 40.5294 52.1194 40.6009ZM91.806 41.3352C91.806 41.4527 91.7101 41.5488 91.5929 41.5488C91.4757 41.5488 91.3798 41.4527 91.3798 41.3352C91.3798 41.2178 91.4757 41.1216 91.5929 41.1216C91.7101 41.1216 91.806 41.2178 91.806 41.3352ZM55.6844 41.5488C55.7569 41.6663 55.7202 41.7624 55.603 41.7624C55.4858 41.7624 55.3307 41.6663 55.2582 41.5488C55.1858 41.4313 55.2224 41.3352 55.3396 41.3352C55.4568 41.3352 55.612 41.4313 55.6844 41.5488ZM43.1559 41.976C43.0948 42.211 43.1314 42.4032 43.2378 42.4032C43.3439 42.4032 43.4308 42.211 43.4308 41.976C43.4308 41.7411 43.394 41.5488 43.3492 41.5488C43.3042 41.5488 43.2173 41.7411 43.1559 41.976ZM45.5619 42.2838C45.5619 42.3357 45.466 42.4374 45.3488 42.51C45.2316 42.5826 45.1357 42.5401 45.1357 42.4158C45.1357 42.2915 45.2316 42.1896 45.3488 42.1896C45.466 42.1896 45.5619 42.2319 45.5619 42.2838ZM57.1888 42.7167C57.4161 42.8893 57.501 43.0335 57.3767 43.0371C57.2527 43.041 56.965 42.9028 56.7374 42.7304C56.51 42.5578 56.4252 42.4137 56.5494 42.41C56.6735 42.4062 56.9612 42.5444 57.1888 42.7167ZM58.4533 43.4688C58.5279 43.5897 58.4425 43.6256 58.2528 43.5527C57.8837 43.4107 57.8161 43.2576 58.1226 43.2576C58.233 43.2576 58.3817 43.3526 58.4533 43.4688ZM104.592 43.4711C104.592 43.5886 104.496 43.6847 104.379 43.6847C104.262 43.6847 104.166 43.5886 104.166 43.4711C104.166 43.3537 104.262 43.2576 104.379 43.2576C104.496 43.2576 104.592 43.3537 104.592 43.4711ZM46.8405 43.8983C46.8405 44.0158 46.7389 44.1119 46.6149 44.1119C46.4908 44.1119 46.4484 44.0158 46.5209 43.8983C46.5933 43.7809 46.6948 43.6847 46.7465 43.6847C46.7983 43.6847 46.8405 43.7809 46.8405 43.8983ZM57.3543 46.3832C57.901 46.81 58.3483 47.2062 58.3483 47.2637C58.3483 47.3211 58.2087 47.2519 58.038 47.1099C57.8673 46.9681 57.6126 46.923 57.4722 47.0099C57.3107 47.1101 57.2727 47.0776 57.369 46.9217C57.4526 46.7861 57.4434 46.6748 57.3486 46.6748C57.2538 46.6746 56.8977 46.4343 56.5569 46.1408C55.6011 45.317 56.236 45.5099 57.3543 46.3832ZM118.377 46.5016C118.309 46.6718 118.258 46.6212 118.248 46.3724C118.239 46.1472 118.289 46.0212 118.36 46.0921C118.431 46.163 118.438 46.3474 118.377 46.5016ZM116.1 46.4614C116.1 46.5789 115.998 46.675 115.874 46.675C115.75 46.675 115.708 46.5789 115.78 46.4614C115.853 46.3439 115.954 46.2478 116.006 46.2478C116.058 46.2478 116.1 46.3439 116.1 46.4614ZM117.166 47.659C117.166 47.9993 116.975 48.0318 116.552 47.7635C116.391 47.661 116.322 47.4745 116.399 47.3489C116.586 47.0464 117.166 47.281 117.166 47.659ZM117.321 49.3671C117.25 49.438 117.066 49.4457 116.913 49.384C116.743 49.3159 116.793 49.2652 117.041 49.255C117.266 49.2458 117.392 49.2962 117.321 49.3671ZM81.5769 49.6653C81.8354 49.8327 81.8047 49.8729 81.417 49.8757C81.1532 49.8774 80.9375 49.7828 80.9375 49.6653C80.9375 49.3977 81.1637 49.3977 81.5769 49.6653ZM114.715 49.8078C114.715 49.9447 114.787 50.129 114.875 50.217C114.963 50.3052 115.035 50.217 115.035 50.0214C115.035 49.6427 115.271 49.5916 116.052 49.8011C116.506 49.9233 116.513 49.9492 116.158 50.2187C115.806 50.4868 115.813 50.5066 116.26 50.5128C116.547 50.5169 116.739 50.3911 116.739 50.1993C116.739 49.9566 117.001 49.8789 117.818 49.8789C119.125 49.8789 119.054 50.2924 117.739 50.3351C117.248 50.3511 117.062 50.4058 117.325 50.4569C117.589 50.5077 117.805 50.6388 117.805 50.7482C117.805 50.8573 117.949 50.9468 118.125 50.9468C118.3 50.9468 118.444 51.0325 118.444 51.1374C118.444 51.5575 120.506 51.7922 121.397 51.4736C121.555 51.4167 121.63 51.2271 121.563 51.0519C121.496 50.8766 121.534 50.7333 121.647 50.7333C121.761 50.7333 121.854 50.9197 121.854 51.1478C121.854 51.376 121.958 51.6269 122.086 51.7059C122.213 51.7848 122.268 52.0402 122.207 52.2737C122.146 52.5069 122.145 52.6485 122.205 52.5881C122.318 52.4751 122.795 52.6539 125.69 53.8936C125.983 54.0191 126.084 54.1283 125.916 54.1362C125.692 54.1469 125.72 54.2355 126.022 54.4643C126.503 54.8291 126.969 54.8848 126.969 54.5779C126.969 54.4604 126.809 54.3643 126.613 54.3643C126.418 54.3643 126.308 54.3148 126.368 54.2541C126.429 54.1937 126.852 54.2319 127.309 54.3395C127.815 54.4583 127.953 54.5433 127.661 54.5565C126.937 54.5888 127.086 55.0051 127.821 55.0051C128.622 55.0051 128.671 55.4214 127.874 55.4626C127.418 55.4863 127.476 55.5267 128.141 55.6459C128.609 55.73 128.801 55.8155 128.567 55.8357C128.172 55.8697 128.169 55.8887 128.515 56.0912C128.721 56.2114 128.985 56.2507 129.101 56.1788C129.218 56.1068 129.313 56.1553 129.313 56.2866C129.313 56.418 129.406 56.4675 129.52 56.3968C129.634 56.3264 129.895 56.4648 130.1 56.7046C130.305 56.9447 130.554 57.141 130.654 57.141C130.907 57.141 131.333 57.6015 131.507 58.0622C131.588 58.2754 131.758 58.3852 131.885 58.3066C132.012 58.228 132.304 58.3659 132.534 58.6135C132.764 58.8608 133.068 59.0648 133.21 59.0665C133.371 59.0687 133.348 59.1477 133.149 59.2769C132.973 59.3908 132.93 59.4854 133.053 59.4873C133.176 59.489 133.392 59.3752 133.532 59.2342C133.731 59.0349 133.788 59.0586 133.788 59.341C133.788 59.5407 133.895 59.68 134.025 59.6507C134.156 59.6212 134.301 59.8376 134.347 60.1313C134.505 61.1211 134.599 61.1992 135.646 61.2024C136.34 61.2048 136.567 61.2676 136.359 61.3998C136.105 61.5606 136.101 61.6514 136.332 61.9306C136.485 62.1158 136.527 62.2687 136.424 62.2704C136.322 62.2723 136.381 62.3642 136.556 62.475C136.731 62.5857 137.234 62.6412 137.675 62.5987C138.571 62.5122 138.764 62.7892 137.951 62.9938C137.613 63.0786 137.467 63.2337 137.541 63.4276C137.707 63.8602 138.268 64.0242 138.61 63.7399C138.836 63.5513 138.902 63.5707 138.902 63.8251C138.902 64.006 138.783 64.2023 138.636 64.2617C138.478 64.3256 138.523 64.3762 138.746 64.3862C138.952 64.3954 139.288 64.4922 139.491 64.6011C139.695 64.71 140.035 64.8536 140.248 64.92C140.714 65.0659 140.567 65.376 139.955 65.5362C139.691 65.6056 139.364 65.5076 139.15 65.2951C138.648 64.7955 137.711 64.4031 137.021 64.4031C136.57 64.4031 136.384 64.2591 136.197 63.7623C135.928 63.0483 135.575 62.9259 135.427 63.4953C135.368 63.7215 135.319 63.6335 135.304 63.2724C135.29 62.9298 135.166 62.6903 135.013 62.7104C134.392 62.7911 133.788 62.6794 133.788 62.4833C133.788 62.3672 133.993 62.2952 134.244 62.3232C134.495 62.3511 134.747 62.2392 134.805 62.0743C134.888 61.8392 134.744 61.802 134.133 61.9013C133.509 62.0028 133.252 61.931 132.829 61.5388C132.54 61.2699 132.356 60.997 132.42 60.9325C132.485 60.8677 132.435 60.7515 132.31 60.674C132.185 60.5967 132.083 60.674 132.083 60.8462C132.083 61.0548 131.94 61.1217 131.653 61.0467C131.417 60.9848 131.237 60.8254 131.252 60.6928C131.338 59.9707 131.232 59.8504 130.829 60.2159C130.446 60.5634 130.417 60.5514 130.211 59.9574C129.987 59.3128 128.997 58.8935 128.804 59.3613C128.751 59.4911 128.693 59.357 128.677 59.0633C128.646 58.5302 128.646 58.5302 128.454 59.0099C128.348 59.2743 128.173 59.4905 128.066 59.4905C127.958 59.4905 127.81 59.2743 127.736 59.0099C127.606 58.5464 127.59 58.5434 127.295 58.9298C127.101 59.1838 126.855 59.279 126.624 59.19C126.343 59.0821 126.316 58.9907 126.509 58.7978C126.866 58.4401 125.093 57.9076 124.683 58.2491C124.528 58.3779 124.339 58.4217 124.264 58.3463C124.189 58.2707 124.239 58.209 124.376 58.209C124.512 58.209 124.624 58.0648 124.624 57.8886C124.624 57.6893 124.423 57.5682 124.092 57.5682C123.799 57.5682 123.57 57.6402 123.584 57.7284C123.648 58.1325 123.539 58.4226 123.323 58.4226C123.193 58.4226 123.139 58.2863 123.203 58.1199C123.348 57.7414 122.955 57.5797 122.229 57.7188C121.626 57.8345 120.149 57.4296 120.149 57.1483C120.149 57.053 119.808 56.911 119.392 56.8326C118.976 56.7544 118.584 56.5575 118.522 56.3951C118.46 56.2328 118.273 56.1523 118.107 56.2161C117.941 56.28 117.805 56.232 117.805 56.1091C117.805 55.8955 117.655 55.8629 116.58 55.8422C116.316 55.837 116.1 55.7311 116.1 55.6063C116.1 55.4673 115.973 55.4855 115.771 55.6538C115.496 55.8825 115.389 55.8518 115.12 55.4662C114.746 54.9316 114.395 54.8635 114.395 55.3255C114.395 55.7134 114.047 55.7507 113.896 55.3789C113.815 55.1779 113.732 55.1911 113.562 55.4323C113.409 55.6495 113.335 55.6666 113.333 55.4857C113.331 55.3334 113.061 55.2187 112.703 55.2187C112.358 55.2187 112.014 55.117 111.937 54.9929C111.86 54.8686 111.255 54.7849 110.593 54.8067C109.93 54.8287 108.62 54.6802 107.682 54.4769C106.745 54.2737 105.495 54.0322 104.904 53.9401C102.853 53.6204 101.291 53.2342 101.605 53.1244C101.779 53.0638 102.049 52.8854 102.206 52.728C102.363 52.5708 102.629 52.442 102.796 52.442C102.964 52.442 103.101 52.3489 103.101 52.235C103.101 52.1214 103.232 52.0789 103.393 52.1406C103.553 52.2023 103.745 52.0972 103.817 51.9067C103.892 51.7119 104.058 51.6273 104.197 51.7134C104.333 51.7976 104.554 51.7158 104.688 51.5319C104.822 51.3478 105.215 51.1649 105.561 51.1254C105.924 51.084 106.168 50.9404 106.137 50.7866C106.075 50.4744 106.428 50.4265 106.61 50.7226C106.743 50.9379 108.135 50.8845 108.364 50.6553C108.438 50.5807 108.711 50.5197 108.97 50.5197C109.23 50.5197 109.562 50.3742 109.709 50.1967C109.897 49.9692 110.054 49.9385 110.24 50.0925C110.425 50.2469 110.584 50.2132 110.779 49.9782C110.991 49.7221 111.092 49.7065 111.218 49.9109C111.348 50.1209 111.591 50.1117 112.375 49.8676C113.573 49.4948 114.715 49.4656 114.715 49.8078ZM61.0121 50.3061C61.2241 50.541 61.3497 50.7333 61.2908 50.7333C61.232 50.7333 60.9627 50.541 60.6924 50.3061C60.4222 50.0711 60.2967 49.8789 60.4137 49.8789C60.5307 49.8789 60.8001 50.0711 61.0121 50.3061ZM84.3824 50.3441C84.8319 50.3379 85.1997 50.4214 85.1997 50.5297C85.1997 50.7679 83.296 50.6021 82.6043 50.3037C82.191 50.1256 82.2294 50.1121 82.8374 50.223C83.2376 50.2958 83.9328 50.3503 84.3824 50.3441ZM87.9669 50.4663C87.9594 51.3161 87.6404 51.4693 86.7645 51.0432C86.314 50.824 85.8258 50.6687 85.6792 50.6984C85.5328 50.7279 85.4128 50.6517 85.4128 50.5291C85.4128 50.1589 86.9433 50.2755 87.3955 50.6799C87.7989 51.0406 87.8083 51.0368 87.6645 50.5731C87.5739 50.2815 87.6046 50.0925 87.7427 50.0925C87.8678 50.0925 87.9686 50.2608 87.9669 50.4663ZM130.059 50.3061C130.227 50.5799 129.309 50.5799 128.886 50.3061C128.643 50.1484 128.729 50.0982 129.247 50.0957C129.621 50.094 129.986 50.1886 130.059 50.3061ZM131.785 50.484C131.725 50.582 131.811 50.6621 131.977 50.6621C132.142 50.6621 132.228 50.582 132.168 50.484C132.107 50.3862 132.021 50.3061 131.977 50.3061C131.932 50.3061 131.846 50.3862 131.785 50.484ZM119.855 51.0489C120.017 51.2111 120.149 51.3992 120.149 51.4674C120.149 51.5966 119.27 51.1491 119.084 50.9255C119.025 50.855 118.833 50.7343 118.657 50.6572C118.482 50.5801 118.613 50.5705 118.95 50.6356C119.286 50.701 119.693 50.8868 119.855 51.0489ZM120.842 50.8746C120.695 50.934 120.456 50.934 120.309 50.8746C120.163 50.8155 120.282 50.767 120.575 50.767C120.868 50.767 120.988 50.8155 120.842 50.8746ZM93.4264 51.9569C93.2099 52.1741 93.0311 51.8471 93.2089 51.559C93.3431 51.3411 93.3934 51.3411 93.4654 51.5581C93.5149 51.7066 93.4972 51.886 93.4264 51.9569ZM121.11 52.0182C121.184 52.1376 121.333 52.1801 121.442 52.1124C121.738 51.9294 121.683 51.8012 121.309 51.8012C121.126 51.8012 121.037 51.8988 121.11 52.0182ZM88.1177 52.8117C88.0636 53.0195 88.0159 52.9012 88.0116 52.5488C88.0074 52.1964 88.0515 52.0263 88.1099 52.1709C88.1682 52.3155 88.1719 52.6039 88.1177 52.8117ZM85.8597 53.1789C86.1431 53.4777 86.0939 53.9867 85.7913 53.8857C85.5031 53.7893 85.1792 52.5345 85.3878 52.3232C85.4601 52.25 85.5526 52.3668 85.5933 52.583C85.634 52.7991 85.7537 53.0674 85.8597 53.1789ZM126.329 53.2964C126.329 53.4138 126.287 53.5099 126.235 53.5099C126.183 53.5099 126.082 53.4138 126.01 53.2964C125.937 53.1789 125.979 53.0828 126.104 53.0828C126.228 53.0828 126.329 53.1789 126.329 53.2964ZM88.2047 54.6418C87.8156 55.0318 87.67 54.6063 87.9875 54.007C88.2865 53.4429 88.2906 53.442 88.3611 53.9252C88.4003 54.1939 88.33 54.5162 88.2047 54.6418ZM97.8816 53.9405C97.9554 54.0599 98.1288 54.0939 98.2671 54.0162C98.4485 53.9141 98.4466 53.9527 98.2599 54.1546C98.0549 54.3765 98.0771 54.4929 98.3664 54.7131C98.711 54.9756 98.7106 54.9918 98.3607 54.9982C98.1568 55.0021 97.8699 55.1973 97.7235 55.4323C97.5771 55.6672 97.2943 55.8595 97.0948 55.8595C96.8956 55.8595 96.6733 55.9556 96.6009 56.073C96.5284 56.1905 95.9051 56.2866 95.2157 56.2866C94.5263 56.2866 93.9019 56.3842 93.8284 56.5036C93.7546 56.623 93.598 56.6611 93.4799 56.5878C93.3619 56.5147 92.7684 56.437 92.1606 56.4152C91.553 56.3932 90.9369 56.3016 90.7916 56.2114C90.6384 56.1166 90.5273 56.1538 90.5273 56.3001C90.5273 56.472 90.4423 56.4853 90.261 56.342C89.8997 56.0564 88.3613 56.0747 87.9884 56.3691C87.7337 56.5703 87.7267 56.5327 87.9426 56.1264C88.0832 55.862 88.132 55.6459 88.051 55.6459C87.9703 55.6459 88.0711 55.4609 88.2752 55.2347C88.6554 54.8137 89.5803 54.605 93.5108 54.0535C96.0295 53.7 97.7067 53.6569 97.8816 53.9405ZM70.8536 55.9686C70.8877 56.302 70.8734 56.3129 70.7871 56.0196C70.5914 55.3547 70.2886 55.6239 70.4267 56.34L70.5603 57.0342L70.1017 56.6273C69.6962 56.2678 69.6429 56.2614 69.6429 56.5739C69.6429 56.7683 69.5711 56.9259 69.4831 56.9242C69.2502 56.9193 68.6496 56.5073 68.8698 56.5034C68.9721 56.5017 68.9397 56.3601 68.7977 56.1886C68.5842 55.9306 68.6439 55.8539 69.1447 55.7428C69.4773 55.6689 69.8454 55.5754 69.9626 55.5348C70.4239 55.3752 70.8122 55.5643 70.8536 55.9686ZM125.903 58.7201C125.903 58.7662 125.759 58.8593 125.583 58.9271C125.408 58.9945 125.264 58.9567 125.264 58.8431C125.264 58.7293 125.408 58.6361 125.583 58.6361C125.759 58.6361 125.903 58.6739 125.903 58.7201ZM129.739 60.0371C129.739 60.2201 129.642 60.3096 129.522 60.2359C129.403 60.162 129.361 60.0123 129.428 59.903C129.611 59.6067 129.739 59.6618 129.739 60.0371ZM135.28 60.5585C135.28 60.6759 135.19 60.7721 135.079 60.7721C134.969 60.7721 134.819 60.6759 134.747 60.5585C134.674 60.441 134.765 60.3449 134.947 60.3449C135.13 60.3449 135.28 60.441 135.28 60.5585ZM137.517 64.8303C137.59 64.9478 137.547 65.0439 137.423 65.0439C137.299 65.0439 137.198 64.9478 137.198 64.8303C137.198 64.7128 137.24 64.6167 137.292 64.6167C137.343 64.6167 137.445 64.7128 137.517 64.8303ZM139.484 66.0273C139.413 66.0982 139.229 66.1059 139.076 66.0441C138.906 65.976 138.956 65.9254 139.204 65.9151C139.429 65.9059 139.555 65.9563 139.484 66.0273ZM142.041 67.5224C141.971 67.5933 141.787 67.601 141.633 67.5393C141.463 67.4711 141.513 67.4205 141.762 67.4103C141.986 67.4011 142.112 67.4515 142.041 67.5224ZM87.6894 68.2879C87.6214 68.4581 87.5709 68.4075 87.5607 68.1587C87.5515 67.9336 87.6018 67.8075 87.6726 67.8785C87.7433 67.9494 87.751 68.1337 87.6894 68.2879ZM88.0542 70.2769C88.1354 70.971 88.1173 71.1579 88.0027 70.8109C87.7297 69.9847 87.5338 68.5186 87.7459 68.8885C87.8469 69.0647 87.9856 69.6895 88.0542 70.2769ZM143.165 69.3283C143.165 69.439 143.021 69.5293 142.845 69.5293C142.515 69.5293 142.421 69.2773 142.661 69.0368C142.832 68.8661 143.165 69.059 143.165 69.3283ZM143.378 69.9565C143.554 70.0703 143.601 70.1635 143.484 70.1635C143.367 70.1635 143.127 70.0703 142.951 69.9565C142.776 69.8426 142.728 69.7495 142.845 69.7495C142.962 69.7495 143.202 69.8426 143.378 69.9565ZM88.6759 73.3917C88.9282 74.3928 88.9299 74.5844 88.6865 74.5844C88.4911 74.5844 88.3963 74.3116 88.3963 73.7503C88.3963 73.2763 88.2516 72.7712 88.0609 72.58C87.7889 72.3075 87.7787 72.2107 88.0076 72.0683C88.1627 71.9715 88.3089 71.9615 88.3326 72.0458C88.356 72.1302 88.5105 72.7357 88.6759 73.3917ZM87.5438 73.1856C87.5438 73.303 87.4479 73.3398 87.3307 73.2672C87.2135 73.1945 87.1176 73.039 87.1176 72.9216C87.1176 72.8041 87.2135 72.7673 87.3307 72.84C87.4479 72.9126 87.5438 73.0681 87.5438 73.1856ZM154.902 74.3528C154.913 74.6017 154.963 74.6523 155.031 74.4821C155.093 74.3278 155.085 74.1435 155.014 74.0726C154.943 74.0017 154.893 74.1277 154.902 74.3528ZM52.7385 82.4394C53.4281 82.241 54.9424 82.3087 55.2582 82.5522C55.3754 82.6423 55.8549 82.8314 56.3238 82.9721C56.7926 83.1127 57.5359 83.4196 57.9753 83.6543C58.415 83.8888 58.7745 84.0074 58.7745 83.9177C58.7745 83.828 58.8896 83.8698 59.0302 84.0108C59.1709 84.1518 59.4483 84.2671 59.6467 84.2671C59.8451 84.2671 60.0651 84.4175 60.1354 84.601C60.2057 84.7846 60.3598 84.8752 60.4778 84.8019C60.5959 84.7289 60.6924 84.771 60.6924 84.8953C60.6924 85.0196 60.7883 85.1215 60.9055 85.1215C61.0228 85.1215 61.2936 85.2898 61.5076 85.4953C61.7215 85.7007 62.1712 86.0831 62.5066 86.3447C62.8423 86.6062 63.1425 86.9426 63.1741 87.0923C63.2056 87.2418 63.3426 87.7704 63.4784 88.267C63.8072 89.4693 63.5979 90.422 62.8227 91.2507C62.4715 91.626 62.1842 92.0346 62.1842 92.1585C62.1842 92.2823 62.0533 92.3836 61.8933 92.3836C61.7333 92.3836 61.3644 92.5713 61.0733 92.8007C60.7159 93.0825 60.4742 93.1474 60.3285 93.0013C60.1825 92.855 59.8592 92.9272 59.3318 93.2241C58.3849 93.7572 55.8063 94.2935 54.5656 94.2156C54.0676 94.1842 53.6599 94.2455 53.6599 94.3516C53.6599 94.4578 53.5581 94.4817 53.4338 94.4046C53.1881 94.2525 52.7856 94.1917 50.6764 93.9881C49.9146 93.9144 48.8802 93.6572 48.3777 93.4165C47.8752 93.1756 47.2821 93.0263 47.0596 93.0846C46.829 93.145 46.6061 93.063 46.5413 92.8939C46.4789 92.7307 46.2383 92.5972 46.0069 92.5972C45.7754 92.5972 45.4349 92.3808 45.2501 92.1166C45.0656 91.8524 44.8682 91.6599 44.812 91.6894C44.3248 91.9434 43.8963 91.6544 43.6497 90.906C43.4839 90.4023 43.2083 90.0255 42.9577 89.96C42.4326 89.8222 42.5345 89.0445 43.0656 89.1357C43.6079 89.2288 43.5084 88.8237 42.9513 88.6707C42.5524 88.5612 42.5256 88.5041 42.7915 88.332C43.0538 88.162 43.0639 88.0483 42.8469 87.6974C42.6212 87.3326 42.6449 87.2367 43.0087 87.0417C43.3273 86.8708 43.4014 86.6801 43.3025 86.2853C43.1975 85.8656 43.2384 85.7836 43.5026 85.8853C43.9321 86.0504 45.1749 85.3182 45.0443 84.9771C44.9865 84.8261 45.0643 84.7622 45.229 84.8254C45.3874 84.8865 45.7196 84.6452 45.9785 84.2808C46.2342 83.9209 46.5808 83.6263 46.7485 83.6263C46.9164 83.6263 47.0536 83.5302 47.0536 83.4128C47.0536 83.2953 47.2147 83.1992 47.4114 83.1992C47.827 83.1992 49.1103 82.8128 49.6927 82.5125C49.9634 82.373 50.1411 82.3815 50.2381 82.5387C50.3385 82.7015 50.5038 82.6825 50.7858 82.4759C51.0822 82.2587 51.3153 82.2376 51.6631 82.3963C51.9391 82.5223 52.3879 82.5404 52.7385 82.4394ZM157.23 82.9856C157.23 83.103 157.086 83.1992 156.91 83.1992C156.734 83.1992 156.59 83.103 156.59 82.9856C156.59 82.8681 156.734 82.772 156.91 82.772C157.086 82.772 157.23 82.8681 157.23 82.9856ZM110.986 84.4886C111.044 84.511 111.715 84.5529 112.477 84.5819C114.509 84.6591 115.984 84.8814 116.065 85.123C116.104 85.2396 116.499 85.3351 116.944 85.3351C117.39 85.3351 117.868 85.4739 118.009 85.6441C118.15 85.8142 118.689 86.1158 119.207 86.314C119.725 86.5124 120.149 86.7473 120.149 86.836C120.149 86.9248 120.398 87.06 120.701 87.1363C121.07 87.229 121.214 87.3789 121.134 87.5867C121.069 87.758 121.113 87.8982 121.234 87.8982C121.354 87.8982 121.394 87.9943 121.321 88.1118C121.249 88.2292 121.327 88.3254 121.496 88.3254C121.664 88.3254 122.011 88.782 122.268 89.3399C122.949 90.8197 123.238 91.2928 123.689 91.6601C123.91 91.8404 123.984 91.935 123.853 91.8701C123.691 91.7902 123.58 92.2826 123.509 93.393C123.451 94.2955 123.309 95.0657 123.193 95.1045C123.077 95.1434 123.022 95.3882 123.071 95.6483C123.124 95.9311 122.983 96.3111 122.72 96.5931C122.478 96.8526 122.28 97.1456 122.28 97.2447C122.28 97.6358 121.733 98.5745 121.505 98.576C121.371 98.5769 121.275 98.7461 121.292 98.9515C121.311 99.192 121.167 99.3281 120.889 99.333C120.652 99.3373 120.223 99.5056 119.936 99.7068C119.65 99.9082 119.244 100.073 119.036 100.073C118.828 100.073 118.657 100.175 118.657 100.299C118.657 100.423 118.572 100.473 118.468 100.408C118.365 100.344 118.161 100.434 118.016 100.609C117.871 100.784 117.662 100.927 117.551 100.927C117.439 100.927 117.215 101.048 117.051 101.194C116.888 101.341 116.598 101.594 116.407 101.756C116.187 101.942 115.479 102.06 114.482 102.076C113.615 102.09 112.905 102.161 112.904 102.234C112.903 102.458 110.591 102.433 110.452 102.208C110.38 102.091 110.135 101.995 109.907 101.995C109.68 101.995 109.494 101.868 109.494 101.712C109.494 101.369 108.553 100.446 108.381 100.619C108.313 100.687 108.195 100.64 108.117 100.514C108.04 100.389 108.11 100.286 108.272 100.286C108.479 100.286 108.54 100.095 108.474 99.6478C108.423 99.2967 108.294 99.063 108.188 99.1286C108.082 99.1944 108.052 99.3616 108.121 99.5002C108.19 99.6391 108.099 99.5603 107.919 99.3253C107.738 99.0904 107.49 98.7809 107.368 98.6378C107.245 98.4947 107.17 98.2623 107.201 98.1213C107.295 97.6851 106.242 97.2894 105.142 97.3477C103.79 97.419 103.637 97.8355 104.785 98.318C105.779 98.7356 106.066 99.2899 105.571 99.8379C105.384 100.044 105.232 100.336 105.232 100.486C105.232 100.644 105.097 100.705 104.912 100.63C104.736 100.558 104.437 100.437 104.248 100.361C103.973 100.25 103.933 100.315 104.049 100.681C104.131 100.939 104.103 101.141 103.985 101.141C103.869 101.141 103.623 101.199 103.438 101.27C103.217 101.355 103.101 101.282 103.101 101.057C103.101 100.868 103.244 100.714 103.42 100.714C103.869 100.714 103.821 100.294 103.367 100.25C101.774 100.094 100.793 99.8407 100.525 99.5165C100.389 99.3527 100.146 99.2185 99.9846 99.2185C99.823 99.2185 99.6909 99.0743 99.6909 98.8981C99.6909 98.6967 99.4882 98.5777 99.1456 98.5777C98.8133 98.5777 98.6552 98.4887 98.7409 98.3498C98.8182 98.2242 98.6801 98.0692 98.4338 98.0045C98.1874 97.94 97.9861 97.7992 97.9861 97.6916C97.9861 97.5841 97.8081 97.4271 97.5905 97.3428C97.0494 97.133 95.7482 95.9595 95.5854 95.5345C95.5125 95.344 95.5673 95.1413 95.7071 95.0842C95.8471 95.027 95.7514 94.9727 95.4946 94.9636C94.9367 94.9435 94.6769 94.6002 94.9493 94.2431C95.0575 94.1015 95.1647 93.553 95.1875 93.0244C95.254 91.4865 95.8117 90.1424 96.9657 88.7393C97.2349 88.4121 97.9667 88.0208 98.222 88.0675C98.2929 88.0806 98.4771 87.8557 98.6309 87.5675C98.8016 87.2476 99.0989 87.0438 99.3947 87.0438C99.6611 87.0438 99.943 86.9398 100.021 86.8125C100.287 86.3823 102.982 85.4032 105.019 84.9974C105.312 84.9389 105.711 84.843 105.906 84.784C106.102 84.7251 106.326 84.7821 106.405 84.9109C106.507 85.0758 106.685 85.06 107.01 84.8575C107.262 84.6994 108.043 84.5433 108.745 84.5104C109.447 84.4775 110.053 84.4188 110.092 84.3799C110.155 84.3165 110.711 84.3842 110.986 84.4886ZM158.344 86.0292C158.235 87.2168 158.003 87.6846 157.523 87.6846C157.192 87.6846 157.178 87.6412 157.359 87.1694C157.429 86.9842 157.573 86.8857 157.678 86.9509C157.783 87.0158 157.869 86.9742 157.869 86.858C157.869 86.6085 157.35 86.0598 156.967 85.9043C156.587 85.7501 157.195 85.3353 157.583 85.4846C157.749 85.5482 157.869 85.4504 157.869 85.2511C157.869 85.0623 157.999 84.9079 158.157 84.9079C158.376 84.9079 158.421 85.1785 158.344 86.0292ZM63.8439 88.141C63.7906 88.301 63.694 88.204 63.6186 87.9153C63.5259 87.5601 63.5536 87.4765 63.7117 87.635C63.8358 87.7593 63.895 87.9868 63.8439 88.141ZM159.574 89.1797C159.574 89.4147 159.67 89.6069 159.787 89.6069C159.904 89.6069 160 89.4147 160 89.1797C160 88.9448 159.904 88.7525 159.787 88.7525C159.67 88.7525 159.574 88.9448 159.574 89.1797ZM157.23 89.8205C157.23 89.938 157.128 90.0341 157.004 90.0341C156.88 90.0341 156.838 89.938 156.91 89.8205C156.982 89.703 157.084 89.6069 157.136 89.6069C157.187 89.6069 157.23 89.703 157.23 89.8205ZM157.797 94.7865C157.738 94.9334 157.69 94.8132 157.69 94.5195C157.69 94.2258 157.738 94.1058 157.797 94.2525C157.856 94.3995 157.856 94.6398 157.797 94.7865ZM111.252 97.287C109.627 98.0326 110.187 98.4325 113.17 98.6549C115.476 98.8268 115.516 98.7424 113.803 97.2962C113.241 96.8216 112.274 96.8182 111.252 97.287ZM102.888 100.5C102.888 100.618 102.792 100.714 102.674 100.714C102.557 100.714 102.461 100.618 102.461 100.5C102.461 100.383 102.557 100.286 102.674 100.286C102.792 100.286 102.888 100.383 102.888 100.5ZM106.66 101.827C106.801 101.939 107.113 101.968 107.353 101.892C107.666 101.792 107.789 101.847 107.789 102.088C107.789 102.272 107.683 102.422 107.553 102.422C107.424 102.422 107.139 102.649 106.922 102.927C106.6 103.337 106.349 103.423 105.569 103.391C104.938 103.365 104.658 103.429 104.744 103.581C104.816 103.707 104.62 103.541 104.308 103.212C103.598 102.465 103.588 102.08 104.273 101.907C104.566 101.834 104.805 101.675 104.805 101.554C104.805 101.298 106.264 101.513 106.66 101.827ZM108.526 101.767C108.593 101.876 108.551 102.026 108.432 102.1C108.313 102.174 108.215 102.084 108.215 101.901C108.215 101.526 108.343 101.471 108.526 101.767ZM159.295 110.054C159.241 110.262 159.193 110.144 159.189 109.791C159.185 109.439 159.229 109.269 159.287 109.413C159.346 109.558 159.349 109.846 159.295 110.054ZM158.721 114.264C158.721 114.316 158.625 114.418 158.508 114.49C158.391 114.563 158.295 114.52 158.295 114.396C158.295 114.272 158.391 114.17 158.508 114.17C158.625 114.17 158.721 114.212 158.721 114.264ZM157.942 120.907C157.873 121.089 157.77 121.191 157.715 121.135C157.659 121.079 157.676 120.931 157.754 120.806C157.964 120.465 158.087 120.531 157.942 120.907ZM3.76108 129.388C4.11228 130.005 4.63396 130.924 4.92059 131.432C5.31356 132.127 5.47403 132.269 5.57376 132.008C5.64664 131.818 5.6183 131.717 5.5109 131.783C5.27328 131.93 4.99155 131.133 5.17547 130.834C5.25176 130.711 5.16716 130.675 4.97451 130.749C4.72389 130.846 4.6557 130.753 4.69704 130.373C4.7273 130.096 4.64696 129.888 4.51867 129.911C4.39038 129.934 4.07264 129.574 3.81244 129.11C3.55245 128.646 3.29075 128.267 3.23108 128.267C3.1712 128.267 3.40988 128.771 3.76108 129.388ZM8.5304 136.246C8.67169 136.159 8.69833 136.204 8.59945 136.365C8.49225 136.538 8.563 136.603 8.81127 136.558C9.0604 136.513 9.19614 136.638 9.22065 136.935C9.24089 137.18 9.13072 137.38 8.976 137.38C8.82108 137.38 8.69449 137.264 8.69449 137.122C8.69449 136.979 8.55064 136.743 8.37483 136.597C8.19902 136.451 8.06625 136.175 8.07989 135.984C8.10056 135.693 8.1206 135.698 8.20264 136.012C8.25656 136.219 8.40403 136.324 8.5304 136.246ZM9.65091 138.096C9.59231 138.191 9.65517 138.306 9.79071 138.352C9.92624 138.397 9.99018 138.573 9.93285 138.744C9.86231 138.954 9.71378 138.831 9.47212 138.365C9.16887 137.779 9.16354 137.695 9.43653 137.8C9.61319 137.868 9.70952 138.001 9.65091 138.096ZM49.824 138.758C49.824 138.876 49.7281 138.912 49.6109 138.84C49.4937 138.767 49.3978 138.612 49.3978 138.494C49.3978 138.377 49.4937 138.34 49.6109 138.413C49.7281 138.485 49.824 138.641 49.824 138.758ZM10.959 140.518C10.9042 140.652 10.8516 140.588 10.8424 140.376C10.8326 140.15 10.7275 140.05 10.5896 140.135C10.429 140.235 10.4021 140.128 10.5059 139.801C10.6097 139.473 10.5828 139.367 10.4221 139.466C10.1583 139.63 10.0978 139.32 10.3452 139.072C10.5419 138.875 11.0966 140.182 10.959 140.518ZM51.1621 140.427C50.9584 140.711 50.7293 140.026 50.8452 139.48L50.9814 138.84L51.105 139.587C51.1732 139.998 51.1988 140.377 51.1621 140.427ZM12.5538 142.67C12.664 142.602 12.7403 142.625 12.7235 142.722C12.6506 143.143 12.7591 143.448 12.9419 143.334C13.2537 143.141 13.4593 143.654 13.1812 143.931C12.9905 144.121 12.9681 144.083 13.0868 143.771C13.1908 143.497 13.1646 143.41 13.0073 143.507C12.7667 143.656 12.0908 142.871 12.121 142.477C12.1302 142.356 12.1865 142.378 12.2457 142.525C12.3052 142.673 12.4439 142.738 12.5538 142.67ZM14.6615 145.474C14.6615 145.657 14.5641 145.746 14.445 145.673C14.3258 145.599 14.2834 145.449 14.351 145.34C14.5336 145.043 14.6615 145.098 14.6615 145.474ZM15.7745 146.713C15.9171 146.625 15.9444 146.67 15.8453 146.83C15.7247 147.026 15.584 147 15.2797 146.723C15.0568 146.521 14.8746 146.253 14.8746 146.128C14.8746 146.003 15.025 146.115 15.2087 146.378C15.3926 146.641 15.6473 146.792 15.7745 146.713ZM17.5465 148.388C17.6162 148.458 17.5819 148.572 17.4702 148.641C17.3585 148.71 17.155 148.632 17.0178 148.466C16.8213 148.229 16.8375 148.175 17.0941 148.213C17.2731 148.239 17.4766 148.318 17.5465 148.388ZM138.909 154.317C138.736 154.426 138.651 154.571 138.718 154.639C138.786 154.707 138.963 154.616 139.111 154.437C139.419 154.066 139.36 154.031 138.909 154.317Z" fill="var(--fill-0, #2D2D32)"/>
</svg>
