<svg width="108" height="52" viewBox="0 0 108 52" fill="none" xmlns="http://www.w3.org/2000/svg" xmlns:xlink="http://www.w3.org/1999/xlink">
<g clip-path="url(#clip0_260_335)">
<path d="M10.872 22.728H15.936L10.968 29.088L16.32 36H11.088L6.168 29.256V36H1.584V22.728H6.168V29.16L10.872 22.728ZM30.006 29.328C30.006 30.432 29.854 31.416 29.55 32.28C29.246 33.144 28.806 33.872 28.23 34.464C27.654 35.04 26.958 35.48 26.142 35.784C25.326 36.088 24.398 36.24 23.358 36.24C22.398 36.24 21.51 36.088 20.694 35.784C19.894 35.48 19.198 35.04 18.606 34.464C18.03 33.872 17.574 33.144 17.238 32.28C16.918 31.416 16.758 30.432 16.758 29.328C16.758 27.856 17.022 26.616 17.55 25.608C18.094 24.584 18.862 23.808 19.854 23.28C20.846 22.752 22.038 22.488 23.43 22.488C24.71 22.488 25.838 22.752 26.814 23.28C27.806 23.808 28.582 24.584 29.142 25.608C29.718 26.616 30.006 27.856 30.006 29.328ZM21.414 29.328C21.414 30.08 21.478 30.72 21.606 31.248C21.734 31.776 21.942 32.176 22.23 32.448C22.534 32.704 22.926 32.832 23.406 32.832C23.886 32.832 24.262 32.704 24.534 32.448C24.822 32.176 25.03 31.776 25.158 31.248C25.286 30.72 25.35 30.08 25.35 29.328C25.35 28.576 25.286 27.944 25.158 27.432C25.03 26.92 24.822 26.536 24.534 26.28C24.246 26.024 23.862 25.896 23.382 25.896C22.694 25.896 22.19 26.184 21.87 26.76C21.566 27.336 21.414 28.192 21.414 29.328ZM40.7273 22.488C42.1993 22.488 43.3513 23.08 44.1833 24.264C45.0153 25.432 45.4313 27.12 45.4313 29.328C45.4313 30.832 45.2153 32.104 44.7833 33.144C44.3673 34.168 43.7913 34.944 43.0553 35.472C42.3353 35.984 41.5113 36.24 40.5833 36.24C39.9593 36.24 39.4313 36.16 38.9993 36C38.5673 35.84 38.2073 35.648 37.9193 35.424C37.6313 35.184 37.3913 34.944 37.1992 34.704H37.0553C37.0873 35.008 37.1193 35.336 37.1513 35.688C37.1833 36.04 37.1992 36.448 37.1992 36.912V41.76H32.6152V22.728H36.3353L36.9833 24.408H37.1992C37.4233 24.056 37.6873 23.736 37.9913 23.448C38.3113 23.16 38.6953 22.928 39.1433 22.752C39.5913 22.576 40.1193 22.488 40.7273 22.488ZM38.9993 26.088C38.5513 26.088 38.1993 26.2 37.9433 26.424C37.6873 26.632 37.5033 26.944 37.3913 27.36C37.2793 27.776 37.2153 28.304 37.1992 28.944V29.304C37.1992 30.008 37.2473 30.6 37.3433 31.08C37.4553 31.56 37.6473 31.928 37.9193 32.184C38.1913 32.424 38.5593 32.544 39.0233 32.544C39.4073 32.544 39.7273 32.44 39.9833 32.232C40.2553 32.008 40.4553 31.656 40.5833 31.176C40.7113 30.696 40.7753 30.064 40.7753 29.28C40.7753 28.112 40.6233 27.288 40.3193 26.808C40.0153 26.328 39.5753 26.088 38.9993 26.088ZM52.3331 22.488C53.4211 22.488 54.4051 22.608 55.2851 22.848C56.1811 23.088 56.8931 23.472 57.4211 24C57.9491 24.512 58.2131 25.208 58.2131 26.088C58.2131 26.808 57.9891 27.424 57.5411 27.936C57.1091 28.448 56.5331 28.8 55.8131 28.992V29.112C56.5171 29.208 57.0851 29.408 57.5171 29.712C57.9491 30 58.2611 30.368 58.4531 30.816C58.6611 31.248 58.7651 31.72 58.7651 32.232C58.7651 33.08 58.5331 33.808 58.0691 34.416C57.6051 35.008 56.8771 35.464 55.8851 35.784C54.9091 36.088 53.6531 36.24 52.1171 36.24C51.3171 36.24 50.6371 36.208 50.0771 36.144C49.5171 36.08 49.0211 35.992 48.5891 35.88C48.1571 35.768 47.7251 35.64 47.2931 35.496V31.992C47.8211 32.168 48.4611 32.352 49.2131 32.544C49.9811 32.736 50.8611 32.832 51.8531 32.832C52.5411 32.832 53.0451 32.768 53.3651 32.64C53.7011 32.512 53.9171 32.36 54.0131 32.184C54.1251 32.008 54.1811 31.848 54.1811 31.704C54.1811 31.464 54.1171 31.264 53.9891 31.104C53.8771 30.944 53.6371 30.824 53.2691 30.744C52.9011 30.648 52.3491 30.6 51.6131 30.6H49.8851V27.624H51.3251C52.2691 27.624 52.9331 27.544 53.3171 27.384C53.7011 27.224 53.8931 26.976 53.8931 26.64C53.8931 26.368 53.7571 26.152 53.4851 25.992C53.2131 25.832 52.7651 25.752 52.1411 25.752C51.5011 25.752 50.9011 25.824 50.3411 25.968C49.7811 26.112 49.1971 26.32 48.5891 26.592L47.2931 23.496C48.0931 23.16 48.8851 22.912 49.6691 22.752C50.4531 22.576 51.3411 22.488 52.3331 22.488ZM65.2678 27.888C65.2678 28.16 65.2598 28.448 65.2438 28.752C65.2438 29.04 65.2358 29.328 65.2198 29.616C65.2038 29.904 65.1798 30.184 65.1478 30.456C65.1318 30.728 65.1158 30.984 65.0998 31.224L70.1158 22.728H75.1078V36H70.9318V31.2C70.9318 30.784 70.9318 30.352 70.9318 29.904C70.9478 29.456 70.9718 29.024 71.0038 28.608C71.0358 28.176 71.0678 27.792 71.0998 27.456L66.0358 36H61.0918V22.728H65.2678V27.888ZM82.8555 22.728V27.504H86.4795V22.728H91.0635V36H86.4795V30.912H82.8555V36H78.2715V22.728H82.8555ZM100.712 22.488C102.392 22.488 103.704 22.904 104.648 23.736C105.592 24.568 106.064 25.752 106.064 27.288V36H102.896L102.008 34.248H101.912C101.544 34.712 101.16 35.096 100.76 35.4C100.376 35.688 99.9284 35.896 99.4164 36.024C98.9044 36.168 98.2804 36.24 97.5444 36.24C96.7764 36.24 96.0884 36.088 95.4804 35.784C94.8724 35.464 94.3924 34.992 94.0404 34.368C93.6884 33.728 93.5124 32.92 93.5124 31.944C93.5124 30.52 94.0004 29.464 94.9764 28.776C95.9684 28.088 97.4004 27.704 99.2724 27.624L101.48 27.552V27.36C101.48 26.768 101.336 26.352 101.048 26.112C100.76 25.856 100.368 25.728 99.8724 25.728C99.3444 25.728 98.7604 25.824 98.1204 26.016C97.4804 26.192 96.8324 26.424 96.1764 26.712L94.8564 23.688C95.6244 23.288 96.4884 22.992 97.4484 22.8C98.4244 22.592 99.5124 22.488 100.712 22.488ZM100.448 30.12C99.6164 30.152 99.0244 30.304 98.6724 30.576C98.3364 30.832 98.1684 31.2 98.1684 31.68C98.1684 32.128 98.2884 32.464 98.5284 32.688C98.7684 32.896 99.0884 33 99.4884 33C100.048 33 100.52 32.824 100.904 32.472C101.304 32.12 101.504 31.664 101.504 31.104V30.072L100.448 30.12Z" fill="#2D2D32"/>
<use xlink:href="#stroke0_260_335" transform="translate(9.672 21.528) scale(0.114286)"/>
<use xlink:href="#stroke0_260_335" transform="translate(11.832 21.528) scale(0.114286)"/>
<use xlink:href="#stroke0_260_335" transform="translate(13.992 21.528) scale(0.114286)"/>
<use xlink:href="#stroke0_260_335" transform="translate(16.7487 23.6369) scale(0.114286) rotate(127.995)"/>
<use xlink:href="#stroke0_260_335" transform="translate(15.4191 25.3392) scale(0.114286) rotate(127.995)"/>
<use xlink:href="#stroke0_260_335" transform="translate(14.0894 27.0414) scale(0.114286) rotate(127.995)"/>
<use xlink:href="#stroke0_260_335" transform="translate(12.7597 28.7436) scale(0.114286) rotate(127.995)"/>
<use xlink:href="#stroke0_260_335" transform="translate(12.3978 28.9745) scale(0.114286) rotate(52.2492)"/>
<use xlink:href="#stroke0_260_335" transform="translate(13.7202 30.6824) scale(0.114286) rotate(52.2492)"/>
<use xlink:href="#stroke0_260_335" transform="translate(15.0426 32.3903) scale(0.114286) rotate(52.2492)"/>
<use xlink:href="#stroke0_260_335" transform="translate(16.3651 34.0981) scale(0.114286) rotate(52.2492)"/>
<use xlink:href="#stroke0_260_335" transform="translate(15.6362 37.2) scale(0.114286) rotate(-180)"/>
<use xlink:href="#stroke0_260_335" transform="translate(13.4762 37.2) scale(0.114286) rotate(-180)"/>
<use xlink:href="#stroke0_260_335" transform="translate(10.253 36.8916) scale(0.114286) rotate(-126.112)"/>
<use xlink:href="#stroke0_260_335" transform="translate(8.98002 35.1466) scale(0.114286) rotate(-126.112)"/>
<use xlink:href="#stroke0_260_335" transform="translate(7.70698 33.4016) scale(0.114286) rotate(-126.112)"/>
<use xlink:href="#stroke0_260_335" transform="translate(6.43395 31.6566) scale(0.114286) rotate(-126.112)"/>
<use xlink:href="#stroke0_260_335" transform="translate(7.368 29.3199) scale(0.114286) rotate(90)"/>
<use xlink:href="#stroke0_260_335" transform="translate(7.368 31.4799) scale(0.114286) rotate(90)"/>
<use xlink:href="#stroke0_260_335" transform="translate(7.368 33.6399) scale(0.114286) rotate(90)"/>
<use xlink:href="#stroke0_260_335" transform="translate(6.36812 37.2) scale(0.114286) rotate(-180)"/>
<use xlink:href="#stroke0_260_335" transform="translate(4.20812 37.2) scale(0.114286) rotate(-180)"/>
<use xlink:href="#stroke0_260_335" transform="translate(0.384 36.4641) scale(0.114286) rotate(-90)"/>
<use xlink:href="#stroke0_260_335" transform="translate(0.384 34.3041) scale(0.114286) rotate(-90)"/>
<use xlink:href="#stroke0_260_335" transform="translate(0.384 32.1441) scale(0.114286) rotate(-90)"/>
<use xlink:href="#stroke0_260_335" transform="translate(0.384 29.9841) scale(0.114286) rotate(-90)"/>
<use xlink:href="#stroke0_260_335" transform="translate(0.384 27.8241) scale(0.114286) rotate(-90)"/>
<use xlink:href="#stroke0_260_335" transform="translate(0.384 25.6641) scale(0.114286) rotate(-90)"/>
<use xlink:href="#stroke0_260_335" transform="translate(0.807878 21.528) scale(0.114286)"/>
<use xlink:href="#stroke0_260_335" transform="translate(2.96788 21.528) scale(0.114286)"/>
<use xlink:href="#stroke0_260_335" transform="translate(7.368 21.6879) scale(0.114286) rotate(90)"/>
<use xlink:href="#stroke0_260_335" transform="translate(7.368 23.8479) scale(0.114286) rotate(90)"/>
<use xlink:href="#stroke0_260_335" transform="translate(7.368 26.0079) scale(0.114286) rotate(90)"/>
<use xlink:href="#stroke0_260_335" transform="translate(4.61373 29.2524) scale(0.114286) rotate(-53.8204)"/>
<use xlink:href="#stroke0_260_335" transform="translate(5.88882 27.5089) scale(0.114286) rotate(-53.8204)"/>
<use xlink:href="#stroke0_260_335" transform="translate(7.1639 25.7655) scale(0.114286) rotate(-53.8204)"/>
<use xlink:href="#stroke0_260_335" transform="translate(8.43899 24.022) scale(0.114286) rotate(-53.8204)"/>
<use xlink:href="#stroke0_260_335" transform="translate(9.19501 22.9882) scale(0.114286) rotate(-53.8204)"/>
<use xlink:href="#stroke0_260_335" transform="translate(31.206 28.128) scale(0.114286) rotate(90)"/>
<use xlink:href="#stroke0_260_335" transform="translate(31.2185 30.5682) scale(0.114286) rotate(102.823)"/>
<use xlink:href="#stroke0_260_335" transform="translate(30.6404 33.066) scale(0.114286) rotate(121.133)"/>
<use xlink:href="#stroke0_260_335" transform="translate(29.213 35.3281) scale(0.114286) rotate(144.463)"/>
<use xlink:href="#stroke0_260_335" transform="translate(27.0684 36.7998) scale(0.114286) rotate(164.623)"/>
<use xlink:href="#stroke0_260_335" transform="translate(24.6685 37.4282) scale(0.114286) rotate(179.462)"/>
<use xlink:href="#stroke0_260_335" transform="translate(22.1682 37.4529) scale(0.114286) rotate(-165.016)"/>
<use xlink:href="#stroke0_260_335" transform="translate(19.6685 36.7587) scale(0.114286) rotate(-145.303)"/>
<use xlink:href="#stroke0_260_335" transform="translate(17.5185 35.2031) scale(0.114286) rotate(-122.816)"/>
<use xlink:href="#stroke0_260_335" transform="translate(16.1512 33.0312) scale(0.114286) rotate(-104.265)"/>
<use xlink:href="#stroke0_260_335" transform="translate(15.5697 30.6445) scale(0.114286) rotate(-90.5339)"/>
<use xlink:href="#stroke0_260_335" transform="translate(15.5331 28.2093) scale(0.114286) rotate(-77.9276)"/>
<use xlink:href="#stroke0_260_335" transform="translate(16.0857 25.6813) scale(0.114286) rotate(-58.5767)"/>
<use xlink:href="#stroke0_260_335" transform="translate(17.5068 23.4374) scale(0.114286) rotate(-36.1213)"/>
<use xlink:href="#stroke0_260_335" transform="translate(19.6467 21.9424) scale(0.114286) rotate(-15.5163)"/>
<use xlink:href="#stroke0_260_335" transform="translate(22.0399 21.3085) scale(0.114286) rotate(-0.907113)"/>
<use xlink:href="#stroke0_260_335" transform="translate(24.54 21.2628) scale(0.114286) rotate(14.5835)"/>
<use xlink:href="#stroke0_260_335" transform="translate(27.0465 21.9415) scale(0.114286) rotate(34.3988)"/>
<use xlink:href="#stroke0_260_335" transform="translate(29.1972 23.4791) scale(0.114286) rotate(56.4162)"/>
<use xlink:href="#stroke0_260_335" transform="translate(30.6005 25.6389) scale(0.114286) rotate(75.3525)"/>
<use xlink:href="#stroke0_260_335" transform="translate(31.1964 28.0324) scale(0.114286) rotate(89.5576)"/>
<use xlink:href="#stroke0_260_335" transform="translate(22.614 28.128) scale(0.114286) rotate(90)"/>
<use xlink:href="#stroke0_260_335" transform="translate(22.4608 29.9668) scale(0.114286) rotate(72.9417)"/>
<use xlink:href="#stroke0_260_335" transform="translate(22.0852 31.5043) scale(0.114286) rotate(5.81667)"/>
<use xlink:href="#stroke0_260_335" transform="translate(23.3282 32.4417) scale(0.114286) rotate(-63.9649)"/>
<use xlink:href="#stroke0_260_335" transform="translate(24.0972 30.9374) scale(0.114286) rotate(-87.8337)"/>
<use xlink:href="#stroke0_260_335" transform="translate(24.2705 29.0502) scale(0.114286) rotate(-101.64)"/>
<use xlink:href="#stroke0_260_335" transform="translate(24.7877 27.4791) scale(0.114286) rotate(-162.949)"/>
<use xlink:href="#stroke0_260_335" transform="translate(23.7153 26.2991) scale(0.114286) rotate(127.752)"/>
<use xlink:href="#stroke0_260_335" transform="translate(22.7237 27.4512) scale(0.114286) rotate(94.1481)"/>
<use xlink:href="#stroke0_260_335" transform="translate(39.5273 21.288) scale(0.114286)"/>
<use xlink:href="#stroke0_260_335" transform="translate(42.3386 21.3581) scale(0.114286) rotate(29.0868)"/>
<use xlink:href="#stroke0_260_335" transform="translate(44.7027 22.8289) scale(0.114286) rotate(57.6267)"/>
<use xlink:href="#stroke0_260_335" transform="translate(46.0272 25.0337) scale(0.114286) rotate(76.648)"/>
<use xlink:href="#stroke0_260_335" transform="translate(46.5624 27.3656) scale(0.114286) rotate(87.4922)"/>
<use xlink:href="#stroke0_260_335" transform="translate(46.6795 29.711) scale(0.114286) rotate(96.1914)"/>
<use xlink:href="#stroke0_260_335" transform="translate(46.4272 32.1642) scale(0.114286) rotate(110.145)"/>
<use xlink:href="#stroke0_260_335" transform="translate(45.5266 34.6157) scale(0.114286) rotate(130.427)"/>
<use xlink:href="#stroke0_260_335" transform="translate(43.6299 36.696) scale(0.114286) rotate(159.851)"/>
<use xlink:href="#stroke0_260_335" transform="translate(41.0339 37.5249) scale(0.114286) rotate(-174.228)"/>
<use xlink:href="#stroke0_260_335" transform="translate(38.2059 37.1373) scale(0.114286) rotate(-143.215)"/>
<use xlink:href="#stroke0_260_335" transform="translate(38.2326 34.3357) scale(0.114286) rotate(84.7732)"/>
<use xlink:href="#stroke0_260_335" transform="translate(38.3993 36.5984) scale(0.114286) rotate(90)"/>
<use xlink:href="#stroke0_260_335" transform="translate(38.3993 38.7585) scale(0.114286) rotate(90)"/>
<use xlink:href="#stroke0_260_335" transform="translate(38.0408 42.96) scale(0.114286) rotate(-180)"/>
<use xlink:href="#stroke0_260_335" transform="translate(35.8808 42.96) scale(0.114286) rotate(-180)"/>
<use xlink:href="#stroke0_260_335" transform="translate(31.4153 42.8656) scale(0.114286) rotate(-90)"/>
<use xlink:href="#stroke0_260_335" transform="translate(31.4153 40.7056) scale(0.114286) rotate(-90)"/>
<use xlink:href="#stroke0_260_335" transform="translate(31.4153 38.5455) scale(0.114286) rotate(-90)"/>
<use xlink:href="#stroke0_260_335" transform="translate(31.4153 36.3855) scale(0.114286) rotate(-90)"/>
<use xlink:href="#stroke0_260_335" transform="translate(31.4153 34.2255) scale(0.114286) rotate(-90)"/>
<use xlink:href="#stroke0_260_335" transform="translate(31.4153 32.0655) scale(0.114286) rotate(-90)"/>
<use xlink:href="#stroke0_260_335" transform="translate(31.4153 29.9056) scale(0.114286) rotate(-90)"/>
<use xlink:href="#stroke0_260_335" transform="translate(31.4153 27.7456) scale(0.114286) rotate(-90)"/>
<use xlink:href="#stroke0_260_335" transform="translate(31.4153 25.5856) scale(0.114286) rotate(-90)"/>
<use xlink:href="#stroke0_260_335" transform="translate(31.9177 21.528) scale(0.114286)"/>
<use xlink:href="#stroke0_260_335" transform="translate(34.0777 21.528) scale(0.114286)"/>
<use xlink:href="#stroke0_260_335" transform="translate(37.4197 22.2051) scale(0.114286) rotate(68.9077)"/>
<use xlink:href="#stroke0_260_335" transform="translate(36.2934 23.4041) scale(0.114286) rotate(-43.4726)"/>
<use xlink:href="#stroke0_260_335" transform="translate(38.5493 21.5461) scale(0.114286) rotate(-8.86604)"/>
<use xlink:href="#stroke0_260_335" transform="translate(40.1992 27.288) scale(0.114286) rotate(-180)"/>
<use xlink:href="#stroke0_260_335" transform="translate(38.9063 26.4798) scale(0.114286) rotate(106.668)"/>
<use xlink:href="#stroke0_260_335" transform="translate(38.3899 28.2173) scale(0.114286) rotate(89.5315)"/>
<use xlink:href="#stroke0_260_335" transform="translate(38.131 29.9808) scale(0.114286) rotate(67.0065)"/>
<use xlink:href="#stroke0_260_335" transform="translate(37.9094 31.4679) scale(0.114286) rotate(-6.11342)"/>
<use xlink:href="#stroke0_260_335" transform="translate(39.163 31.9652) scale(0.114286) rotate(-76.598)"/>
<use xlink:href="#stroke0_260_335" transform="translate(39.6054 30.1614) scale(0.114286) rotate(-91.6485)"/>
<use xlink:href="#stroke0_260_335" transform="translate(39.932 28.4819) scale(0.114286) rotate(-121.265)"/>
<use xlink:href="#stroke0_260_335" transform="translate(40.1992 27.288) scale(0.114286) rotate(-180)"/>
<use xlink:href="#stroke0_260_335" transform="translate(51.1331 21.288) scale(0.114286)"/>
<use xlink:href="#stroke0_260_335" transform="translate(53.5146 21.2739) scale(0.114286) rotate(10.2108)"/>
<use xlink:href="#stroke0_260_335" transform="translate(56.0551 21.7055) scale(0.114286) rotate(28.8532)"/>
<use xlink:href="#stroke0_260_335" transform="translate(58.664 23.299) scale(0.114286) rotate(68.1453)"/>
<use xlink:href="#stroke0_260_335" transform="translate(59.5871 26.1953) scale(0.114286) rotate(107.459)"/>
<use xlink:href="#stroke0_260_335" transform="translate(58.3823 29.0367) scale(0.114286) rotate(149.512)"/>
<use xlink:href="#stroke0_260_335" transform="translate(56.1073 27.8115) scale(0.114286) rotate(20.2304)"/>
<use xlink:href="#stroke0_260_335" transform="translate(58.9821 29.1291) scale(0.114286) rotate(64.5792)"/>
<use xlink:href="#stroke0_260_335" transform="translate(60.0819 31.8137) scale(0.114286) rotate(98.1597)"/>
<use xlink:href="#stroke0_260_335" transform="translate(59.4801 34.7633) scale(0.114286) rotate(136.066)"/>
<use xlink:href="#stroke0_260_335" transform="translate(57.4262 36.5429) scale(0.114286) rotate(161.904)"/>
<use xlink:href="#stroke0_260_335" transform="translate(55.0968 37.257) scale(0.114286) rotate(174.831)"/>
<use xlink:href="#stroke0_260_335" transform="translate(52.8139 37.4569) scale(0.114286) rotate(-178.987)"/>
<use xlink:href="#stroke0_260_335" transform="translate(50.4804 37.4373) scale(0.114286) rotate(-170.95)"/>
<use xlink:href="#stroke0_260_335" transform="translate(48.1605 37.0432) scale(0.114286) rotate(-161.862)"/>
<use xlink:href="#stroke0_260_335" transform="translate(46.0931 34.642) scale(0.114286) rotate(-90)"/>
<use xlink:href="#stroke0_260_335" transform="translate(47.1602 30.7131) scale(0.114286) rotate(16.4767)"/>
<use xlink:href="#stroke0_260_335" transform="translate(49.0551 31.35) scale(0.114286) rotate(8.34292)"/>
<use xlink:href="#stroke0_260_335" transform="translate(50.9768 31.6729) scale(0.114286) rotate(-2.23426)"/>
<use xlink:href="#stroke0_260_335" transform="translate(52.5142 32.6105) scale(0.114286) rotate(-65.4421)"/>
<use xlink:href="#stroke0_260_335" transform="translate(53.9225 32.0323) scale(0.114286) rotate(-171.782)"/>
<use xlink:href="#stroke0_260_335" transform="translate(51.9494 31.8) scale(0.114286) rotate(-180)"/>
<use xlink:href="#stroke0_260_335" transform="translate(48.6851 30.5043) scale(0.114286) rotate(-90)"/>
<use xlink:href="#stroke0_260_335" transform="translate(49.1649 26.424) scale(0.114286)"/>
<use xlink:href="#stroke0_260_335" transform="translate(51.1894 26.5153) scale(0.114286) rotate(-6.78983)"/>
<use xlink:href="#stroke0_260_335" transform="translate(53.3216 27.9388) scale(0.114286) rotate(-118.101)"/>
<use xlink:href="#stroke0_260_335" transform="translate(53.0726 26.9116) scale(0.114286) rotate(177.832)"/>
<use xlink:href="#stroke0_260_335" transform="translate(51.2288 26.9155) scale(0.114286) rotate(161.691)"/>
<use xlink:href="#stroke0_260_335" transform="translate(47.5774 27.2829) scale(0.114286) rotate(-112.714)"/>
<use xlink:href="#stroke0_260_335" transform="translate(46.7434 25.2904) scale(0.114286) rotate(-112.714)"/>
<use xlink:href="#stroke0_260_335" transform="translate(47.6468 22.0169) scale(0.114286) rotate(-14.3774)"/>
<use xlink:href="#stroke0_260_335" transform="translate(49.9494 21.4191) scale(0.114286) rotate(-4.24396)"/>
<use xlink:href="#stroke0_260_335" transform="translate(51.1331 21.288) scale(0.114286)"/>
<use xlink:href="#stroke0_260_335" transform="translate(66.4678 26.688) scale(0.114286) rotate(90)"/>
<use xlink:href="#stroke0_260_335" transform="translate(66.4879 28.9533) scale(0.114286) rotate(94.9161)"/>
<use xlink:href="#stroke0_260_335" transform="translate(63.9538 30.8047) scale(0.114286) rotate(-59.4426)"/>
<use xlink:href="#stroke0_260_335" transform="translate(65.052 28.9447) scale(0.114286) rotate(-59.4426)"/>
<use xlink:href="#stroke0_260_335" transform="translate(66.1501 27.0847) scale(0.114286) rotate(-59.4426)"/>
<use xlink:href="#stroke0_260_335" transform="translate(67.2483 25.2247) scale(0.114286) rotate(-59.4426)"/>
<use xlink:href="#stroke0_260_335" transform="translate(68.3464 23.3647) scale(0.114286) rotate(-59.4426)"/>
<use xlink:href="#stroke0_260_335" transform="translate(70.828 21.528) scale(0.114286)"/>
<use xlink:href="#stroke0_260_335" transform="translate(72.988 21.528) scale(0.114286)"/>
<use xlink:href="#stroke0_260_335" transform="translate(76.3078 22.7682) scale(0.114286) rotate(90)"/>
<use xlink:href="#stroke0_260_335" transform="translate(76.3078 24.9282) scale(0.114286) rotate(90)"/>
<use xlink:href="#stroke0_260_335" transform="translate(76.3078 27.0882) scale(0.114286) rotate(90)"/>
<use xlink:href="#stroke0_260_335" transform="translate(76.3078 29.2482) scale(0.114286) rotate(90)"/>
<use xlink:href="#stroke0_260_335" transform="translate(76.3078 31.4082) scale(0.114286) rotate(90)"/>
<use xlink:href="#stroke0_260_335" transform="translate(76.3078 33.5682) scale(0.114286) rotate(90)"/>
<use xlink:href="#stroke0_260_335" transform="translate(75.3796 37.2) scale(0.114286) rotate(-180)"/>
<use xlink:href="#stroke0_260_335" transform="translate(73.2196 37.2) scale(0.114286) rotate(-180)"/>
<use xlink:href="#stroke0_260_335" transform="translate(69.7318 36.1278) scale(0.114286) rotate(-90)"/>
<use xlink:href="#stroke0_260_335" transform="translate(69.7318 33.9678) scale(0.114286) rotate(-90)"/>
<use xlink:href="#stroke0_260_335" transform="translate(69.7318 31.8078) scale(0.114286) rotate(-90)"/>
<use xlink:href="#stroke0_260_335" transform="translate(69.728 29.5557) scale(0.114286) rotate(-85.6447)"/>
<use xlink:href="#stroke0_260_335" transform="translate(72.1514 28.0352) scale(0.114286) rotate(120.655)"/>
<use xlink:href="#stroke0_260_335" transform="translate(71.0501 29.8934) scale(0.114286) rotate(120.655)"/>
<use xlink:href="#stroke0_260_335" transform="translate(69.9488 31.7515) scale(0.114286) rotate(120.655)"/>
<use xlink:href="#stroke0_260_335" transform="translate(68.8475 33.6097) scale(0.114286) rotate(120.655)"/>
<use xlink:href="#stroke0_260_335" transform="translate(67.7462 35.4678) scale(0.114286) rotate(120.655)"/>
<use xlink:href="#stroke0_260_335" transform="translate(65.2057 37.2) scale(0.114286) rotate(-180)"/>
<use xlink:href="#stroke0_260_335" transform="translate(63.0457 37.2) scale(0.114286) rotate(-180)"/>
<use xlink:href="#stroke0_260_335" transform="translate(59.8918 35.7939) scale(0.114286) rotate(-90)"/>
<use xlink:href="#stroke0_260_335" transform="translate(59.8918 33.6339) scale(0.114286) rotate(-90)"/>
<use xlink:href="#stroke0_260_335" transform="translate(59.8918 31.4739) scale(0.114286) rotate(-90)"/>
<use xlink:href="#stroke0_260_335" transform="translate(59.8918 29.3139) scale(0.114286) rotate(-90)"/>
<use xlink:href="#stroke0_260_335" transform="translate(59.8918 27.1539) scale(0.114286) rotate(-90)"/>
<use xlink:href="#stroke0_260_335" transform="translate(59.8918 24.9939) scale(0.114286) rotate(-90)"/>
<use xlink:href="#stroke0_260_335" transform="translate(60.9859 21.528) scale(0.114286)"/>
<use xlink:href="#stroke0_260_335" transform="translate(63.1459 21.528) scale(0.114286)"/>
<use xlink:href="#stroke0_260_335" transform="translate(66.4678 22.7661) scale(0.114286) rotate(90)"/>
<use xlink:href="#stroke0_260_335" transform="translate(66.4678 24.9261) scale(0.114286) rotate(90)"/>
<use xlink:href="#stroke0_260_335" transform="translate(66.4678 26.688) scale(0.114286) rotate(90)"/>
<use xlink:href="#stroke0_260_335" transform="translate(84.0555 21.528) scale(0.114286) rotate(90)"/>
<use xlink:href="#stroke0_260_335" transform="translate(84.0555 23.688) scale(0.114286) rotate(90)"/>
<use xlink:href="#stroke0_260_335" transform="translate(84.0555 25.848) scale(0.114286) rotate(90)"/>
<use xlink:href="#stroke0_260_335" transform="translate(83.3595 26.304) scale(0.114286)"/>
<use xlink:href="#stroke0_260_335" transform="translate(85.2795 28.464) scale(0.114286) rotate(-90)"/>
<use xlink:href="#stroke0_260_335" transform="translate(85.2795 26.304) scale(0.114286) rotate(-90)"/>
<use xlink:href="#stroke0_260_335" transform="translate(85.2795 24.144) scale(0.114286) rotate(-90)"/>
<use xlink:href="#stroke0_260_335" transform="translate(87.2235 21.528) scale(0.114286)"/>
<use xlink:href="#stroke0_260_335" transform="translate(89.3835 21.528) scale(0.114286)"/>
<use xlink:href="#stroke0_260_335" transform="translate(92.2635 23.208) scale(0.114286) rotate(90)"/>
<use xlink:href="#stroke0_260_335" transform="translate(92.2635 25.368) scale(0.114286) rotate(90)"/>
<use xlink:href="#stroke0_260_335" transform="translate(92.2635 27.528) scale(0.114286) rotate(90)"/>
<use xlink:href="#stroke0_260_335" transform="translate(92.2635 29.688) scale(0.114286) rotate(90)"/>
<use xlink:href="#stroke0_260_335" transform="translate(92.2635 31.848) scale(0.114286) rotate(90)"/>
<use xlink:href="#stroke0_260_335" transform="translate(92.2635 34.008) scale(0.114286) rotate(90)"/>
<use xlink:href="#stroke0_260_335" transform="translate(90.8955 37.2) scale(0.114286) rotate(-180)"/>
<use xlink:href="#stroke0_260_335" transform="translate(88.7355 37.2) scale(0.114286) rotate(-180)"/>
<use xlink:href="#stroke0_260_335" transform="translate(85.2795 36.096) scale(0.114286) rotate(-90)"/>
<use xlink:href="#stroke0_260_335" transform="translate(85.2795 33.936) scale(0.114286) rotate(-90)"/>
<use xlink:href="#stroke0_260_335" transform="translate(87.3435 32.112) scale(0.114286) rotate(-180)"/>
<use xlink:href="#stroke0_260_335" transform="translate(85.1835 32.112) scale(0.114286) rotate(-180)"/>
<use xlink:href="#stroke0_260_335" transform="translate(84.0555 30.744) scale(0.114286) rotate(90)"/>
<use xlink:href="#stroke0_260_335" transform="translate(84.0555 32.904) scale(0.114286) rotate(90)"/>
<use xlink:href="#stroke0_260_335" transform="translate(83.7915 37.2) scale(0.114286) rotate(-180)"/>
<use xlink:href="#stroke0_260_335" transform="translate(81.6315 37.2) scale(0.114286) rotate(-180)"/>
<use xlink:href="#stroke0_260_335" transform="translate(79.4715 37.2) scale(0.114286) rotate(-180)"/>
<use xlink:href="#stroke0_260_335" transform="translate(77.0715 35.04) scale(0.114286) rotate(-90)"/>
<use xlink:href="#stroke0_260_335" transform="translate(77.0715 32.88) scale(0.114286) rotate(-90)"/>
<use xlink:href="#stroke0_260_335" transform="translate(77.0715 30.72) scale(0.114286) rotate(-90)"/>
<use xlink:href="#stroke0_260_335" transform="translate(77.0715 28.56) scale(0.114286) rotate(-90)"/>
<use xlink:href="#stroke0_260_335" transform="translate(77.0715 26.4) scale(0.114286) rotate(-90)"/>
<use xlink:href="#stroke0_260_335" transform="translate(77.0715 24.24) scale(0.114286) rotate(-90)"/>
<use xlink:href="#stroke0_260_335" transform="translate(78.9195 21.528) scale(0.114286)"/>
<use xlink:href="#stroke0_260_335" transform="translate(81.0795 21.528) scale(0.114286)"/>
<use xlink:href="#stroke0_260_335" transform="translate(99.5124 21.288) scale(0.114286)"/>
<use xlink:href="#stroke0_260_335" transform="translate(102.036 21.276) scale(0.114286) rotate(16.4374)"/>
<use xlink:href="#stroke0_260_335" transform="translate(104.655 22.1058) scale(0.114286) rotate(42.7616)"/>
<use xlink:href="#stroke0_260_335" transform="translate(106.644 24.1247) scale(0.114286) rotate(73.3111)"/>
<use xlink:href="#stroke0_260_335" transform="translate(107.264 26.5578) scale(0.114286) rotate(90)"/>
<use xlink:href="#stroke0_260_335" transform="translate(107.264 28.7178) scale(0.114286) rotate(90)"/>
<use xlink:href="#stroke0_260_335" transform="translate(107.264 30.8778) scale(0.114286) rotate(90)"/>
<use xlink:href="#stroke0_260_335" transform="translate(107.264 33.0378) scale(0.114286) rotate(90)"/>
<use xlink:href="#stroke0_260_335" transform="translate(106.867 37.2) scale(0.114286) rotate(-180)"/>
<use xlink:href="#stroke0_260_335" transform="translate(104.707 37.2) scale(0.114286) rotate(-180)"/>
<use xlink:href="#stroke0_260_335" transform="translate(101.668 36.2305) scale(0.114286) rotate(-116.878)"/>
<use xlink:href="#stroke0_260_335" transform="translate(102.426 35.6577) scale(0.114286) rotate(143.405)"/>
<use xlink:href="#stroke0_260_335" transform="translate(100.105 37.18) scale(0.114286) rotate(171.842)"/>
<use xlink:href="#stroke0_260_335" transform="translate(97.5534 37.5558) scale(0.114286) rotate(-169.375)"/>
<use xlink:href="#stroke0_260_335" transform="translate(94.7172 36.909) scale(0.114286) rotate(-136.013)"/>
<use xlink:href="#stroke0_260_335" transform="translate(92.7618 34.7879) scale(0.114286) rotate(-103.077)"/>
<use xlink:href="#stroke0_260_335" transform="translate(92.2082 32.2245) scale(0.114286) rotate(-82.1257)"/>
<use xlink:href="#stroke0_260_335" transform="translate(92.7309 29.3329) scale(0.114286) rotate(-47.532)"/>
<use xlink:href="#stroke0_260_335" transform="translate(94.7185 27.4081) scale(0.114286) rotate(-19.4418)"/>
<use xlink:href="#stroke0_260_335" transform="translate(97.037 26.6246) scale(0.114286) rotate(-6.07065)"/>
<use xlink:href="#stroke0_260_335" transform="translate(99.2758 26.4233) scale(0.114286) rotate(-1.86769)"/>
<use xlink:href="#stroke0_260_335" transform="translate(100.821 28.0249) scale(0.114286) rotate(-119.393)"/>
<use xlink:href="#stroke0_260_335" transform="translate(100.666 26.8195) scale(0.114286) rotate(173.709)"/>
<use xlink:href="#stroke0_260_335" transform="translate(98.7807 27.024) scale(0.114286) rotate(160.72)"/>
<use xlink:href="#stroke0_260_335" transform="translate(95.1552 27.372) scale(0.114286) rotate(-113.582)"/>
<use xlink:href="#stroke0_260_335" transform="translate(94.2911 25.3924) scale(0.114286) rotate(-113.582)"/>
<use xlink:href="#stroke0_260_335" transform="translate(95.2729 22.116) scale(0.114286) rotate(-14.9999)"/>
<use xlink:href="#stroke0_260_335" transform="translate(97.5478 21.5098) scale(0.114286) rotate(-5.94549)"/>
<use xlink:href="#stroke0_260_335" transform="translate(99.5124 21.288) scale(0.114286)"/>
<use xlink:href="#stroke0_260_335" transform="translate(101.694 31.273) scale(0.114286) rotate(177.797)"/>
<use xlink:href="#stroke0_260_335" transform="translate(100.145 30.6142) scale(0.114286) rotate(129.287)"/>
<use xlink:href="#stroke0_260_335" transform="translate(98.3415 31.0716) scale(0.114286) rotate(36.0986)"/>
<use xlink:href="#stroke0_260_335" transform="translate(98.9874 32.3303) scale(0.114286) rotate(-33.4109)"/>
<use xlink:href="#stroke0_260_335" transform="translate(100.304 32.0107) scale(0.114286) rotate(-90)"/>
<use xlink:href="#stroke0_260_335" transform="translate(101.702 31.2643) scale(0.114286) rotate(177.397)"/>
</g>
<defs>
<clipPath id="clip0_260_335">
<rect width="108" height="52" fill="white"/>
</clipPath>
<g id="stroke0_260_335" data-figma-scatter-ref="stroke0_260_335_ref" data-figma-scatter="f0.9_w0_aj0_sj0_r0_s14870582052140013607_sw2.4">
<path d="M10.5 0C16.299 0 21 4.70101 21 10.5C21 16.299 16.299 21 10.5 21C4.70101 21 0 16.299 0 10.5C0 4.70101 4.70101 0 10.5 0Z" fill="#DDECFF"/>
</g>
<path id="stroke0_260_335_ref" d="M10.872 22.728H15.936L10.968 29.088L16.32 36H11.088L6.168 29.256V36H1.584V22.728H6.168V29.16L10.872 22.728ZM30.006 29.328C30.006 30.432 29.854 31.416 29.55 32.28C29.246 33.144 28.806 33.872 28.23 34.464C27.654 35.04 26.958 35.48 26.142 35.784C25.326 36.088 24.398 36.24 23.358 36.24C22.398 36.24 21.51 36.088 20.694 35.784C19.894 35.48 19.198 35.04 18.606 34.464C18.03 33.872 17.574 33.144 17.238 32.28C16.918 31.416 16.758 30.432 16.758 29.328C16.758 27.856 17.022 26.616 17.55 25.608C18.094 24.584 18.862 23.808 19.854 23.28C20.846 22.752 22.038 22.488 23.43 22.488C24.71 22.488 25.838 22.752 26.814 23.28C27.806 23.808 28.582 24.584 29.142 25.608C29.718 26.616 30.006 27.856 30.006 29.328ZM21.414 29.328C21.414 30.08 21.478 30.72 21.606 31.248C21.734 31.776 21.942 32.176 22.23 32.448C22.534 32.704 22.926 32.832 23.406 32.832C23.886 32.832 24.262 32.704 24.534 32.448C24.822 32.176 25.03 31.776 25.158 31.248C25.286 30.72 25.35 30.08 25.35 29.328C25.35 28.576 25.286 27.944 25.158 27.432C25.03 26.92 24.822 26.536 24.534 26.28C24.246 26.024 23.862 25.896 23.382 25.896C22.694 25.896 22.19 26.184 21.87 26.76C21.566 27.336 21.414 28.192 21.414 29.328ZM40.7273 22.488C42.1993 22.488 43.3513 23.08 44.1833 24.264C45.0153 25.432 45.4313 27.12 45.4313 29.328C45.4313 30.832 45.2153 32.104 44.7833 33.144C44.3673 34.168 43.7913 34.944 43.0553 35.472C42.3353 35.984 41.5113 36.24 40.5833 36.24C39.9593 36.24 39.4313 36.16 38.9993 36C38.5673 35.84 38.2073 35.648 37.9193 35.424C37.6313 35.184 37.3913 34.944 37.1992 34.704H37.0553C37.0873 35.008 37.1193 35.336 37.1513 35.688C37.1833 36.04 37.1992 36.448 37.1992 36.912V41.76H32.6152V22.728H36.3353L36.9833 24.408H37.1992C37.4233 24.056 37.6873 23.736 37.9913 23.448C38.3113 23.16 38.6953 22.928 39.1433 22.752C39.5913 22.576 40.1193 22.488 40.7273 22.488ZM38.9993 26.088C38.5513 26.088 38.1993 26.2 37.9433 26.424C37.6873 26.632 37.5033 26.944 37.3913 27.36C37.2793 27.776 37.2153 28.304 37.1992 28.944V29.304C37.1992 30.008 37.2473 30.6 37.3433 31.08C37.4553 31.56 37.6473 31.928 37.9193 32.184C38.1913 32.424 38.5593 32.544 39.0233 32.544C39.4073 32.544 39.7273 32.44 39.9833 32.232C40.2553 32.008 40.4553 31.656 40.5833 31.176C40.7113 30.696 40.7753 30.064 40.7753 29.28C40.7753 28.112 40.6233 27.288 40.3193 26.808C40.0153 26.328 39.5753 26.088 38.9993 26.088ZM52.3331 22.488C53.4211 22.488 54.4051 22.608 55.2851 22.848C56.1811 23.088 56.8931 23.472 57.4211 24C57.9491 24.512 58.2131 25.208 58.2131 26.088C58.2131 26.808 57.9891 27.424 57.5411 27.936C57.1091 28.448 56.5331 28.8 55.8131 28.992V29.112C56.5171 29.208 57.0851 29.408 57.5171 29.712C57.9491 30 58.2611 30.368 58.4531 30.816C58.6611 31.248 58.7651 31.72 58.7651 32.232C58.7651 33.08 58.5331 33.808 58.0691 34.416C57.6051 35.008 56.8771 35.464 55.8851 35.784C54.9091 36.088 53.6531 36.24 52.1171 36.24C51.3171 36.24 50.6371 36.208 50.0771 36.144C49.5171 36.08 49.0211 35.992 48.5891 35.88C48.1571 35.768 47.7251 35.64 47.2931 35.496V31.992C47.8211 32.168 48.4611 32.352 49.2131 32.544C49.9811 32.736 50.8611 32.832 51.8531 32.832C52.5411 32.832 53.0451 32.768 53.3651 32.64C53.7011 32.512 53.9171 32.36 54.0131 32.184C54.1251 32.008 54.1811 31.848 54.1811 31.704C54.1811 31.464 54.1171 31.264 53.9891 31.104C53.8771 30.944 53.6371 30.824 53.2691 30.744C52.9011 30.648 52.3491 30.6 51.6131 30.6H49.8851V27.624H51.3251C52.2691 27.624 52.9331 27.544 53.3171 27.384C53.7011 27.224 53.8931 26.976 53.8931 26.64C53.8931 26.368 53.7571 26.152 53.4851 25.992C53.2131 25.832 52.7651 25.752 52.1411 25.752C51.5011 25.752 50.9011 25.824 50.3411 25.968C49.7811 26.112 49.1971 26.32 48.5891 26.592L47.2931 23.496C48.0931 23.16 48.8851 22.912 49.6691 22.752C50.4531 22.576 51.3411 22.488 52.3331 22.488ZM65.2678 27.888C65.2678 28.16 65.2598 28.448 65.2438 28.752C65.2438 29.04 65.2358 29.328 65.2198 29.616C65.2038 29.904 65.1798 30.184 65.1478 30.456C65.1318 30.728 65.1158 30.984 65.0998 31.224L70.1158 22.728H75.1078V36H70.9318V31.2C70.9318 30.784 70.9318 30.352 70.9318 29.904C70.9478 29.456 70.9718 29.024 71.0038 28.608C71.0358 28.176 71.0678 27.792 71.0998 27.456L66.0358 36H61.0918V22.728H65.2678V27.888ZM82.8555 22.728V27.504H86.4795V22.728H91.0635V36H86.4795V30.912H82.8555V36H78.2715V22.728H82.8555ZM100.712 22.488C102.392 22.488 103.704 22.904 104.648 23.736C105.592 24.568 106.064 25.752 106.064 27.288V36H102.896L102.008 34.248H101.912C101.544 34.712 101.16 35.096 100.76 35.4C100.376 35.688 99.9284 35.896 99.4164 36.024C98.9044 36.168 98.2804 36.24 97.5444 36.24C96.7764 36.24 96.0884 36.088 95.4804 35.784C94.8724 35.464 94.3924 34.992 94.0404 34.368C93.6884 33.728 93.5124 32.92 93.5124 31.944C93.5124 30.52 94.0004 29.464 94.9764 28.776C95.9684 28.088 97.4004 27.704 99.2724 27.624L101.48 27.552V27.36C101.48 26.768 101.336 26.352 101.048 26.112C100.76 25.856 100.368 25.728 99.8724 25.728C99.3444 25.728 98.7604 25.824 98.1204 26.016C97.4804 26.192 96.8324 26.424 96.1764 26.712L94.8564 23.688C95.6244 23.288 96.4884 22.992 97.4484 22.8C98.4244 22.592 99.5124 22.488 100.712 22.488ZM100.448 30.12C99.6164 30.152 99.0244 30.304 98.6724 30.576C98.3364 30.832 98.1684 31.2 98.1684 31.68C98.1684 32.128 98.2884 32.464 98.5284 32.688C98.7684 32.896 99.0884 33 99.4884 33C100.048 33 100.52 32.824 100.904 32.472C101.304 32.12 101.504 31.664 101.504 31.104V30.072L100.448 30.12Z"/>
</defs>
</svg>
