<svg width="112" height="52" viewBox="0 0 112 52" fill="none" xmlns="http://www.w3.org/2000/svg" xmlns:xlink="http://www.w3.org/1999/xlink">
<g clip-path="url(#clip0_260_334)">
<path d="M7.632 36.24C6.288 36.24 5.12 36 4.128 35.52C3.136 35.04 2.368 34.296 1.824 33.288C1.28 32.28 1.008 30.992 1.008 29.424C1.008 27.808 1.312 26.496 1.92 25.488C2.528 24.464 3.352 23.712 4.392 23.232C5.448 22.736 6.648 22.488 7.992 22.488C8.808 22.488 9.576 22.576 10.296 22.752C11.032 22.928 11.712 23.176 12.336 23.496L10.992 26.88C10.448 26.64 9.936 26.448 9.456 26.304C8.992 26.16 8.504 26.088 7.992 26.088C7.528 26.088 7.12 26.208 6.768 26.448C6.416 26.688 6.144 27.056 5.952 27.552C5.76 28.032 5.664 28.648 5.664 29.4C5.664 30.168 5.76 30.784 5.952 31.248C6.16 31.712 6.44 32.056 6.792 32.28C7.144 32.488 7.552 32.592 8.016 32.592C8.672 32.592 9.328 32.488 9.984 32.28C10.656 32.072 11.288 31.784 11.88 31.416V35.064C11.336 35.416 10.72 35.704 10.032 35.928C9.344 36.136 8.544 36.24 7.632 36.24ZM27.1935 29.328C27.1935 30.432 27.0415 31.416 26.7375 32.28C26.4335 33.144 25.9935 33.872 25.4175 34.464C24.8415 35.04 24.1455 35.48 23.3295 35.784C22.5135 36.088 21.5855 36.24 20.5455 36.24C19.5855 36.24 18.6975 36.088 17.8815 35.784C17.0815 35.48 16.3855 35.04 15.7935 34.464C15.2175 33.872 14.7615 33.144 14.4255 32.28C14.1055 31.416 13.9455 30.432 13.9455 29.328C13.9455 27.856 14.2095 26.616 14.7375 25.608C15.2815 24.584 16.0495 23.808 17.0415 23.28C18.0335 22.752 19.2255 22.488 20.6175 22.488C21.8975 22.488 23.0255 22.752 24.0015 23.28C24.9935 23.808 25.7695 24.584 26.3295 25.608C26.9055 26.616 27.1935 27.856 27.1935 29.328ZM18.6015 29.328C18.6015 30.08 18.6655 30.72 18.7935 31.248C18.9215 31.776 19.1295 32.176 19.4175 32.448C19.7215 32.704 20.1135 32.832 20.5935 32.832C21.0735 32.832 21.4495 32.704 21.7215 32.448C22.0095 32.176 22.2175 31.776 22.3455 31.248C22.4735 30.72 22.5375 30.08 22.5375 29.328C22.5375 28.576 22.4735 27.944 22.3455 27.432C22.2175 26.92 22.0095 26.536 21.7215 26.28C21.4335 26.024 21.0495 25.896 20.5695 25.896C19.8815 25.896 19.3775 26.184 19.0575 26.76C18.7535 27.336 18.6015 28.192 18.6015 29.328ZM29.2508 28.056C29.2508 26.152 29.4988 24.512 29.9948 23.136C30.5068 21.744 31.3628 20.624 32.5628 19.776C33.7628 18.928 35.4108 18.36 37.5068 18.072C38.2108 17.976 38.9868 17.88 39.8348 17.784C40.6988 17.688 41.5548 17.608 42.4028 17.544L42.8348 21.336C42.4348 21.368 42.0108 21.408 41.5628 21.456C41.1148 21.488 40.6588 21.528 40.1948 21.576C39.7468 21.624 39.3068 21.672 38.8748 21.72C38.4588 21.768 38.0668 21.816 37.6988 21.864C36.8828 21.96 36.2188 22.112 35.7068 22.32C35.2108 22.512 34.8268 22.76 34.5547 23.064C34.2988 23.368 34.1148 23.728 34.0028 24.144C33.8908 24.544 33.8188 25.008 33.7868 25.536H33.9788C34.1388 25.248 34.3788 24.96 34.6988 24.672C35.0188 24.368 35.4188 24.12 35.8988 23.928C36.3788 23.72 36.9388 23.616 37.5788 23.616C38.5708 23.616 39.4508 23.816 40.2188 24.216C41.0028 24.6 41.6188 25.208 42.0668 26.04C42.5308 26.872 42.7628 27.968 42.7628 29.328C42.7628 30.848 42.4748 32.128 41.8988 33.168C41.3228 34.192 40.5228 34.96 39.4988 35.472C38.4908 35.984 37.3148 36.24 35.9708 36.24C34.9468 36.24 34.0188 36.064 33.1868 35.712C32.3708 35.344 31.6668 34.816 31.0748 34.128C30.4828 33.424 30.0268 32.568 29.7068 31.56C29.4028 30.536 29.2508 29.368 29.2508 28.056ZM36.2108 32.832C36.5948 32.832 36.9228 32.736 37.1948 32.544C37.4828 32.336 37.7068 32.016 37.8668 31.584C38.0268 31.136 38.1068 30.552 38.1068 29.832C38.1068 28.984 37.9788 28.28 37.7228 27.72C37.4828 27.16 37.0348 26.88 36.3788 26.88C36.0108 26.88 35.6508 26.984 35.2988 27.192C34.9628 27.384 34.6668 27.608 34.4108 27.864C34.1548 28.12 33.9868 28.344 33.9068 28.536C33.9068 29.032 33.9468 29.536 34.0268 30.048C34.1068 30.56 34.2348 31.024 34.4108 31.44C34.6028 31.856 34.8428 32.192 35.1308 32.448C35.4348 32.704 35.7948 32.832 36.2108 32.832ZM45.459 36V22.728H50.043V27.504H51.555C52.947 27.504 54.043 27.664 54.843 27.984C55.643 28.304 56.203 28.768 56.523 29.376C56.859 29.984 57.027 30.72 57.027 31.584C57.027 32.464 56.843 33.24 56.475 33.912C56.107 34.568 55.483 35.08 54.603 35.448C53.739 35.816 52.547 36 51.027 36H45.459ZM50.811 33C51.371 33 51.779 32.896 52.035 32.688C52.307 32.48 52.443 32.184 52.443 31.8C52.443 31.384 52.331 31.064 52.107 30.84C51.883 30.616 51.435 30.504 50.763 30.504H50.043V33H50.811ZM58.491 36V22.728H63.075V36H58.491ZM78.5601 26.136H74.1921V36H69.6081V26.136H65.2401V22.728H78.5601V26.136ZM84.885 27.888C84.885 28.16 84.877 28.448 84.861 28.752C84.861 29.04 84.853 29.328 84.837 29.616C84.821 29.904 84.797 30.184 84.765 30.456C84.749 30.728 84.733 30.984 84.717 31.224L89.733 22.728H94.725V36H90.549V31.2C90.549 30.784 90.549 30.352 90.549 29.904C90.565 29.456 90.589 29.024 90.621 28.608C90.653 28.176 90.685 27.792 90.717 27.456L85.653 36H80.709V22.728H84.885V27.888ZM100.865 36H96.0167L99.4247 30.96C99.0247 30.736 98.6487 30.44 98.2967 30.072C97.9607 29.704 97.6887 29.264 97.4807 28.752C97.2887 28.24 97.1927 27.648 97.1927 26.976C97.1927 25.568 97.7127 24.512 98.7527 23.808C99.7927 23.088 101.209 22.728 103.001 22.728H109.337V36H104.753V31.392H103.409L100.865 36ZM101.777 27.12C101.777 27.44 101.897 27.736 102.137 28.008C102.377 28.264 102.817 28.392 103.457 28.392H104.753V25.728H103.433C102.841 25.728 102.417 25.864 102.161 26.136C101.905 26.408 101.777 26.736 101.777 27.12Z" fill="#2D2D32"/>
<use xlink:href="#stroke0_260_334" transform="translate(8.832 37.44) scale(0.114286) rotate(-180)"/>
<use xlink:href="#stroke0_260_334" transform="translate(6.37487 37.4506) scale(0.114286) rotate(-166.424)"/>
<use xlink:href="#stroke0_260_334" transform="translate(3.8435 36.8314) scale(0.114286) rotate(-146.341)"/>
<use xlink:href="#stroke0_260_334" transform="translate(1.64349 35.2801) scale(0.114286) rotate(-122.158)"/>
<use xlink:href="#stroke0_260_334" transform="translate(0.310992 33.0586) scale(0.114286) rotate(-102.389)"/>
<use xlink:href="#stroke0_260_334" transform="translate(-0.186498 30.6895) scale(0.114286) rotate(-90.2558)"/>
<use xlink:href="#stroke0_260_334" transform="translate(-0.214948 28.2571) scale(0.114286) rotate(-77.8055)"/>
<use xlink:href="#stroke0_260_334" transform="translate(0.353894 25.7184) scale(0.114286) rotate(-57.7897)"/>
<use xlink:href="#stroke0_260_334" transform="translate(1.79393 23.4992) scale(0.114286) rotate(-35.8315)"/>
<use xlink:href="#stroke0_260_334" transform="translate(3.91604 22.0388) scale(0.114286) rotate(-16.6811)"/>
<use xlink:href="#stroke0_260_334" transform="translate(6.28565 21.3507) scale(0.114286) rotate(-2.4781)"/>
<use xlink:href="#stroke0_260_334" transform="translate(8.70772 21.2416) scale(0.114286) rotate(9.68581)"/>
<use xlink:href="#stroke0_260_334" transform="translate(11.1182 21.6557) scale(0.114286) rotate(22.8237)"/>
<use xlink:href="#stroke0_260_334" transform="translate(13.332 24.2392) scale(0.114286) rotate(111.661)"/>
<use xlink:href="#stroke0_260_334" transform="translate(11.571 28.4438) scale(0.114286) rotate(-156.336)"/>
<use xlink:href="#stroke0_260_334" transform="translate(9.87493 27.5677) scale(0.114286) rotate(-169.567)"/>
<use xlink:href="#stroke0_260_334" transform="translate(8.47619 26.7788) scale(0.114286) rotate(147.396)"/>
<use xlink:href="#stroke0_260_334" transform="translate(7.16115 27.2707) scale(0.114286) rotate(100.607)"/>
<use xlink:href="#stroke0_260_334" transform="translate(6.74401 29.022) scale(0.114286) rotate(81.7996)"/>
<use xlink:href="#stroke0_260_334" transform="translate(6.429 30.5589) scale(0.114286) rotate(35.1643)"/>
<use xlink:href="#stroke0_260_334" transform="translate(7.46515 31.503) scale(0.114286) rotate(-7.26513)"/>
<use xlink:href="#stroke0_260_334" transform="translate(9.29355 31.3337) scale(0.114286) rotate(-23.8327)"/>
<use xlink:href="#stroke0_260_334" transform="translate(13.08 31.2396) scale(0.114286) rotate(90)"/>
<use xlink:href="#stroke0_260_334" transform="translate(13.08 33.3996) scale(0.114286) rotate(90)"/>
<use xlink:href="#stroke0_260_334" transform="translate(11.9037 36.5244) scale(0.114286) rotate(159.771)"/>
<use xlink:href="#stroke0_260_334" transform="translate(9.51628 37.3537) scale(0.114286) rotate(176.777)"/>
<use xlink:href="#stroke0_260_334" transform="translate(28.3935 28.128) scale(0.114286) rotate(90)"/>
<use xlink:href="#stroke0_260_334" transform="translate(28.406 30.5682) scale(0.114286) rotate(102.823)"/>
<use xlink:href="#stroke0_260_334" transform="translate(27.8279 33.066) scale(0.114286) rotate(121.133)"/>
<use xlink:href="#stroke0_260_334" transform="translate(26.4005 35.3281) scale(0.114286) rotate(144.463)"/>
<use xlink:href="#stroke0_260_334" transform="translate(24.2559 36.7998) scale(0.114286) rotate(164.623)"/>
<use xlink:href="#stroke0_260_334" transform="translate(21.856 37.4282) scale(0.114286) rotate(179.462)"/>
<use xlink:href="#stroke0_260_334" transform="translate(19.3557 37.4529) scale(0.114286) rotate(-165.016)"/>
<use xlink:href="#stroke0_260_334" transform="translate(16.856 36.7587) scale(0.114286) rotate(-145.303)"/>
<use xlink:href="#stroke0_260_334" transform="translate(14.706 35.2031) scale(0.114286) rotate(-122.816)"/>
<use xlink:href="#stroke0_260_334" transform="translate(13.3387 33.0312) scale(0.114286) rotate(-104.265)"/>
<use xlink:href="#stroke0_260_334" transform="translate(12.7572 30.6445) scale(0.114286) rotate(-90.5339)"/>
<use xlink:href="#stroke0_260_334" transform="translate(12.7206 28.2093) scale(0.114286) rotate(-77.9276)"/>
<use xlink:href="#stroke0_260_334" transform="translate(13.2732 25.6813) scale(0.114286) rotate(-58.5767)"/>
<use xlink:href="#stroke0_260_334" transform="translate(14.6943 23.4374) scale(0.114286) rotate(-36.1213)"/>
<use xlink:href="#stroke0_260_334" transform="translate(16.8342 21.9424) scale(0.114286) rotate(-15.5163)"/>
<use xlink:href="#stroke0_260_334" transform="translate(19.2274 21.3085) scale(0.114286) rotate(-0.907113)"/>
<use xlink:href="#stroke0_260_334" transform="translate(21.7275 21.2628) scale(0.114286) rotate(14.5835)"/>
<use xlink:href="#stroke0_260_334" transform="translate(24.234 21.9415) scale(0.114286) rotate(34.3988)"/>
<use xlink:href="#stroke0_260_334" transform="translate(26.3847 23.4791) scale(0.114286) rotate(56.4162)"/>
<use xlink:href="#stroke0_260_334" transform="translate(27.788 25.6389) scale(0.114286) rotate(75.3525)"/>
<use xlink:href="#stroke0_260_334" transform="translate(28.3839 28.0324) scale(0.114286) rotate(89.5576)"/>
<use xlink:href="#stroke0_260_334" transform="translate(19.8015 28.128) scale(0.114286) rotate(90)"/>
<use xlink:href="#stroke0_260_334" transform="translate(19.6483 29.9668) scale(0.114286) rotate(72.9417)"/>
<use xlink:href="#stroke0_260_334" transform="translate(19.2727 31.5043) scale(0.114286) rotate(5.81667)"/>
<use xlink:href="#stroke0_260_334" transform="translate(20.5157 32.4417) scale(0.114286) rotate(-63.9649)"/>
<use xlink:href="#stroke0_260_334" transform="translate(21.2847 30.9374) scale(0.114286) rotate(-87.8337)"/>
<use xlink:href="#stroke0_260_334" transform="translate(21.458 29.0502) scale(0.114286) rotate(-101.64)"/>
<use xlink:href="#stroke0_260_334" transform="translate(21.9752 27.4791) scale(0.114286) rotate(-162.949)"/>
<use xlink:href="#stroke0_260_334" transform="translate(20.9028 26.2991) scale(0.114286) rotate(127.752)"/>
<use xlink:href="#stroke0_260_334" transform="translate(19.9112 27.4512) scale(0.114286) rotate(94.1481)"/>
<use xlink:href="#stroke0_260_334" transform="translate(28.0508 29.256) scale(0.114286) rotate(-90)"/>
<use xlink:href="#stroke0_260_334" transform="translate(28.0381 26.9527) scale(0.114286) rotate(-83.3243)"/>
<use xlink:href="#stroke0_260_334" transform="translate(28.2996 24.6034) scale(0.114286) rotate(-73.898)"/>
<use xlink:href="#stroke0_260_334" transform="translate(28.9867 22.1956) scale(0.114286) rotate(-58.2483)"/>
<use xlink:href="#stroke0_260_334" transform="translate(30.3523 20.0391) scale(0.114286) rotate(-40.3071)"/>
<use xlink:href="#stroke0_260_334" transform="translate(32.2852 18.4342) scale(0.114286) rotate(-24.095)"/>
<use xlink:href="#stroke0_260_334" transform="translate(34.4751 17.4715) scale(0.114286) rotate(-13.2794)"/>
<use xlink:href="#stroke0_260_334" transform="translate(36.7025 16.9645) scale(0.114286) rotate(-7.3925)"/>
<use xlink:href="#stroke0_260_334" transform="translate(38.8717 16.6787) scale(0.114286) rotate(-6.06625)"/>
<use xlink:href="#stroke0_260_334" transform="translate(41.0549 16.4434) scale(0.114286) rotate(-4.36476)"/>
<use xlink:href="#stroke0_260_334" transform="translate(43.6969 18.3022) scale(0.114286) rotate(83.5007)"/>
<use xlink:href="#stroke0_260_334" transform="translate(43.6963 22.4607) scale(0.114286) rotate(174.829)"/>
<use xlink:href="#stroke0_260_334" transform="translate(41.5582 22.6426) scale(0.114286) rotate(174.154)"/>
<use xlink:href="#stroke0_260_334" transform="translate(39.4351 22.8556) scale(0.114286) rotate(172.891)"/>
<use xlink:href="#stroke0_260_334" transform="translate(37.498 22.9752) scale(0.114286) rotate(161.437)"/>
<use xlink:href="#stroke0_260_334" transform="translate(35.913 23.0081) scale(0.114286) rotate(119.453)"/>
<use xlink:href="#stroke0_260_334" transform="translate(32.5989 24.336) scale(0.114286)"/>
<use xlink:href="#stroke0_260_334" transform="translate(33.7507 23.712) scale(0.114286) rotate(-29.263)"/>
<use xlink:href="#stroke0_260_334" transform="translate(36.2211 22.445) scale(0.114286) rotate(-1.30109)"/>
<use xlink:href="#stroke0_260_334" transform="translate(38.8401 22.4052) scale(0.114286) rotate(19.4227)"/>
<use xlink:href="#stroke0_260_334" transform="translate(41.4388 23.3806) scale(0.114286) rotate(46.9084)"/>
<use xlink:href="#stroke0_260_334" transform="translate(43.2345 25.4334) scale(0.114286) rotate(72.6826)"/>
<use xlink:href="#stroke0_260_334" transform="translate(43.9322 27.8394) scale(0.114286) rotate(88.6978)"/>
<use xlink:href="#stroke0_260_334" transform="translate(44.0002 30.2695) scale(0.114286) rotate(101.109)"/>
<use xlink:href="#stroke0_260_334" transform="translate(43.4989 32.8004) scale(0.114286) rotate(120.073)"/>
<use xlink:href="#stroke0_260_334" transform="translate(42.1446 35.0686) scale(0.114286) rotate(141.873)"/>
<use xlink:href="#stroke0_260_334" transform="translate(40.067 36.6315) scale(0.114286) rotate(162.01)"/>
<use xlink:href="#stroke0_260_334" transform="translate(37.6869 37.3736) scale(0.114286) rotate(177.384)"/>
<use xlink:href="#stroke0_260_334" transform="translate(35.1953 37.4954) scale(0.114286) rotate(-167.392)"/>
<use xlink:href="#stroke0_260_334" transform="translate(32.6395 36.8904) scale(0.114286) rotate(-146.229)"/>
<use xlink:href="#stroke0_260_334" transform="translate(30.4884 35.4047) scale(0.114286) rotate(-125.566)"/>
<use xlink:href="#stroke0_260_334" transform="translate(29.0532 33.3403) scale(0.114286) rotate(-109.244)"/>
<use xlink:href="#stroke0_260_334" transform="translate(28.2811 31.0309) scale(0.114286) rotate(-96.4376)"/>
<use xlink:href="#stroke0_260_334" transform="translate(28.0508 29.256) scale(0.114286) rotate(-90)"/>
<use xlink:href="#stroke0_260_334" transform="translate(35.0107 31.632) scale(0.114286)"/>
<use xlink:href="#stroke0_260_334" transform="translate(36.2834 32.3238) scale(0.114286) rotate(-68.3705)"/>
<use xlink:href="#stroke0_260_334" transform="translate(36.949 30.7664) scale(0.114286) rotate(-92.2626)"/>
<use xlink:href="#stroke0_260_334" transform="translate(37.2591 29.1158) scale(0.114286) rotate(-124.256)"/>
<use xlink:href="#stroke0_260_334" transform="translate(37.1852 27.6921) scale(0.114286) rotate(157.925)"/>
<use xlink:href="#stroke0_260_334" transform="translate(35.6244 27.9684) scale(0.114286) rotate(120.601)"/>
<use xlink:href="#stroke0_260_334" transform="translate(35.0187 29.0803) scale(0.114286) rotate(77.1095)"/>
<use xlink:href="#stroke0_260_334" transform="translate(35.0285 30.7138) scale(0.114286) rotate(42.9649)"/>
<use xlink:href="#stroke0_260_334" transform="translate(35.0107 31.632) scale(0.114286)"/>
<use xlink:href="#stroke0_260_334" transform="translate(44.259 37.2) scale(0.114286) rotate(-90)"/>
<use xlink:href="#stroke0_260_334" transform="translate(44.259 35.04) scale(0.114286) rotate(-90)"/>
<use xlink:href="#stroke0_260_334" transform="translate(44.259 32.88) scale(0.114286) rotate(-90)"/>
<use xlink:href="#stroke0_260_334" transform="translate(44.259 30.72) scale(0.114286) rotate(-90)"/>
<use xlink:href="#stroke0_260_334" transform="translate(44.259 28.56) scale(0.114286) rotate(-90)"/>
<use xlink:href="#stroke0_260_334" transform="translate(44.259 26.4) scale(0.114286) rotate(-90)"/>
<use xlink:href="#stroke0_260_334" transform="translate(44.259 24.24) scale(0.114286) rotate(-90)"/>
<use xlink:href="#stroke0_260_334" transform="translate(46.107 21.528) scale(0.114286)"/>
<use xlink:href="#stroke0_260_334" transform="translate(48.267 21.528) scale(0.114286)"/>
<use xlink:href="#stroke0_260_334" transform="translate(51.243 23.112) scale(0.114286) rotate(90)"/>
<use xlink:href="#stroke0_260_334" transform="translate(51.243 25.272) scale(0.114286) rotate(90)"/>
<use xlink:href="#stroke0_260_334" transform="translate(49.971 26.304) scale(0.114286)"/>
<use xlink:href="#stroke0_260_334" transform="translate(52.2986 26.2604) scale(0.114286) rotate(7.72068)"/>
<use xlink:href="#stroke0_260_334" transform="translate(54.9292 26.6037) scale(0.114286) rotate(29.6307)"/>
<use xlink:href="#stroke0_260_334" transform="translate(57.4431 28.3071) scale(0.114286) rotate(69.3916)"/>
<use xlink:href="#stroke0_260_334" transform="translate(58.2908 30.8617) scale(0.114286) rotate(93.7891)"/>
<use xlink:href="#stroke0_260_334" transform="translate(58.0584 33.6494) scale(0.114286) rotate(122.021)"/>
<use xlink:href="#stroke0_260_334" transform="translate(56.3472 35.9773) scale(0.114286) rotate(155.598)"/>
<use xlink:href="#stroke0_260_334" transform="translate(54.0047 36.9684) scale(0.114286) rotate(173.421)"/>
<use xlink:href="#stroke0_260_334" transform="translate(51.718 37.2) scale(0.114286) rotate(-180)"/>
<use xlink:href="#stroke0_260_334" transform="translate(49.558 37.2) scale(0.114286) rotate(-180)"/>
<use xlink:href="#stroke0_260_334" transform="translate(47.398 37.2) scale(0.114286) rotate(-180)"/>
<use xlink:href="#stroke0_260_334" transform="translate(49.611 31.8) scale(0.114286)"/>
<use xlink:href="#stroke0_260_334" transform="translate(51.128 33.0225) scale(0.114286) rotate(-84.5542)"/>
<use xlink:href="#stroke0_260_334" transform="translate(52.2874 31.8307) scale(0.114286) rotate(-174.599)"/>
<use xlink:href="#stroke0_260_334" transform="translate(51.243 30.3009) scale(0.114286) rotate(90)"/>
<use xlink:href="#stroke0_260_334" transform="translate(49.5039 31.8) scale(0.114286)"/>
<use xlink:href="#stroke0_260_334" transform="translate(57.291 37.2) scale(0.114286) rotate(-90)"/>
<use xlink:href="#stroke0_260_334" transform="translate(57.291 35.04) scale(0.114286) rotate(-90)"/>
<use xlink:href="#stroke0_260_334" transform="translate(57.291 32.88) scale(0.114286) rotate(-90)"/>
<use xlink:href="#stroke0_260_334" transform="translate(57.291 30.72) scale(0.114286) rotate(-90)"/>
<use xlink:href="#stroke0_260_334" transform="translate(57.291 28.56) scale(0.114286) rotate(-90)"/>
<use xlink:href="#stroke0_260_334" transform="translate(57.291 26.4) scale(0.114286) rotate(-90)"/>
<use xlink:href="#stroke0_260_334" transform="translate(57.291 24.24) scale(0.114286) rotate(-90)"/>
<use xlink:href="#stroke0_260_334" transform="translate(59.139 21.528) scale(0.114286)"/>
<use xlink:href="#stroke0_260_334" transform="translate(61.299 21.528) scale(0.114286)"/>
<use xlink:href="#stroke0_260_334" transform="translate(64.275 23.112) scale(0.114286) rotate(90)"/>
<use xlink:href="#stroke0_260_334" transform="translate(64.275 25.272) scale(0.114286) rotate(90)"/>
<use xlink:href="#stroke0_260_334" transform="translate(64.275 27.432) scale(0.114286) rotate(90)"/>
<use xlink:href="#stroke0_260_334" transform="translate(64.275 29.592) scale(0.114286) rotate(90)"/>
<use xlink:href="#stroke0_260_334" transform="translate(64.275 31.752) scale(0.114286) rotate(90)"/>
<use xlink:href="#stroke0_260_334" transform="translate(64.275 33.912) scale(0.114286) rotate(90)"/>
<use xlink:href="#stroke0_260_334" transform="translate(63.003 37.2) scale(0.114286) rotate(-180)"/>
<use xlink:href="#stroke0_260_334" transform="translate(60.843 37.2) scale(0.114286) rotate(-180)"/>
<use xlink:href="#stroke0_260_334" transform="translate(59.691 37.2) scale(0.114286) rotate(-180)"/>
<use xlink:href="#stroke0_260_334" transform="translate(79.7601 27.336) scale(0.114286) rotate(-180)"/>
<use xlink:href="#stroke0_260_334" transform="translate(77.6001 27.336) scale(0.114286) rotate(-180)"/>
<use xlink:href="#stroke0_260_334" transform="translate(75.4401 27.336) scale(0.114286) rotate(-180)"/>
<use xlink:href="#stroke0_260_334" transform="translate(75.3921 27.048) scale(0.114286) rotate(90)"/>
<use xlink:href="#stroke0_260_334" transform="translate(75.3921 29.208) scale(0.114286) rotate(90)"/>
<use xlink:href="#stroke0_260_334" transform="translate(75.3921 31.368) scale(0.114286) rotate(90)"/>
<use xlink:href="#stroke0_260_334" transform="translate(75.3921 33.528) scale(0.114286) rotate(90)"/>
<use xlink:href="#stroke0_260_334" transform="translate(74.5041 37.2) scale(0.114286) rotate(-180)"/>
<use xlink:href="#stroke0_260_334" transform="translate(72.3441 37.2) scale(0.114286) rotate(-180)"/>
<use xlink:href="#stroke0_260_334" transform="translate(68.4081 36.576) scale(0.114286) rotate(-90)"/>
<use xlink:href="#stroke0_260_334" transform="translate(68.4081 34.416) scale(0.114286) rotate(-90)"/>
<use xlink:href="#stroke0_260_334" transform="translate(68.4081 32.256) scale(0.114286) rotate(-90)"/>
<use xlink:href="#stroke0_260_334" transform="translate(68.4081 30.096) scale(0.114286) rotate(-90)"/>
<use xlink:href="#stroke0_260_334" transform="translate(68.4081 27.936) scale(0.114286) rotate(-90)"/>
<use xlink:href="#stroke0_260_334" transform="translate(69.2481 27.336) scale(0.114286) rotate(-180)"/>
<use xlink:href="#stroke0_260_334" transform="translate(67.0881 27.336) scale(0.114286) rotate(-180)"/>
<use xlink:href="#stroke0_260_334" transform="translate(64.0401 25.824) scale(0.114286) rotate(-90)"/>
<use xlink:href="#stroke0_260_334" transform="translate(64.3041 21.528) scale(0.114286)"/>
<use xlink:href="#stroke0_260_334" transform="translate(66.4641 21.528) scale(0.114286)"/>
<use xlink:href="#stroke0_260_334" transform="translate(68.6241 21.528) scale(0.114286)"/>
<use xlink:href="#stroke0_260_334" transform="translate(70.7841 21.528) scale(0.114286)"/>
<use xlink:href="#stroke0_260_334" transform="translate(72.9441 21.528) scale(0.114286)"/>
<use xlink:href="#stroke0_260_334" transform="translate(75.1041 21.528) scale(0.114286)"/>
<use xlink:href="#stroke0_260_334" transform="translate(77.2641 21.528) scale(0.114286)"/>
<use xlink:href="#stroke0_260_334" transform="translate(79.7601 23.592) scale(0.114286) rotate(90)"/>
<use xlink:href="#stroke0_260_334" transform="translate(79.7601 24.936) scale(0.114286) rotate(90)"/>
<use xlink:href="#stroke0_260_334" transform="translate(86.085 26.688) scale(0.114286) rotate(90)"/>
<use xlink:href="#stroke0_260_334" transform="translate(86.1051 28.9533) scale(0.114286) rotate(94.9161)"/>
<use xlink:href="#stroke0_260_334" transform="translate(83.571 30.8047) scale(0.114286) rotate(-59.4426)"/>
<use xlink:href="#stroke0_260_334" transform="translate(84.6691 28.9447) scale(0.114286) rotate(-59.4426)"/>
<use xlink:href="#stroke0_260_334" transform="translate(85.7673 27.0847) scale(0.114286) rotate(-59.4426)"/>
<use xlink:href="#stroke0_260_334" transform="translate(86.8654 25.2247) scale(0.114286) rotate(-59.4426)"/>
<use xlink:href="#stroke0_260_334" transform="translate(87.9636 23.3647) scale(0.114286) rotate(-59.4426)"/>
<use xlink:href="#stroke0_260_334" transform="translate(90.4452 21.528) scale(0.114286)"/>
<use xlink:href="#stroke0_260_334" transform="translate(92.6052 21.528) scale(0.114286)"/>
<use xlink:href="#stroke0_260_334" transform="translate(95.925 22.7682) scale(0.114286) rotate(90)"/>
<use xlink:href="#stroke0_260_334" transform="translate(95.925 24.9282) scale(0.114286) rotate(90)"/>
<use xlink:href="#stroke0_260_334" transform="translate(95.925 27.0882) scale(0.114286) rotate(90)"/>
<use xlink:href="#stroke0_260_334" transform="translate(95.925 29.2482) scale(0.114286) rotate(90)"/>
<use xlink:href="#stroke0_260_334" transform="translate(95.925 31.4082) scale(0.114286) rotate(90)"/>
<use xlink:href="#stroke0_260_334" transform="translate(95.925 33.5682) scale(0.114286) rotate(90)"/>
<use xlink:href="#stroke0_260_334" transform="translate(94.9968 37.2) scale(0.114286) rotate(-180)"/>
<use xlink:href="#stroke0_260_334" transform="translate(92.8368 37.2) scale(0.114286) rotate(-180)"/>
<use xlink:href="#stroke0_260_334" transform="translate(89.349 36.1278) scale(0.114286) rotate(-90)"/>
<use xlink:href="#stroke0_260_334" transform="translate(89.349 33.9678) scale(0.114286) rotate(-90)"/>
<use xlink:href="#stroke0_260_334" transform="translate(89.349 31.8078) scale(0.114286) rotate(-90)"/>
<use xlink:href="#stroke0_260_334" transform="translate(89.3452 29.5557) scale(0.114286) rotate(-85.6447)"/>
<use xlink:href="#stroke0_260_334" transform="translate(91.7686 28.0352) scale(0.114286) rotate(120.655)"/>
<use xlink:href="#stroke0_260_334" transform="translate(90.6673 29.8934) scale(0.114286) rotate(120.655)"/>
<use xlink:href="#stroke0_260_334" transform="translate(89.566 31.7515) scale(0.114286) rotate(120.655)"/>
<use xlink:href="#stroke0_260_334" transform="translate(88.4647 33.6097) scale(0.114286) rotate(120.655)"/>
<use xlink:href="#stroke0_260_334" transform="translate(87.3634 35.4678) scale(0.114286) rotate(120.655)"/>
<use xlink:href="#stroke0_260_334" transform="translate(84.8229 37.2) scale(0.114286) rotate(-180)"/>
<use xlink:href="#stroke0_260_334" transform="translate(82.6629 37.2) scale(0.114286) rotate(-180)"/>
<use xlink:href="#stroke0_260_334" transform="translate(79.509 35.7939) scale(0.114286) rotate(-90)"/>
<use xlink:href="#stroke0_260_334" transform="translate(79.509 33.6339) scale(0.114286) rotate(-90)"/>
<use xlink:href="#stroke0_260_334" transform="translate(79.509 31.4739) scale(0.114286) rotate(-90)"/>
<use xlink:href="#stroke0_260_334" transform="translate(79.509 29.3139) scale(0.114286) rotate(-90)"/>
<use xlink:href="#stroke0_260_334" transform="translate(79.509 27.1539) scale(0.114286) rotate(-90)"/>
<use xlink:href="#stroke0_260_334" transform="translate(79.509 24.9939) scale(0.114286) rotate(-90)"/>
<use xlink:href="#stroke0_260_334" transform="translate(80.6031 21.528) scale(0.114286)"/>
<use xlink:href="#stroke0_260_334" transform="translate(82.7631 21.528) scale(0.114286)"/>
<use xlink:href="#stroke0_260_334" transform="translate(86.085 22.7661) scale(0.114286) rotate(90)"/>
<use xlink:href="#stroke0_260_334" transform="translate(86.085 24.9261) scale(0.114286) rotate(90)"/>
<use xlink:href="#stroke0_260_334" transform="translate(86.085 26.688) scale(0.114286) rotate(90)"/>
<use xlink:href="#stroke0_260_334" transform="translate(102.065 37.2) scale(0.114286) rotate(-180)"/>
<use xlink:href="#stroke0_260_334" transform="translate(99.9047 37.2) scale(0.114286) rotate(-180)"/>
<use xlink:href="#stroke0_260_334" transform="translate(97.7447 37.2) scale(0.114286) rotate(-180)"/>
<use xlink:href="#stroke0_260_334" transform="translate(95.2646 34.97) scale(0.114286) rotate(-55.9338)"/>
<use xlink:href="#stroke0_260_334" transform="translate(96.4745 33.1806) scale(0.114286) rotate(-55.9338)"/>
<use xlink:href="#stroke0_260_334" transform="translate(97.6844 31.3913) scale(0.114286) rotate(-55.9338)"/>
<use xlink:href="#stroke0_260_334" transform="translate(97.6115 31.277) scale(0.114286) rotate(-124.036)"/>
<use xlink:href="#stroke0_260_334" transform="translate(96.1463 28.9094) scale(0.114286) rotate(-95.6567)"/>
<use xlink:href="#stroke0_260_334" transform="translate(95.8993 26.1802) scale(0.114286) rotate(-69.9049)"/>
<use xlink:href="#stroke0_260_334" transform="translate(97.0905 23.4966) scale(0.114286) rotate(-34.5919)"/>
<use xlink:href="#stroke0_260_334" transform="translate(99.2947 22.0677) scale(0.114286) rotate(-13.1362)"/>
<use xlink:href="#stroke0_260_334" transform="translate(101.668 21.5397) scale(0.114286) rotate(-0.529739)"/>
<use xlink:href="#stroke0_260_334" transform="translate(103.839 21.528) scale(0.114286)"/>
<use xlink:href="#stroke0_260_334" transform="translate(105.999 21.528) scale(0.114286)"/>
<use xlink:href="#stroke0_260_334" transform="translate(110.537 21.5503) scale(0.114286) rotate(90)"/>
<use xlink:href="#stroke0_260_334" transform="translate(110.537 23.7103) scale(0.114286) rotate(90)"/>
<use xlink:href="#stroke0_260_334" transform="translate(110.537 25.8703) scale(0.114286) rotate(90)"/>
<use xlink:href="#stroke0_260_334" transform="translate(110.537 28.0303) scale(0.114286) rotate(90)"/>
<use xlink:href="#stroke0_260_334" transform="translate(110.537 30.1903) scale(0.114286) rotate(90)"/>
<use xlink:href="#stroke0_260_334" transform="translate(110.537 32.3503) scale(0.114286) rotate(90)"/>
<use xlink:href="#stroke0_260_334" transform="translate(110.537 34.5103) scale(0.114286) rotate(90)"/>
<use xlink:href="#stroke0_260_334" transform="translate(108.666 37.2) scale(0.114286) rotate(-180)"/>
<use xlink:href="#stroke0_260_334" transform="translate(106.506 37.2) scale(0.114286) rotate(-180)"/>
<use xlink:href="#stroke0_260_334" transform="translate(103.553 35.5937) scale(0.114286) rotate(-90)"/>
<use xlink:href="#stroke0_260_334" transform="translate(103.553 33.4337) scale(0.114286) rotate(-90)"/>
<use xlink:href="#stroke0_260_334" transform="translate(104.634 32.592) scale(0.114286) rotate(-180)"/>
<use xlink:href="#stroke0_260_334" transform="translate(104.008 32.7899) scale(0.114286) rotate(118.902)"/>
<use xlink:href="#stroke0_260_334" transform="translate(102.964 34.6808) scale(0.114286) rotate(118.902)"/>
<use xlink:href="#stroke0_260_334" transform="translate(102.977 25.92) scale(0.114286) rotate(90)"/>
<use xlink:href="#stroke0_260_334" transform="translate(102.092 27.1225) scale(0.114286) rotate(3.11533)"/>
<use xlink:href="#stroke0_260_334" transform="translate(103.553 28.9594) scale(0.114286) rotate(-90)"/>
<use xlink:href="#stroke0_260_334" transform="translate(105.824 26.928) scale(0.114286) rotate(-180)"/>
<use xlink:href="#stroke0_260_334" transform="translate(104.087 26.4687) scale(0.114286) rotate(154.506)"/>
<use xlink:href="#stroke0_260_334" transform="translate(102.977 25.92) scale(0.114286) rotate(90)"/>
</g>
<defs>
<clipPath id="clip0_260_334">
<rect width="112" height="52" fill="white"/>
</clipPath>
<g id="stroke0_260_334" data-figma-scatter-ref="stroke0_260_334_ref" data-figma-scatter="f0.9_w0_aj0_sj0_r0_s14870582052140013607_sw2.4">
<path d="M10.5 0C16.299 0 21 4.70101 21 10.5C21 16.299 16.299 21 10.5 21C4.70101 21 0 16.299 0 10.5C0 4.70101 4.70101 0 10.5 0Z" fill="#FFE45A"/>
</g>
<path id="stroke0_260_334_ref" d="M7.632 36.24C6.288 36.24 5.12 36 4.128 35.52C3.136 35.04 2.368 34.296 1.824 33.288C1.28 32.28 1.008 30.992 1.008 29.424C1.008 27.808 1.312 26.496 1.92 25.488C2.528 24.464 3.352 23.712 4.392 23.232C5.448 22.736 6.648 22.488 7.992 22.488C8.808 22.488 9.576 22.576 10.296 22.752C11.032 22.928 11.712 23.176 12.336 23.496L10.992 26.88C10.448 26.64 9.936 26.448 9.456 26.304C8.992 26.16 8.504 26.088 7.992 26.088C7.528 26.088 7.12 26.208 6.768 26.448C6.416 26.688 6.144 27.056 5.952 27.552C5.76 28.032 5.664 28.648 5.664 29.4C5.664 30.168 5.76 30.784 5.952 31.248C6.16 31.712 6.44 32.056 6.792 32.28C7.144 32.488 7.552 32.592 8.016 32.592C8.672 32.592 9.328 32.488 9.984 32.28C10.656 32.072 11.288 31.784 11.88 31.416V35.064C11.336 35.416 10.72 35.704 10.032 35.928C9.344 36.136 8.544 36.24 7.632 36.24ZM27.1935 29.328C27.1935 30.432 27.0415 31.416 26.7375 32.28C26.4335 33.144 25.9935 33.872 25.4175 34.464C24.8415 35.04 24.1455 35.48 23.3295 35.784C22.5135 36.088 21.5855 36.24 20.5455 36.24C19.5855 36.24 18.6975 36.088 17.8815 35.784C17.0815 35.48 16.3855 35.04 15.7935 34.464C15.2175 33.872 14.7615 33.144 14.4255 32.28C14.1055 31.416 13.9455 30.432 13.9455 29.328C13.9455 27.856 14.2095 26.616 14.7375 25.608C15.2815 24.584 16.0495 23.808 17.0415 23.28C18.0335 22.752 19.2255 22.488 20.6175 22.488C21.8975 22.488 23.0255 22.752 24.0015 23.28C24.9935 23.808 25.7695 24.584 26.3295 25.608C26.9055 26.616 27.1935 27.856 27.1935 29.328ZM18.6015 29.328C18.6015 30.08 18.6655 30.72 18.7935 31.248C18.9215 31.776 19.1295 32.176 19.4175 32.448C19.7215 32.704 20.1135 32.832 20.5935 32.832C21.0735 32.832 21.4495 32.704 21.7215 32.448C22.0095 32.176 22.2175 31.776 22.3455 31.248C22.4735 30.72 22.5375 30.08 22.5375 29.328C22.5375 28.576 22.4735 27.944 22.3455 27.432C22.2175 26.92 22.0095 26.536 21.7215 26.28C21.4335 26.024 21.0495 25.896 20.5695 25.896C19.8815 25.896 19.3775 26.184 19.0575 26.76C18.7535 27.336 18.6015 28.192 18.6015 29.328ZM29.2508 28.056C29.2508 26.152 29.4988 24.512 29.9948 23.136C30.5068 21.744 31.3628 20.624 32.5628 19.776C33.7628 18.928 35.4108 18.36 37.5068 18.072C38.2108 17.976 38.9868 17.88 39.8348 17.784C40.6988 17.688 41.5548 17.608 42.4028 17.544L42.8348 21.336C42.4348 21.368 42.0108 21.408 41.5628 21.456C41.1148 21.488 40.6588 21.528 40.1948 21.576C39.7468 21.624 39.3068 21.672 38.8748 21.72C38.4588 21.768 38.0668 21.816 37.6988 21.864C36.8828 21.96 36.2188 22.112 35.7068 22.32C35.2108 22.512 34.8268 22.76 34.5547 23.064C34.2988 23.368 34.1148 23.728 34.0028 24.144C33.8908 24.544 33.8188 25.008 33.7868 25.536H33.9788C34.1388 25.248 34.3788 24.96 34.6988 24.672C35.0188 24.368 35.4188 24.12 35.8988 23.928C36.3788 23.72 36.9388 23.616 37.5788 23.616C38.5708 23.616 39.4508 23.816 40.2188 24.216C41.0028 24.6 41.6188 25.208 42.0668 26.04C42.5308 26.872 42.7628 27.968 42.7628 29.328C42.7628 30.848 42.4748 32.128 41.8988 33.168C41.3228 34.192 40.5228 34.96 39.4988 35.472C38.4908 35.984 37.3148 36.24 35.9708 36.24C34.9468 36.24 34.0188 36.064 33.1868 35.712C32.3708 35.344 31.6668 34.816 31.0748 34.128C30.4828 33.424 30.0268 32.568 29.7068 31.56C29.4028 30.536 29.2508 29.368 29.2508 28.056ZM36.2108 32.832C36.5948 32.832 36.9228 32.736 37.1948 32.544C37.4828 32.336 37.7068 32.016 37.8668 31.584C38.0268 31.136 38.1068 30.552 38.1068 29.832C38.1068 28.984 37.9788 28.28 37.7228 27.72C37.4828 27.16 37.0348 26.88 36.3788 26.88C36.0108 26.88 35.6508 26.984 35.2988 27.192C34.9628 27.384 34.6668 27.608 34.4108 27.864C34.1548 28.12 33.9868 28.344 33.9068 28.536C33.9068 29.032 33.9468 29.536 34.0268 30.048C34.1068 30.56 34.2348 31.024 34.4108 31.44C34.6028 31.856 34.8428 32.192 35.1308 32.448C35.4348 32.704 35.7948 32.832 36.2108 32.832ZM45.459 36V22.728H50.043V27.504H51.555C52.947 27.504 54.043 27.664 54.843 27.984C55.643 28.304 56.203 28.768 56.523 29.376C56.859 29.984 57.027 30.72 57.027 31.584C57.027 32.464 56.843 33.24 56.475 33.912C56.107 34.568 55.483 35.08 54.603 35.448C53.739 35.816 52.547 36 51.027 36H45.459ZM50.811 33C51.371 33 51.779 32.896 52.035 32.688C52.307 32.48 52.443 32.184 52.443 31.8C52.443 31.384 52.331 31.064 52.107 30.84C51.883 30.616 51.435 30.504 50.763 30.504H50.043V33H50.811ZM58.491 36V22.728H63.075V36H58.491ZM78.5601 26.136H74.1921V36H69.6081V26.136H65.2401V22.728H78.5601V26.136ZM84.885 27.888C84.885 28.16 84.877 28.448 84.861 28.752C84.861 29.04 84.853 29.328 84.837 29.616C84.821 29.904 84.797 30.184 84.765 30.456C84.749 30.728 84.733 30.984 84.717 31.224L89.733 22.728H94.725V36H90.549V31.2C90.549 30.784 90.549 30.352 90.549 29.904C90.565 29.456 90.589 29.024 90.621 28.608C90.653 28.176 90.685 27.792 90.717 27.456L85.653 36H80.709V22.728H84.885V27.888ZM100.865 36H96.0167L99.4247 30.96C99.0247 30.736 98.6487 30.44 98.2967 30.072C97.9607 29.704 97.6887 29.264 97.4807 28.752C97.2887 28.24 97.1927 27.648 97.1927 26.976C97.1927 25.568 97.7127 24.512 98.7527 23.808C99.7927 23.088 101.209 22.728 103.001 22.728H109.337V36H104.753V31.392H103.409L100.865 36ZM101.777 27.12C101.777 27.44 101.897 27.736 102.137 28.008C102.377 28.264 102.817 28.392 103.457 28.392H104.753V25.728H103.433C102.841 25.728 102.417 25.864 102.161 26.136C101.905 26.408 101.777 26.736 101.777 27.12Z"/>
</defs>
</svg>
