<svg width="125" height="91" viewBox="0 0 125 91" fill="none" xmlns="http://www.w3.org/2000/svg">
<g clip-path="url(#clip0_203_337)">
<path d="M125 2.19574C124.848 3.95891 124.38 5.58053 123.878 7.27332C123.791 7.56839 123.705 7.86346 123.616 8.16747C123.388 8.94586 123.158 9.72385 122.928 10.5017C122.693 11.2979 122.46 12.0946 122.226 12.8912C121.769 14.4499 121.31 16.008 120.85 17.5657C119.789 17.4363 118.751 17.3028 117.706 17.0778C110.161 15.7069 102.187 17.4163 95.8624 21.7732C90.2319 25.9367 86.9141 31.0652 84.4727 37.5711C91.4819 37.5711 98.4912 37.5711 105.713 37.5711C105.713 42.8847 105.713 48.1983 105.713 53.6729C98.7036 53.6729 91.6943 53.6729 84.4727 53.6729C87.3856 60.5863 90.6479 66.3028 97.168 70.2628C97.4427 70.4301 97.7175 70.5974 98.0005 70.7698C101.163 72.6081 104.986 74.066 108.643 74.4102C108.804 74.4259 108.965 74.4415 109.132 74.4576C112.799 74.7912 116.288 74.543 119.873 73.6783C120.195 73.6783 120.518 73.6783 120.85 73.6783C121.392 75.5378 121.934 77.3976 122.473 79.258C122.724 80.1219 122.975 80.9856 123.227 81.849C123.47 82.6823 123.712 83.5159 123.953 84.3499C124.046 84.6679 124.138 84.9858 124.231 85.3035C124.362 85.7487 124.49 86.1945 124.619 86.6403C124.693 86.8938 124.766 87.1474 124.842 87.4086C125 88.0724 125 88.0724 125 89.0483C118.271 91.3273 110.44 91.4422 103.516 90.0241C103.314 89.9836 103.113 89.943 102.906 89.9012C99.712 89.2346 96.7278 88.175 93.75 86.8526C93.5776 86.7762 93.4052 86.6998 93.2276 86.6211C89.418 84.8999 85.8968 82.5378 82.7637 79.7775C82.5235 79.5671 82.2834 79.3567 82.036 79.1399C74.8176 72.7251 70.2093 64.2748 68.1152 54.8928C68.0753 54.7269 68.0353 54.5611 67.9941 54.3902C66.5765 48.3536 66.8919 41.1108 68.3594 35.1314C68.4104 34.9225 68.4614 34.7137 68.514 34.4985C71.499 22.7567 78.9488 13.2288 89.1113 6.83113C89.2533 6.73937 89.3953 6.64762 89.5415 6.55309C94.1189 3.61054 99.4384 2.01264 104.736 0.975899C104.908 0.940755 105.079 0.90561 105.256 0.869401C110.883 -0.237067 119.774 -0.415243 125 2.19574Z" fill="#2D2D32"/>
<path d="M57.6172 2.19574C57.4654 3.95892 56.9975 5.58053 56.4947 7.27332C56.4084 7.56839 56.322 7.86346 56.233 8.16747C56.0049 8.94587 55.7755 9.72386 55.5455 10.5017C55.3104 11.2979 55.077 12.0946 54.8434 12.8913C54.3861 14.4499 53.9271 16.008 53.4668 17.5657C53.1576 17.528 52.8484 17.4902 52.5298 17.4514C52.3558 17.4301 52.1819 17.4089 52.0027 17.387C51.4311 17.3107 50.8721 17.1978 50.3082 17.0778C42.9694 15.748 35.0408 17.3015 28.8534 21.5282C27.915 22.2065 27.0173 22.9298 26.1231 23.6649C25.9581 23.7923 25.7932 23.9196 25.6233 24.0509C24.2817 25.1179 23.2637 26.4658 22.2168 27.8124C22.05 28.0212 21.8832 28.23 21.7114 28.4452C18.9273 32.0673 16.979 36.6968 16.3574 41.2306C16.3173 41.5033 16.3173 41.5033 16.2764 41.7814C15.3591 49.1876 17.2226 57.0672 21.8353 62.9952C22.3596 63.638 22.8954 64.2678 23.4375 64.8955C23.6853 65.2101 23.6853 65.2101 23.9382 65.5311C27.8855 70.3768 35.1235 73.7737 41.2598 74.4102C45.0977 74.789 48.7333 74.5845 52.4902 73.6783C52.8125 73.6783 53.1348 73.6783 53.4668 73.6783C54.0095 75.5378 54.5507 77.3976 55.0902 79.258C55.3408 80.1219 55.5918 80.9856 55.844 81.849C56.0873 82.6823 56.3294 83.516 56.5705 84.3499C56.6628 84.6679 56.7554 84.9858 56.8486 85.3035C56.979 85.7488 57.1076 86.1945 57.2362 86.6403C57.3099 86.8938 57.3837 87.1474 57.4596 87.4086C57.6172 88.0724 57.6172 88.0724 57.6172 89.0483C47.2109 92.5729 34.9217 91.0636 25.1465 86.3646C20.8096 84.1502 17.0229 81.332 13.4277 78.0697C13.2395 77.8996 13.0513 77.7295 12.8574 77.5542C6.91589 71.8955 2.96469 63.9758 0.976567 56.1126C0.89903 55.8135 0.89903 55.8135 0.819926 55.5084C-0.757685 49.1325 -0.663914 41.4801 0.976567 35.1314C1.02759 34.9271 1.07861 34.7227 1.13118 34.5122C3.25877 26.2022 7.60705 18.9602 13.6719 12.9303C13.8708 12.7316 14.0697 12.5328 14.2746 12.328C17.1174 9.64295 20.4732 7.42885 23.9258 5.61129C24.2008 5.46411 24.4759 5.31693 24.7593 5.16529C28.7961 3.0709 32.9139 1.90154 37.3535 0.975902C37.5282 0.939343 37.7029 0.902784 37.8829 0.865116C43.5077 -0.237578 52.3952 -0.413389 57.6172 2.19574Z" fill="#2D2D32"/>
</g>
<defs>
<clipPath id="clip0_203_337">
<rect width="125" height="91" fill="white"/>
</clipPath>
</defs>
</svg>
