<svg width="93" height="91" viewBox="0 0 93 91" fill="none" xmlns="http://www.w3.org/2000/svg">
<g clip-path="url(#clip0_203_326)">
<path d="M38.1525 0.163462C38.3819 0.161797 38.3819 0.161797 38.616 0.160098C38.865 0.159771 38.865 0.159771 39.1191 0.159439C39.2954 0.158473 39.4717 0.157508 39.6533 0.156513C40.236 0.153674 40.8187 0.152348 41.4015 0.151273C41.8068 0.150154 42.2121 0.149035 42.6174 0.147914C43.4671 0.145872 44.3169 0.144734 45.1666 0.144057C46.2548 0.14299 47.3429 0.138316 48.4311 0.132783C49.2683 0.12916 50.1055 0.128149 50.9427 0.127851C51.3439 0.127263 51.745 0.125702 52.1462 0.123148C52.7076 0.119827 53.2689 0.120196 53.8304 0.121458C53.9956 0.119666 54.1609 0.117874 54.3312 0.116028C55.2953 0.122806 55.9543 0.240762 56.7908 0.77416C57.1263 1.18858 57.1263 1.18858 57.3968 1.67431C57.5526 1.94818 57.5526 1.94818 57.7115 2.22759C57.8201 2.42578 57.9288 2.62397 58.0407 2.82817C58.2814 3.25432 58.5221 3.68046 58.7628 4.10661C58.9475 4.43764 58.9475 4.43764 59.1359 4.77535C59.7314 5.83788 60.3433 6.89075 60.9532 7.94496C61.1978 8.36976 61.4423 8.79464 61.6867 9.2196C62.5364 10.6969 63.3872 12.1737 64.2381 13.6504C64.8007 14.627 65.3632 15.6037 65.9249 16.5809C66.1224 16.9243 66.3198 17.2677 66.5173 17.6111C66.764 18.04 67.0105 18.4689 67.2568 18.8979C67.9625 20.1244 68.6798 21.3429 69.4117 22.5539C70.4605 22.2593 71.3155 21.7648 72.2392 21.2049C72.4553 21.0757 72.4553 21.0757 72.6757 20.9439C73.2622 20.5929 73.8462 20.2403 74.4228 19.8732C75.0566 19.5214 75.4968 19.5353 76.2075 19.637C76.7779 20.0381 76.7779 20.0381 77.1784 20.6093C77.3156 21.8283 76.946 22.7518 76.501 23.8597C76.4291 24.0442 76.3572 24.2286 76.2831 24.4187C76.0458 25.0256 75.8052 25.6311 75.5643 26.2366C75.3982 26.6585 75.2322 27.0805 75.0664 27.5026C74.7196 28.3843 74.3714 29.2655 74.0226 30.1464C73.5786 31.2695 73.141 32.395 72.7061 33.5216C72.3732 34.3834 72.0385 35.2444 71.7033 36.1053C71.5432 36.5177 71.3837 36.9305 71.225 37.3436C71.0033 37.9198 70.7786 38.4948 70.5531 39.0696C70.4882 39.2405 70.4232 39.4114 70.3562 39.5875C70.1133 40.2002 69.8902 40.7223 69.4738 41.2353C68.2212 41.7399 66.6409 41.3589 65.3461 41.1583C65.0696 41.117 65.0696 41.117 64.7876 41.0749C64.1838 40.9844 63.5803 40.8919 62.9768 40.7992C62.555 40.7352 62.1332 40.6712 61.7114 40.6072C60.83 40.4732 59.9487 40.3382 59.0675 40.2026C57.9385 40.0289 56.8091 39.8584 55.6796 39.6887C54.8095 39.5576 53.9398 39.4245 53.0701 39.2908C52.6537 39.2271 52.2372 39.1641 51.8206 39.1017C51.2389 39.0145 50.6578 38.9245 50.0766 38.8338C49.9049 38.8087 49.7332 38.7835 49.5563 38.7575C48.6814 38.618 47.9969 38.4712 47.2766 37.9165C46.9685 37.2995 46.8944 36.6289 47.0824 35.9718C48.066 34.9649 49.3317 34.3504 50.5531 33.6748C50.8647 33.5005 50.8647 33.5005 51.1827 33.3227C51.6923 33.0379 52.2025 32.7542 52.7132 32.4715C52.7132 31.6501 52.3088 31.0886 51.9123 30.3932C51.8259 30.2395 51.7394 30.0858 51.6503 29.9275C50.8279 28.4719 49.9842 27.0287 49.14 25.5858C48.2494 24.0626 47.3722 22.532 46.4999 20.9982C45.4243 19.1078 44.3381 17.2239 43.2411 15.3458C42.1731 13.5167 41.1156 11.6816 40.0597 9.84552C39.6104 9.06421 39.1603 8.28337 38.709 7.50321C38.4414 7.04073 38.1742 6.57812 37.9069 6.1155C37.7187 5.79013 37.5303 5.46495 37.3418 5.13978C37.2273 4.94147 37.1128 4.74315 36.9948 4.53883C36.8943 4.3653 36.7939 4.19177 36.6904 4.01298C35.6874 2.21008 35.6874 2.21008 36.0148 0.968622C36.5414 0.215251 37.2852 0.167253 38.1525 0.163462Z" fill="#2D2D32"/>
<path d="M56.5967 56.3894C57.0054 56.6831 57.0054 56.6831 57.3733 57.1673C57.4411 57.7292 57.4642 58.2147 57.4492 58.7746C57.4481 58.9289 57.447 59.0832 57.4458 59.2422C57.4415 59.7337 57.4318 60.2248 57.4219 60.7162C57.418 61.05 57.4144 61.3837 57.4113 61.7174C57.4027 62.5344 57.3893 63.3511 57.3733 64.1679C57.5527 64.1672 57.7321 64.1665 57.917 64.1658C62.2793 64.1485 66.6416 64.1357 71.0039 64.1276C73.1135 64.1236 75.223 64.1181 77.3326 64.1093C79.1709 64.1015 81.0093 64.0965 82.8477 64.0948C83.8214 64.0937 84.795 64.0913 85.7687 64.0857C86.6848 64.0804 87.6008 64.0788 88.5169 64.08C88.8535 64.0797 89.1901 64.0782 89.5266 64.0752C89.9856 64.0714 90.4443 64.0723 90.9032 64.0744C91.037 64.0721 91.1707 64.0699 91.3085 64.0675C91.9464 64.0755 92.2764 64.1326 92.7927 64.5201C93.1582 65.0261 93.2375 65.4158 93.2039 66.0382C92.9755 67.0583 92.39 67.9327 91.8623 68.8229C91.7376 69.0394 91.6128 69.2558 91.4842 69.4789C91.12 70.1089 90.7516 70.7363 90.3818 71.363C90.2115 71.6547 90.0413 71.9463 89.8714 72.2381C89.5709 72.7525 89.2681 73.2655 88.9642 73.7779C88.4166 74.7044 87.8818 75.6382 87.3462 76.5717C84.0531 82.3114 84.0531 82.3114 83.3918 82.8363C82.9138 82.9081 82.9138 82.9081 82.334 82.9065C82.1142 82.9073 81.8945 82.9081 81.6681 82.9089C81.4269 82.9068 81.1857 82.9047 80.9372 82.9026C80.6834 82.9026 80.4295 82.9027 80.168 82.9028C79.4716 82.903 78.7752 82.8995 78.0788 82.8955C77.3512 82.8918 76.6235 82.8915 75.8958 82.8908C74.5178 82.889 73.1397 82.8842 71.7617 82.8783C70.1928 82.8718 68.624 82.8686 67.0552 82.8657C63.8279 82.8596 60.6006 82.8493 57.3733 82.8363C57.3794 83.1483 57.3794 83.1483 57.3857 83.4666C57.3997 84.2392 57.4086 85.0119 57.416 85.7846C57.4199 86.1188 57.4252 86.4531 57.4319 86.7873C57.4414 87.2681 57.4458 87.7487 57.4492 88.2296C57.4532 88.3787 57.4572 88.5278 57.4613 88.6815C57.4616 89.3613 57.4285 89.7599 57.028 90.3195C56.51 90.6741 56.0719 90.7161 55.4506 90.7371C54.3351 90.4022 53.5053 88.9817 52.7861 88.099C52.6665 87.9528 52.5469 87.8067 52.4236 87.6561C51.6091 86.658 50.8085 85.6499 50.0172 84.6332C49.3412 83.7659 48.6509 82.9109 47.9562 82.0585C47.0824 80.9861 46.2211 79.9053 45.3711 78.814C44.5429 77.7536 43.6936 76.7107 42.84 75.6708C42.7377 75.5458 42.6355 75.4207 42.5301 75.2918C42.439 75.1808 42.3479 75.0698 42.254 74.9555C41.8054 74.3708 41.7722 73.8611 41.7835 73.1292C41.8772 72.4566 42.2246 72.0705 42.653 71.5575C42.7392 71.4518 42.8255 71.3462 42.9143 71.2373C43.1016 71.0085 43.2905 70.781 43.4809 70.5547C43.898 70.0576 44.3047 69.5522 44.7125 69.0473C45.0339 68.6498 45.3569 68.2536 45.68 67.8574C46.253 67.1526 46.8153 66.4401 47.3737 65.7236C48.1391 64.7419 48.9174 63.7717 49.7037 62.8067C50.5099 61.8172 51.3082 60.8224 52.0944 59.8168C52.1812 59.7059 52.2681 59.5949 52.3575 59.4806C52.7606 58.9652 53.1633 58.4495 53.5658 57.9337C53.705 57.757 53.8442 57.5803 53.9875 57.3982C54.1079 57.2446 54.2283 57.0909 54.3524 56.9326C54.9394 56.2562 55.7517 56.2154 56.5967 56.3894Z" fill="#2D2D32"/>
<path d="M2.13324 64.1396C2.36127 64.1386 2.36127 64.1386 2.5939 64.1375C3.10608 64.1353 3.61825 64.1346 4.13043 64.1338C4.49651 64.1326 4.8626 64.1313 5.22868 64.13C6.22519 64.1266 7.2217 64.1245 8.21821 64.1229C8.84029 64.1219 9.46237 64.1208 10.0845 64.1195C12.0294 64.1158 13.9743 64.1131 15.9192 64.1114C18.167 64.1095 20.4148 64.1044 22.6626 64.0966C24.3983 64.0907 26.134 64.0878 27.8698 64.0872C28.9073 64.0867 29.9447 64.085 30.9823 64.0801C31.9579 64.0756 32.9335 64.0747 33.9092 64.0767C34.2677 64.0768 34.6262 64.0756 34.9847 64.0729C35.4734 64.0695 35.9619 64.0709 36.4506 64.0734C36.6643 64.0702 36.6643 64.0702 36.8825 64.067C37.542 64.0753 37.8953 64.1216 38.427 64.5267C39.0073 65.3212 38.9574 66.0982 38.9588 67.041C38.9597 67.1947 38.9607 67.3485 38.9617 67.5069C38.9645 68.0158 38.9658 68.5247 38.9669 69.0336C38.968 69.3875 38.9691 69.7414 38.9703 70.0953C38.9723 70.8376 38.9734 71.5799 38.9741 72.3223C38.9752 73.2724 38.9798 74.2224 38.9854 75.1725C38.989 75.9038 38.99 76.6349 38.9903 77.3662C38.9909 77.7164 38.9924 78.0666 38.995 78.4168C38.9983 78.9074 38.9979 79.3978 38.9967 79.8884C38.9985 80.0324 39.0003 80.1764 39.0021 80.3248C38.9948 81.2385 38.8307 81.8675 38.345 82.6422C37.8248 82.9027 37.423 82.8641 36.8403 82.8679C36.6026 82.8698 36.3649 82.8718 36.1201 82.8738C35.8553 82.875 35.5905 82.8761 35.3257 82.8772C35.0479 82.8791 34.7701 82.881 34.4923 82.883C33.5788 82.8891 32.6652 82.8931 31.7516 82.8967C31.5186 82.8976 31.5186 82.8976 31.2808 82.8986C29.8161 82.9046 28.3513 82.9098 26.8865 82.9131C25.012 82.9173 23.1375 82.9255 21.263 82.939C19.9455 82.9482 18.628 82.9529 17.3104 82.9543C16.5232 82.9553 15.7361 82.9582 14.949 82.966C14.2083 82.9731 13.4679 82.9748 12.7272 82.9722C12.4555 82.9722 12.1838 82.9742 11.9121 82.9784C9.86134 83.0081 9.86134 83.0081 9.23791 82.586C8.97432 82.2771 8.97432 82.2771 8.63733 81.6699C8.47331 81.4143 8.47331 81.4143 8.30598 81.1535C8.15838 80.8932 8.15838 80.8932 8.00781 80.6277C7.8379 80.3302 7.8379 80.3302 7.66455 80.0267C7.4853 79.709 7.4853 79.709 7.30243 79.3849C7.10865 79.045 6.91487 78.7051 6.72098 78.3653C6.52065 78.0138 6.3208 77.662 6.12103 77.3102C5.50409 76.2247 4.87994 75.1433 4.25643 74.0615C4.13777 73.855 4.01912 73.6484 3.89687 73.4356C3.28405 72.3699 2.6659 71.3078 2.03867 70.2505C1.85154 69.9338 1.85154 69.9338 1.66062 69.6106C1.42386 69.2105 1.18587 68.8111 0.946432 68.4125C0.388457 67.4678 -0.102821 66.6175 -0.294373 65.5295C0.223128 64.1301 0.764805 64.1393 2.13324 64.1396Z" fill="#2D2D32"/>
<path d="M28.9902 34.4025C29.5245 35.1563 29.8421 35.9081 30.1634 36.7708C30.2312 36.9466 30.2991 37.1223 30.369 37.3033C30.5908 37.8795 30.809 38.457 31.0273 39.0345C31.1807 39.435 31.3345 39.8353 31.4885 40.2356C31.8056 41.0605 32.1214 41.8859 32.4363 42.7116C33.0952 44.4366 33.7685 46.1559 34.4413 47.8754C34.7619 48.6954 35.0818 49.5157 35.4014 50.3361C35.4552 50.4741 35.5091 50.6121 35.5646 50.7542C36.7584 53.8198 36.7584 53.8198 36.5975 55.029C36.197 55.5152 36.197 55.5152 35.6266 55.8069C34.5568 55.9042 33.9564 55.721 33.044 55.1688C32.9348 55.1041 32.8256 55.0393 32.7131 54.9726C32.3679 54.7673 32.0252 54.5581 31.6826 54.3484C31.3361 54.1395 30.9892 53.9315 30.6417 53.7242C30.3285 53.537 30.0167 53.3474 29.705 53.1577C29.2548 52.8587 29.2548 52.8587 28.8308 52.8899C28.7527 53.0258 28.6746 53.1616 28.5942 53.3016C28.2939 53.824 27.9935 54.3463 27.6931 54.8685C27.5033 55.1983 27.3138 55.5282 27.1242 55.8582C26.8718 56.2967 26.6146 56.7324 26.3525 57.1651C26.0416 57.6967 25.8037 58.2213 25.5867 58.7973C25.1962 59.7431 24.7776 60.5917 23.9766 61.2518C22.4308 61.8484 20.6523 61.6353 19.0298 61.5747C18.5451 61.5685 18.0603 61.5638 17.5755 61.5605C16.4335 61.5492 15.2926 61.5232 14.1511 61.4899C12.7227 61.4492 11.2941 61.4315 9.86529 61.4132C7.31959 61.3779 4.77476 61.3221 2.2298 61.2518C2.52715 60.3126 2.92105 59.5137 3.43121 58.6752C3.60741 58.3804 3.78336 58.0854 3.9591 57.7902C4.05522 57.6292 4.15133 57.4681 4.25035 57.3021C4.82757 56.3267 5.39072 55.3432 5.95539 54.3606C6.07838 54.1468 6.20136 53.9331 6.32808 53.7129C6.70963 53.0497 7.091 52.3865 7.47232 51.7232C9.07874 48.9289 10.6866 46.136 12.3265 43.3613C11.8454 42.8218 11.3156 42.5058 10.6882 42.1527C10.4825 42.0353 10.2767 41.9179 10.0648 41.7969C9.63124 41.5517 9.1974 41.3071 8.76323 41.0631C8.55749 40.9454 8.35175 40.8277 8.13977 40.7064C7.9513 40.6002 7.76283 40.4939 7.56865 40.3844C7.07817 40.0515 6.80087 39.7867 6.50148 39.2776C6.42857 38.596 6.39681 38.1205 6.71298 37.5038C7.24455 36.9804 7.70132 36.9538 8.43297 36.8363C8.56958 36.8135 8.7062 36.7907 8.84695 36.7672C9.2944 36.6933 9.74245 36.6241 10.1907 36.5551C10.4921 36.5063 10.7934 36.4572 11.0948 36.4079C12.0767 36.2485 13.0597 36.0964 14.0429 35.9451C14.4043 35.8893 14.7657 35.8335 15.1271 35.7776C15.8782 35.6617 16.6293 35.5462 17.3804 35.431C18.3394 35.2838 19.2981 35.135 20.2567 34.9857C21.0003 34.8702 21.7441 34.7559 22.488 34.6419C22.8416 34.5875 23.1951 34.5327 23.5486 34.4774C24.0425 34.4004 24.5366 34.3249 25.0308 34.2499C25.174 34.2272 25.3171 34.2045 25.4646 34.1811C28.0941 33.7883 28.0941 33.7883 28.9902 34.4025Z" fill="#2D2D32"/>
<path d="M33.6849 5.05182C34.5903 5.43709 34.8738 6.08103 35.3111 6.92352C35.4835 7.24486 35.6565 7.56591 35.8299 7.88671C35.9224 8.0583 36.0148 8.22989 36.1101 8.40667C36.6182 9.33288 37.1548 10.2422 37.6896 11.1531C38.4319 12.4206 39.1708 13.6898 39.8975 14.9664C39.9626 15.0806 40.0277 15.1949 40.0947 15.3127C40.4227 15.8893 40.7501 16.4662 41.077 17.0435C41.7009 18.1432 42.3341 19.2355 42.9928 20.3148C43.1712 20.6086 43.1712 20.6086 43.3531 20.9084C43.5763 21.2743 43.8018 21.6388 44.0301 22.0017C44.1286 22.1634 44.227 22.3252 44.3285 22.4919C44.4155 22.6314 44.5025 22.7709 44.5921 22.9146C44.8419 23.5636 44.6734 24.0418 44.4012 24.6612C44.3066 24.829 44.3066 24.829 44.2102 25.0002C44.1006 25.1965 44.1006 25.1965 43.9889 25.3967C43.8683 25.6076 43.8683 25.6076 43.7452 25.8228C43.6611 25.9721 43.5769 26.1213 43.4902 26.2751C43.201 26.7859 42.9091 27.295 42.6166 27.8039C42.5047 27.9991 42.3928 28.1942 42.2775 28.3953C41.9225 29.0131 41.566 29.6302 41.2089 30.2468C41.0967 30.4409 40.9846 30.635 40.869 30.835C38.999 34.0437 38.999 34.0437 38.1508 34.6101C36.69 34.6133 35.7049 33.976 34.4859 33.2245C34.0709 32.9752 33.6557 32.726 33.2405 32.4771C33.0264 32.3477 32.8123 32.2184 32.5918 32.0851C31.5244 31.4457 30.4439 30.8294 29.3647 30.2104C28.7398 29.8491 28.1152 29.4871 27.4908 29.1249C27.0938 28.8949 26.6964 28.6654 26.2987 28.4367C25.7538 28.1227 25.2109 27.8058 24.6683 27.4879C24.5074 27.396 24.3465 27.3041 24.1808 27.2094C22.7374 26.3558 22.7374 26.3558 22.4232 25.4704C22.5038 24.5736 22.763 23.9496 23.2135 23.1763C23.3381 22.9604 23.4626 22.7445 23.591 22.5221C23.7276 22.2894 23.8642 22.0568 24.0008 21.8242C24.1419 21.581 24.2828 21.3378 24.4236 21.0944C24.7136 20.5935 25.0046 20.0931 25.2963 19.5932C25.8171 18.7001 26.3313 17.8034 26.8459 16.9068C28.0109 14.8778 29.1873 12.8555 30.3668 10.835C31.4863 8.91493 32.5878 6.98471 33.6849 5.05182Z" fill="#2D2D32"/>
<path d="M78.7319 40.8325C79.5243 41.325 79.9263 41.892 80.3747 42.6996C80.4968 42.9167 80.6188 43.1338 80.7445 43.3575C80.8746 43.5935 81.0047 43.8294 81.1347 44.0654C81.272 44.3109 81.4095 44.5562 81.5473 44.8014C81.8306 45.3059 82.1131 45.8109 82.395 46.3161C83.012 47.4194 83.645 48.5134 84.2778 49.6076C84.5178 50.0236 84.7577 50.4396 84.9976 50.8556C85.1164 51.0615 85.2352 51.2674 85.3576 51.4796C85.7309 52.1268 86.1038 52.7742 86.4766 53.4216C86.6011 53.6378 86.7256 53.854 86.8539 54.0767C87.0994 54.5033 87.345 54.9298 87.5905 55.3564C88.1559 56.3384 88.7224 57.3196 89.292 58.2991C89.3926 58.4722 89.4932 58.6453 89.5968 58.8237C89.7839 59.1456 89.9713 59.4672 90.1592 59.7887C90.7703 60.8405 90.7703 60.8405 90.7703 61.0565C87.9551 61.0975 85.1399 61.1282 82.3244 61.1472C81.017 61.1562 79.7099 61.1685 78.4026 61.1886C77.1412 61.2079 75.8798 61.2181 74.6182 61.2226C74.1368 61.2258 73.6554 61.2321 73.1741 61.2416C72.4999 61.2543 71.8264 61.256 71.1521 61.2552C70.8533 61.2647 70.8533 61.2647 70.5486 61.2743C69.2212 61.257 69.2212 61.257 68.645 60.6727C68.3456 60.2285 68.0956 59.7863 67.8585 59.3064C67.6967 59.0369 67.6967 59.0369 67.5315 58.7619C67.4467 58.6097 67.3619 58.4575 67.2745 58.3006C67.1762 58.1253 67.0778 57.95 66.9765 57.7693C66.8751 57.5867 66.7737 57.4041 66.6692 57.2159C66.009 56.0289 65.3465 54.8458 64.6457 53.6822C64.5371 53.4996 64.4285 53.3171 64.3166 53.129C64.1098 52.7825 63.9003 52.4376 63.6876 52.0948C63.2593 51.3704 63.0151 50.8749 62.9421 50.0269C63.6035 48.3807 65.7839 47.6 67.2517 46.7757C67.4912 46.6401 67.7307 46.5044 67.97 46.3686C68.3395 46.1589 68.709 45.9493 69.0787 45.7401C70.3592 45.0154 71.6334 44.2798 72.9069 43.5428C73.1068 43.4272 73.3068 43.3117 73.5128 43.1926C73.8016 43.0257 73.8016 43.0257 74.0962 42.8553C74.377 42.694 74.377 42.694 74.6635 42.5294C75.0652 42.2942 75.4634 42.0529 75.8588 41.8071C76.0621 41.6823 76.2653 41.5574 76.4747 41.4288C76.6564 41.3146 76.8381 41.2004 77.0254 41.0828C77.6648 40.7872 78.0355 40.7284 78.7319 40.8325Z" fill="#2D2D32"/>
</g>
<defs>
<clipPath id="clip0_203_326">
<rect width="93" height="91" fill="white"/>
</clipPath>
</defs>
</svg>
