<svg width="68" height="52" viewBox="0 0 68 52" fill="none" xmlns="http://www.w3.org/2000/svg" xmlns:xlink="http://www.w3.org/1999/xlink">
<g clip-path="url(#clip0_260_332)">
<path d="M19.032 22.728V36H14.952V29.568C14.952 28.928 14.96 28.304 14.976 27.696C15.008 27.088 15.048 26.528 15.096 26.016H15.024L11.88 36H8.76L5.616 25.992H5.544C5.592 26.52 5.624 27.088 5.64 27.696C5.672 28.288 5.688 28.944 5.688 29.664V36H1.608V22.728H7.848L10.344 30.768L12.888 22.728H19.032ZM28.185 22.488C29.481 22.488 30.593 22.712 31.521 23.16C32.465 23.608 33.185 24.28 33.681 25.176C34.193 26.072 34.449 27.2 34.449 28.56V30.6H26.265C26.297 31.288 26.553 31.856 27.033 32.304C27.529 32.752 28.241 32.976 29.169 32.976C30.001 32.976 30.761 32.896 31.449 32.736C32.137 32.576 32.849 32.32 33.585 31.968V35.256C32.945 35.592 32.241 35.84 31.473 36C30.721 36.16 29.769 36.24 28.617 36.24C27.273 36.24 26.073 36.008 25.017 35.544C23.977 35.064 23.153 34.32 22.545 33.312C21.937 32.304 21.633 31.016 21.633 29.448C21.633 27.848 21.905 26.536 22.449 25.512C23.009 24.488 23.777 23.728 24.753 23.232C25.745 22.736 26.889 22.488 28.185 22.488ZM28.353 25.608C27.809 25.608 27.353 25.776 26.985 26.112C26.633 26.448 26.425 26.984 26.361 27.72H30.297C30.297 27.32 30.217 26.968 30.057 26.664C29.913 26.344 29.697 26.088 29.409 25.896C29.121 25.704 28.769 25.608 28.353 25.608ZM45.1569 22.488C46.6289 22.488 47.7809 23.08 48.6129 24.264C49.4449 25.432 49.8609 27.12 49.8609 29.328C49.8609 30.832 49.6449 32.104 49.2129 33.144C48.7969 34.168 48.2209 34.944 47.4849 35.472C46.7649 35.984 45.9409 36.24 45.0129 36.24C44.3889 36.24 43.8609 36.16 43.4289 36C42.9969 35.84 42.6369 35.648 42.3489 35.424C42.0609 35.184 41.8209 34.944 41.6289 34.704H41.4849C41.5169 35.008 41.5489 35.336 41.5809 35.688C41.6129 36.04 41.6289 36.448 41.6289 36.912V41.76H37.0449V22.728H40.7649L41.4129 24.408H41.6289C41.8529 24.056 42.1169 23.736 42.4209 23.448C42.7409 23.16 43.1249 22.928 43.5729 22.752C44.0209 22.576 44.5489 22.488 45.1569 22.488ZM43.4289 26.088C42.9809 26.088 42.6289 26.2 42.3729 26.424C42.1169 26.632 41.9329 26.944 41.8209 27.36C41.7089 27.776 41.6449 28.304 41.6289 28.944V29.304C41.6289 30.008 41.6769 30.6 41.7729 31.08C41.8849 31.56 42.0769 31.928 42.3489 32.184C42.6209 32.424 42.9889 32.544 43.4529 32.544C43.8369 32.544 44.1569 32.44 44.4129 32.232C44.6849 32.008 44.8849 31.656 45.0129 31.176C45.1409 30.696 45.2049 30.064 45.2049 29.28C45.2049 28.112 45.0529 27.288 44.7489 26.808C44.4449 26.328 44.0049 26.088 43.4289 26.088ZM56.2404 27.384C56.2404 27.832 56.3364 28.176 56.5284 28.416C56.7364 28.64 57.0564 28.752 57.4884 28.752C57.9524 28.752 58.4484 28.704 58.9764 28.608C59.5044 28.496 60.0404 28.352 60.5844 28.176V22.728H65.1684V36H60.5844V31.176C60.1204 31.384 59.5204 31.6 58.7844 31.824C58.0484 32.048 57.2484 32.16 56.3844 32.16C54.7844 32.16 53.5924 31.792 52.8084 31.056C52.0404 30.32 51.6564 29.176 51.6564 27.624V22.728H56.2404V27.384Z" fill="#2D2D32"/>
<use xlink:href="#stroke0_260_332" transform="translate(20.232 21.528) scale(0.114286) rotate(90)"/>
<use xlink:href="#stroke0_260_332" transform="translate(20.232 23.688) scale(0.114286) rotate(90)"/>
<use xlink:href="#stroke0_260_332" transform="translate(20.232 25.848) scale(0.114286) rotate(90)"/>
<use xlink:href="#stroke0_260_332" transform="translate(20.232 28.008) scale(0.114286) rotate(90)"/>
<use xlink:href="#stroke0_260_332" transform="translate(20.232 30.168) scale(0.114286) rotate(90)"/>
<use xlink:href="#stroke0_260_332" transform="translate(20.232 32.328) scale(0.114286) rotate(90)"/>
<use xlink:href="#stroke0_260_332" transform="translate(20.232 34.488) scale(0.114286) rotate(90)"/>
<use xlink:href="#stroke0_260_332" transform="translate(18.384 37.2) scale(0.114286) rotate(-180)"/>
<use xlink:href="#stroke0_260_332" transform="translate(16.224 37.2) scale(0.114286) rotate(-180)"/>
<use xlink:href="#stroke0_260_332" transform="translate(13.752 35.112) scale(0.114286) rotate(-90)"/>
<use xlink:href="#stroke0_260_332" transform="translate(13.752 32.952) scale(0.114286) rotate(-90)"/>
<use xlink:href="#stroke0_260_332" transform="translate(13.752 30.792) scale(0.114286) rotate(-90)"/>
<use xlink:href="#stroke0_260_332" transform="translate(13.7233 28.5613) scale(0.114286) rotate(-86.6914)"/>
<use xlink:href="#stroke0_260_332" transform="translate(16.3286 25.8684) scale(0.114286) rotate(107.479)"/>
<use xlink:href="#stroke0_260_332" transform="translate(15.6798 27.9287) scale(0.114286) rotate(107.479)"/>
<use xlink:href="#stroke0_260_332" transform="translate(15.031 29.9889) scale(0.114286) rotate(107.479)"/>
<use xlink:href="#stroke0_260_332" transform="translate(14.3822 32.0492) scale(0.114286) rotate(107.479)"/>
<use xlink:href="#stroke0_260_332" transform="translate(13.7334 34.1095) scale(0.114286) rotate(107.479)"/>
<use xlink:href="#stroke0_260_332" transform="translate(12.0799 37.2) scale(0.114286) rotate(-180)"/>
<use xlink:href="#stroke0_260_332" transform="translate(7.9628 37.4663) scale(0.114286) rotate(-107.44)"/>
<use xlink:href="#stroke0_260_332" transform="translate(7.31544 35.4056) scale(0.114286) rotate(-107.44)"/>
<use xlink:href="#stroke0_260_332" transform="translate(6.66807 33.3448) scale(0.114286) rotate(-107.44)"/>
<use xlink:href="#stroke0_260_332" transform="translate(6.0207 31.2841) scale(0.114286) rotate(-107.44)"/>
<use xlink:href="#stroke0_260_332" transform="translate(5.37333 29.2234) scale(0.114286) rotate(-107.44)"/>
<use xlink:href="#stroke0_260_332" transform="translate(6.66994 24.9787) scale(0.114286) rotate(85.5169)"/>
<use xlink:href="#stroke0_260_332" transform="translate(6.83366 27.1905) scale(0.114286) rotate(88.272)"/>
<use xlink:href="#stroke0_260_332" transform="translate(6.888 29.386) scale(0.114286) rotate(90)"/>
<use xlink:href="#stroke0_260_332" transform="translate(6.888 31.546) scale(0.114286) rotate(90)"/>
<use xlink:href="#stroke0_260_332" transform="translate(6.888 33.706) scale(0.114286) rotate(90)"/>
<use xlink:href="#stroke0_260_332" transform="translate(5.82198 37.2) scale(0.114286) rotate(-180)"/>
<use xlink:href="#stroke0_260_332" transform="translate(3.66198 37.2) scale(0.114286) rotate(-180)"/>
<use xlink:href="#stroke0_260_332" transform="translate(0.408 35.894) scale(0.114286) rotate(-90)"/>
<use xlink:href="#stroke0_260_332" transform="translate(0.408 33.734) scale(0.114286) rotate(-90)"/>
<use xlink:href="#stroke0_260_332" transform="translate(0.408 31.574) scale(0.114286) rotate(-90)"/>
<use xlink:href="#stroke0_260_332" transform="translate(0.408 29.414) scale(0.114286) rotate(-90)"/>
<use xlink:href="#stroke0_260_332" transform="translate(0.408 27.254) scale(0.114286) rotate(-90)"/>
<use xlink:href="#stroke0_260_332" transform="translate(0.408 25.094) scale(0.114286) rotate(-90)"/>
<use xlink:href="#stroke0_260_332" transform="translate(1.40202 21.528) scale(0.114286)"/>
<use xlink:href="#stroke0_260_332" transform="translate(3.56202 21.528) scale(0.114286)"/>
<use xlink:href="#stroke0_260_332" transform="translate(5.72202 21.528) scale(0.114286)"/>
<use xlink:href="#stroke0_260_332" transform="translate(9.00413 22.4047) scale(0.114286) rotate(72.7532)"/>
<use xlink:href="#stroke0_260_332" transform="translate(9.64455 24.4676) scale(0.114286) rotate(72.7532)"/>
<use xlink:href="#stroke0_260_332" transform="translate(10.285 26.5305) scale(0.114286) rotate(72.7532)"/>
<use xlink:href="#stroke0_260_332" transform="translate(10.9254 28.5933) scale(0.114286) rotate(72.7532)"/>
<use xlink:href="#stroke0_260_332" transform="translate(9.27698 30.1624) scale(0.114286) rotate(-72.4417)"/>
<use xlink:href="#stroke0_260_332" transform="translate(9.92861 28.103) scale(0.114286) rotate(-72.4417)"/>
<use xlink:href="#stroke0_260_332" transform="translate(10.5802 26.0437) scale(0.114286) rotate(-72.4417)"/>
<use xlink:href="#stroke0_260_332" transform="translate(11.2318 23.9843) scale(0.114286) rotate(-72.4417)"/>
<use xlink:href="#stroke0_260_332" transform="translate(13.3506 21.528) scale(0.114286)"/>
<use xlink:href="#stroke0_260_332" transform="translate(15.5106 21.528) scale(0.114286)"/>
<use xlink:href="#stroke0_260_332" transform="translate(17.6706 21.528) scale(0.114286)"/>
<use xlink:href="#stroke0_260_332" transform="translate(26.985 21.288) scale(0.114286)"/>
<use xlink:href="#stroke0_260_332" transform="translate(29.4542 21.2755) scale(0.114286) rotate(14.0931)"/>
<use xlink:href="#stroke0_260_332" transform="translate(32.0038 21.934) scale(0.114286) rotate(35.3902)"/>
<use xlink:href="#stroke0_260_332" transform="translate(34.1638 23.5806) scale(0.114286) rotate(60.7782)"/>
<use xlink:href="#stroke0_260_332" transform="translate(35.3774 25.8992) scale(0.114286) rotate(81.7976)"/>
<use xlink:href="#stroke0_260_332" transform="translate(35.649 28.2141) scale(0.114286) rotate(90)"/>
<use xlink:href="#stroke0_260_332" transform="translate(34.6749 31.8) scale(0.114286) rotate(-180)"/>
<use xlink:href="#stroke0_260_332" transform="translate(32.5149 31.8) scale(0.114286) rotate(-180)"/>
<use xlink:href="#stroke0_260_332" transform="translate(30.3549 31.8) scale(0.114286) rotate(-180)"/>
<use xlink:href="#stroke0_260_332" transform="translate(28.1949 31.8) scale(0.114286) rotate(-180)"/>
<use xlink:href="#stroke0_260_332" transform="translate(26.984 30.2632) scale(0.114286) rotate(54.3086)"/>
<use xlink:href="#stroke0_260_332" transform="translate(27.5115 31.5967) scale(0.114286) rotate(7.26605)"/>
<use xlink:href="#stroke0_260_332" transform="translate(29.348 31.8537) scale(0.114286) rotate(-8.04141)"/>
<use xlink:href="#stroke0_260_332" transform="translate(31.2303 31.6371) scale(0.114286) rotate(-21.4067)"/>
<use xlink:href="#stroke0_260_332" transform="translate(34.785 32.0558) scale(0.114286) rotate(90)"/>
<use xlink:href="#stroke0_260_332" transform="translate(35.0516 35.8686) scale(0.114286) rotate(153.552)"/>
<use xlink:href="#stroke0_260_332" transform="translate(32.8157 36.9527) scale(0.114286) rotate(168.544)"/>
<use xlink:href="#stroke0_260_332" transform="translate(30.4883 37.3967) scale(0.114286) rotate(178.374)"/>
<use xlink:href="#stroke0_260_332" transform="translate(28.1111 37.4954) scale(0.114286) rotate(-171.577)"/>
<use xlink:href="#stroke0_260_332" transform="translate(25.6452 37.1288) scale(0.114286) rotate(-156.364)"/>
<use xlink:href="#stroke0_260_332" transform="translate(23.225 35.9923) scale(0.114286) rotate(-133.006)"/>
<use xlink:href="#stroke0_260_332" transform="translate(21.4585 34.0364) scale(0.114286) rotate(-111.429)"/>
<use xlink:href="#stroke0_260_332" transform="translate(20.5788 31.6778) scale(0.114286) rotate(-94.9161)"/>
<use xlink:href="#stroke0_260_332" transform="translate(20.3773 29.2953) scale(0.114286) rotate(-84.2322)"/>
<use xlink:href="#stroke0_260_332" transform="translate(20.6163 26.805) scale(0.114286) rotate(-68.7124)"/>
<use xlink:href="#stroke0_260_332" transform="translate(21.6192 24.3575) scale(0.114286) rotate(-46.7133)"/>
<use xlink:href="#stroke0_260_332" transform="translate(23.498 22.4567) scale(0.114286) rotate(-23.3887)"/>
<use xlink:href="#stroke0_260_332" transform="translate(25.8338 21.4835) scale(0.114286) rotate(-6.35788)"/>
<use xlink:href="#stroke0_260_332" transform="translate(29.553 26.808) scale(0.114286) rotate(-180)"/>
<use xlink:href="#stroke0_260_332" transform="translate(28.1959 26.0537) scale(0.114286) rotate(114.142)"/>
<use xlink:href="#stroke0_260_332" transform="translate(26.2252 26.52) scale(0.114286)"/>
<use xlink:href="#stroke0_260_332" transform="translate(28.3852 26.52) scale(0.114286)"/>
<use xlink:href="#stroke0_260_332" transform="translate(29.5895 28.0277) scale(0.114286) rotate(-125.057)"/>
<use xlink:href="#stroke0_260_332" transform="translate(29.553 26.808) scale(0.114286) rotate(-180)"/>
<use xlink:href="#stroke0_260_332" transform="translate(43.9569 21.288) scale(0.114286)"/>
<use xlink:href="#stroke0_260_332" transform="translate(46.7683 21.3581) scale(0.114286) rotate(29.0868)"/>
<use xlink:href="#stroke0_260_332" transform="translate(49.1324 22.8289) scale(0.114286) rotate(57.6267)"/>
<use xlink:href="#stroke0_260_332" transform="translate(50.4569 25.0337) scale(0.114286) rotate(76.648)"/>
<use xlink:href="#stroke0_260_332" transform="translate(50.9921 27.3656) scale(0.114286) rotate(87.4922)"/>
<use xlink:href="#stroke0_260_332" transform="translate(51.1092 29.711) scale(0.114286) rotate(96.1914)"/>
<use xlink:href="#stroke0_260_332" transform="translate(50.8569 32.1642) scale(0.114286) rotate(110.145)"/>
<use xlink:href="#stroke0_260_332" transform="translate(49.9563 34.6157) scale(0.114286) rotate(130.427)"/>
<use xlink:href="#stroke0_260_332" transform="translate(48.0596 36.696) scale(0.114286) rotate(159.851)"/>
<use xlink:href="#stroke0_260_332" transform="translate(45.4636 37.5249) scale(0.114286) rotate(-174.228)"/>
<use xlink:href="#stroke0_260_332" transform="translate(42.6356 37.1373) scale(0.114286) rotate(-143.215)"/>
<use xlink:href="#stroke0_260_332" transform="translate(42.6623 34.3357) scale(0.114286) rotate(84.7732)"/>
<use xlink:href="#stroke0_260_332" transform="translate(42.8289 36.5984) scale(0.114286) rotate(90)"/>
<use xlink:href="#stroke0_260_332" transform="translate(42.8289 38.7585) scale(0.114286) rotate(90)"/>
<use xlink:href="#stroke0_260_332" transform="translate(42.4705 42.96) scale(0.114286) rotate(-180)"/>
<use xlink:href="#stroke0_260_332" transform="translate(40.3105 42.96) scale(0.114286) rotate(-180)"/>
<use xlink:href="#stroke0_260_332" transform="translate(35.8449 42.8656) scale(0.114286) rotate(-90)"/>
<use xlink:href="#stroke0_260_332" transform="translate(35.8449 40.7056) scale(0.114286) rotate(-90)"/>
<use xlink:href="#stroke0_260_332" transform="translate(35.8449 38.5455) scale(0.114286) rotate(-90)"/>
<use xlink:href="#stroke0_260_332" transform="translate(35.8449 36.3855) scale(0.114286) rotate(-90)"/>
<use xlink:href="#stroke0_260_332" transform="translate(35.8449 34.2255) scale(0.114286) rotate(-90)"/>
<use xlink:href="#stroke0_260_332" transform="translate(35.8449 32.0655) scale(0.114286) rotate(-90)"/>
<use xlink:href="#stroke0_260_332" transform="translate(35.8449 29.9056) scale(0.114286) rotate(-90)"/>
<use xlink:href="#stroke0_260_332" transform="translate(35.8449 27.7456) scale(0.114286) rotate(-90)"/>
<use xlink:href="#stroke0_260_332" transform="translate(35.8449 25.5856) scale(0.114286) rotate(-90)"/>
<use xlink:href="#stroke0_260_332" transform="translate(36.3474 21.528) scale(0.114286)"/>
<use xlink:href="#stroke0_260_332" transform="translate(38.5074 21.528) scale(0.114286)"/>
<use xlink:href="#stroke0_260_332" transform="translate(41.8494 22.2051) scale(0.114286) rotate(68.9077)"/>
<use xlink:href="#stroke0_260_332" transform="translate(40.7231 23.4041) scale(0.114286) rotate(-43.4726)"/>
<use xlink:href="#stroke0_260_332" transform="translate(42.979 21.5461) scale(0.114286) rotate(-8.86604)"/>
<use xlink:href="#stroke0_260_332" transform="translate(44.6289 27.288) scale(0.114286) rotate(-180)"/>
<use xlink:href="#stroke0_260_332" transform="translate(43.336 26.4798) scale(0.114286) rotate(106.668)"/>
<use xlink:href="#stroke0_260_332" transform="translate(42.8196 28.2173) scale(0.114286) rotate(89.5315)"/>
<use xlink:href="#stroke0_260_332" transform="translate(42.5606 29.9808) scale(0.114286) rotate(67.0065)"/>
<use xlink:href="#stroke0_260_332" transform="translate(42.3391 31.4679) scale(0.114286) rotate(-6.11342)"/>
<use xlink:href="#stroke0_260_332" transform="translate(43.5927 31.9652) scale(0.114286) rotate(-76.598)"/>
<use xlink:href="#stroke0_260_332" transform="translate(44.035 30.1614) scale(0.114286) rotate(-91.6485)"/>
<use xlink:href="#stroke0_260_332" transform="translate(44.3617 28.4819) scale(0.114286) rotate(-121.265)"/>
<use xlink:href="#stroke0_260_332" transform="translate(44.6289 27.288) scale(0.114286) rotate(-180)"/>
<use xlink:href="#stroke0_260_332" transform="translate(57.4404 26.184) scale(0.114286) rotate(90)"/>
<use xlink:href="#stroke0_260_332" transform="translate(56.3058 27.5557) scale(0.114286) rotate(-0.179296)"/>
<use xlink:href="#stroke0_260_332" transform="translate(58.1794 27.5907) scale(0.114286) rotate(-14.5456)"/>
<use xlink:href="#stroke0_260_332" transform="translate(59.3844 28.1976) scale(0.114286) rotate(-90)"/>
<use xlink:href="#stroke0_260_332" transform="translate(59.3844 26.0376) scale(0.114286) rotate(-90)"/>
<use xlink:href="#stroke0_260_332" transform="translate(59.4349 21.528) scale(0.114286)"/>
<use xlink:href="#stroke0_260_332" transform="translate(61.5949 21.528) scale(0.114286)"/>
<use xlink:href="#stroke0_260_332" transform="translate(63.7549 21.528) scale(0.114286)"/>
<use xlink:href="#stroke0_260_332" transform="translate(66.3684 23.4744) scale(0.114286) rotate(90)"/>
<use xlink:href="#stroke0_260_332" transform="translate(66.3684 25.6344) scale(0.114286) rotate(90)"/>
<use xlink:href="#stroke0_260_332" transform="translate(66.3684 27.7944) scale(0.114286) rotate(90)"/>
<use xlink:href="#stroke0_260_332" transform="translate(66.3684 29.9544) scale(0.114286) rotate(90)"/>
<use xlink:href="#stroke0_260_332" transform="translate(66.3684 32.1144) scale(0.114286) rotate(90)"/>
<use xlink:href="#stroke0_260_332" transform="translate(66.3684 34.2744) scale(0.114286) rotate(90)"/>
<use xlink:href="#stroke0_260_332" transform="translate(64.734 37.2) scale(0.114286) rotate(-180)"/>
<use xlink:href="#stroke0_260_332" transform="translate(62.574 37.2) scale(0.114286) rotate(-180)"/>
<use xlink:href="#stroke0_260_332" transform="translate(59.3844 35.8296) scale(0.114286) rotate(-90)"/>
<use xlink:href="#stroke0_260_332" transform="translate(59.3844 33.6696) scale(0.114286) rotate(-90)"/>
<use xlink:href="#stroke0_260_332" transform="translate(61.3149 32.2197) scale(0.114286) rotate(160.227)"/>
<use xlink:href="#stroke0_260_332" transform="translate(59.0634 33.0769) scale(0.114286) rotate(171.549)"/>
<use xlink:href="#stroke0_260_332" transform="translate(56.6292 33.4289) scale(0.114286) rotate(-174.685)"/>
<use xlink:href="#stroke0_260_332" transform="translate(53.9469 33.1751) scale(0.114286) rotate(-150.946)"/>
<use xlink:href="#stroke0_260_332" transform="translate(51.4382 31.5425) scale(0.114286) rotate(-113.274)"/>
<use xlink:href="#stroke0_260_332" transform="translate(50.4909 29.0887) scale(0.114286) rotate(-91.4836)"/>
<use xlink:href="#stroke0_260_332" transform="translate(50.4564 26.8977) scale(0.114286) rotate(-90)"/>
<use xlink:href="#stroke0_260_332" transform="translate(50.4564 24.7377) scale(0.114286) rotate(-90)"/>
<use xlink:href="#stroke0_260_332" transform="translate(51.8067 21.528) scale(0.114286)"/>
<use xlink:href="#stroke0_260_332" transform="translate(53.9667 21.528) scale(0.114286)"/>
<use xlink:href="#stroke0_260_332" transform="translate(57.4404 22.6143) scale(0.114286) rotate(90)"/>
<use xlink:href="#stroke0_260_332" transform="translate(57.4404 24.7743) scale(0.114286) rotate(90)"/>
<use xlink:href="#stroke0_260_332" transform="translate(57.4404 26.184) scale(0.114286) rotate(90)"/>
</g>
<defs>
<clipPath id="clip0_260_332">
<rect width="68" height="52" fill="white"/>
</clipPath>
<g id="stroke0_260_332" data-figma-scatter-ref="stroke0_260_332_ref" data-figma-scatter="f0.9_w0_aj0_sj0_r0_s14870582052140013607_sw2.4">
<path d="M10.5 0C16.299 0 21 4.70101 21 10.5C21 16.299 16.299 21 10.5 21C4.70101 21 0 16.299 0 10.5C0 4.70101 4.70101 0 10.5 0Z" fill="#DDECFF"/>
</g>
<path id="stroke0_260_332_ref" d="M19.032 22.728V36H14.952V29.568C14.952 28.928 14.96 28.304 14.976 27.696C15.008 27.088 15.048 26.528 15.096 26.016H15.024L11.88 36H8.76L5.616 25.992H5.544C5.592 26.52 5.624 27.088 5.64 27.696C5.672 28.288 5.688 28.944 5.688 29.664V36H1.608V22.728H7.848L10.344 30.768L12.888 22.728H19.032ZM28.185 22.488C29.481 22.488 30.593 22.712 31.521 23.16C32.465 23.608 33.185 24.28 33.681 25.176C34.193 26.072 34.449 27.2 34.449 28.56V30.6H26.265C26.297 31.288 26.553 31.856 27.033 32.304C27.529 32.752 28.241 32.976 29.169 32.976C30.001 32.976 30.761 32.896 31.449 32.736C32.137 32.576 32.849 32.32 33.585 31.968V35.256C32.945 35.592 32.241 35.84 31.473 36C30.721 36.16 29.769 36.24 28.617 36.24C27.273 36.24 26.073 36.008 25.017 35.544C23.977 35.064 23.153 34.32 22.545 33.312C21.937 32.304 21.633 31.016 21.633 29.448C21.633 27.848 21.905 26.536 22.449 25.512C23.009 24.488 23.777 23.728 24.753 23.232C25.745 22.736 26.889 22.488 28.185 22.488ZM28.353 25.608C27.809 25.608 27.353 25.776 26.985 26.112C26.633 26.448 26.425 26.984 26.361 27.72H30.297C30.297 27.32 30.217 26.968 30.057 26.664C29.913 26.344 29.697 26.088 29.409 25.896C29.121 25.704 28.769 25.608 28.353 25.608ZM45.1569 22.488C46.6289 22.488 47.7809 23.08 48.6129 24.264C49.4449 25.432 49.8609 27.12 49.8609 29.328C49.8609 30.832 49.6449 32.104 49.2129 33.144C48.7969 34.168 48.2209 34.944 47.4849 35.472C46.7649 35.984 45.9409 36.24 45.0129 36.24C44.3889 36.24 43.8609 36.16 43.4289 36C42.9969 35.84 42.6369 35.648 42.3489 35.424C42.0609 35.184 41.8209 34.944 41.6289 34.704H41.4849C41.5169 35.008 41.5489 35.336 41.5809 35.688C41.6129 36.04 41.6289 36.448 41.6289 36.912V41.76H37.0449V22.728H40.7649L41.4129 24.408H41.6289C41.8529 24.056 42.1169 23.736 42.4209 23.448C42.7409 23.16 43.1249 22.928 43.5729 22.752C44.0209 22.576 44.5489 22.488 45.1569 22.488ZM43.4289 26.088C42.9809 26.088 42.6289 26.2 42.3729 26.424C42.1169 26.632 41.9329 26.944 41.8209 27.36C41.7089 27.776 41.6449 28.304 41.6289 28.944V29.304C41.6289 30.008 41.6769 30.6 41.7729 31.08C41.8849 31.56 42.0769 31.928 42.3489 32.184C42.6209 32.424 42.9889 32.544 43.4529 32.544C43.8369 32.544 44.1569 32.44 44.4129 32.232C44.6849 32.008 44.8849 31.656 45.0129 31.176C45.1409 30.696 45.2049 30.064 45.2049 29.28C45.2049 28.112 45.0529 27.288 44.7489 26.808C44.4449 26.328 44.0049 26.088 43.4289 26.088ZM56.2404 27.384C56.2404 27.832 56.3364 28.176 56.5284 28.416C56.7364 28.64 57.0564 28.752 57.4884 28.752C57.9524 28.752 58.4484 28.704 58.9764 28.608C59.5044 28.496 60.0404 28.352 60.5844 28.176V22.728H65.1684V36H60.5844V31.176C60.1204 31.384 59.5204 31.6 58.7844 31.824C58.0484 32.048 57.2484 32.16 56.3844 32.16C54.7844 32.16 53.5924 31.792 52.8084 31.056C52.0404 30.32 51.6564 29.176 51.6564 27.624V22.728H56.2404V27.384Z"/>
</defs>
</svg>
