<svg width="92" height="52" viewBox="0 0 92 52" fill="none" xmlns="http://www.w3.org/2000/svg" xmlns:xlink="http://www.w3.org/1999/xlink">
<g clip-path="url(#clip0_260_333)">
<path d="M7.632 36.24C6.288 36.24 5.12 36 4.128 35.52C3.136 35.04 2.368 34.296 1.824 33.288C1.28 32.28 1.008 30.992 1.008 29.424C1.008 27.808 1.312 26.496 1.92 25.488C2.528 24.464 3.352 23.712 4.392 23.232C5.448 22.736 6.648 22.488 7.992 22.488C8.808 22.488 9.576 22.576 10.296 22.752C11.032 22.928 11.712 23.176 12.336 23.496L10.992 26.88C10.448 26.64 9.936 26.448 9.456 26.304C8.992 26.16 8.504 26.088 7.992 26.088C7.528 26.088 7.12 26.208 6.768 26.448C6.416 26.688 6.144 27.056 5.952 27.552C5.76 28.032 5.664 28.648 5.664 29.4C5.664 30.168 5.76 30.784 5.952 31.248C6.16 31.712 6.44 32.056 6.792 32.28C7.144 32.488 7.552 32.592 8.016 32.592C8.672 32.592 9.328 32.488 9.984 32.28C10.656 32.072 11.288 31.784 11.88 31.416V35.064C11.336 35.416 10.72 35.704 10.032 35.928C9.344 36.136 8.544 36.24 7.632 36.24ZM13.9695 28.056C13.9695 26.152 14.2175 24.512 14.7135 23.136C15.2255 21.744 16.0815 20.624 17.2815 19.776C18.4815 18.928 20.1295 18.36 22.2255 18.072C22.9295 17.976 23.7055 17.88 24.5535 17.784C25.4175 17.688 26.2735 17.608 27.1215 17.544L27.5535 21.336C27.1535 21.368 26.7295 21.408 26.2815 21.456C25.8335 21.488 25.3775 21.528 24.9135 21.576C24.4655 21.624 24.0255 21.672 23.5935 21.72C23.1775 21.768 22.7855 21.816 22.4175 21.864C21.6015 21.96 20.9375 22.112 20.4255 22.32C19.9295 22.512 19.5455 22.76 19.2735 23.064C19.0175 23.368 18.8335 23.728 18.7215 24.144C18.6095 24.544 18.5375 25.008 18.5055 25.536H18.6975C18.8575 25.248 19.0975 24.96 19.4175 24.672C19.7375 24.368 20.1375 24.12 20.6175 23.928C21.0975 23.72 21.6575 23.616 22.2975 23.616C23.2895 23.616 24.1695 23.816 24.9375 24.216C25.7215 24.6 26.3375 25.208 26.7855 26.04C27.2495 26.872 27.4815 27.968 27.4815 29.328C27.4815 30.848 27.1935 32.128 26.6175 33.168C26.0415 34.192 25.2415 34.96 24.2175 35.472C23.2095 35.984 22.0335 36.24 20.6895 36.24C19.6655 36.24 18.7375 36.064 17.9055 35.712C17.0895 35.344 16.3855 34.816 15.7935 34.128C15.2015 33.424 14.7455 32.568 14.4255 31.56C14.1215 30.536 13.9695 29.368 13.9695 28.056ZM20.9295 32.832C21.3135 32.832 21.6415 32.736 21.9135 32.544C22.2015 32.336 22.4255 32.016 22.5855 31.584C22.7455 31.136 22.8255 30.552 22.8255 29.832C22.8255 28.984 22.6975 28.28 22.4415 27.72C22.2015 27.16 21.7535 26.88 21.0975 26.88C20.7295 26.88 20.3695 26.984 20.0175 27.192C19.6815 27.384 19.3855 27.608 19.1295 27.864C18.8735 28.12 18.7055 28.344 18.6255 28.536C18.6255 29.032 18.6655 29.536 18.7455 30.048C18.8255 30.56 18.9535 31.024 19.1295 31.44C19.3215 31.856 19.5615 32.192 19.8495 32.448C20.1535 32.704 20.5135 32.832 20.9295 32.832ZM42.8498 29.328C42.8498 30.432 42.6978 31.416 42.3938 32.28C42.0898 33.144 41.6498 33.872 41.0738 34.464C40.4978 35.04 39.8018 35.48 38.9858 35.784C38.1698 36.088 37.2418 36.24 36.2018 36.24C35.2418 36.24 34.3538 36.088 33.5378 35.784C32.7378 35.48 32.0418 35.04 31.4498 34.464C30.8738 33.872 30.4178 33.144 30.0818 32.28C29.7618 31.416 29.6018 30.432 29.6018 29.328C29.6018 27.856 29.8658 26.616 30.3938 25.608C30.9378 24.584 31.7058 23.808 32.6978 23.28C33.6898 22.752 34.8818 22.488 36.2738 22.488C37.5538 22.488 38.6818 22.752 39.6578 23.28C40.6498 23.808 41.4258 24.584 41.9858 25.608C42.5618 26.616 42.8498 27.856 42.8498 29.328ZM34.2578 29.328C34.2578 30.08 34.3218 30.72 34.4498 31.248C34.5778 31.776 34.7858 32.176 35.0738 32.448C35.3778 32.704 35.7698 32.832 36.2498 32.832C36.7298 32.832 37.1058 32.704 37.3778 32.448C37.6658 32.176 37.8738 31.776 38.0018 31.248C38.1298 30.72 38.1938 30.08 38.1938 29.328C38.1938 28.576 38.1298 27.944 38.0018 27.432C37.8738 26.92 37.6658 26.536 37.3778 26.28C37.0898 26.024 36.7058 25.896 36.2258 25.896C35.5378 25.896 35.0338 26.184 34.7138 26.76C34.4098 27.336 34.2578 28.192 34.2578 29.328ZM53.571 22.488C55.043 22.488 56.195 23.08 57.027 24.264C57.859 25.432 58.275 27.12 58.275 29.328C58.275 30.832 58.059 32.104 57.627 33.144C57.211 34.168 56.635 34.944 55.899 35.472C55.179 35.984 54.355 36.24 53.427 36.24C52.803 36.24 52.275 36.16 51.843 36C51.411 35.84 51.051 35.648 50.763 35.424C50.475 35.184 50.235 34.944 50.043 34.704H49.899C49.931 35.008 49.963 35.336 49.995 35.688C50.027 36.04 50.043 36.448 50.043 36.912V41.76H45.459V22.728H49.179L49.827 24.408H50.043C50.267 24.056 50.531 23.736 50.835 23.448C51.155 23.16 51.539 22.928 51.987 22.752C52.435 22.576 52.963 22.488 53.571 22.488ZM51.843 26.088C51.395 26.088 51.043 26.2 50.787 26.424C50.531 26.632 50.347 26.944 50.235 27.36C50.123 27.776 50.059 28.304 50.043 28.944V29.304C50.043 30.008 50.091 30.6 50.187 31.08C50.299 31.56 50.491 31.928 50.763 32.184C51.035 32.424 51.403 32.544 51.867 32.544C52.251 32.544 52.571 32.44 52.827 32.232C53.099 32.008 53.299 31.656 53.427 31.176C53.555 30.696 53.619 30.064 53.619 29.28C53.619 28.112 53.467 27.288 53.163 26.808C52.859 26.328 52.419 26.088 51.843 26.088ZM70.1689 22.728H75.2329L70.2649 29.088L75.6169 36H70.3849L65.4649 29.256V36H60.8809V22.728H65.4649V29.16L70.1689 22.728ZM83.5796 22.488C85.2596 22.488 86.5716 22.904 87.5156 23.736C88.4596 24.568 88.9316 25.752 88.9316 27.288V36H85.7636L84.8756 34.248H84.7796C84.4116 34.712 84.0276 35.096 83.6276 35.4C83.2436 35.688 82.7956 35.896 82.2836 36.024C81.7716 36.168 81.1476 36.24 80.4116 36.24C79.6436 36.24 78.9556 36.088 78.3476 35.784C77.7396 35.464 77.2596 34.992 76.9076 34.368C76.5556 33.728 76.3796 32.92 76.3796 31.944C76.3796 30.52 76.8676 29.464 77.8436 28.776C78.8356 28.088 80.2676 27.704 82.1396 27.624L84.3476 27.552V27.36C84.3476 26.768 84.2036 26.352 83.9156 26.112C83.6276 25.856 83.2356 25.728 82.7396 25.728C82.2116 25.728 81.6276 25.824 80.9876 26.016C80.3476 26.192 79.6996 26.424 79.0436 26.712L77.7236 23.688C78.4916 23.288 79.3556 22.992 80.3156 22.8C81.2916 22.592 82.3796 22.488 83.5796 22.488ZM83.3156 30.12C82.4836 30.152 81.8916 30.304 81.5396 30.576C81.2036 30.832 81.0356 31.2 81.0356 31.68C81.0356 32.128 81.1556 32.464 81.3956 32.688C81.6356 32.896 81.9556 33 82.3556 33C82.9156 33 83.3876 32.824 83.7716 32.472C84.1716 32.12 84.3716 31.664 84.3716 31.104V30.072L83.3156 30.12Z" fill="#2D2D32"/>
<use xlink:href="#stroke0_260_333" transform="translate(8.832 37.44) scale(0.114286) rotate(-180)"/>
<use xlink:href="#stroke0_260_333" transform="translate(6.37487 37.4506) scale(0.114286) rotate(-166.424)"/>
<use xlink:href="#stroke0_260_333" transform="translate(3.8435 36.8314) scale(0.114286) rotate(-146.341)"/>
<use xlink:href="#stroke0_260_333" transform="translate(1.64349 35.2801) scale(0.114286) rotate(-122.158)"/>
<use xlink:href="#stroke0_260_333" transform="translate(0.310992 33.0586) scale(0.114286) rotate(-102.389)"/>
<use xlink:href="#stroke0_260_333" transform="translate(-0.186498 30.6895) scale(0.114286) rotate(-90.2558)"/>
<use xlink:href="#stroke0_260_333" transform="translate(-0.214948 28.2571) scale(0.114286) rotate(-77.8055)"/>
<use xlink:href="#stroke0_260_333" transform="translate(0.353894 25.7184) scale(0.114286) rotate(-57.7897)"/>
<use xlink:href="#stroke0_260_333" transform="translate(1.79393 23.4992) scale(0.114286) rotate(-35.8315)"/>
<use xlink:href="#stroke0_260_333" transform="translate(3.91604 22.0388) scale(0.114286) rotate(-16.6811)"/>
<use xlink:href="#stroke0_260_333" transform="translate(6.28565 21.3507) scale(0.114286) rotate(-2.4781)"/>
<use xlink:href="#stroke0_260_333" transform="translate(8.70772 21.2416) scale(0.114286) rotate(9.68581)"/>
<use xlink:href="#stroke0_260_333" transform="translate(11.1182 21.6557) scale(0.114286) rotate(22.8237)"/>
<use xlink:href="#stroke0_260_333" transform="translate(13.332 24.2392) scale(0.114286) rotate(111.661)"/>
<use xlink:href="#stroke0_260_333" transform="translate(11.571 28.4438) scale(0.114286) rotate(-156.336)"/>
<use xlink:href="#stroke0_260_333" transform="translate(9.87493 27.5677) scale(0.114286) rotate(-169.567)"/>
<use xlink:href="#stroke0_260_333" transform="translate(8.47619 26.7788) scale(0.114286) rotate(147.396)"/>
<use xlink:href="#stroke0_260_333" transform="translate(7.16115 27.2707) scale(0.114286) rotate(100.607)"/>
<use xlink:href="#stroke0_260_333" transform="translate(6.74401 29.022) scale(0.114286) rotate(81.7996)"/>
<use xlink:href="#stroke0_260_333" transform="translate(6.429 30.5589) scale(0.114286) rotate(35.1643)"/>
<use xlink:href="#stroke0_260_333" transform="translate(7.46515 31.503) scale(0.114286) rotate(-7.26513)"/>
<use xlink:href="#stroke0_260_333" transform="translate(9.29355 31.3337) scale(0.114286) rotate(-23.8327)"/>
<use xlink:href="#stroke0_260_333" transform="translate(13.08 31.2396) scale(0.114286) rotate(90)"/>
<use xlink:href="#stroke0_260_333" transform="translate(13.08 33.3996) scale(0.114286) rotate(90)"/>
<use xlink:href="#stroke0_260_333" transform="translate(11.9037 36.5244) scale(0.114286) rotate(159.771)"/>
<use xlink:href="#stroke0_260_333" transform="translate(9.51628 37.3537) scale(0.114286) rotate(176.777)"/>
<use xlink:href="#stroke0_260_333" transform="translate(12.7695 29.256) scale(0.114286) rotate(-90)"/>
<use xlink:href="#stroke0_260_333" transform="translate(12.7569 26.9527) scale(0.114286) rotate(-83.3243)"/>
<use xlink:href="#stroke0_260_333" transform="translate(13.0183 24.6034) scale(0.114286) rotate(-73.898)"/>
<use xlink:href="#stroke0_260_333" transform="translate(13.7055 22.1956) scale(0.114286) rotate(-58.2483)"/>
<use xlink:href="#stroke0_260_333" transform="translate(15.0711 20.0391) scale(0.114286) rotate(-40.3071)"/>
<use xlink:href="#stroke0_260_333" transform="translate(17.004 18.4342) scale(0.114286) rotate(-24.095)"/>
<use xlink:href="#stroke0_260_333" transform="translate(19.1938 17.4715) scale(0.114286) rotate(-13.2794)"/>
<use xlink:href="#stroke0_260_333" transform="translate(21.4213 16.9645) scale(0.114286) rotate(-7.3925)"/>
<use xlink:href="#stroke0_260_333" transform="translate(23.5905 16.6787) scale(0.114286) rotate(-6.06625)"/>
<use xlink:href="#stroke0_260_333" transform="translate(25.7737 16.4434) scale(0.114286) rotate(-4.36476)"/>
<use xlink:href="#stroke0_260_333" transform="translate(28.4156 18.3022) scale(0.114286) rotate(83.5007)"/>
<use xlink:href="#stroke0_260_333" transform="translate(28.4151 22.4607) scale(0.114286) rotate(174.829)"/>
<use xlink:href="#stroke0_260_333" transform="translate(26.2769 22.6426) scale(0.114286) rotate(174.154)"/>
<use xlink:href="#stroke0_260_333" transform="translate(24.1538 22.8556) scale(0.114286) rotate(172.891)"/>
<use xlink:href="#stroke0_260_333" transform="translate(22.2167 22.9752) scale(0.114286) rotate(161.437)"/>
<use xlink:href="#stroke0_260_333" transform="translate(20.6317 23.0081) scale(0.114286) rotate(119.453)"/>
<use xlink:href="#stroke0_260_333" transform="translate(17.3177 24.336) scale(0.114286)"/>
<use xlink:href="#stroke0_260_333" transform="translate(18.4695 23.712) scale(0.114286) rotate(-29.263)"/>
<use xlink:href="#stroke0_260_333" transform="translate(20.9398 22.445) scale(0.114286) rotate(-1.30109)"/>
<use xlink:href="#stroke0_260_333" transform="translate(23.5589 22.4052) scale(0.114286) rotate(19.4227)"/>
<use xlink:href="#stroke0_260_333" transform="translate(26.1576 23.3806) scale(0.114286) rotate(46.9084)"/>
<use xlink:href="#stroke0_260_333" transform="translate(27.9532 25.4334) scale(0.114286) rotate(72.6826)"/>
<use xlink:href="#stroke0_260_333" transform="translate(28.651 27.8394) scale(0.114286) rotate(88.6978)"/>
<use xlink:href="#stroke0_260_333" transform="translate(28.7189 30.2695) scale(0.114286) rotate(101.109)"/>
<use xlink:href="#stroke0_260_333" transform="translate(28.2176 32.8004) scale(0.114286) rotate(120.073)"/>
<use xlink:href="#stroke0_260_333" transform="translate(26.8633 35.0686) scale(0.114286) rotate(141.873)"/>
<use xlink:href="#stroke0_260_333" transform="translate(24.7857 36.6315) scale(0.114286) rotate(162.01)"/>
<use xlink:href="#stroke0_260_333" transform="translate(22.4056 37.3736) scale(0.114286) rotate(177.384)"/>
<use xlink:href="#stroke0_260_333" transform="translate(19.914 37.4954) scale(0.114286) rotate(-167.392)"/>
<use xlink:href="#stroke0_260_333" transform="translate(17.3582 36.8904) scale(0.114286) rotate(-146.229)"/>
<use xlink:href="#stroke0_260_333" transform="translate(15.2071 35.4047) scale(0.114286) rotate(-125.566)"/>
<use xlink:href="#stroke0_260_333" transform="translate(13.772 33.3403) scale(0.114286) rotate(-109.244)"/>
<use xlink:href="#stroke0_260_333" transform="translate(12.9999 31.0309) scale(0.114286) rotate(-96.4376)"/>
<use xlink:href="#stroke0_260_333" transform="translate(12.7695 29.256) scale(0.114286) rotate(-90)"/>
<use xlink:href="#stroke0_260_333" transform="translate(19.7295 31.632) scale(0.114286)"/>
<use xlink:href="#stroke0_260_333" transform="translate(21.0021 32.3238) scale(0.114286) rotate(-68.3705)"/>
<use xlink:href="#stroke0_260_333" transform="translate(21.6678 30.7664) scale(0.114286) rotate(-92.2626)"/>
<use xlink:href="#stroke0_260_333" transform="translate(21.9779 29.1158) scale(0.114286) rotate(-124.256)"/>
<use xlink:href="#stroke0_260_333" transform="translate(21.904 27.6921) scale(0.114286) rotate(157.925)"/>
<use xlink:href="#stroke0_260_333" transform="translate(20.3431 27.9684) scale(0.114286) rotate(120.601)"/>
<use xlink:href="#stroke0_260_333" transform="translate(19.7375 29.0803) scale(0.114286) rotate(77.1095)"/>
<use xlink:href="#stroke0_260_333" transform="translate(19.7472 30.7138) scale(0.114286) rotate(42.9649)"/>
<use xlink:href="#stroke0_260_333" transform="translate(19.7295 31.632) scale(0.114286)"/>
<use xlink:href="#stroke0_260_333" transform="translate(44.0498 28.128) scale(0.114286) rotate(90)"/>
<use xlink:href="#stroke0_260_333" transform="translate(44.0623 30.5682) scale(0.114286) rotate(102.823)"/>
<use xlink:href="#stroke0_260_333" transform="translate(43.4841 33.066) scale(0.114286) rotate(121.133)"/>
<use xlink:href="#stroke0_260_333" transform="translate(42.0568 35.3281) scale(0.114286) rotate(144.463)"/>
<use xlink:href="#stroke0_260_333" transform="translate(39.9121 36.7998) scale(0.114286) rotate(164.623)"/>
<use xlink:href="#stroke0_260_333" transform="translate(37.5122 37.4282) scale(0.114286) rotate(179.462)"/>
<use xlink:href="#stroke0_260_333" transform="translate(35.0119 37.4529) scale(0.114286) rotate(-165.016)"/>
<use xlink:href="#stroke0_260_333" transform="translate(32.5122 36.7587) scale(0.114286) rotate(-145.303)"/>
<use xlink:href="#stroke0_260_333" transform="translate(30.3623 35.2031) scale(0.114286) rotate(-122.816)"/>
<use xlink:href="#stroke0_260_333" transform="translate(28.9949 33.0312) scale(0.114286) rotate(-104.265)"/>
<use xlink:href="#stroke0_260_333" transform="translate(28.4135 30.6445) scale(0.114286) rotate(-90.5339)"/>
<use xlink:href="#stroke0_260_333" transform="translate(28.3768 28.2093) scale(0.114286) rotate(-77.9276)"/>
<use xlink:href="#stroke0_260_333" transform="translate(28.9294 25.6813) scale(0.114286) rotate(-58.5767)"/>
<use xlink:href="#stroke0_260_333" transform="translate(30.3505 23.4374) scale(0.114286) rotate(-36.1213)"/>
<use xlink:href="#stroke0_260_333" transform="translate(32.4905 21.9424) scale(0.114286) rotate(-15.5163)"/>
<use xlink:href="#stroke0_260_333" transform="translate(34.8837 21.3085) scale(0.114286) rotate(-0.907113)"/>
<use xlink:href="#stroke0_260_333" transform="translate(37.3838 21.2628) scale(0.114286) rotate(14.5835)"/>
<use xlink:href="#stroke0_260_333" transform="translate(39.8902 21.9415) scale(0.114286) rotate(34.3988)"/>
<use xlink:href="#stroke0_260_333" transform="translate(42.0409 23.4791) scale(0.114286) rotate(56.4162)"/>
<use xlink:href="#stroke0_260_333" transform="translate(43.4443 25.6389) scale(0.114286) rotate(75.3525)"/>
<use xlink:href="#stroke0_260_333" transform="translate(44.0401 28.0324) scale(0.114286) rotate(89.5576)"/>
<use xlink:href="#stroke0_260_333" transform="translate(35.4577 28.128) scale(0.114286) rotate(90)"/>
<use xlink:href="#stroke0_260_333" transform="translate(35.3046 29.9668) scale(0.114286) rotate(72.9417)"/>
<use xlink:href="#stroke0_260_333" transform="translate(34.9289 31.5043) scale(0.114286) rotate(5.81667)"/>
<use xlink:href="#stroke0_260_333" transform="translate(36.1719 32.4417) scale(0.114286) rotate(-63.9649)"/>
<use xlink:href="#stroke0_260_333" transform="translate(36.9409 30.9374) scale(0.114286) rotate(-87.8337)"/>
<use xlink:href="#stroke0_260_333" transform="translate(37.1142 29.0502) scale(0.114286) rotate(-101.64)"/>
<use xlink:href="#stroke0_260_333" transform="translate(37.6314 27.4791) scale(0.114286) rotate(-162.949)"/>
<use xlink:href="#stroke0_260_333" transform="translate(36.5591 26.2991) scale(0.114286) rotate(127.752)"/>
<use xlink:href="#stroke0_260_333" transform="translate(35.5675 27.4512) scale(0.114286) rotate(94.1481)"/>
<use xlink:href="#stroke0_260_333" transform="translate(52.371 21.288) scale(0.114286)"/>
<use xlink:href="#stroke0_260_333" transform="translate(55.1824 21.3581) scale(0.114286) rotate(29.0868)"/>
<use xlink:href="#stroke0_260_333" transform="translate(57.5465 22.8289) scale(0.114286) rotate(57.6267)"/>
<use xlink:href="#stroke0_260_333" transform="translate(58.871 25.0337) scale(0.114286) rotate(76.648)"/>
<use xlink:href="#stroke0_260_333" transform="translate(59.4062 27.3656) scale(0.114286) rotate(87.4922)"/>
<use xlink:href="#stroke0_260_333" transform="translate(59.5233 29.711) scale(0.114286) rotate(96.1914)"/>
<use xlink:href="#stroke0_260_333" transform="translate(59.271 32.1642) scale(0.114286) rotate(110.145)"/>
<use xlink:href="#stroke0_260_333" transform="translate(58.3704 34.6157) scale(0.114286) rotate(130.427)"/>
<use xlink:href="#stroke0_260_333" transform="translate(56.4737 36.696) scale(0.114286) rotate(159.851)"/>
<use xlink:href="#stroke0_260_333" transform="translate(53.8777 37.5249) scale(0.114286) rotate(-174.228)"/>
<use xlink:href="#stroke0_260_333" transform="translate(51.0497 37.1373) scale(0.114286) rotate(-143.215)"/>
<use xlink:href="#stroke0_260_333" transform="translate(51.0763 34.3357) scale(0.114286) rotate(84.7732)"/>
<use xlink:href="#stroke0_260_333" transform="translate(51.243 36.5984) scale(0.114286) rotate(90)"/>
<use xlink:href="#stroke0_260_333" transform="translate(51.243 38.7585) scale(0.114286) rotate(90)"/>
<use xlink:href="#stroke0_260_333" transform="translate(50.8845 42.96) scale(0.114286) rotate(-180)"/>
<use xlink:href="#stroke0_260_333" transform="translate(48.7245 42.96) scale(0.114286) rotate(-180)"/>
<use xlink:href="#stroke0_260_333" transform="translate(44.259 42.8656) scale(0.114286) rotate(-90)"/>
<use xlink:href="#stroke0_260_333" transform="translate(44.259 40.7056) scale(0.114286) rotate(-90)"/>
<use xlink:href="#stroke0_260_333" transform="translate(44.259 38.5455) scale(0.114286) rotate(-90)"/>
<use xlink:href="#stroke0_260_333" transform="translate(44.259 36.3855) scale(0.114286) rotate(-90)"/>
<use xlink:href="#stroke0_260_333" transform="translate(44.259 34.2255) scale(0.114286) rotate(-90)"/>
<use xlink:href="#stroke0_260_333" transform="translate(44.259 32.0655) scale(0.114286) rotate(-90)"/>
<use xlink:href="#stroke0_260_333" transform="translate(44.259 29.9056) scale(0.114286) rotate(-90)"/>
<use xlink:href="#stroke0_260_333" transform="translate(44.259 27.7456) scale(0.114286) rotate(-90)"/>
<use xlink:href="#stroke0_260_333" transform="translate(44.259 25.5856) scale(0.114286) rotate(-90)"/>
<use xlink:href="#stroke0_260_333" transform="translate(44.7614 21.528) scale(0.114286)"/>
<use xlink:href="#stroke0_260_333" transform="translate(46.9214 21.528) scale(0.114286)"/>
<use xlink:href="#stroke0_260_333" transform="translate(50.2635 22.2051) scale(0.114286) rotate(68.9077)"/>
<use xlink:href="#stroke0_260_333" transform="translate(49.1372 23.4041) scale(0.114286) rotate(-43.4726)"/>
<use xlink:href="#stroke0_260_333" transform="translate(51.393 21.5461) scale(0.114286) rotate(-8.86604)"/>
<use xlink:href="#stroke0_260_333" transform="translate(53.043 27.288) scale(0.114286) rotate(-180)"/>
<use xlink:href="#stroke0_260_333" transform="translate(51.75 26.4798) scale(0.114286) rotate(106.668)"/>
<use xlink:href="#stroke0_260_333" transform="translate(51.2336 28.2173) scale(0.114286) rotate(89.5315)"/>
<use xlink:href="#stroke0_260_333" transform="translate(50.9747 29.9808) scale(0.114286) rotate(67.0065)"/>
<use xlink:href="#stroke0_260_333" transform="translate(50.7531 31.4679) scale(0.114286) rotate(-6.11342)"/>
<use xlink:href="#stroke0_260_333" transform="translate(52.0068 31.9652) scale(0.114286) rotate(-76.598)"/>
<use xlink:href="#stroke0_260_333" transform="translate(52.4491 30.1614) scale(0.114286) rotate(-91.6485)"/>
<use xlink:href="#stroke0_260_333" transform="translate(52.7758 28.4819) scale(0.114286) rotate(-121.265)"/>
<use xlink:href="#stroke0_260_333" transform="translate(53.043 27.288) scale(0.114286) rotate(-180)"/>
<use xlink:href="#stroke0_260_333" transform="translate(68.9689 21.528) scale(0.114286)"/>
<use xlink:href="#stroke0_260_333" transform="translate(71.1289 21.528) scale(0.114286)"/>
<use xlink:href="#stroke0_260_333" transform="translate(73.2889 21.528) scale(0.114286)"/>
<use xlink:href="#stroke0_260_333" transform="translate(76.0456 23.6369) scale(0.114286) rotate(127.995)"/>
<use xlink:href="#stroke0_260_333" transform="translate(74.7159 25.3392) scale(0.114286) rotate(127.995)"/>
<use xlink:href="#stroke0_260_333" transform="translate(73.3863 27.0414) scale(0.114286) rotate(127.995)"/>
<use xlink:href="#stroke0_260_333" transform="translate(72.0566 28.7436) scale(0.114286) rotate(127.995)"/>
<use xlink:href="#stroke0_260_333" transform="translate(71.6947 28.9745) scale(0.114286) rotate(52.2492)"/>
<use xlink:href="#stroke0_260_333" transform="translate(73.0171 30.6824) scale(0.114286) rotate(52.2492)"/>
<use xlink:href="#stroke0_260_333" transform="translate(74.3395 32.3903) scale(0.114286) rotate(52.2492)"/>
<use xlink:href="#stroke0_260_333" transform="translate(75.6619 34.0981) scale(0.114286) rotate(52.2492)"/>
<use xlink:href="#stroke0_260_333" transform="translate(74.9331 37.2) scale(0.114286) rotate(-180)"/>
<use xlink:href="#stroke0_260_333" transform="translate(72.7731 37.2) scale(0.114286) rotate(-180)"/>
<use xlink:href="#stroke0_260_333" transform="translate(69.5499 36.8916) scale(0.114286) rotate(-126.112)"/>
<use xlink:href="#stroke0_260_333" transform="translate(68.2769 35.1466) scale(0.114286) rotate(-126.112)"/>
<use xlink:href="#stroke0_260_333" transform="translate(67.0039 33.4016) scale(0.114286) rotate(-126.112)"/>
<use xlink:href="#stroke0_260_333" transform="translate(65.7308 31.6566) scale(0.114286) rotate(-126.112)"/>
<use xlink:href="#stroke0_260_333" transform="translate(66.6649 29.3199) scale(0.114286) rotate(90)"/>
<use xlink:href="#stroke0_260_333" transform="translate(66.6649 31.4799) scale(0.114286) rotate(90)"/>
<use xlink:href="#stroke0_260_333" transform="translate(66.6649 33.6399) scale(0.114286) rotate(90)"/>
<use xlink:href="#stroke0_260_333" transform="translate(65.665 37.2) scale(0.114286) rotate(-180)"/>
<use xlink:href="#stroke0_260_333" transform="translate(63.505 37.2) scale(0.114286) rotate(-180)"/>
<use xlink:href="#stroke0_260_333" transform="translate(59.6809 36.4641) scale(0.114286) rotate(-90)"/>
<use xlink:href="#stroke0_260_333" transform="translate(59.6809 34.3041) scale(0.114286) rotate(-90)"/>
<use xlink:href="#stroke0_260_333" transform="translate(59.6809 32.1441) scale(0.114286) rotate(-90)"/>
<use xlink:href="#stroke0_260_333" transform="translate(59.6809 29.9841) scale(0.114286) rotate(-90)"/>
<use xlink:href="#stroke0_260_333" transform="translate(59.6809 27.8241) scale(0.114286) rotate(-90)"/>
<use xlink:href="#stroke0_260_333" transform="translate(59.6809 25.6641) scale(0.114286) rotate(-90)"/>
<use xlink:href="#stroke0_260_333" transform="translate(60.1048 21.528) scale(0.114286)"/>
<use xlink:href="#stroke0_260_333" transform="translate(62.2648 21.528) scale(0.114286)"/>
<use xlink:href="#stroke0_260_333" transform="translate(66.6649 21.6879) scale(0.114286) rotate(90)"/>
<use xlink:href="#stroke0_260_333" transform="translate(66.6649 23.8479) scale(0.114286) rotate(90)"/>
<use xlink:href="#stroke0_260_333" transform="translate(66.6649 26.0079) scale(0.114286) rotate(90)"/>
<use xlink:href="#stroke0_260_333" transform="translate(63.9106 29.2524) scale(0.114286) rotate(-53.8204)"/>
<use xlink:href="#stroke0_260_333" transform="translate(65.1857 27.5089) scale(0.114286) rotate(-53.8204)"/>
<use xlink:href="#stroke0_260_333" transform="translate(66.4608 25.7655) scale(0.114286) rotate(-53.8204)"/>
<use xlink:href="#stroke0_260_333" transform="translate(67.7359 24.022) scale(0.114286) rotate(-53.8204)"/>
<use xlink:href="#stroke0_260_333" transform="translate(68.4919 22.9882) scale(0.114286) rotate(-53.8204)"/>
<use xlink:href="#stroke0_260_333" transform="translate(82.3796 21.288) scale(0.114286)"/>
<use xlink:href="#stroke0_260_333" transform="translate(84.9029 21.276) scale(0.114286) rotate(16.4374)"/>
<use xlink:href="#stroke0_260_333" transform="translate(87.522 22.1058) scale(0.114286) rotate(42.7616)"/>
<use xlink:href="#stroke0_260_333" transform="translate(89.5114 24.1247) scale(0.114286) rotate(73.3111)"/>
<use xlink:href="#stroke0_260_333" transform="translate(90.1316 26.5578) scale(0.114286) rotate(90)"/>
<use xlink:href="#stroke0_260_333" transform="translate(90.1316 28.7178) scale(0.114286) rotate(90)"/>
<use xlink:href="#stroke0_260_333" transform="translate(90.1316 30.8778) scale(0.114286) rotate(90)"/>
<use xlink:href="#stroke0_260_333" transform="translate(90.1316 33.0378) scale(0.114286) rotate(90)"/>
<use xlink:href="#stroke0_260_333" transform="translate(89.7338 37.2) scale(0.114286) rotate(-180)"/>
<use xlink:href="#stroke0_260_333" transform="translate(87.5738 37.2) scale(0.114286) rotate(-180)"/>
<use xlink:href="#stroke0_260_333" transform="translate(84.5351 36.2305) scale(0.114286) rotate(-116.878)"/>
<use xlink:href="#stroke0_260_333" transform="translate(85.2935 35.6577) scale(0.114286) rotate(143.405)"/>
<use xlink:href="#stroke0_260_333" transform="translate(82.972 37.18) scale(0.114286) rotate(171.842)"/>
<use xlink:href="#stroke0_260_333" transform="translate(80.4206 37.5558) scale(0.114286) rotate(-169.375)"/>
<use xlink:href="#stroke0_260_333" transform="translate(77.5844 36.909) scale(0.114286) rotate(-136.013)"/>
<use xlink:href="#stroke0_260_333" transform="translate(75.629 34.7879) scale(0.114286) rotate(-103.077)"/>
<use xlink:href="#stroke0_260_333" transform="translate(75.0754 32.2245) scale(0.114286) rotate(-82.1257)"/>
<use xlink:href="#stroke0_260_333" transform="translate(75.5981 29.3329) scale(0.114286) rotate(-47.532)"/>
<use xlink:href="#stroke0_260_333" transform="translate(77.5857 27.4081) scale(0.114286) rotate(-19.4418)"/>
<use xlink:href="#stroke0_260_333" transform="translate(79.9042 26.6246) scale(0.114286) rotate(-6.07065)"/>
<use xlink:href="#stroke0_260_333" transform="translate(82.1429 26.4233) scale(0.114286) rotate(-1.86769)"/>
<use xlink:href="#stroke0_260_333" transform="translate(83.6879 28.0249) scale(0.114286) rotate(-119.393)"/>
<use xlink:href="#stroke0_260_333" transform="translate(83.533 26.8195) scale(0.114286) rotate(173.709)"/>
<use xlink:href="#stroke0_260_333" transform="translate(81.6479 27.024) scale(0.114286) rotate(160.72)"/>
<use xlink:href="#stroke0_260_333" transform="translate(78.0224 27.372) scale(0.114286) rotate(-113.582)"/>
<use xlink:href="#stroke0_260_333" transform="translate(77.1583 25.3924) scale(0.114286) rotate(-113.582)"/>
<use xlink:href="#stroke0_260_333" transform="translate(78.14 22.116) scale(0.114286) rotate(-14.9999)"/>
<use xlink:href="#stroke0_260_333" transform="translate(80.415 21.5098) scale(0.114286) rotate(-5.94549)"/>
<use xlink:href="#stroke0_260_333" transform="translate(82.3796 21.288) scale(0.114286)"/>
<use xlink:href="#stroke0_260_333" transform="translate(84.5609 31.273) scale(0.114286) rotate(177.797)"/>
<use xlink:href="#stroke0_260_333" transform="translate(83.0125 30.6142) scale(0.114286) rotate(129.287)"/>
<use xlink:href="#stroke0_260_333" transform="translate(81.2087 31.0716) scale(0.114286) rotate(36.0986)"/>
<use xlink:href="#stroke0_260_333" transform="translate(81.8545 32.3303) scale(0.114286) rotate(-33.4109)"/>
<use xlink:href="#stroke0_260_333" transform="translate(83.1716 32.0107) scale(0.114286) rotate(-90)"/>
<use xlink:href="#stroke0_260_333" transform="translate(84.5689 31.2643) scale(0.114286) rotate(177.397)"/>
</g>
<defs>
<clipPath id="clip0_260_333">
<rect width="91.2" height="52" fill="white"/>
</clipPath>
<g id="stroke0_260_333" data-figma-scatter-ref="stroke0_260_333_ref" data-figma-scatter="f0.9_w0_aj0_sj0_r0_s14870582052140013607_sw2.4">
<path d="M10.5 0C16.299 0 21 4.70101 21 10.5C21 16.299 16.299 21 10.5 21C4.70101 21 0 16.299 0 10.5C0 4.70101 4.70101 0 10.5 0Z" fill="#FFE45A"/>
</g>
<path id="stroke0_260_333_ref" d="M7.632 36.24C6.288 36.24 5.12 36 4.128 35.52C3.136 35.04 2.368 34.296 1.824 33.288C1.28 32.28 1.008 30.992 1.008 29.424C1.008 27.808 1.312 26.496 1.92 25.488C2.528 24.464 3.352 23.712 4.392 23.232C5.448 22.736 6.648 22.488 7.992 22.488C8.808 22.488 9.576 22.576 10.296 22.752C11.032 22.928 11.712 23.176 12.336 23.496L10.992 26.88C10.448 26.64 9.936 26.448 9.456 26.304C8.992 26.16 8.504 26.088 7.992 26.088C7.528 26.088 7.12 26.208 6.768 26.448C6.416 26.688 6.144 27.056 5.952 27.552C5.76 28.032 5.664 28.648 5.664 29.4C5.664 30.168 5.76 30.784 5.952 31.248C6.16 31.712 6.44 32.056 6.792 32.28C7.144 32.488 7.552 32.592 8.016 32.592C8.672 32.592 9.328 32.488 9.984 32.28C10.656 32.072 11.288 31.784 11.88 31.416V35.064C11.336 35.416 10.72 35.704 10.032 35.928C9.344 36.136 8.544 36.24 7.632 36.24ZM13.9695 28.056C13.9695 26.152 14.2175 24.512 14.7135 23.136C15.2255 21.744 16.0815 20.624 17.2815 19.776C18.4815 18.928 20.1295 18.36 22.2255 18.072C22.9295 17.976 23.7055 17.88 24.5535 17.784C25.4175 17.688 26.2735 17.608 27.1215 17.544L27.5535 21.336C27.1535 21.368 26.7295 21.408 26.2815 21.456C25.8335 21.488 25.3775 21.528 24.9135 21.576C24.4655 21.624 24.0255 21.672 23.5935 21.72C23.1775 21.768 22.7855 21.816 22.4175 21.864C21.6015 21.96 20.9375 22.112 20.4255 22.32C19.9295 22.512 19.5455 22.76 19.2735 23.064C19.0175 23.368 18.8335 23.728 18.7215 24.144C18.6095 24.544 18.5375 25.008 18.5055 25.536H18.6975C18.8575 25.248 19.0975 24.96 19.4175 24.672C19.7375 24.368 20.1375 24.12 20.6175 23.928C21.0975 23.72 21.6575 23.616 22.2975 23.616C23.2895 23.616 24.1695 23.816 24.9375 24.216C25.7215 24.6 26.3375 25.208 26.7855 26.04C27.2495 26.872 27.4815 27.968 27.4815 29.328C27.4815 30.848 27.1935 32.128 26.6175 33.168C26.0415 34.192 25.2415 34.96 24.2175 35.472C23.2095 35.984 22.0335 36.24 20.6895 36.24C19.6655 36.24 18.7375 36.064 17.9055 35.712C17.0895 35.344 16.3855 34.816 15.7935 34.128C15.2015 33.424 14.7455 32.568 14.4255 31.56C14.1215 30.536 13.9695 29.368 13.9695 28.056ZM20.9295 32.832C21.3135 32.832 21.6415 32.736 21.9135 32.544C22.2015 32.336 22.4255 32.016 22.5855 31.584C22.7455 31.136 22.8255 30.552 22.8255 29.832C22.8255 28.984 22.6975 28.28 22.4415 27.72C22.2015 27.16 21.7535 26.88 21.0975 26.88C20.7295 26.88 20.3695 26.984 20.0175 27.192C19.6815 27.384 19.3855 27.608 19.1295 27.864C18.8735 28.12 18.7055 28.344 18.6255 28.536C18.6255 29.032 18.6655 29.536 18.7455 30.048C18.8255 30.56 18.9535 31.024 19.1295 31.44C19.3215 31.856 19.5615 32.192 19.8495 32.448C20.1535 32.704 20.5135 32.832 20.9295 32.832ZM42.8498 29.328C42.8498 30.432 42.6978 31.416 42.3938 32.28C42.0898 33.144 41.6498 33.872 41.0738 34.464C40.4978 35.04 39.8018 35.48 38.9858 35.784C38.1698 36.088 37.2418 36.24 36.2018 36.24C35.2418 36.24 34.3538 36.088 33.5378 35.784C32.7378 35.48 32.0418 35.04 31.4498 34.464C30.8738 33.872 30.4178 33.144 30.0818 32.28C29.7618 31.416 29.6018 30.432 29.6018 29.328C29.6018 27.856 29.8658 26.616 30.3938 25.608C30.9378 24.584 31.7058 23.808 32.6978 23.28C33.6898 22.752 34.8818 22.488 36.2738 22.488C37.5538 22.488 38.6818 22.752 39.6578 23.28C40.6498 23.808 41.4258 24.584 41.9858 25.608C42.5618 26.616 42.8498 27.856 42.8498 29.328ZM34.2578 29.328C34.2578 30.08 34.3218 30.72 34.4498 31.248C34.5778 31.776 34.7858 32.176 35.0738 32.448C35.3778 32.704 35.7698 32.832 36.2498 32.832C36.7298 32.832 37.1058 32.704 37.3778 32.448C37.6658 32.176 37.8738 31.776 38.0018 31.248C38.1298 30.72 38.1938 30.08 38.1938 29.328C38.1938 28.576 38.1298 27.944 38.0018 27.432C37.8738 26.92 37.6658 26.536 37.3778 26.28C37.0898 26.024 36.7058 25.896 36.2258 25.896C35.5378 25.896 35.0338 26.184 34.7138 26.76C34.4098 27.336 34.2578 28.192 34.2578 29.328ZM53.571 22.488C55.043 22.488 56.195 23.08 57.027 24.264C57.859 25.432 58.275 27.12 58.275 29.328C58.275 30.832 58.059 32.104 57.627 33.144C57.211 34.168 56.635 34.944 55.899 35.472C55.179 35.984 54.355 36.24 53.427 36.24C52.803 36.24 52.275 36.16 51.843 36C51.411 35.84 51.051 35.648 50.763 35.424C50.475 35.184 50.235 34.944 50.043 34.704H49.899C49.931 35.008 49.963 35.336 49.995 35.688C50.027 36.04 50.043 36.448 50.043 36.912V41.76H45.459V22.728H49.179L49.827 24.408H50.043C50.267 24.056 50.531 23.736 50.835 23.448C51.155 23.16 51.539 22.928 51.987 22.752C52.435 22.576 52.963 22.488 53.571 22.488ZM51.843 26.088C51.395 26.088 51.043 26.2 50.787 26.424C50.531 26.632 50.347 26.944 50.235 27.36C50.123 27.776 50.059 28.304 50.043 28.944V29.304C50.043 30.008 50.091 30.6 50.187 31.08C50.299 31.56 50.491 31.928 50.763 32.184C51.035 32.424 51.403 32.544 51.867 32.544C52.251 32.544 52.571 32.44 52.827 32.232C53.099 32.008 53.299 31.656 53.427 31.176C53.555 30.696 53.619 30.064 53.619 29.28C53.619 28.112 53.467 27.288 53.163 26.808C52.859 26.328 52.419 26.088 51.843 26.088ZM70.1689 22.728H75.2329L70.2649 29.088L75.6169 36H70.3849L65.4649 29.256V36H60.8809V22.728H65.4649V29.16L70.1689 22.728ZM83.5796 22.488C85.2596 22.488 86.5716 22.904 87.5156 23.736C88.4596 24.568 88.9316 25.752 88.9316 27.288V36H85.7636L84.8756 34.248H84.7796C84.4116 34.712 84.0276 35.096 83.6276 35.4C83.2436 35.688 82.7956 35.896 82.2836 36.024C81.7716 36.168 81.1476 36.24 80.4116 36.24C79.6436 36.24 78.9556 36.088 78.3476 35.784C77.7396 35.464 77.2596 34.992 76.9076 34.368C76.5556 33.728 76.3796 32.92 76.3796 31.944C76.3796 30.52 76.8676 29.464 77.8436 28.776C78.8356 28.088 80.2676 27.704 82.1396 27.624L84.3476 27.552V27.36C84.3476 26.768 84.2036 26.352 83.9156 26.112C83.6276 25.856 83.2356 25.728 82.7396 25.728C82.2116 25.728 81.6276 25.824 80.9876 26.016C80.3476 26.192 79.6996 26.424 79.0436 26.712L77.7236 23.688C78.4916 23.288 79.3556 22.992 80.3156 22.8C81.2916 22.592 82.3796 22.488 83.5796 22.488ZM83.3156 30.12C82.4836 30.152 81.8916 30.304 81.5396 30.576C81.2036 30.832 81.0356 31.2 81.0356 31.68C81.0356 32.128 81.1556 32.464 81.3956 32.688C81.6356 32.896 81.9556 33 82.3556 33C82.9156 33 83.3876 32.824 83.7716 32.472C84.1716 32.12 84.3716 31.664 84.3716 31.104V30.072L83.3156 30.12Z"/>
</defs>
</svg>
