<svg preserveAspectRatio="none" width="100%" height="100%" overflow="visible" style="display: block;" viewBox="0 0 96 96" fill="none" xmlns="http://www.w3.org/2000/svg">
<g id="Frame 211">
<rect width="96" height="96" rx="24" fill="var(--fill-0, #DDECFF)"/>
<path id="Vector" fill-rule="evenodd" clip-rule="evenodd" d="M35.6519 15.8839C34.9296 16.2422 35.1322 15.9285 29.2394 25.8137L24.3177 34.0697L17.1168 34.1564L9.91585 34.2432L9.25028 34.9617C8.20804 36.0867 8.11513 37.5863 9.02032 38.669C9.66486 39.4402 10.302 39.7091 11.4839 39.7091C12.0576 39.7091 12.5268 39.7466 12.5268 39.7926C12.5268 40.2217 17.9222 72.9157 18.0684 73.3724C19.0443 76.4208 21.6655 79.0641 24.6497 80.0085L25.8865 80.4H48.0379H70.1892L71.4261 80.0085C74.4102 79.0641 77.0315 76.4208 78.0073 73.3724C78.1535 72.9157 83.549 40.2217 83.549 39.7926C83.549 39.7466 84.0416 39.7091 84.644 39.7091C86.5026 39.7091 87.6 38.6784 87.6 36.9328C87.6 35.8354 87.3178 35.281 86.4133 34.601C85.9556 34.2567 85.6688 34.2399 78.8498 34.1564L71.762 34.0697L66.4818 25.22C61.7812 17.3418 61.1272 16.3279 60.524 15.9828C59.1697 15.2084 57.3159 15.681 56.6319 16.975C56.2163 17.7614 56.2192 19.0638 56.6386 19.8912C56.8181 20.2452 58.7929 23.5997 61.027 27.3457L65.0891 34.1564H48.0379H30.9867L35.0487 27.3457C37.2828 23.5997 39.2577 20.2452 39.4371 19.8912C39.8565 19.0638 39.8595 17.7614 39.4438 16.975C38.7986 15.7544 36.9726 15.229 35.6519 15.8839ZM34.7493 47.651C34.9946 47.8338 35.3697 48.2415 35.5831 48.557L35.971 49.1307V57.2197C35.971 66.2559 35.9958 66.0589 34.7467 66.9241C34.2578 67.2627 33.9969 67.3182 33.1696 67.2601C32.3642 67.2033 32.0772 67.0947 31.64 66.6807C30.6207 65.7159 30.6271 65.7751 30.6271 57.2772C30.6271 49.5568 30.63 49.4942 31.015 48.7257C31.7272 47.3038 33.5716 46.7732 34.7493 47.651ZM48.8455 47.3547C49.7281 47.6897 50.4218 48.5348 50.6257 49.5233C50.749 50.121 50.7955 52.9822 50.7615 57.8682C50.7119 65.0062 50.6957 65.3279 50.3558 65.9104C49.268 67.774 46.8077 67.774 45.72 65.9104C45.3801 65.3279 45.3639 65.0062 45.3142 57.8682C45.2565 49.5586 45.3127 48.9301 46.1913 48.0755C47.0725 47.2181 47.896 46.9944 48.8455 47.3547ZM63.9037 47.561C64.4657 47.8463 64.7774 48.16 65.0608 48.7257C65.4457 49.4942 65.4487 49.5568 65.4487 57.2772C65.4487 65.7711 65.4545 65.7164 64.4393 66.6772C64.0175 67.0765 63.7038 67.2 62.9508 67.2628C62.1396 67.3305 61.8979 67.2765 61.3363 66.9024C60.0854 66.0692 60.1048 66.221 60.1048 57.2433C60.1048 48.6552 60.0944 48.7633 60.9934 47.9184C61.8643 47.0999 62.7752 46.9882 63.9037 47.561Z" fill="var(--fill-0, black)"/>
</g>
</svg>
